<?xml version="1.0" encoding="UTF-8"?>
<!DOCTYPE svg PUBLIC "-//W3C//DTD SVG 1.1//EN" "http://www.w3.org/Graphics/SVG/1.1/DTD/svg11.dtd">
<svg version="1.1" xmlns="http://www.w3.org/2000/svg" xmlns:xlink="http://www.w3.org/1999/xlink" x="0" y="0" width="300" height="200" viewBox="0, 0, 300, 200">
  <defs>
    <linearGradient id="Gradient_1" gradientUnits="userSpaceOnUse" x1="2.429" y1="156.166" x2="168.126" y2="156.166">
      <stop offset="0" stop-color="#AC98FF"/>
      <stop offset="0" stop-color="#AC98FF"/>
      <stop offset="1" stop-color="#BC48FF" stop-opacity="0.25"/>
    </linearGradient>
    <linearGradient id="Gradient_2" gradientUnits="userSpaceOnUse" x1="191.126" y1="119.341" x2="296.823" y2="119.341">
      <stop offset="0" stop-color="#9982F6"/>
      <stop offset="1" stop-color="#BC48FF" stop-opacity="0.25"/>
    </linearGradient>
    <linearGradient id="Gradient_3" gradientUnits="userSpaceOnUse" x1="56.021" y1="52.914" x2="124.688" y2="52.914">
      <stop offset="0" stop-color="#AC98FF"/>
      <stop offset="0" stop-color="#AC98FF"/>
      <stop offset="1" stop-color="#BC48FF" stop-opacity="0.25"/>
    </linearGradient>
  </defs>
  <g id="Layer_1" opacity="0.705">
    <path d="M218.505,87.23 L218.505,105.09 L296.823,103.067 L296.823,140.624 L218.505,130.321 L218.878,151.453 L191.126,116.495 L218.505,87.23 z" fill="#FFFFFF"/>
    <path d="M89.232,3.588 C106.323,3.024 124.688,27.684 124.688,54.928 C124.688,82.173 106.333,102.249 89.232,102.249 C70.461,102.249 56.021,80.889 56.021,53.645 C56.021,26.4 69.819,4.23 89.232,3.589 L89.232,3.588 z M80.991,38.504 C77.761,38.504 75.141,42.206 75.141,46.773 C75.141,51.34 77.761,55.042 80.991,55.041 C84.222,55.042 86.841,51.34 86.841,46.773 C86.841,42.206 84.222,38.504 80.991,38.504 z M106.508,38.999 C103.47,38.999 101.008,42.48 101.008,46.773 C101.008,51.066 103.47,54.547 106.508,54.547 C109.545,54.547 112.008,51.066 112.008,46.773 C112.008,42.48 109.545,38.999 106.508,38.999 z" fill="#FFFFFF"/>
    <path d="M93.059,117.526 C131.98,121.44 153.06,141.145 168.126,167.469 L2.429,195.143 C15.883,149.758 50.828,113.28 93.059,117.526 z" fill="#FFFFFF"/>
  </g>
  <g id="Layer_3">
    <path d="M93.059,117.526 C131.98,121.44 153.06,141.145 168.126,167.469 L2.429,195.143 C15.883,149.758 50.828,113.28 93.059,117.526 z" fill="url(#Gradient_1)"/>
    <path d="M218.505,87.23 L218.505,105.09 L296.823,103.067 L296.823,140.624 L218.505,130.321 L218.878,151.453 L191.126,116.495 L218.505,87.23 z" fill="url(#Gradient_2)"/>
    <path d="M89.232,3.588 C106.323,3.024 124.688,27.684 124.688,54.928 C124.688,82.173 106.333,102.249 89.232,102.249 C70.461,102.249 56.021,80.889 56.021,53.645 C56.021,26.4 69.819,4.23 89.232,3.589 L89.232,3.588 z M80.991,38.504 C77.761,38.504 75.141,42.206 75.141,46.773 C75.141,51.34 77.761,55.042 80.991,55.041 C84.222,55.042 86.841,51.34 86.841,46.773 C86.841,42.206 84.222,38.504 80.991,38.504 z M106.508,38.999 C103.47,38.999 101.008,42.48 101.008,46.773 C101.008,51.066 103.47,54.547 106.508,54.547 C109.545,54.547 112.008,51.066 112.008,46.773 C112.008,42.48 109.545,38.999 106.508,38.999 z" fill="url(#Gradient_3)"/>
  </g>
</svg>
