<?xml version="1.0" encoding="UTF-8"?>
<!DOCTYPE svg PUBLIC "-//W3C//DTD SVG 1.1//EN" "http://www.w3.org/Graphics/SVG/1.1/DTD/svg11.dtd">
<svg version="1.1" xmlns="http://www.w3.org/2000/svg" xmlns:xlink="http://www.w3.org/1999/xlink" x="0" y="0" width="300" height="200" viewBox="0, 0, 300, 200">
  <defs>
    <linearGradient id="Gradient_1" gradientUnits="userSpaceOnUse" x1="131.126" y1="156.166" x2="296.823" y2="156.166">
      <stop offset="0" stop-color="#AC98FF"/>
      <stop offset="0" stop-color="#AC98FF"/>
      <stop offset="1" stop-color="#BC48FF" stop-opacity="0.25"/>
    </linearGradient>
    <linearGradient id="Gradient_2" gradientUnits="userSpaceOnUse" x1="2.429" y1="119.341" x2="108.126" y2="119.341">
      <stop offset="0" stop-color="#9982F6"/>
      <stop offset="1" stop-color="#BC48FF" stop-opacity="0.25"/>
    </linearGradient>
    <linearGradient id="Gradient_3" gradientUnits="userSpaceOnUse" x1="174.564" y1="52.914" x2="243.231" y2="52.914">
      <stop offset="0" stop-color="#AC98FF"/>
      <stop offset="0" stop-color="#AC98FF"/>
      <stop offset="1" stop-color="#BC48FF" stop-opacity="0.25"/>
    </linearGradient>
  </defs>
  <g id="Layer_1" opacity="0.705">
    <path d="M80.747,87.23 L80.747,105.09 L2.429,103.067 L2.429,140.624 L80.747,130.321 L80.374,151.453 L108.126,116.495 L80.747,87.23 z" fill="#FFFFFF"/>
    <path d="M210.021,3.588 C192.929,3.024 174.564,27.684 174.564,54.928 C174.564,82.173 192.919,102.249 210.02,102.249 C228.792,102.249 243.231,80.889 243.231,53.645 C243.231,26.4 229.433,4.23 210.02,3.589 L210.021,3.588 z M218.261,38.504 C221.492,38.504 224.111,42.206 224.111,46.773 C224.111,51.34 221.492,55.042 218.261,55.041 C215.03,55.042 212.411,51.34 212.411,46.773 C212.411,42.206 215.03,38.504 218.261,38.504 z M192.744,38.999 C195.782,38.999 198.244,42.48 198.244,46.773 C198.244,51.066 195.782,54.547 192.744,54.547 C189.707,54.547 187.244,51.066 187.244,46.773 C187.244,42.48 189.707,38.999 192.744,38.999 z" fill="#FFFFFF"/>
    <path d="M206.194,117.526 C167.273,121.44 146.192,141.145 131.126,167.469 L296.823,195.143 C283.37,149.758 248.424,113.28 206.194,117.526 z" fill="#FFFFFF"/>
  </g>
  <g id="Layer_3">
    <path d="M206.194,117.526 C167.273,121.44 146.192,141.145 131.126,167.468 L296.823,195.143 C283.37,149.758 248.424,113.28 206.194,117.526 z" fill="url(#Gradient_1)"/>
    <path d="M80.747,87.23 L80.747,105.09 L2.429,103.067 L2.429,140.624 L80.747,130.321 L80.374,151.453 L108.126,116.495 L80.747,87.23 z" fill="url(#Gradient_2)"/>
    <path d="M210.021,3.588 C192.929,3.024 174.564,27.684 174.564,54.928 C174.564,82.173 192.919,102.249 210.02,102.249 C228.792,102.249 243.231,80.889 243.231,53.645 C243.231,26.4 229.433,4.23 210.02,3.589 L210.021,3.588 z M218.261,38.504 C221.492,38.504 224.111,42.206 224.111,46.773 C224.111,51.34 221.492,55.042 218.261,55.041 C215.03,55.042 212.411,51.34 212.411,46.773 C212.411,42.206 215.03,38.504 218.261,38.504 z M192.744,38.999 C195.782,38.999 198.244,42.48 198.244,46.773 C198.244,51.066 195.782,54.547 192.744,54.547 C189.707,54.547 187.244,51.066 187.244,46.773 C187.244,42.48 189.707,38.999 192.744,38.999 z" fill="url(#Gradient_3)"/>
  </g>
</svg>
