<?xml version="1.0" encoding="UTF-8"?>
<!DOCTYPE svg PUBLIC "-//W3C//DTD SVG 1.1//EN" "http://www.w3.org/Graphics/SVG/1.1/DTD/svg11.dtd">
<svg version="1.1" xmlns="http://www.w3.org/2000/svg" xmlns:xlink="http://www.w3.org/1999/xlink" x="0" y="0" width="612" height="286" viewBox="0, 0, 612, 286">
  <g id="Layer_4">
    <path d="M613,-1 L613,287 L-1,287 L-1,-1 L613,-1 z M387.868,158.896 Q386.118,158.896 385.01,159.946 Q383.902,160.996 383.901,162.551 Q383.902,164.068 385.01,165.099 Q386.118,166.129 387.868,166.129 Q389.579,166.129 390.688,165.099 Q391.796,164.068 391.796,162.551 Q391.796,160.996 390.688,159.946 Q389.579,158.896 387.868,158.896 z M365.935,158.896 Q364.185,158.896 363.077,159.946 Q361.968,160.996 361.968,162.551 Q361.968,164.068 363.077,165.099 Q364.185,166.129 365.935,166.129 Q367.646,166.129 368.754,165.099 Q369.863,164.068 369.863,162.551 Q369.863,160.996 368.754,159.946 Q367.646,158.896 365.935,158.896 z M376.901,158.896 Q375.152,158.896 374.043,159.946 Q372.935,160.996 372.935,162.551 Q372.935,164.068 374.043,165.099 Q375.152,166.129 376.901,166.129 Q378.613,166.129 379.721,165.099 Q380.829,164.068 380.829,162.551 Q380.829,160.996 379.721,159.946 Q378.613,158.896 376.901,158.896 z M423.413,138.518 L416.763,138.518 L416.763,165.818 L423.413,165.818 L423.413,148.979 L434.535,165.818 L441.185,165.818 L441.185,138.518 L434.535,138.518 L434.535,155.435 L423.413,138.518 z M412.446,138.518 L395.724,138.518 L395.724,165.818 L412.446,165.818 L412.446,160.49 L402.374,160.49 L402.374,154.501 L411.279,154.501 L411.279,149.368 L402.374,149.368 L402.374,143.846 L412.446,143.846 L412.446,138.518 z M456.235,138.518 L446.007,138.518 L446.007,165.818 L456.235,165.818 Q460.513,165.818 463.76,164.107 Q467.007,162.396 468.776,159.285 Q470.546,156.174 470.546,152.168 Q470.546,148.124 468.776,145.032 Q467.007,141.94 463.779,140.229 Q460.552,138.518 456.235,138.518 z M455.807,144.196 Q459.579,144.196 461.679,146.296 Q463.779,148.396 463.779,152.168 Q463.779,155.94 461.679,158.001 Q459.579,160.063 455.807,160.062 L452.657,160.062 L452.657,144.196 L455.807,144.196 z M199.725,83.377 Q195.876,83.377 192.667,85.166 Q189.459,86.955 187.573,90.143 Q185.687,93.332 185.687,97.338 Q185.687,101.343 187.573,104.552 Q189.459,107.76 192.667,109.549 Q195.876,111.338 199.725,111.338 Q203.576,111.338 206.764,109.549 Q209.953,107.76 211.82,104.552 Q213.687,101.343 213.687,97.338 Q213.687,93.332 211.839,90.143 Q209.992,86.955 206.784,85.166 Q203.576,83.377 199.725,83.377 z M199.725,89.405 Q202.992,89.405 204.956,91.563 Q206.92,93.721 206.92,97.338 Q206.92,100.916 204.956,103.093 Q202.992,105.271 199.725,105.271 Q196.42,105.271 194.456,103.113 Q192.492,100.955 192.492,97.338 Q192.492,93.682 194.456,91.543 Q196.42,89.405 199.725,89.405 z M266.264,83.766 L245.148,83.766 L245.148,89.093 L252.381,89.093 L252.381,111.066 L259.031,111.066 L259.031,89.093 L266.264,89.093 L266.264,83.766 z M157.959,83.766 L140.187,83.766 L140.187,111.066 L146.837,111.066 L146.837,100.021 L155.159,100.021 L155.159,94.849 L146.837,94.849 L146.837,89.093 L157.959,89.093 L157.959,83.766 z M172.62,83.766 L161.459,83.766 L161.459,111.066 L168.109,111.066 L168.109,100.76 L169.703,100.76 L175.381,111.066 L182.887,111.066 L176.587,100.254 Q179.581,99.36 181.117,97.221 Q182.653,95.082 182.653,92.36 Q182.653,89.949 181.525,87.985 Q180.398,86.021 178.123,84.893 Q175.848,83.766 172.62,83.766 z M172.231,89.288 Q174.059,89.288 174.973,90.182 Q175.887,91.077 175.887,92.632 Q175.887,94.266 174.973,95.16 Q174.059,96.055 172.231,96.054 L168.109,96.054 L168.109,89.288 L172.231,89.288 z M224.031,83.766 L217.381,83.766 L217.381,111.066 L224.031,111.066 L224.031,94.227 L235.153,111.066 L241.803,111.066 L241.803,83.766 L235.153,83.766 L235.153,100.682 L224.031,83.766 z" fill="#FFFFFF"/>
  </g>
  <g id="logo" opacity="0">
    <g>
      <g>
        <g>
          <path d="M482.606,52.025 C482.606,54.527 480.578,56.555 478.076,56.555 C475.574,56.555 473.546,54.527 473.546,52.025 C473.546,49.523 475.574,47.495 478.076,47.495 C480.578,47.495 482.606,49.523 482.606,52.025 z" fill="#757575"/>
          <path d="M482.606,52.025 C482.606,54.527 480.578,56.555 478.076,56.555 C475.574,56.555 473.546,54.527 473.546,52.025 C473.546,49.523 475.574,47.495 478.076,47.495 C480.578,47.495 482.606,49.523 482.606,52.025 z" fill-opacity="0" stroke="#757575" stroke-width="1"/>
        </g>
        <g>
          <path d="M482.606,52.025 C482.606,54.527 480.578,56.555 478.076,56.555 C475.574,56.555 473.546,54.527 473.546,52.025 C473.546,49.523 475.574,47.495 478.076,47.495 C480.578,47.495 482.606,49.523 482.606,52.025 z" fill="#757575"/>
          <path d="M482.606,52.025 C482.606,54.527 480.578,56.555 478.076,56.555 C475.574,56.555 473.546,54.527 473.546,52.025 C473.546,49.523 475.574,47.495 478.076,47.495 C480.578,47.495 482.606,49.523 482.606,52.025 z" fill-opacity="0" stroke="#757575" stroke-width="1"/>
        </g>
      </g>
      <g>
        <path d="M482.606,52.025 C482.606,54.527 480.578,56.555 478.076,56.555 C475.574,56.555 473.546,54.527 473.546,52.025 C473.546,49.523 475.574,47.495 478.076,47.495 C480.578,47.495 482.606,49.523 482.606,52.025 z" fill="#757575"/>
        <path d="M482.606,52.025 C482.606,54.527 480.578,56.555 478.076,56.555 C475.574,56.555 473.546,54.527 473.546,52.025 C473.546,49.523 475.574,47.495 478.076,47.495 C480.578,47.495 482.606,49.523 482.606,52.025 z" fill-opacity="0" stroke="#757575" stroke-width="1"/>
      </g>
    </g>
    <path d="M478.076,42.815 C484.157,42.815 489.807,43.688 494.066,45.153 C499.198,46.92 502.354,49.598 502.354,52.023 C502.354,54.551 499.009,57.397 493.499,59.221 C489.332,60.602 483.848,61.323 478.076,61.323 C472.156,61.323 466.553,60.647 462.338,59.207 C457.007,57.385 453.796,54.503 453.796,52.023 C453.796,49.618 456.81,46.96 461.87,45.197 C466.145,43.707 471.935,42.815 478.076,42.815 z" fill-opacity="0" stroke="#757575" stroke-width="1" stroke-miterlimit="10"/>
    <path d="M470.059,47.447 C473.096,42.179 476.676,37.72 480.074,34.764 C484.169,31.201 488.066,29.805 490.166,31.016 C492.355,32.278 493.15,36.598 491.978,42.285 C491.091,46.585 488.977,51.694 486.093,56.696 C483.136,61.823 479.749,66.34 476.397,69.271 C472.156,72.98 468.054,74.321 465.907,73.083 C463.823,71.881 463.027,67.943 464.026,62.678 C464.87,58.226 466.99,52.766 470.059,47.447 z" fill-opacity="0" stroke="#757575" stroke-width="1" stroke-miterlimit="10"/>
    <path d="M470.066,56.706 C467.02,51.443 464.945,46.116 464.079,41.695 C463.037,36.368 463.774,32.295 465.873,31.081 C468.06,29.814 472.198,31.283 476.54,35.138 C479.823,38.053 483.193,42.436 486.085,47.433 C489.051,52.556 491.274,57.745 492.138,62.112 C493.232,67.64 492.346,71.863 490.201,73.104 C488.118,74.309 484.31,73.034 480.246,69.538 C476.815,66.584 473.143,62.021 470.066,56.706 z" fill-opacity="0" stroke="#757575" stroke-width="1" stroke-miterlimit="10"/>
  </g>
</svg>
