<?xml version="1.0" encoding="UTF-8"?>
<!DOCTYPE svg PUBLIC "-//W3C//DTD SVG 1.1//EN" "http://www.w3.org/Graphics/SVG/1.1/DTD/svg11.dtd">
<svg version="1.1" xmlns="http://www.w3.org/2000/svg" xmlns:xlink="http://www.w3.org/1999/xlink" x="0" y="0" width="612" height="286" viewBox="0, 0, 612, 286">
  <g id="Layer_4">
    <path d="M613,-1 L613,287 L-1,287 L-1,-1 L613,-1 z M392.868,158.896 Q391.118,158.896 390.01,159.946 Q388.902,160.996 388.901,162.551 Q388.902,164.068 390.01,165.099 Q391.118,166.129 392.868,166.129 Q394.579,166.129 395.688,165.099 Q396.796,164.068 396.796,162.551 Q396.796,160.996 395.688,159.946 Q394.579,158.896 392.868,158.896 z M370.935,158.896 Q369.185,158.896 368.077,159.946 Q366.968,160.996 366.968,162.551 Q366.968,164.068 368.077,165.099 Q369.185,166.129 370.935,166.129 Q372.646,166.129 373.754,165.099 Q374.863,164.068 374.863,162.551 Q374.863,160.996 373.754,159.946 Q372.646,158.896 370.935,158.896 z M381.901,158.896 Q380.152,158.896 379.043,159.946 Q377.935,160.996 377.935,162.551 Q377.935,164.068 379.043,165.099 Q380.152,166.129 381.901,166.129 Q383.613,166.129 384.721,165.099 Q385.829,164.068 385.829,162.551 Q385.829,160.996 384.721,159.946 Q383.613,158.896 381.901,158.896 z M428.413,138.518 L421.763,138.518 L421.763,165.818 L428.413,165.818 L428.413,148.979 L439.535,165.818 L446.185,165.818 L446.185,138.518 L439.535,138.518 L439.535,155.435 L428.413,138.518 z M417.446,138.518 L400.724,138.518 L400.724,165.818 L417.446,165.818 L417.446,160.49 L407.374,160.49 L407.374,154.501 L416.279,154.501 L416.279,149.368 L407.374,149.368 L407.374,143.846 L417.446,143.846 L417.446,138.518 z M461.235,138.518 L451.007,138.518 L451.007,165.818 L461.235,165.818 Q465.513,165.818 468.76,164.107 Q472.007,162.396 473.776,159.285 Q475.546,156.174 475.546,152.168 Q475.546,148.124 473.776,145.032 Q472.007,141.94 468.779,140.229 Q465.552,138.518 461.235,138.518 z M460.807,144.196 Q464.579,144.196 466.679,146.296 Q468.779,148.396 468.779,152.168 Q468.779,155.94 466.679,158.001 Q464.579,160.063 460.807,160.062 L457.657,160.062 L457.657,144.196 L460.807,144.196 z M194.725,82.377 Q190.876,82.377 187.667,84.166 Q184.459,85.955 182.573,89.143 Q180.687,92.332 180.687,96.338 Q180.687,100.343 182.573,103.552 Q184.459,106.76 187.667,108.549 Q190.876,110.338 194.725,110.338 Q198.576,110.338 201.764,108.549 Q204.953,106.76 206.82,103.552 Q208.687,100.343 208.687,96.338 Q208.687,92.332 206.839,89.143 Q204.992,85.955 201.784,84.166 Q198.576,82.377 194.725,82.377 z M194.725,88.405 Q197.992,88.405 199.956,90.563 Q201.92,92.721 201.92,96.338 Q201.92,99.916 199.956,102.093 Q197.992,104.271 194.725,104.271 Q191.42,104.271 189.456,102.113 Q187.492,99.955 187.492,96.338 Q187.492,92.682 189.456,90.543 Q191.42,88.405 194.725,88.405 z M261.264,82.766 L240.148,82.766 L240.148,88.093 L247.381,88.093 L247.381,110.066 L254.031,110.066 L254.031,88.093 L261.264,88.093 L261.264,82.766 z M152.959,82.766 L135.187,82.766 L135.187,110.066 L141.837,110.066 L141.837,99.021 L150.159,99.021 L150.159,93.849 L141.837,93.849 L141.837,88.093 L152.959,88.093 L152.959,82.766 z M167.62,82.766 L156.459,82.766 L156.459,110.066 L163.109,110.066 L163.109,99.76 L164.703,99.76 L170.381,110.066 L177.887,110.066 L171.587,99.254 Q174.581,98.36 176.117,96.221 Q177.653,94.082 177.653,91.36 Q177.653,88.949 176.525,86.985 Q175.398,85.021 173.123,83.893 Q170.848,82.766 167.62,82.766 z M167.231,88.288 Q169.059,88.288 169.973,89.182 Q170.887,90.077 170.887,91.632 Q170.887,93.266 169.973,94.16 Q169.059,95.055 167.231,95.054 L163.109,95.054 L163.109,88.288 L167.231,88.288 z M219.031,82.766 L212.381,82.766 L212.381,110.066 L219.031,110.066 L219.031,93.227 L230.153,110.066 L236.803,110.066 L236.803,82.766 L230.153,82.766 L230.153,99.682 L219.031,82.766 z" fill="#383838"/>
  </g>
  <g id="logo" opacity="0">
    <g>
      <g>
        <path d="M482.606,52.025 C482.606,54.527 480.578,56.555 478.076,56.555 C475.574,56.555 473.546,54.527 473.546,52.025 C473.546,49.523 475.574,47.495 478.076,47.495 C480.578,47.495 482.606,49.523 482.606,52.025 z" fill="#F2F2F2"/>
        <path d="M482.606,52.025 C482.606,54.527 480.578,56.555 478.076,56.555 C475.574,56.555 473.546,54.527 473.546,52.025 C473.546,49.523 475.574,47.495 478.076,47.495 C480.578,47.495 482.606,49.523 482.606,52.025 z" fill-opacity="0" stroke="#F2F2F2" stroke-width="1"/>
      </g>
      <path d="M482.606,52.025 C482.606,54.527 480.578,56.555 478.076,56.555 C475.574,56.555 473.546,54.527 473.546,52.025 C473.546,49.523 475.574,47.495 478.076,47.495 C480.578,47.495 482.606,49.523 482.606,52.025 z" fill-opacity="0" stroke="#F2F2F2" stroke-width="1"/>
    </g>
    <path d="M478.076,42.815 C484.157,42.815 489.807,43.688 494.066,45.153 C499.198,46.92 502.354,49.598 502.354,52.023 C502.354,54.551 499.009,57.397 493.499,59.221 C489.332,60.602 483.848,61.323 478.076,61.323 C472.156,61.323 466.553,60.647 462.338,59.207 C457.007,57.385 453.796,54.503 453.796,52.023 C453.796,49.618 456.81,46.96 461.87,45.197 C466.145,43.707 471.935,42.815 478.076,42.815 z" fill-opacity="0" stroke="#F2F2F2" stroke-width="1" stroke-miterlimit="10"/>
    <path d="M470.059,47.447 C473.096,42.179 476.676,37.72 480.074,34.764 C484.169,31.201 488.066,29.805 490.166,31.016 C492.355,32.278 493.15,36.598 491.978,42.285 C491.091,46.585 488.977,51.694 486.093,56.696 C483.136,61.823 479.749,66.34 476.397,69.271 C472.156,72.98 468.054,74.321 465.907,73.083 C463.823,71.881 463.027,67.943 464.026,62.678 C464.87,58.226 466.99,52.766 470.059,47.447 z" fill-opacity="0" stroke="#F2F2F2" stroke-width="1" stroke-miterlimit="10"/>
    <path d="M470.066,56.706 C467.02,51.443 464.945,46.116 464.079,41.695 C463.037,36.368 463.774,32.295 465.873,31.081 C468.06,29.814 472.198,31.283 476.54,35.138 C479.823,38.053 483.193,42.436 486.085,47.433 C489.051,52.556 491.274,57.745 492.138,62.112 C493.232,67.64 492.346,71.863 490.201,73.104 C488.118,74.309 484.31,73.034 480.246,69.538 C476.815,66.584 473.143,62.021 470.066,56.706 z" fill-opacity="0" stroke="#F2F2F2" stroke-width="1" stroke-miterlimit="10"/>
  </g>
</svg>
