<?xml version="1.0" encoding="UTF-8"?>
<!DOCTYPE svg PUBLIC "-//W3C//DTD SVG 1.1//EN" "http://www.w3.org/Graphics/SVG/1.1/DTD/svg11.dtd">
<svg version="1.1" xmlns="http://www.w3.org/2000/svg" xmlns:xlink="http://www.w3.org/1999/xlink" x="0" y="0" width="612" height="286" viewBox="0, 0, 612, 286">
  <defs>
    <clipPath id="Clip_1">
      <path d="M503.11,-379.695 L503.11,-286.695 L-17.89,-286.695 L-17.89,-379.695 L503.11,-379.695 z"/>
    </clipPath>
    <clipPath id="Clip_2">
      <path d="M-79,-378 L460,-378 L460,-267 L-79,-267 z"/>
    </clipPath>
  </defs>
  <g id="Layer_1">
    <path d="M615,-3 L615,288 L-3,288 L-3,-3 L615,-3 z M191.477,76.887 C185.286,76.981 179.793,79.199 174.604,82.32 C169.16,86.217 164.866,91.453 162.153,97.499 C158.996,104.394 157.425,111.885 157.549,119.441 C157.428,127.016 159,134.525 162.153,141.442 C164.854,147.511 169.15,152.769 174.604,156.68 C184.891,163.943 198.772,163.943 209.059,156.68 C214.48,152.761 218.742,147.502 221.409,141.442 C224.535,134.517 226.092,127.011 225.973,119.441 C226.097,111.894 224.557,104.41 221.459,97.499 C218.8,91.448 214.532,86.206 209.099,82.32 C203.956,78.725 200.186,77.878 194.118,76.958 L191.477,76.887 z M191.802,95.253 C196.914,95.265 201.697,97.72 204.616,101.83 Q209.412,108.534 209.412,119.441 Q209.412,130.348 204.636,136.993 L204.616,136.993 C201.721,141.135 196.928,143.617 191.802,143.629 C186.676,143.641 181.872,141.181 178.957,137.052 Q174.17,130.585 174.16,119.441 Q174.15,108.297 178.957,101.771 C181.894,97.674 186.69,95.241 191.802,95.253 z M125.599,78.058 L98.334,78.058 L98.334,161.308 L114.592,161.308 L114.592,129.883 L118.53,129.883 L132.364,161.298 L150.662,161.308 L135.262,128.34 C139.985,126.675 143.932,123.391 146.37,119.095 C148.924,114.557 150.219,109.443 150.127,104.262 C150.192,99.674 149.252,95.125 147.37,90.923 C145.623,87.034 142.725,83.748 139.049,81.49 C134.993,79.111 130.324,77.921 125.599,78.058 z M124.69,94.898 Q129.153,94.898 131.395,97.617 C132.991,99.785 133.78,102.424 133.626,105.093 Q133.626,110.067 131.395,112.796 Q129.163,115.525 124.69,115.525 L114.592,115.525 L114.592,94.898 L124.69,94.898 z M251.248,78.058 L235.001,78.058 L235.001,161.298 L251.248,161.298 L251.248,109.958 L278.432,161.298 L294.69,161.298 L294.69,78.058 L278.432,78.058 L278.432,129.636 L251.248,78.058 z M423.652,78.058 L382.785,78.058 L382.785,161.298 L423.652,161.298 L423.652,145.051 L399.043,145.051 L399.043,126.798 L420.805,126.798 L420.805,111.095 L399.043,111.095 L399.043,94.285 L423.652,94.285 L423.652,78.058 z M450.452,78.058 L434.205,78.058 L434.205,161.298 L450.452,161.298 L450.452,109.958 L477.636,161.298 L493.884,161.298 L493.884,78.058 L477.636,78.058 L477.636,129.636 L450.452,78.058 z M89.781,78.058 L46.349,78.058 L46.349,161.298 L62.597,161.298 L62.597,127.618 L82.934,127.618 L82.934,111.847 L62.597,111.847 L62.597,94.285 L89.781,94.285 L89.781,78.058 z M530.661,78.058 L505.669,78.058 L505.669,161.288 L530.661,161.288 C537.192,161.418 543.609,159.601 549.06,156.077 C554.495,152.421 558.748,147.319 561.319,141.373 C564.307,134.518 565.78,127.121 565.641,119.668 C565.789,112.199 564.316,104.784 561.319,97.914 C558.741,92 554.504,86.923 549.1,83.27 C543.637,79.738 537.206,77.92 530.661,78.058 z M529.621,95.363 Q538.831,95.353 543.97,101.761 Q549.09,108.158 549.1,119.668 Q549.11,131.178 543.97,137.467 Q538.831,143.726 529.621,143.726 L521.926,143.726 L521.926,95.363 L529.621,95.363 z M354.471,78.058 L302.859,78.058 L302.859,94.285 L320.541,94.285 L320.541,161.278 L336.789,161.278 L336.789,94.285 L354.471,94.285 L354.471,78.058 z" fill="#383838" display="none"/>
  
 
  </g>
  <g id="Layer_3">
    <path d="M613,-1 L613,287 L-1,287 L-1,-1 L613,-1 z M452.072,131.954 L440.749,131.954 L440.749,178.609 L452.072,178.609 L452.072,149.831 L471.01,178.609 L482.333,178.609 L482.333,131.954 L471.01,131.954 L471.01,160.863 L452.072,131.954 z M433.399,131.954 L404.927,131.954 L404.927,178.609 L433.399,178.609 L433.399,169.503 L416.25,169.503 L416.25,159.268 L431.413,159.268 L431.413,150.495 L416.25,150.495 L416.25,141.059 L433.399,141.059 L433.399,131.954 z M507.958,131.954 L490.544,131.954 L490.544,178.609 L507.958,178.609 Q515.242,178.609 520.771,175.684 Q526.3,172.76 529.313,167.443 Q532.326,162.126 532.326,155.281 Q532.326,148.37 529.313,143.085 Q526.3,137.801 520.804,134.878 Q515.308,131.954 507.958,131.954 z M507.23,141.656 Q513.653,141.656 517.229,145.245 Q520.804,148.835 520.804,155.281 Q520.804,161.727 517.229,165.251 Q513.653,168.773 507.23,168.773 L501.866,168.773 L501.866,141.656 L507.23,141.656 z M390.518,166.23 Q387.548,166.23 385.667,168.012 Q383.786,169.794 383.786,172.434 Q383.786,175.008 385.667,176.757 Q387.548,178.506 390.518,178.505 Q393.422,178.506 395.303,176.757 Q397.184,175.008 397.184,172.434 Q397.184,169.794 395.303,168.012 Q393.422,166.23 390.518,166.23 z M353.294,166.23 Q350.324,166.23 348.443,168.012 Q346.562,169.794 346.562,172.434 Q346.562,175.008 348.443,176.757 Q350.324,178.506 353.294,178.505 Q356.198,178.506 358.079,176.757 Q359.96,175.008 359.96,172.434 Q359.96,169.794 358.079,168.012 Q356.198,166.23 353.294,166.23 z M371.906,166.23 Q368.936,166.23 367.055,168.012 Q365.174,169.794 365.174,172.434 Q365.174,175.008 367.055,176.757 Q368.936,178.506 371.906,178.505 Q374.81,178.506 376.691,176.757 Q378.572,175.008 378.572,172.434 Q378.572,169.794 376.691,168.012 Q374.81,166.23 371.906,166.23 z M150.423,64.566 Q143.867,64.566 138.405,67.623 Q132.942,70.681 129.73,76.13 Q126.519,81.58 126.519,88.426 Q126.519,95.271 129.73,100.754 Q132.942,106.238 138.405,109.295 Q143.867,112.352 150.423,112.352 Q156.978,112.352 162.408,109.295 Q167.837,106.238 171.016,100.754 Q174.194,95.271 174.194,88.426 Q174.194,81.58 171.049,76.13 Q167.904,70.681 162.441,67.623 Q156.978,64.566 150.423,64.566 z M150.423,74.868 Q155.985,74.868 159.329,78.556 Q162.673,82.245 162.673,88.426 Q162.673,94.54 159.329,98.262 Q155.985,101.984 150.423,101.984 Q144.794,101.984 141.45,98.295 Q138.107,94.607 138.107,88.426 Q138.107,82.179 141.45,78.523 Q144.794,74.868 150.423,74.868 z M263.718,65.231 L227.763,65.231 L227.763,74.336 L240.079,74.336 L240.079,111.887 L251.402,111.887 L251.402,74.336 L263.718,74.336 L263.718,65.231 z M79.307,65.231 L49.046,65.231 L49.046,111.887 L60.369,111.887 L60.369,93.012 L74.539,93.012 L74.539,84.172 L60.369,84.172 L60.369,74.336 L79.307,74.336 L79.307,65.231 z M104.27,65.231 L85.266,65.231 L85.266,111.887 L96.589,111.887 L96.589,94.274 L99.304,94.274 L108.972,111.887 L121.751,111.887 L111.024,93.41 Q116.123,91.882 118.739,88.226 Q121.354,84.571 121.354,79.919 Q121.354,75.798 119.434,72.442 Q117.514,69.086 113.64,67.158 Q109.766,65.231 104.27,65.231 z M103.608,74.668 Q106.72,74.668 108.276,76.197 Q109.833,77.726 109.833,80.384 Q109.833,83.175 108.276,84.704 Q106.72,86.233 103.608,86.233 L96.589,86.233 L96.589,74.668 L103.608,74.668 z M191.808,65.231 L180.485,65.231 L180.485,111.887 L191.808,111.887 L191.808,83.109 L210.745,111.887 L222.068,111.887 L222.068,65.231 L210.745,65.231 L210.745,94.142 L191.808,65.231 z" fill="#FFFFFF"/>
  </g>
  <g id="logo">
    <g>
      <path d="M544.606,76.025 C544.606,78.527 542.578,80.555 540.076,80.555 C537.574,80.555 535.546,78.527 535.546,76.025 C535.546,73.523 537.574,71.495 540.076,71.495 C542.578,71.495 544.606,73.523 544.606,76.025 z" fill="#757575"/>
      <path d="M544.606,76.025 C544.606,78.527 542.578,80.555 540.076,80.555 C537.574,80.555 535.546,78.527 535.546,76.025 C535.546,73.523 537.574,71.495 540.076,71.495 C542.578,71.495 544.606,73.523 544.606,76.025 z" fill-opacity="0" stroke="#757575" stroke-width="1"/>
    </g>
    <path d="M540.076,66.815 C546.157,66.815 551.807,67.688 556.066,69.153 C561.198,70.92 564.354,73.598 564.354,76.023 C564.354,78.551 561.009,81.397 555.499,83.221 C551.332,84.602 545.848,85.323 540.076,85.323 C534.156,85.323 528.553,84.647 524.338,83.207 C519.007,81.385 515.796,78.503 515.796,76.023 C515.796,73.618 518.81,70.96 523.87,69.197 C528.145,67.707 533.935,66.815 540.076,66.815 z" fill-opacity="0" stroke="#757575" stroke-width="1" stroke-miterlimit="10"/>
    <path d="M532.059,71.447 C535.096,66.179 538.676,61.72 542.074,58.764 C546.169,55.201 550.066,53.805 552.166,55.016 C554.355,56.278 555.15,60.598 553.978,66.285 C553.091,70.585 550.977,75.694 548.093,80.696 C545.136,85.823 541.749,90.34 538.397,93.271 C534.156,96.98 530.054,98.321 527.907,97.083 C525.823,95.881 525.027,91.943 526.026,86.678 C526.87,82.226 528.99,76.766 532.059,71.447 z" fill-opacity="0" stroke="#757575" stroke-width="1" stroke-miterlimit="10"/>
    <path d="M532.066,80.706 C529.02,75.443 526.945,70.116 526.079,65.695 C525.037,60.368 525.774,56.295 527.873,55.081 C530.06,53.814 534.198,55.283 538.54,59.138 C541.823,62.053 545.193,66.436 548.085,71.433 C551.051,76.556 553.274,81.745 554.138,86.112 C555.232,91.64 554.346,95.863 552.201,97.104 C550.118,98.309 546.31,97.034 542.246,93.538 C538.815,90.584 535.143,86.021 532.066,80.706 z" fill-opacity="0" stroke="#757575" stroke-width="1" stroke-miterlimit="10"/>
  </g>
</svg>
