<?xml version="1.0" encoding="UTF-8"?>
<!DOCTYPE svg PUBLIC "-//W3C//DTD SVG 1.1//EN" "http://www.w3.org/Graphics/SVG/1.1/DTD/svg11.dtd">
<svg version="1.1" xmlns="http://www.w3.org/2000/svg" xmlns:xlink="http://www.w3.org/1999/xlink" x="0" y="0" width="300" height="200" viewBox="0, 0, 300, 200">
  <defs>
    <linearGradient id="Gradient_1" gradientUnits="userSpaceOnUse" x1="131.058" y1="148.903" x2="285.728" y2="148.903">
      <stop offset="0" stop-color="#AC98FF"/>
      <stop offset="0" stop-color="#5F41DB" stop-opacity="0.8"/>
      <stop offset="0" stop-color="#AC98FF"/>
      <stop offset="1" stop-color="#C16EF1" stop-opacity="0.251"/>
    </linearGradient>
    <linearGradient id="Gradient_2" gradientUnits="userSpaceOnUse" x1="2.429" y1="117.523" x2="168.147" y2="117.523">
      <stop offset="0" stop-color="#AC98FF"/>
      <stop offset="0" stop-color="#5F41DB" stop-opacity="0.8"/>
      <stop offset="0" stop-color="#AC98FF"/>
      <stop offset="1" stop-color="#C16EF1" stop-opacity="0.251"/>
    </linearGradient>
    <linearGradient id="Gradient_3" gradientUnits="userSpaceOnUse" x1="7.858" y1="155.439" x2="162.718" y2="155.439">
      <stop offset="0" stop-color="#AC98FF"/>
      <stop offset="0" stop-color="#5F41DB" stop-opacity="0.8"/>
      <stop offset="0" stop-color="#AC98FF"/>
      <stop offset="1" stop-color="#C16EF1" stop-opacity="0.251"/>
    </linearGradient>
    <linearGradient id="Gradient_4" gradientUnits="userSpaceOnUse" x1="197.169" y1="168.891" x2="278.853" y2="168.891">
      <stop offset="0" stop-color="#AC98FF"/>
      <stop offset="0" stop-color="#5F41DB" stop-opacity="0.8"/>
      <stop offset="0" stop-color="#AC98FF"/>
      <stop offset="1" stop-color="#C16EF1" stop-opacity="0.251"/>
    </linearGradient>
    <linearGradient id="Gradient_5" gradientUnits="userSpaceOnUse" x1="220.482" y1="38.516" x2="298.429" y2="38.516">
      <stop offset="0" stop-color="#AC98FF"/>
      <stop offset="0" stop-color="#5F41DB" stop-opacity="0.8"/>
      <stop offset="0" stop-color="#AC98FF"/>
      <stop offset="1" stop-color="#C16EF1" stop-opacity="0.251"/>
    </linearGradient>
    <linearGradient id="Gradient_6" gradientUnits="userSpaceOnUse" x1="191.436" y1="33.149" x2="280.3" y2="33.149">
      <stop offset="0" stop-color="#AC98FF"/>
      <stop offset="0" stop-color="#5F41DB" stop-opacity="0.8"/>
      <stop offset="0" stop-color="#AC98FF"/>
      <stop offset="1" stop-color="#C16EF1" stop-opacity="0.251"/>
    </linearGradient>
    <linearGradient id="Gradient_7" gradientUnits="userSpaceOnUse" x1="191.436" y1="33.149" x2="280.3" y2="33.149">
      <stop offset="0" stop-color="#AC98FF"/>
      <stop offset="0" stop-color="#5F41DB" stop-opacity="0.8"/>
      <stop offset="0" stop-color="#AC98FF"/>
      <stop offset="1" stop-color="#C16EF1" stop-opacity="0.251"/>
    </linearGradient>
  </defs>
  <g id="Layer_1">
    <path d="M285.728,175.536 L229.305,191.319 L131.058,171.591 L191.427,162.121 L191.427,106.487 L191.435,106.515 L285.728,106.882 L285.728,175.536 z" fill="url(#Gradient_1)"/>
    <path d="M168.147,57.561 L2.429,36.624 L2.429,183.033 L75.029,172.596 L75.029,198.421 L114.486,190.578 L114.486,166.923 L168.147,159.208 L168.147,57.561 z" fill="url(#Gradient_2)"/>
    <path d="M7.858,163.872 L162.718,147.005" fill="url(#Gradient_3)"/>
    <path d="M197.169,162.759 L278.853,175.022" fill="url(#Gradient_4)"/>
    <path d="M260.381,11.59 C283.537,6.414 282.239,29.905 283.131,29.594 C289.698,27.305 298.06,33.671 298.413,42.587 C298.765,51.487 293.41,56.502 283.224,58.645 L232.608,66.081 C226.813,67.036 220.952,61.339 220.513,55.218 C220.106,48.576 223.682,43.479 229.081,42.073 C228.934,39.978 229.137,36.436 230.07,34.521 C232.606,29.72 237.871,26.897 242.792,28.116 C246.283,21.726 246.876,15.645 259.568,11.812 L260.381,11.59 z" fill="url(#Gradient_5)" id="Layer_2"/>
    <g id="Layer_2">
      <path d="M236.923,2.476 C263.322,-3.425 261.842,21.729 262.859,21.374 C270.346,18.764 279.879,26.022 280.281,36.187 C280.682,46.334 274.578,52.051 262.966,54.493 L205.26,64.599 C198.653,65.688 191.971,59.193 191.471,52.214 C191.007,44.642 195.084,38.831 201.24,37.228 C201.071,34.84 201.303,30.802 202.366,28.618 C205.257,23.145 211.26,19.926 216.87,21.316 C220.85,14.032 221.526,7.098 235.996,2.728 L236.923,2.476 z" fill="url(#Gradient_6)"/>
      <path d="M236.923,2.476 C263.322,-3.425 261.842,21.729 262.859,21.374 C270.346,18.764 279.879,26.022 280.281,36.187 C280.682,46.334 274.578,52.051 262.966,54.493 L205.26,64.599 C198.653,65.688 191.971,59.193 191.471,52.214 C191.007,44.642 195.084,38.831 201.24,37.228 C201.071,34.84 201.303,30.802 202.366,28.618 C205.257,23.145 211.26,19.926 216.87,21.316 C220.85,14.032 221.526,7.098 235.996,2.728 L236.923,2.476 z" fill="url(#Gradient_7)"/>
    </g>
  </g>
</svg>
