<?xml version="1.0" encoding="UTF-8"?>
<!DOCTYPE svg PUBLIC "-//W3C//DTD SVG 1.1//EN" "http://www.w3.org/Graphics/SVG/1.1/DTD/svg11.dtd">
<svg version="1.1" xmlns="http://www.w3.org/2000/svg" xmlns:xlink="http://www.w3.org/1999/xlink" x="0" y="0" width="1028" height="670" viewBox="0, 0, 1028, 670">
  <defs>
    <clipPath id="Clip_1">
      <path d="M736.081,219.747 L929.223,209.575 L953.187,664.599 L760.045,674.771 z"/>
    </clipPath>
  </defs>
  <g id="Layer_2" opacity="0.101">
    <path d="M707.33,530.34 C561.157,530.34 442.66,411.843 442.66,265.67 C442.66,119.497 561.157,1 707.33,1 C853.503,1 972,119.497 972,265.67 C972,411.843 853.503,530.34 707.33,530.34 z" fill="#FFFFFF"/>
    <path d="M243.715,652.798 C115.46,652.798 11.488,548.826 11.488,420.57 C11.488,292.315 115.46,188.343 243.715,188.343 C371.971,188.343 475.943,292.315 475.943,420.57 C475.943,548.826 371.971,652.798 243.715,652.798 z" fill="#FFFFFF"/>
  </g>
  <g id="Layer_3">
    <path d="M925.029,58.869 C925.619,60.617 926.168,62.19 926.676,63.775 C926.84,64.286 927.068,64.544 927.645,64.664 C935.118,66.223 940.157,72.675 939.977,80.398 C939.807,87.664 934.29,93.885 926.958,95.082 C926.78,95.111 926.606,95.165 926.499,95.191 C931.185,109.576 927.488,121.193 915.32,130.147 L915.335,130.179 L917.088,130.179 L917.088,134.226 C852.78,134.22 828.731,134.227 826.682,134.217 C826.645,134.214 826.505,130.19 826.708,130.179 C826.757,130.176 891.714,130.001 899.827,130.227 C908.902,130.48 918.815,125.081 922.797,114.97 C928.486,100.528 919.333,84.501 903.966,82.304 C894.035,80.885 886.138,84.618 880.281,92.724 C880.187,92.855 880.103,92.994 880.022,93.134 C879.983,93.202 879.964,93.282 879.885,93.493 C881.622,93.953 883.341,94.408 885.229,94.908 C881.528,98.695 877.939,102.369 874.2,106.194 C872.768,101.086 871.378,96.133 869.936,90.99 C871.964,91.499 873.826,91.966 875.557,92.4 C876.862,90.674 878.001,88.926 879.375,87.386 C891.581,73.711 913.3,75.146 923.617,90.299 C924.145,91.075 924.646,91.332 925.584,91.223 C930.856,90.615 934.831,86.983 935.815,81.779 C936.781,76.675 933.892,71.313 929.092,69.301 C928.946,69.24 928.791,69.195 928.478,69.087 C928.998,70.683 929.481,72.163 930.031,73.848 C924.831,72.791 919.792,71.767 914.563,70.703 C918.086,66.72 921.486,62.875 925.029,58.869 z" fill="#E6E6E6"/>
    <path d="M947.242,140.105 C947.247,127.73 947.242,126.118 947.242,124.292 C951.849,126.95 956.308,129.523 960.937,132.194 C956.345,134.847 951.892,137.419 947.242,140.105" fill="#E6E6E6"/>
    <path d="M920.578,130.18 L925.848,130.18 L925.848,134.226 L920.578,134.226 L920.578,130.18 z" fill="#E6E6E6"/>
    <path d="M929.339,130.18 L934.609,130.18 L934.609,134.226 L929.339,134.226 L929.339,130.18 z" fill="#E6E6E6"/>
    <path d="M938.094,130.18 L943.364,130.18 L943.364,134.226 L938.094,134.226 L938.094,130.18 z" fill="#E6E6E6"/>
    <path d="M800.348,130.176 L805.618,130.176 L805.618,134.222 L800.348,134.222 L800.348,130.176 z" fill="#E6E6E6"/>
    <path d="M809.109,130.176 L814.379,130.176 L814.379,134.222 L809.109,134.222 L809.109,130.176 z" fill="#E6E6E6"/>
    <path d="M817.864,130.176 L823.134,130.176 L823.134,134.222 L817.864,134.222 L817.864,130.176 z" fill="#E6E6E6"/>
    <path d="M782.838,130.18 L788.108,130.18 L788.108,134.226 L782.838,134.226 L782.838,130.18 z" fill="#E6E6E6"/>
    <path d="M791.593,130.18 L796.863,130.18 L796.863,134.226 L791.593,134.226 L791.593,130.18 z" fill="#E6E6E6"/>
    <path d="M1025.712,643.039 C1024.318,643.105 1023.033,642.266 1022.495,640.939 C1021.957,639.613 1022.28,638.081 1023.304,637.105 C1023.389,636.762 1023.449,636.516 1023.532,636.172 Q1023.487,636.061 1023.441,635.948 C1022.041,632.536 1018.789,630.325 1015.195,630.339 C1011.602,630.353 1008.368,632.589 1006.99,636.011 C1004.3,642.693 1000.875,649.384 1000.031,656.448 C999.659,659.57 999.817,662.735 1000.494,665.802 C994.174,651.59 990.893,636.145 990.872,620.511 C990.87,616.588 991.081,612.668 991.504,608.769 Q992.029,603.975 992.961,599.249 C996.348,582.155 1003.62,566.131 1014.18,552.497 C1019.292,549.621 1023.425,545.201 1026.024,539.829 C1026.966,537.898 1027.632,535.837 1028,533.71 C1027.423,533.788 1026.837,533.836 1026.261,533.875 C1026.081,533.885 1025.893,533.895 1025.713,533.905 L1025.645,533.908 C1024.35,533.968 1023.143,533.239 1022.559,532.046 C1021.975,530.853 1022.126,529.419 1022.942,528.381 Q1023.316,527.908 1023.69,527.435 C1024.068,526.947 1024.455,526.47 1024.833,525.983 C1024.877,525.937 1024.918,525.887 1024.957,525.836 C1025.391,525.281 1025.826,524.735 1026.261,524.18 C1025.467,522.91 1024.4,521.846 1023.141,521.072 C1018.784,518.44 1012.772,520.263 1009.625,524.326 C1006.468,528.389 1005.872,534.09 1006.969,539.166 C1008.047,543.486 1009.83,547.585 1012.243,551.289 C1012.006,551.6 1011.761,551.902 1011.525,552.214 C1007.205,557.94 1003.44,564.089 1000.284,570.572 C1001.051,563.309 1000.136,555.962 997.611,549.135 C995.052,542.772 990.258,537.414 986.034,531.913 C980.963,525.307 970.561,528.19 969.667,536.565 Q969.654,536.687 969.642,536.808 Q970.583,537.355 971.484,537.97 C973.029,539.033 973.781,540.966 973.38,542.836 C972.978,544.706 971.504,546.129 969.668,546.421 L969.576,546.435 C969.8,548.767 970.194,551.076 970.757,553.345 C974.056,566.148 982.384,576.954 993.736,583.161 C994.105,583.356 994.463,583.551 994.833,583.736 C991.661,593 989.672,602.65 988.915,612.443 C988.487,618.221 988.511,624.024 988.991,629.797 L988.962,629.592 C987.752,623.172 984.43,617.38 979.558,613.193 C972.32,607.064 962.095,604.807 954.286,599.881 C952.592,598.759 950.42,598.753 948.721,599.867 C947.021,600.98 946.103,603.008 946.367,605.066 Q946.383,605.173 946.399,605.281 C947.563,605.77 948.696,606.333 949.793,606.967 Q950.734,607.514 951.635,608.128 C953.179,609.192 953.932,611.124 953.53,612.994 C953.128,614.864 951.654,616.288 949.818,616.579 L949.726,616.594 C949.66,616.604 949.603,616.613 949.538,616.623 C951.526,621.518 954.317,626.024 957.789,629.944 C966.457,639.531 978.575,645.012 991.288,645.096 L991.297,645.096 C993.005,652.745 995.478,660.191 998.679,667.312 L1025.051,667.312 C1025.145,667.01 1025.231,666.698 1025.315,666.396 C1022.875,666.555 1020.424,666.404 1018.018,665.948 C1019.975,663.473 1021.931,660.979 1023.888,658.504 C1023.932,658.457 1023.972,658.409 1024.011,658.357 C1025.004,657.09 1026.005,655.833 1026.998,654.567 L1026.999,654.565 C1027.051,650.682 1026.619,646.809 1025.713,643.039 z" fill="#F2F2F2"/>
  </g>
  <g id="Layer_9">
    <path d="M743.951,556.345 C783.638,526.116 802.594,475.32 790.727,426.863 Q790.285,425.057 789.793,423.259 C781.926,394.495 762.462,367.158 734.093,357.968 C710.274,350.251 684.274,356.185 659.424,353.116 C610.643,347.092 572.823,307.622 546.213,266.297 C519.602,224.971 499.151,178.713 463.791,144.573 C405.506,88.297 310.429,76.181 238.165,112.812 C165.9,149.443 119.868,230.713 121.831,311.707 C123.794,392.702 171.877,470.139 241.706,511.224 C267.358,526.317 297.027,537.01 326.554,533.268 C352.174,530.022 375.453,516.256 400.953,512.169 C441.044,505.743 480.88,523.87 515.556,544.992 C550.231,566.115 583.726,591.152 623.13,600.945 C661.391,610.453 708.794,583.123 743.951,556.345 z" fill="#F2F2F2"/>
    <path d="M778.8,276.141 C778.8,285.806 770.965,293.641 761.3,293.641 C751.635,293.641 743.8,285.806 743.8,276.141 C743.8,266.476 751.635,258.641 761.3,258.641 C770.965,258.641 778.8,266.476 778.8,276.141 z" fill="#8D30FE"/>
    <path d="M758.912,285.249 C758.3,285.249 757.723,284.96 757.355,284.47 L752.581,278.104 C751.936,277.244 752.11,276.024 752.97,275.379 C753.831,274.734 755.051,274.908 755.696,275.768 L758.819,279.933 L766.841,267.9 C767.438,267.006 768.646,266.765 769.54,267.361 C770.434,267.957 770.676,269.165 770.081,270.059 L760.532,284.382 C760.182,284.907 759.598,285.23 758.967,285.248 C758.948,285.248 758.93,285.249 758.912,285.249 z" fill="#FFFFFF"/>
    <path d="M778.8,420.571 C778.8,430.236 770.965,438.071 761.3,438.071 C751.635,438.071 743.8,430.236 743.8,420.571 C743.8,410.906 751.635,403.071 761.3,403.071 C770.965,403.071 778.8,410.906 778.8,420.571 z" fill="#8D30FE"/>
    <path d="M758.912,429.679 C758.3,429.679 757.723,429.391 757.355,428.9 L752.581,422.535 C751.936,421.674 752.11,420.454 752.97,419.809 C753.831,419.164 755.051,419.339 755.696,420.199 L758.819,424.363 L766.841,412.33 C767.437,411.435 768.647,411.192 769.542,411.789 C770.436,412.386 770.678,413.595 770.081,414.49 L760.532,428.812 C760.182,429.338 759.598,429.661 758.967,429.678 C758.948,429.679 758.93,429.679 758.912,429.679 z" fill="#FFFFFF"/>
    <g>
      <path d="M669.558,186.465 L410.635,186.465 C407.776,186.462 405.458,184.098 405.455,181.18 L405.455,131.392 L407.527,131.392 L407.527,181.18 C407.529,182.931 408.919,184.349 410.635,184.351 L669.558,184.351 C671.274,184.349 672.664,182.931 672.666,181.18 L672.666,131.044 L674.739,131.044 L674.739,181.18 C674.735,184.098 672.418,186.462 669.558,186.465 z" fill="#3F3D56"/>
      <path d="M154.98,130.335 L763.419,130.335 L763.419,132.449 L154.98,132.449 z" fill="#3F3D56"/>
      <path d="M172.848,131.227 C172.848,141.269 164.868,149.411 155.024,149.411 C145.18,149.411 137.2,141.269 137.2,131.227 C137.2,121.184 145.18,113.043 155.024,113.043 C164.868,113.043 172.848,121.184 172.848,131.227 z" fill="#8D30FE" id="a67a4451-c7cc-402c-b29d-5a705f3c9418"/>
      <path d="M353.969,131.227 C353.969,141.269 345.989,149.411 336.145,149.411 C326.302,149.411 318.322,141.269 318.322,131.227 C318.322,121.184 326.302,113.043 336.145,113.043 C345.989,113.043 353.969,121.184 353.969,131.227 z" fill="#8D30FE" id="abdb3fbf-f68e-433e-a33f-153626b38c76"/>
      <path d="M476.888,184.673 C476.888,194.716 468.908,202.857 459.064,202.857 C449.22,202.857 441.24,194.716 441.24,184.673 C441.24,174.631 449.22,166.49 459.064,166.49 C468.908,166.49 476.888,174.631 476.888,184.673 z" fill="#2F2E41" id="ac293633-0933-4e21-a8aa-bc27ca4fbccc"/>
      <path d="M570.333,184.673 C570.333,194.716 562.353,202.857 552.51,202.857 C542.666,202.857 534.686,194.716 534.686,184.673 C534.686,174.631 542.666,166.49 552.51,166.49 C562.353,166.49 570.333,174.631 570.333,184.673 z" fill="#CCCCCC" id="a0cd768d-b738-4d4b-9ab3-78ab535c7573"/>
      <path d="M525.051,131.227 C525.051,141.269 517.071,149.411 507.228,149.411 C497.384,149.411 489.404,141.269 489.404,131.227 C489.404,121.184 497.384,113.043 507.228,113.043 C517.071,113.043 525.051,121.184 525.051,131.227 z" fill="#8D30FE" id="b9eb3d2e-31e0-4fe2-be5c-79abb86bc227"/>
      <path d="M778.8,131.227 C778.8,141.269 770.82,149.411 760.976,149.411 C751.132,149.411 743.152,141.269 743.152,131.227 C743.152,121.184 751.132,113.043 760.976,113.043 C770.82,113.043 778.8,121.184 778.8,131.227 z" fill="#8D30FE" id="aa04baac-fce0-420a-b86a-4a97f3079928"/>
      <path d="M691.526,131.227 C691.526,141.269 683.546,149.411 673.702,149.411 C663.859,149.411 655.879,141.269 655.879,131.227 C655.879,121.184 663.859,113.043 673.702,113.043 C683.546,113.043 691.526,121.184 691.526,131.227 z" fill="#8D30FE" id="e92cf92c-058e-415c-ba96-766a57ee18d9"/>
      <path d="M442.137,1 L475.196,1 L475.196,24.245 L442.137,24.245 z" fill="#2F2E41" id="ac5bf8cc-574d-4509-9338-881c836fd832"/>
      <path d="M138.625,1 L171.684,1 L171.684,24.245 L138.625,24.245 z" fill="#8D30FE" id="ad5a043d-52f1-4931-b771-e4991ef7f7f7"/>
      <path d="M250.603,1 L283.662,1 L283.662,24.245 L250.603,24.245 z" fill="#CCCCCC" id="e5d95e83-bdd9-4322-95a9-5a9c4b449a8f"/>
      <path d="M210.294,132.449 C209.722,132.449 209.258,131.976 209.258,131.392 L209.258,79.212 C209.261,76.295 211.579,73.93 214.439,73.927 L264.872,73.927 C265.445,73.927 265.909,74.4 265.909,74.984 C265.909,75.568 265.445,76.041 264.872,76.041 L214.439,76.041 C212.723,76.043 211.332,77.462 211.33,79.212 L211.33,131.392 C211.33,131.976 210.866,132.449 210.294,132.449 z" fill="#3F3D56"/>
      <path d="M285.066,74.589 C285.066,84.632 277.086,92.773 267.243,92.773 C257.399,92.773 249.419,84.632 249.419,74.589 C249.419,64.546 257.399,56.405 267.243,56.405 C277.086,56.405 285.066,64.546 285.066,74.589 z" fill="#E6E6E6" id="b0a7c1c1-8f27-441f-a84a-e44462cc473e"/>
      <path d="M609.206,131.392 L607.134,131.392 L607.134,79.212 C607.137,76.295 609.454,73.93 612.314,73.927 L662.748,73.927 L662.748,76.041 L612.314,76.041 C610.598,76.043 609.208,77.462 609.206,79.212 z" fill="#3F3D56"/>
      <path d="M682.941,74.589 C682.941,84.632 674.962,92.773 665.118,92.773 C655.274,92.773 647.294,84.632 647.294,74.589 C647.294,64.546 655.274,56.405 665.118,56.405 C674.962,56.405 682.941,64.546 682.941,74.589 z" fill="#E6E6E6" id="b3140cf1-cdb8-48ff-81af-ce41ed4f5739"/>
    </g>
    <g>
      <path d="M778.799,131.5 C778.799,141.165 770.964,149 761.299,149 C751.634,149 743.8,141.165 743.8,131.5 C743.8,121.835 751.634,114 761.299,114 C770.964,114 778.799,121.835 778.799,131.5 z" fill="#8D30FE"/>
      <path d="M758.912,140.608 C758.299,140.608 757.722,140.319 757.355,139.829 L752.581,133.463 C751.936,132.603 752.11,131.383 752.97,130.738 C753.83,130.093 755.05,130.268 755.695,131.128 L758.819,135.292 L766.841,123.259 C767.437,122.363 768.646,122.121 769.541,122.718 C770.436,123.314 770.678,124.524 770.08,125.418 L760.532,139.741 C760.181,140.267 759.598,140.59 758.966,140.607 C758.948,140.608 758.93,140.608 758.912,140.608 z" fill="#FFFFFF"/>
    </g>
    <g>
      <path d="M441.026,638.976 C442.327,639.037 443.527,638.254 444.03,637.015 C444.532,635.776 444.23,634.346 443.274,633.434 C443.195,633.114 443.139,632.884 443.061,632.563 Q443.103,632.459 443.146,632.354 C444.454,629.168 447.49,627.103 450.846,627.116 C454.202,627.129 457.222,629.217 458.508,632.413 C461.02,638.652 464.219,644.901 465.007,651.497 C465.354,654.412 465.207,657.368 464.574,660.232 C470.476,646.961 473.54,632.538 473.56,617.939 C473.561,614.275 473.364,610.615 472.969,606.974 Q472.479,602.497 471.609,598.084 C468.446,582.121 461.655,567.158 451.794,554.426 C447.021,551.741 443.161,547.613 440.734,542.597 C439.855,540.794 439.233,538.869 438.889,536.883 C439.428,536.956 439.975,537.001 440.513,537.037 C440.681,537.046 440.857,537.056 441.025,537.065 L441.088,537.068 C442.297,537.124 443.425,536.443 443.97,535.329 C444.515,534.215 444.374,532.876 443.612,531.907 Q443.263,531.465 442.914,531.023 C442.561,530.568 442.199,530.122 441.846,529.667 C441.805,529.624 441.767,529.578 441.731,529.53 C441.325,529.012 440.919,528.502 440.513,527.984 C441.254,526.798 442.251,525.804 443.426,525.081 C447.495,522.624 453.109,524.326 456.048,528.12 C458.996,531.914 459.552,537.238 458.528,541.978 C457.521,546.012 455.856,549.84 453.603,553.298 C453.824,553.589 454.053,553.871 454.274,554.162 C458.308,559.509 461.823,565.251 464.771,571.305 C464.054,564.523 464.909,557.662 467.267,551.287 C469.656,545.345 474.133,540.342 478.077,535.205 C482.813,529.036 492.526,531.728 493.361,539.549 Q493.373,539.663 493.384,539.776 Q492.506,540.287 491.664,540.861 C490.222,541.854 489.519,543.659 489.894,545.405 C490.269,547.151 491.646,548.48 493.36,548.753 L493.446,548.766 C493.237,550.943 492.869,553.099 492.343,555.218 C489.263,567.174 481.486,577.265 470.885,583.061 C470.541,583.243 470.206,583.425 469.861,583.598 C472.823,592.249 474.68,601.26 475.387,610.405 C475.787,615.8 475.764,621.219 475.316,626.61 L475.343,626.419 C476.473,620.424 479.575,615.015 484.125,611.105 C490.884,605.382 500.432,603.274 507.724,598.674 C509.306,597.626 511.334,597.621 512.921,598.661 C514.508,599.7 515.365,601.594 515.119,603.516 Q515.104,603.616 515.089,603.717 C514.002,604.173 512.944,604.699 511.92,605.291 Q511.041,605.802 510.2,606.375 C508.758,607.369 508.055,609.173 508.43,610.919 C508.805,612.665 510.182,613.995 511.896,614.267 L511.982,614.281 C512.044,614.29 512.097,614.299 512.158,614.308 C510.301,618.879 507.695,623.087 504.453,626.747 C496.359,635.7 485.043,640.818 473.171,640.896 L473.163,640.896 C471.568,648.039 469.258,654.992 466.269,661.642 L441.643,661.642 C441.555,661.36 441.475,661.069 441.396,660.787 C443.675,660.935 445.964,660.794 448.21,660.368 C446.383,658.057 444.556,655.728 442.729,653.417 C442.688,653.373 442.65,653.328 442.614,653.28 C441.687,652.097 440.752,650.923 439.825,649.741 L439.824,649.739 C439.775,646.113 440.179,642.496 441.025,638.976 z" fill="#F2F2F2"/>
      <path d="M362.125,531.303 L368.518,528.706 L420.59,664.914 L414.197,667.512 z" fill="#E6E6E6"/>
      <path d="M332.632,667.512 L326.238,664.914 L378.31,528.705 L384.704,531.303 z" fill="#E6E6E6"/>
      <path d="M416.172,535.497 C416.172,545.495 395.832,553.601 370.742,553.601 C345.651,553.601 325.311,545.495 325.311,535.497 C325.311,525.498 345.651,517.393 370.742,517.393 C395.832,517.393 416.172,525.498 416.172,535.497 z" fill="#E6E6E6"/>
      <path d="M408.651,543.192 L335.964,534.205 C321.845,532.459 311.771,519.244 313.465,504.689 C315.158,490.133 327.977,479.748 342.097,481.494 L414.783,490.481 C428.903,492.227 438.976,505.442 437.283,519.997 C435.589,534.553 422.77,544.938 408.651,543.192 z" fill="#2F2E41"/>
      <path d="M390.459,354.213 L405.053,365.401 L418.672,371.628 C417.482,372.477 411.212,459.571 419.291,463.195 C426.17,466.282 419.159,468.835 419.397,476.019 C419.634,483.204 420.525,497.981 420.525,497.981 C382.715,512.986 368.039,514.439 346.061,488.693 C345.749,485.72 347.486,482.923 350.237,481.971 C355.11,480.032 347.665,467.244 351.638,465.751 C355.61,464.258 352.317,446.639 352.317,446.639 L343.856,406.942 L341.785,400.945 L353.338,369.184 L364.54,364.219 L374.782,355.468 z" fill="#8D30FE"/>
      <path d="M251.957,435.194 C254.3,433.214 257.373,432.405 260.349,432.985 C263.326,433.565 265.9,435.475 267.38,438.2 L303.193,431.623 L295.715,449.52 L262.853,453.022 C258.144,455.332 252.504,453.645 249.724,449.097 C246.944,444.549 247.903,438.576 251.957,435.194 z" fill="#FFB6B6"/>
      <path d="M288.986,450.861 C292.129,454.21 295.217,453.808 298.261,450.333 L340.877,447.903 L341.008,447.648 C341.158,447.355 350.139,429.817 358.105,413.402 C359.332,410.874 360.534,408.373 361.677,405.966 Q362.417,404.407 363.12,402.906 C366.282,396.156 368.802,390.45 369.786,387.452 C372.063,380.743 372.046,373.433 369.737,366.735 L369.67,366.574 L369.523,366.485 C363.291,362.807 355.418,364.08 350.578,369.548 C339.299,382.427 331.079,397.832 326.566,414.548 L324.009,424.059 L297.633,430.794 C294.941,429.298 292.62,429.669 290.795,432.54 z" fill="#8D30FE"/>
      <path d="M330.391,630.994 L339.441,639.507 L375.603,607.569 L362.245,595.004 L330.391,630.994 z" fill="#FFB6B6"/>
      <path d="M330.778,625.775 L333.326,628.172 L346.962,633.358 L348.603,642.542 L348.603,642.543 C354.876,648.444 355.321,658.47 349.597,664.938 L349.26,665.318 L320.076,637.866 z" fill="#2F2E41"/>
      <path d="M398.957,531.632 L391.144,516.081 C391.797,500.335 405.046,488.033 420.258,489.602 C428.73,490.477 436.505,495.677 439.267,510.354 C446.369,548.096 360.681,622.799 360.681,622.799 L345.799,612.514 L345.466,602.236 L354.19,597.142 L354.512,588.4 L362.789,584.734 z" fill="#2F2E41"/>
      <path d="M378.164,301.015 C391.004,302.288 400.413,314.05 399.178,327.287 C397.944,340.524 386.534,350.224 373.693,348.951 C360.853,347.679 351.444,335.916 352.679,322.679 C353.913,309.442 365.323,299.742 378.164,301.015 z" fill="#FFB6B6"/>
      <path d="M380.459,336.213 L384.459,336.213 C387.773,336.213 390.459,338.9 390.459,342.213 L390.459,354.213 C390.459,357.527 387.773,360.213 384.459,360.213 L380.459,360.213 C377.146,360.213 374.459,357.527 374.459,354.213 L374.459,342.213 C374.459,338.9 377.146,336.213 380.459,336.213 z" fill="#FFB6B6"/>
      <path d="M394.734,628.632 L384.507,635.589 L353.613,598.233 L368.707,587.967 L394.734,628.632 z" fill="#FFB6B6"/>
      <path d="M403.884,637.078 L370.908,659.508 L370.632,659.078 C365.955,651.77 367.91,641.938 374.998,637.116 L374.999,637.115 L378.007,628.307 L392.261,625.374 L395.139,623.416 z" fill="#2F2E41"/>
      <path d="M347.992,530.124 L357.662,513.917 C359.396,498.258 348.168,483.978 332.904,483.086 C324.404,482.589 315.938,486.477 310.992,500.531 C298.273,536.672 371.627,624.224 371.627,624.224 L387.881,616.454 L389.764,606.355 L381.915,599.922 L382.918,591.235 L375.297,586.285 z" fill="#2F2E41"/>
      <path d="M383.918,330.722 Q383.95,330.257 383.98,329.788 C383.88,330.089 383.859,330.411 383.918,330.722 z" fill="#2F2E41"/>
      <path d="M404.014,319.576 C402.309,311.522 396.424,305.098 388.721,302.884 C386.622,299.26 383.044,296.812 378.989,296.223 C375.23,295.708 371.462,296.857 367.848,298.041 Q364.498,299.139 361.166,300.292 C359.357,300.918 357.134,302.347 357.734,304.214 C356.795,303.71 355.645,303.919 354.931,304.725 C354.216,305.531 354.117,306.731 354.69,307.649 C353.851,306.534 351.911,307.249 351.445,308.576 C350.978,309.902 351.528,311.372 352.21,312.595 C356.433,319.75 364.809,323.063 372.591,320.656 C374.804,319.91 377.065,318.684 379.331,319.232 C381.471,319.749 383.011,321.794 383.62,323.97 C384.065,325.874 384.187,327.842 383.98,329.788 C384.581,328.35 386.198,327.683 387.595,328.298 C389.211,329.129 389.791,331.319 389.391,333.134 C388.99,334.95 384.789,341.988 383.68,343.457 C382.464,344.842 381.569,346.494 381.063,348.289 Q387.038,347.342 393.012,346.395 L393.228,346.618 C399.403,341.672 405.576,327.476 404.014,319.576 z" fill="#2F2E41"/>
      <path d="M346.79,489.161 C347.906,486.257 350.212,484.012 353.087,483.03 C355.963,482.048 359.113,482.429 361.69,484.071 L389.904,460.402 L391.793,479.792 L364.71,499.296 C361.681,503.672 355.955,505.02 351.383,502.434 C346.811,499.848 344.838,494.146 346.79,489.161 z" fill="#FFB6B6"/>
      <path d="M391.431,483.387 C394.83,484.641 397.459,483.709 398.533,478.371 L430.517,455.78 L430.511,455.491 C434.683,455.158 433.729,391.572 427.331,388.461 C426.163,381.456 422.706,375.074 417.533,370.374 L417.399,370.265 L417.228,370.262 C410.048,370.164 403.764,375.217 402.107,382.419 C398.31,399.323 398.376,416.905 402.3,433.778 L404.543,443.373 L390.58,455.556 C386.722,454.515 385.011,456.116 385.294,460.169 z" fill="#8D30FE"/>
      <path d="M482.772,665.478 L476.807,668 L428.22,476.906 L434.186,474.383 L482.772,665.478 z" fill="#CCCCCC"/>
      <path d="M394.837,665.478 L400.802,668 L449.388,476.906 L443.423,474.383 L394.837,665.478 z" fill="#CCCCCC"/>
    </g>
    <path d="M199.765,478.718 L200.222,479.677 C200.526,480.296 201.169,480.692 201.876,480.696 L259.802,480.696 C260.42,480.685 260.993,480.376 261.328,479.872 C261.663,479.369 261.717,478.737 261.471,478.187 C261.451,478.136 261.422,478.089 261.387,478.047 z" fill="#000000" opacity="0.17"/>
    <g>
      <path d="M217.932,441.647 L225.554,474.115 L230.425,479.28 L233.938,479.28 L219.457,420.247 L218.741,430.276 L218.741,430.283 L217.932,441.647 z" fill="#3F3D56"/>
      <path d="M181.251,474.828 L225.966,474.555 L229.934,474.529 L232.764,474.51 L236.062,474.491 L236.088,474.491 C236.566,474.492 237.025,474.675 237.365,475.001 L242.933,480.391 C243.056,480.509 243.156,480.647 243.229,480.799 C243.264,480.842 243.292,480.889 243.314,480.939 C243.559,481.49 243.505,482.122 243.169,482.626 C242.834,483.129 242.262,483.438 241.643,483.45 L183.719,483.45 C183.01,483.447 182.365,483.051 182.061,482.43 L181.607,481.474 L180.672,479.531 L179.612,477.339 C179.499,477.106 179.441,476.851 179.441,476.594 C179.447,475.626 180.252,474.841 181.251,474.828 z" fill="#3F3D56"/>
      <path d="M218.741,430.276 L218.741,430.283 L231.141,479.28 L233.938,479.28 L219.457,420.247 L218.741,430.276 z" fill="#000000" opacity="0.17"/>
      <path d="M203.523,439.254 L221.076,309.961 C221.14,309.477 221.4,309.037 221.8,308.738 L233.883,294.095 L234.969,293.286 C235.371,292.991 235.877,292.861 236.377,292.923 L238.194,293.159 C239.237,293.289 239.974,294.213 239.839,295.223 L239.839,295.223 L221.648,429.186 L221.648,429.193 L220.536,437.387 L219.213,447.117 L219.213,447.13 L217.16,462.269 C217.094,462.794 216.793,463.265 216.337,463.557 C215.889,463.855 215.331,463.953 214.803,463.824 L213.652,463.544 C213.211,463.434 212.824,463.177 212.559,462.817 L212.046,462.11 L211.809,461.779 L203.859,440.56 C203.58,440.182 203.46,439.715 203.523,439.254 z" fill="#3F3D56"/>
      <path d="M233.886,294.096 L211.807,461.782 L212.047,462.11 L212.558,462.815 C212.822,463.175 213.21,463.432 213.651,463.542 L214.805,463.823 C215.333,463.949 215.891,463.852 216.341,463.556 C216.791,463.259 217.089,462.791 217.16,462.269 L239.837,295.225 C239.973,294.215 239.239,293.289 238.196,293.156 L236.374,292.924 C235.875,292.859 235.37,292.99 234.972,293.289 z" fill="#000000" opacity="0.17"/>
      <path d="M233.236,298.891 L221.519,315.083 L207.592,417.672 L215.142,432.173 L233.236,298.891 z" fill="#8D30FE"/>
      <path d="M192.138,441.443 L196.45,446.035 C196.858,446.367 197.429,446.439 197.911,446.218 C198.626,445.973 199.262,445.551 199.756,444.994 C202.837,441.608 206.296,438.563 210.07,435.915 C210.69,435.491 211.185,434.918 211.505,434.252 C211.769,433.815 211.757,433.271 211.472,432.846 C211.429,430.334 209.968,428.778 207.128,428.22 C206.63,427.718 205.505,427.908 204.497,428.67 C200.349,431.803 196.451,435.234 192.836,438.934 C191.948,439.843 191.648,440.922 192.138,441.443 z" fill="#8D30FE"/>
      <path d="M203.219,431.561 L206.848,435.425 C206.973,435.559 207.275,435.49 207.523,435.272 C207.77,435.055 207.869,434.77 207.744,434.637 L204.115,430.772 C203.99,430.639 203.688,430.707 203.44,430.925 C203.193,431.143 203.094,431.428 203.219,431.561 z" fill="#FFFFFF"/>
      <path d="M199.636,434.715 L203.265,438.58 C203.39,438.713 203.692,438.645 203.939,438.427 C204.187,438.209 204.286,437.924 204.16,437.791 L200.532,433.927 C200.406,433.793 200.104,433.862 199.857,434.08 C199.609,434.297 199.511,434.582 199.636,434.715 z" fill="#FFFFFF"/>
      <path d="M196.052,437.87 L199.681,441.734 C199.806,441.867 200.108,441.799 200.356,441.581 C200.603,441.363 200.702,441.079 200.577,440.945 L196.948,437.081 C196.823,436.948 196.521,437.016 196.273,437.234 C196.026,437.452 195.927,437.736 196.052,437.87 z" fill="#FFFFFF"/>
    </g>
    <g>
      <path d="M543.637,480.067 L436.204,480.067 L438.478,472.374 L541.363,472.374 L543.637,480.067 z" fill="#2F2E41"/>
      <path d="M576.232,291.942 L400.653,291.942 C397.512,291.948 394.967,294.708 394.962,298.116 L394.962,426.649 C394.965,430.057 397.511,432.819 400.653,432.823 L576.232,432.823 C579.374,432.819 581.92,430.057 581.923,426.649 L581.923,298.116 C581.918,294.708 579.373,291.948 576.232,291.942 z" fill="#3F3D56"/>
      <path d="M509.139,399.863 L467.74,399.863 C466.521,399.865 465.534,400.981 465.535,402.357 L465.535,476.118 L511.35,476.118 L511.35,402.357 C511.351,401.695 511.118,401.06 510.703,400.593 C510.288,400.125 509.726,399.862 509.139,399.863 z M488.579,441.773 C485.884,441.759 483.703,439.298 483.691,436.259 L483.691,427.751 C483.694,424.709 485.881,422.244 488.579,422.244 C491.277,422.244 493.464,424.709 493.468,427.751 L493.468,436.259 C493.455,439.298 491.274,441.759 488.579,441.773 z" fill="#2F2E41"/>
      <path d="M575.271,422.299 C575.271,423.959 574.03,425.306 572.499,425.306 C570.968,425.306 569.727,423.959 569.727,422.299 C569.727,420.638 570.968,419.292 572.499,419.292 C574.03,419.292 575.271,420.638 575.271,422.299 z" fill="#2F2E41"/>
      <path d="M422.818,417.937 C422.282,417.937 421.847,418.408 421.847,418.989 L421.847,424.404 C421.849,424.984 422.283,425.454 422.818,425.454 C423.352,425.454 423.786,424.984 423.788,424.404 L423.788,418.989 C423.788,418.408 423.353,417.937 422.818,417.937 z" fill="#2F2E41"/>
      <path d="M428.085,417.937 C427.549,417.937 427.115,418.408 427.115,418.989 L427.115,424.404 C427.115,424.985 427.549,425.456 428.085,425.456 C428.621,425.456 429.055,424.985 429.055,424.404 L429.055,418.989 C429.055,418.408 428.621,417.937 428.085,417.937 z" fill="#2F2E41"/>
      <path d="M433.353,417.937 C432.817,417.937 432.383,418.408 432.383,418.989 L432.383,424.404 C432.384,424.984 432.818,425.454 433.353,425.454 C433.888,425.454 434.321,424.984 434.323,424.404 L434.323,418.989 C434.323,418.408 433.888,417.937 433.353,417.937 z" fill="#2F2E41"/>
      <path d="M438.62,417.937 C438.085,417.937 437.65,418.408 437.65,418.989 L437.65,424.404 C437.652,424.984 438.086,425.454 438.62,425.454 C439.155,425.454 439.589,424.984 439.59,424.404 L439.59,418.989 C439.59,418.408 439.156,417.937 438.62,417.937 z" fill="#2F2E41"/>
    </g>
    <g>
      <path d="M76.959,541.478 L82.119,539.071 L124.149,665.271 L118.989,667.678 z" fill="#E6E6E6"/>
      <path d="M53.154,667.678 L47.993,665.271 L90.023,539.071 L95.183,541.478 z" fill="#E6E6E6"/>
      <path d="M120.583,545.364 C120.583,554.627 104.166,562.137 83.914,562.137 C63.662,562.137 47.245,554.627 47.245,545.364 C47.245,536.099 63.662,528.589 83.914,528.589 C104.166,528.589 120.583,536.099 120.583,545.364 z" fill="#E6E6E6"/>
      <path d="M61.665,352.061 C63.396,364.87 73.571,373.596 84.396,371.554 Q85.279,371.387 86.138,371.127 C96.095,368.147 102.485,356.666 100.868,344.664 C100.621,342.82 100.187,341.018 99.577,339.298 C95.699,328.324 85.501,322.514 75.834,325.768 C66.167,329.023 60.081,340.316 61.665,352.061 z" fill="#FFB6B6"/>
      <path d="M78.031,350.565 L78.031,350.565 C81.161,350.565 83.698,353.102 83.698,356.232 L83.698,379.421 C83.698,382.55 81.161,385.087 78.031,385.087 L78.031,385.087 C74.902,385.087 72.365,382.55 72.365,379.421 L72.365,356.232 C72.365,353.102 74.902,350.565 78.031,350.565 z" fill="#FFB6B6"/>
      <path d="M168.683,649.031 L177.598,645.894 L171.701,602.771 L158.543,607.402 L168.683,649.031 z" fill="#FFB6B6"/>
      <path d="M114.011,632.01 C114.554,632.57 115.097,633.121 115.647,633.675 C116.741,634.78 117.849,635.875 118.959,636.954 C119.516,637.494 120.08,638.036 120.639,638.569 L120.636,638.59 L120.672,638.604 L120.683,638.614 L121.584,639.063 L123.492,635.109 L124.372,633.287 L125.616,630.707 L127.895,625.987 L139.894,601.138 L127.254,594.833 L126.442,597.125 L126.436,597.124 L126.034,598.26 L118.487,619.455 L116.946,623.788 L116.897,623.919 L115.97,626.507 L115.171,628.75 L114.28,631.255 z" fill="#FFB6B6"/>
      <path d="M47.968,524.468 C48.59,526.209 49.231,527.945 49.88,529.669 Q51.688,534.483 53.641,539.191 C53.64,539.198 53.646,539.199 53.651,539.207 C54.487,540.466 55.445,541.604 56.504,542.599 C56.547,542.652 56.598,542.691 56.642,542.736 C57.423,543.457 58.277,544.061 59.184,544.535 C59.511,544.699 59.845,544.865 60.172,545.029 C61.355,545.606 62.533,546.13 63.71,546.616 Q66.851,547.903 69.982,548.796 C70.15,548.849 70.318,548.896 70.487,548.942 C79.096,551.331 87.738,551.703 96.856,551.367 C101.357,551.206 105.976,550.868 110.759,550.517 C112.323,550.397 113.891,550.284 115.478,550.175 C115.598,550.168 115.724,550.155 115.85,550.149 C118.118,549.991 120.421,549.847 122.777,549.72 C125.744,549.56 128.799,549.438 131.965,549.375 L131.058,554.469 C130.347,558.386 129.132,562.15 127.455,565.63 C125.531,569.935 124.008,573.342 125.202,581.253 L125.775,585.081 C124.173,588.527 124.028,592.663 125.384,596.254 L125.546,596.675 L113.175,621.462 L112.373,623.07 L116.896,623.917 L122.458,624.967 L131.887,626.734 L149.815,596.986 L150.672,595.566 L150.683,595.488 L157.585,533.155 C157.64,532.603 157.677,532.043 157.69,531.484 C157.862,526.362 156.288,521.374 153.322,517.639 C150.483,514.036 146.541,511.93 142.38,511.794 L137.628,511.634 L127.919,511.306 L121.079,511.079 L120.942,511.076 L100.773,510.397 L100.271,503.288 L100.024,503.124 L92.186,497.955 L65.078,480.079 L65.009,480.036 L63.226,478.86 L62.943,479.25 C62.858,479.368 62.774,479.484 62.696,479.602 C60.293,483.221 58.21,487.12 56.477,491.24 C53.591,497.959 51.031,504.869 48.809,511.933 Q48.663,512.392 48.548,512.769 L48.519,512.845 C48.484,512.964 48.461,513.041 48.452,513.062 C47.351,516.208 47.28,520.285 47.968,524.468 z" fill="#2F2E41"/>
      <path d="M49.815,501.366 C49.968,500.922 50.146,500.475 50.328,500.044 C51.755,496.788 53.332,493.628 55.052,490.578 C56.99,487.101 59.25,483.412 61.882,479.453 Q63.793,476.577 65.963,473.491 Q67.049,471.945 68.212,470.346 C68.243,470.296 68.277,470.248 68.312,470.203 L68.535,469.89 L96.406,479.736 L104.56,483.373 L106.581,489.773 L106.526,491.35 C106.532,491.351 106.532,491.351 106.525,491.357 L106.386,495.658 L106.385,495.665 L106.205,501.347 L106.255,501.349 L122.313,501.885 L138.861,502.439 L147.75,502.738 C151.912,502.875 155.854,504.981 158.692,508.585 C161.657,512.32 163.231,517.308 163.06,522.429 C163.047,522.944 163.014,523.469 162.964,523.984 L168.097,548.567 C171.17,563.269 172.35,578.436 171.598,593.555 L174.572,617.482 L173.702,617.415 L160.743,616.426 L157.321,616.168 L151.612,601.948 C150.961,600.327 150.359,598.671 149.817,596.989 C148.921,594.241 148.174,591.427 147.581,588.566 L137.572,540.319 Q135.659,540.349 133.787,540.349 Q125.124,540.387 117.217,539.953 C100.077,539.022 85.469,536.461 72.738,532.14 Q67.375,530.327 62.443,528.084 Q60.633,527.269 58.882,526.391 C58.607,526.258 58.337,526.126 58.069,525.987 C53.166,523.469 49.679,518.177 48.812,511.936 C48.288,508.371 48.636,504.704 49.815,501.366 z" fill="#2F2E41"/>
      <path d="M169.704,642.163 L179.35,638.759 L180.864,638.222 L182.236,645.17 L197.37,652.193 C198.906,652.904 199.872,654.714 199.755,656.662 C199.637,658.609 198.463,660.238 196.857,660.684 L180.546,665.21 L176.376,659.12 L176.638,666.294 L170.495,668 L167.359,642.994 z" fill="#2F2E41"/>
      <path d="M113.175,621.462 L112.373,623.07 L112.946,623.176 L113.175,621.462 z" fill="#2F2E41"/>
      <path d="M116.019,624.128 L124.898,629.741 L126.292,630.62 L123.137,636.7 L129.714,654.291 C130.383,656.075 129.993,658.167 128.752,659.452 C127.511,660.738 125.707,660.918 124.301,659.898 L110.02,649.532 L110.678,641.733 L106.599,647.049 L101.219,643.146 L113.859,622.766 z" fill="#2F2E41"/>
      <path d="M178.123,487.804 C176.211,488.497 174.138,488.152 172.462,486.862 C170.786,485.572 169.679,483.47 169.438,481.121 L145.975,475.105 L154.893,464.781 L175.807,472.077 C179.243,471.856 182.277,474.711 182.868,478.724 C183.459,482.735 181.42,486.637 178.123,487.804 z" fill="#FFB6B6"/>
      <path d="M109.212,474.833 L65.901,431.035 C58.76,423.797 57.917,411.084 64.018,402.618 L64.018,402.618 C67.307,398.064 72.136,395.477 77.197,395.558 C82.259,395.639 87.027,398.38 90.21,403.037 L122.016,449.578 L164.678,463.207 L163.572,479.883 z" fill="#E6E6E6"/>
      <path d="M58.701,429.867 L57.784,469.621 C45.16,494.858 43.724,507.113 47.219,513.647 L105.808,490.331 L106.683,487.859 L102.711,470.976 L107.625,452.649 C108.49,450.734 120.238,438.969 109.226,416.652 L87.072,381.336 L79.062,380.573 C76.136,389.461 71.673,393.871 66.4,395.921 C54.477,408.853 56.229,410.957 58.701,429.867 z" fill="#E6E6E6"/>
      <path d="M103.444,335.124 C102.821,337.211 101.493,338.896 99.777,339.777 C98.424,338.265 96.959,336.899 95.402,335.693 C96.079,337.32 96.633,339.013 97.06,340.755 C97.029,340.762 97.004,340.762 96.973,340.769 C94.163,341.214 91.34,340.39 88.592,339.573 L88.974,339.989 C89.022,345.311 86.46,350.186 82.404,352.489 C80.204,353.685 77.301,354.516 76.759,357.301 C76.278,359.767 78.084,361.977 79.822,363.443 C81.56,364.909 83.594,366.513 83.877,369.021 C84.333,373.105 79.908,375.694 79.156,379.713 C78.503,383.155 80.753,386.437 83.224,388.406 C85.695,390.375 88.604,391.732 90.515,394.444 C93.898,399.25 92.807,406.915 89.319,411.619 C88.942,412.131 88.538,412.616 88.111,413.071 C87.156,411.642 86.111,410.301 84.987,409.059 C83.633,407.548 82.168,406.181 80.611,404.976 C81.288,406.601 81.843,408.295 82.269,410.036 C82.825,412.27 83.179,414.568 83.323,416.892 C80.81,418.303 78.175,419.387 75.465,420.123 C68.641,422.099 61.619,422.953 54.597,422.66 C51.39,422.601 48.202,422.067 45.107,421.07 C46.524,415.772 46.938,410.17 46.321,404.662 C44.565,409.503 41.848,413.771 38.401,417.103 C35.511,414.412 33.366,410.598 33.009,406.303 C32.571,401.023 34.815,395.975 37.304,391.563 C39.8,387.152 42.672,382.848 43.769,377.708 C45.372,370.21 42.925,362.414 42.611,354.691 C42.208,344.872 45.282,335.3 51.092,328.275 C56.902,321.249 64.924,317.407 73.228,317.672 C76.931,317.929 80.605,318.593 84.204,319.656 C86.157,320.152 88.105,320.655 90.059,321.151 C92.474,321.681 94.843,322.477 97.134,323.528 C99.13,324.451 100.885,325.984 102.218,327.97 C103.547,329.998 104,332.643 103.444,335.124 z" fill="#2F2E41"/>
      <path d="M76.695,665.38 L71.535,667.883 L29.505,478.127 L34.665,475.623 L76.695,665.38 z" fill="#CCCCCC"/>
      <path d="M0.539,665.38 L5.7,667.883 L47.729,478.127 L42.569,475.623 L0.539,665.38 z" fill="#CCCCCC"/>
      <path d="M177.06,470.024 C175.22,470.95 173.128,470.865 171.347,469.791 C169.566,468.717 168.278,466.764 167.83,464.459 L143.963,461.391 L151.915,450.016 L173.361,454.673 C176.759,454.025 180.029,456.487 180.973,460.404 C181.916,464.32 180.235,468.453 177.06,470.024 z" fill="#FFB6B6"/>
      <path d="M107.379,465.69 L60.421,427.516 C52.676,421.206 50.71,408.668 56.026,399.49 L56.026,399.49 C58.892,394.553 63.465,391.38 68.506,390.832 C73.546,390.284 78.532,392.417 82.11,396.653 L117.871,438.983 L161.507,447.235 L161.886,463.956 z" fill="#E6E6E6"/>
    </g>
    <path d="M146.74,480.067 C152.269,484.219 158.249,488.121 164.637,491.745 L629.597,492.148 C635.984,488.525 641.965,484.623 647.493,480.471 z" fill="#CCCCCC"/>
    <path d="M1026.376,669.693 L1.625,670 C0.727,669.998 0,669.466 0,668.81 C0,668.153 0.727,667.621 1.625,667.619 L1026.376,667.312 C1027.274,667.314 1028,667.846 1028,668.502 C1028,669.159 1027.274,669.691 1026.376,669.693 z" fill="#CACACA"/>
    <path d="M500.943,363.065 C500.943,369.969 495.346,375.565 488.443,375.565 C481.539,375.565 475.943,369.969 475.943,363.065 C475.943,356.161 481.539,350.565 488.443,350.565 C495.346,350.565 500.943,356.161 500.943,363.065 z" fill="#2F2E41" id="a0cd768d-b738-4d4b-9ab3-78ab535c7573"/>
    <g>
      <g>
        <path d="M602.958,477.224 C603.63,479.294 605.559,480.697 607.736,480.696 L628.468,480.524 C630.664,480.52 632.594,479.07 633.21,476.963 L636.69,445.657 C637.722,446.146 638.851,446.399 639.993,446.396 C644.168,446.364 647.525,442.954 647.493,438.78 C647.462,434.605 644.052,431.247 639.878,431.279 C639.421,431.269 638.965,431.309 638.517,431.397 C637.554,430.317 636.179,429.696 634.733,429.685 L602.842,429.952 C602.578,429.956 602.314,429.985 602.054,430.036 C600.635,430.275 599.389,431.115 598.637,432.342 C597.885,433.569 597.699,435.061 598.13,436.434 z M637.328,443.538 L639.545,436.102 C639.798,435.243 639.82,434.333 639.607,433.463 C639.709,433.464 639.799,433.418 639.901,433.419 C642.88,433.41 645.306,435.813 645.324,438.793 C645.342,441.773 642.945,444.206 639.965,444.232 C639.039,444.245 638.127,444.005 637.328,443.538 z" fill="#2F2E41"/>
        <path d="M602.626,430.169 C603.213,434.581 610.622,437.805 619.606,437.422 C627.866,437.125 634.673,433.882 635.98,429.921 C635.525,429.756 635.05,429.675 634.573,429.679 L603.397,430.072 C603.138,430.078 602.881,430.111 602.626,430.169 z" fill="#3F3D56"/>
      </g>
      <path d="M624.076,464.44 C624.124,464.427 624.169,464.408 624.211,464.38 L629.347,461.042 C629.473,460.959 629.549,460.82 629.549,460.67 C629.549,460.521 629.473,460.382 629.347,460.3 L624.008,456.828 C623.875,456.74 623.705,456.729 623.562,456.801 C623.419,456.872 623.326,457.014 623.318,457.172 C623.309,457.331 623.385,457.482 623.519,457.568 L628.287,460.67 L623.722,463.639 C623.54,463.757 623.47,463.989 623.558,464.188 C623.645,464.386 623.865,464.493 624.076,464.44 z" fill="#FFFFFF"/>
      <path d="M615.964,464.811 C616.14,464.767 616.272,464.621 616.297,464.441 C616.321,464.262 616.235,464.087 616.077,463.996 L611.343,461.301 L615.919,457.925 C616.116,457.779 616.157,457.501 616.011,457.305 C615.863,457.109 615.584,457.068 615.387,457.214 L610.263,460.993 C610.142,461.083 610.075,461.226 610.084,461.375 C610.093,461.524 610.177,461.659 610.307,461.734 L615.632,464.766 C615.733,464.823 615.852,464.84 615.964,464.811 z" fill="#FFFFFF"/>
      <path d="M623.565,467.366 C623.608,467.355 623.65,467.337 623.687,467.314 C623.789,467.253 623.861,467.155 623.89,467.04 C623.917,466.926 623.899,466.805 623.837,466.705 L616.556,454.816 C616.427,454.607 616.153,454.542 615.943,454.668 C615.733,454.796 615.666,455.068 615.794,455.278 L623.075,467.166 C623.176,467.332 623.375,467.413 623.565,467.366 z" fill="#FFFFFF"/>
    </g>
  </g>
  <g id="Layer_5" display="none">
    <g>
      <path d="M829.042,275.738 L834.467,276.905 C834.503,274.628 834.786,272.36 835.311,270.144 C835.804,272.858 836.843,275.443 838.365,277.74 L869.48,284.41 L899.352,252.766 C899.398,236.945 890.645,224.921 874.951,224.921 C874.005,224.921 873.024,224.967 872.033,225.058 C854.409,222.097 837.613,233.672 834.034,251.245 C822.91,262.239 826.945,268.703 829.042,275.738 z" fill="#2F2E41"/>
      <path d="M813.745,645.8 L802.459,645.8 L797.089,602.102 L813.747,602.103 L813.745,645.8 z" fill="#FFB6B6"/>
      <path d="M816.544,640.212 L798.703,639.143 L798.703,646.815 L781.74,658.574 C780.021,659.766 779.273,661.942 779.895,663.945 C780.517,665.947 782.364,667.311 784.454,667.311 L805.694,667.311 L809.356,659.721 L810.785,667.311 L818.794,667.311 z" fill="#2F2E41"/>
      <path d="M945.97,633.469 L936.154,639.059 L910,603.713 L924.489,595.463 L945.97,633.469 z" fill="#FFB6B6"/>
      <path d="M945.657,627.222 L929.614,635.13 L933.386,641.803 L924.415,660.433 C923.505,662.321 923.924,664.584 925.45,666.018 C926.975,667.451 929.252,667.723 931.07,666.687 L949.544,656.166 L948.997,647.751 L953.971,653.644 L960.937,649.677 z" fill="#2F2E41"/>
      <path d="M772.027,283.394 C774.954,283.819 777.544,285.524 779.099,288.05 C780.654,290.576 781.014,293.664 780.083,296.482 L797.354,311.487 L790.829,324.245 L766.736,302.712 C762.02,300.786 759.483,295.623 760.833,290.694 C762.183,285.766 766.992,282.63 772.027,283.394 z" fill="#FFB6B6"/>
      <path d="M789.419,334.992 C795.18,343.75 808.091,352.209 827.254,359.707 C829.391,360.567 831.789,360.488 833.865,359.49 C841.097,356.187 845.731,343.906 846.166,342.715 L860.172,323.75 C860.421,323.474 866.97,316.013 866.221,308.678 C865.88,305.567 864.2,302.762 861.625,300.999 C851.022,293.11 827.26,320.51 824.177,324.153 L808.669,314.669 L797.37,309.608 L788.248,298.467 L775.404,311.648 L786.956,330.094 C787.572,331.822 788.399,333.468 789.419,334.992 z" fill="#2F2E41"/>
      <path d="M829.698,368.594 C829.698,368.594 796.513,421.653 802.525,427.688 C808.537,433.723 817.893,435.308 817.893,435.308 L838.598,408.377 z" fill="#2F2E41"/>
      <path d="M859.039,296.129 L843.399,306.749 C828.462,316.891 822.045,335.752 827.681,352.947 L832.084,366.381 z" fill="#2F2E41"/>
      <path d="M886.696,440.965 L888.787,448.275 L895.922,536.433 L931.57,603.118 L914.557,615.316 L865.945,551.884 L846.718,488.901 L816.524,628.328 L793.839,626.701 L809.594,433.387 L839.491,378.974 L886.696,440.965 z" fill="#2F2E41"/>
      <path d="M861.699,298.799 L839.931,316.656 C835.154,320.576 831.713,325.893 830.09,331.868 L830.09,331.868 C829.353,334.581 829.002,337.386 829.049,340.198 L829.698,378.974 L809.739,432.516 C809.739,432.516 863.849,453.034 871.064,434.93 C878.279,416.825 861.699,298.799 861.699,298.799 z" fill="#8D30FE"/>
      <path d="M855.189,444.328 C882.22,444.328 888.807,444.532 889.234,444.445 L889.662,444.359 L889.662,428.039 L883.088,398.721 C883.857,389.619 885.656,377.617 885.493,367.34 C884.904,330.195 886.723,293.911 886.723,293.911 L872.416,280.656 L865.917,284.901 L856.106,289.014 C842.092,323.632 828.727,364.21 828.657,366.304 L827.776,402.342 L831.383,416.825 C847.702,428.388 832.792,444.328 855.189,444.328 z" fill="#2F2E41"/>
      <path d="M880.66,326.27 L883.946,346.859 L861.7,356.069 L880.66,326.27 z" fill="#000000" opacity="0.2"/>
      <path d="M836.468,254.931 C836.468,267.005 846.22,276.793 858.249,276.793 C870.278,276.793 880.03,267.005 880.03,254.931 C880.03,242.856 870.278,233.068 858.249,233.068 C846.22,233.068 836.468,242.856 836.468,254.931 z" fill="#FFB6B6"/>
      <path d="M861.856,266.346 L865.106,266.346 C868.42,266.346 871.106,269.032 871.106,272.346 L874.106,284.561 C874.106,287.875 869.67,292.953 866.356,292.953 L862.356,292.953 C859.043,292.953 856.106,292.328 856.106,289.014 L855.856,272.346 C855.856,269.032 858.543,266.346 861.856,266.346 z" fill="#FFB6B6"/>
      <path d="M894.744,365.859 L894.744,365.859 C882.821,379.717 863.069,383.724 846.72,375.603 L841.979,373.248 z" fill="#000000" opacity="0.2"/>
      <path d="M818.953,360.826 C820.92,358.608 823.764,357.379 826.721,357.468 C829.678,357.558 832.443,358.958 834.273,361.291 L856.264,355.094 L863.276,367.59 L832.097,375.903 C827.897,378.792 822.207,378.071 818.854,374.225 C815.5,370.378 815.543,364.622 818.953,360.826 z" fill="#FFB6B6"/>
      <path d="M871.432,374.694 C881.888,374.695 896.035,368.541 912.829,356.623 C914.721,355.307 915.977,353.255 916.292,350.966 C917.53,343.088 909.875,332.439 909.125,331.418 L901.078,309.236 C900.985,308.875 898.391,299.278 891.881,295.863 C889.107,294.435 885.849,294.296 882.964,295.482 C870.563,300.014 880.247,335.017 881.576,339.607 L865.146,347.369 L854.712,354.045 L840.423,355.546 L844.302,373.567 L866.003,374.057 C867.779,374.494 869.603,374.707 871.432,374.694 z" fill="#2F2E41"/>
      <path d="M832.131,240.548 C833.875,242.825 839.881,244.838 847.016,246.463 C847.004,246.314 847.004,246.165 847.004,246.017 C847.04,243.739 847.323,241.472 847.848,239.255 C848.341,241.97 849.381,244.554 850.902,246.852 C851.016,247.023 851.13,247.195 851.256,247.367 C857.376,248.579 863.85,249.517 868.922,250.147 C865.434,262.754 852.065,273.096 853.512,280.761 L892.685,288.792 C892.444,285.607 892.698,282.403 893.437,279.296 C894.186,283.397 896.167,287.169 899.113,290.107 L902.441,290.794 L903.433,285.886 C912.026,265.168 900.048,243.957 880.421,232.986 C876.922,227.721 871.489,224.06 865.309,222.804 L860.419,221.798 C847.449,219.134 834.784,227.529 832.131,240.548 z" fill="#2F2E41"/>
    </g>
  </g>
  <g id="Layer_4">
    <g clip-path="url(#Clip_1)" id="Layer_1">
      <path d="M863.017,420.871 L863.468,421.008 C865.526,416.852 867.807,412.788 869.565,408.507 C870.719,405.695 871.981,402.721 871.204,399.476 C871.184,399.392 871.212,399.298 871.2,399.211 C871.03,397.985 870.858,396.761 870.687,395.536 C870.5,395.539 870.313,395.54 870.125,395.542 C869.916,396.24 869.573,396.928 869.518,397.638 C869.005,404.184 867.285,410.346 863.799,415.955 C862.831,417.512 862.79,419.163 863.017,420.871 M837.345,506.753 C836.377,502.128 835.42,497.501 834.429,492.881 C834.291,492.241 833.985,491.638 833.757,491.019 C826.943,473.766 823.539,455.792 822.426,437.335 C822.386,431.078 822.312,424.821 822.318,418.563 C822.324,411.551 822.306,404.536 822.492,397.526 C822.577,394.346 823.18,391.182 823.439,388.001 C823.519,387.023 823.239,386.016 823.124,385.022 C823.416,384.589 823.67,384.123 824.007,383.729 C826.133,381.244 828.277,378.775 830.418,376.303 C831.695,374.829 833.013,373.391 834.249,371.883 C836.759,368.824 839.351,365.802 840.171,361.75 C840.314,361.46 840.456,361.17 840.599,360.88 L840.596,360.888 C840.667,360.697 840.739,360.506 840.81,360.315 C840.81,360.315 840.804,360.333 840.803,360.333 C841.02,359.337 841.237,358.341 841.453,357.346 L841.448,357.358 C841.637,356.745 841.89,356.144 841.997,355.518 C842.121,354.8 842.495,354.565 843.163,354.655 C843.685,354.671 844.217,354.627 844.726,354.713 C848.995,355.435 853.259,356.181 857.525,356.92 C857.799,357.155 858.231,357.34 858.324,357.633 C859.122,360.134 860.783,362.021 862.581,363.824 C866.596,367.85 870.814,371.697 874.568,375.952 C880.32,382.472 883.416,390.313 884.802,398.851 C885.752,404.706 885.816,410.508 883.865,416.217 C882.83,419.245 881.193,421.894 879.182,424.36 C875.179,429.269 871.8,434.563 869.438,440.474 C869.045,441.457 868.582,442.44 867.982,443.307 C865.179,447.35 864.116,451.913 863.803,456.723 C863.332,463.987 862.734,471.246 862.404,478.517 C862.03,486.794 862.175,495.05 865.117,502.975 C866.451,506.57 868.554,509.651 871.257,512.366 C879.517,520.663 887.141,529.475 893.379,539.435 C898.936,548.308 902.922,557.807 905.483,567.958 C906.379,571.509 907.636,575.002 909.069,578.377 C911.178,583.343 913.459,585.946 919.402,591.19 C917.268,591.764 915.204,592.319 913.141,592.873 C912.603,593.036 912.025,593.123 911.535,593.379 C910.287,594.03 909.089,594.775 907.853,595.448 C904.852,597.084 901.84,598.699 898.833,600.322 C897.225,601.007 895.618,601.691 893.787,602.47 C893.039,599.569 892.224,596.813 891.629,594.01 C890.487,588.625 888.465,583.691 885.484,579.005 C882.118,573.715 879.315,568.068 876.267,562.576 C876.193,562.459 876.119,562.341 876.044,562.224 C876.044,562.224 875.996,562.12 875.995,562.12 C875.9,562.004 875.805,561.89 875.71,561.775 L875.726,561.782 C874.812,560.067 874.066,558.234 872.955,556.658 C868.026,549.664 862.928,542.788 858.023,535.777 C855.448,532.096 852.168,529.287 848.384,526.984 C843.475,523.995 840.361,519.687 838.993,514.125 C838.393,511.681 837.892,509.211 837.345,506.753" fill="#2F2E41"/>
      <path d="M822.426,437.336 C823.54,455.792 826.943,473.766 833.757,491.019 C832.592,493.865 831.17,496.639 830.322,499.578 C828.891,504.533 829.223,509.583 830.277,514.606 C832.734,526.309 832.167,537.933 829.786,549.614 C827.956,558.594 826.737,567.698 825.234,576.745 C824.146,583.293 823.038,589.837 821.905,596.587 C819.979,596.017 818.434,595.561 816.888,595.104 C814.698,594.826 812.506,594.566 810.319,594.268 C807.086,593.827 803.771,594.23 800.583,593.325 C799.871,593.2 799.717,592.82 799.861,592.111 C802.338,579.911 803.694,567.557 804.697,555.168 C805.325,547.421 805.463,539.634 806.098,531.888 C806.601,525.748 805.685,519.899 803.294,514.301 C801.538,510.19 801.776,506.098 802.754,501.939 C803.087,500.52 803.492,499.077 804.13,497.776 C807.539,490.828 809.581,483.433 811.412,475.965 C814.187,464.646 818.347,453.771 821.939,442.713 C822.482,441.043 822.282,439.134 822.426,437.336" fill="#272536"/>
      <path d="M811.3,245.964 C810.641,246.389 809.982,246.815 809.221,247.305 C808.528,241.791 807.266,236.405 807.988,230.855 C808.806,224.557 812.227,220.393 818.33,218.697 C826.109,216.536 833.938,214.55 842.067,214.167 C845.647,213.999 849.131,214.083 852.431,215.842 C853.687,216.511 855.252,216.573 856.633,217.037 C866.286,220.279 872.514,227.11 876.465,236.227 C879.774,243.865 880.818,251.905 880.514,260.179 C880.44,262.204 880.701,264.242 880.809,266.3 C878.44,267.227 874.838,266.552 873.178,264.773 C872.754,270.192 868.584,271.379 864.447,272.499 C863.097,272.865 861.644,272.844 860.238,273 C854.526,272.776 848.813,272.55 843.101,272.328 C840.151,272.214 837.201,272.108 834.264,271.999 C834.704,269.899 835.113,267.945 835.537,265.922 C834.169,265.83 833.138,265.761 832.341,265.707 C832.645,263.278 833.14,261.007 833.171,258.731 C833.243,253.616 831.599,249.278 827.066,246.33 C822.014,243.046 815.745,242.837 811.3,245.964" fill="#2F2E41"/>
      <path d="M832.108,300.139 C831.978,300.082 831.848,300.025 831.719,299.968 C830.209,301.687 828.646,303.363 827.211,305.143 C826.444,306.094 825.761,307.165 825.284,308.285 C824.49,310.148 824.521,312.223 825.934,313.639 C827.385,315.093 829.583,315.144 831.707,315.416 C831.844,310.209 831.976,305.174 832.108,300.139 M874.381,302.685 C874.348,302.051 874.399,301.757 874.304,301.524 C874.175,301.209 873.889,300.678 873.747,300.702 C873.383,300.762 872.855,301.007 872.755,301.302 C872.087,303.273 871.302,305.241 870.977,307.278 C870.719,308.893 869.876,309.506 868.54,310.032 C867.627,310.391 866.61,310.909 866.068,311.663 C865.537,312.404 865.615,313.556 865.305,314.487 C864.549,316.752 863.821,319.034 862.907,321.236 C860.95,325.952 858.879,330.621 856.861,335.312 C856.336,336.531 856.947,337.626 858.24,337.776 C858.94,337.856 859.648,337.864 860.348,337.939 C861.338,338.043 861.813,337.581 862.228,336.685 C863.213,334.56 864.238,332.435 865.475,330.45 C866.279,329.16 867.763,328.264 868.454,326.938 C870.063,323.847 871.54,320.664 872.771,317.405 C874.606,312.547 873.955,307.363 874.381,302.685 M857.525,356.92 C853.259,356.18 848.995,355.435 844.726,354.713 C844.217,354.627 843.685,354.671 843.164,354.654 C843.626,351.647 844.098,348.641 844.549,345.633 C844.852,343.614 845.15,343.268 847.107,343.186 C847.96,343.15 848.36,342.85 848.564,342.007 C848.939,340.46 849.442,338.944 849.883,337.412 C849.915,337.299 849.874,337.164 849.87,337.075 C849.529,336.908 849.217,336.756 848.592,336.45 C850.319,335.948 850.76,334.659 850.698,333.586 C850.575,331.458 851.502,329.908 852.838,328.542 C855.284,326.043 855.591,323.13 854.802,319.93 C854.177,317.4 853.446,314.893 854.248,312.234 C854.439,311.603 854.333,310.78 854.103,310.138 C853.221,307.673 852.234,305.246 851.264,302.748 C851.021,303.175 850.645,303.631 850.484,304.155 C849.848,306.216 849.074,308.264 848.721,310.378 C847.412,318.208 846.251,326.063 845.034,333.91 C844.111,333.309 843.249,332.564 842.252,332.132 C839.103,330.768 835.895,329.514 832.435,331.126 C831.441,331.589 830.496,332.155 829.529,332.673 C829.814,328.953 830.1,325.234 830.384,321.536 C830.255,321.496 830.212,321.466 830.178,321.474 C830.008,321.518 829.837,321.562 829.673,321.623 C828.036,322.224 826.669,322.199 825.467,320.579 C824.544,319.336 822.952,319.276 821.685,320.347 C818.344,323.171 814.992,325.994 811.836,329.018 C809.552,331.205 810.149,333.883 813.012,335.402 C813.02,335.212 813.054,335.041 813.032,334.879 C812.554,331.414 814.535,329.444 817.242,327.894 C818.204,327.344 819.036,327.552 819.51,328.452 C819.878,329.151 820.124,330.023 820.095,330.806 C819.978,333.875 819.039,336.535 815.896,337.813 C816.896,339.327 817.903,340.346 819.864,339.607 C820.419,339.398 821.652,339.765 821.934,340.245 C823.883,343.569 825.665,346.993 827.5,350.385 C826.599,352.74 825.709,355.099 824.782,357.444 C824.694,357.664 824.379,357.796 824.169,357.969 C823.798,356.513 823.265,355.076 823.088,353.597 C822.713,350.485 821.396,347.78 820.034,345.017 C818.628,342.165 816.917,339.831 814.063,338.22 C811.282,336.651 809.29,334.245 808.699,330.946 C808.226,328.307 808.753,325.836 810.024,323.503 C811.622,321.113 813.238,318.737 814.809,316.331 C815.575,315.158 816.258,313.932 816.979,312.73 L816.956,312.728 C817.069,312.626 817.181,312.525 817.294,312.423 C817.684,311.94 818.041,311.427 818.469,310.98 C822.33,306.953 825.615,302.511 828.347,297.638 C829.871,294.919 831.746,292.439 834.156,290.399 C834.48,290.125 834.695,289.61 834.773,289.173 C835.311,286.158 837.189,284.571 840.089,283.955 C841.123,283.735 842.119,283.337 843.133,283.02 C845.83,283.034 848.528,283.017 851.223,283.07 C854.715,283.138 858.206,283.373 861.693,283.306 C863.094,283.279 864.484,282.639 865.879,282.279 C866.177,282.43 866.562,282.508 866.759,282.743 C869.729,286.275 872.683,289.819 875.62,293.378 C878.558,296.936 878.588,301.122 878.134,305.39 C877.618,310.246 875.877,314.752 874.211,319.295 C870.459,329.522 865.393,339.118 860.302,348.707 C858.931,351.291 857.619,353.901 857.525,356.92" fill="#8D31FC"/>
      <path d="M829.529,332.673 C830.496,332.155 831.441,331.589 832.435,331.126 C835.895,329.514 839.103,330.768 842.252,332.132 C843.25,332.564 844.111,333.309 845.034,333.91 C845.086,334.257 845.231,334.623 845.167,334.947 C845.07,335.435 844.739,335.88 844.66,336.368 C843.578,343.013 842.519,349.661 841.465,356.31 C841.411,356.652 841.452,357.008 841.448,357.358 L841.453,357.345 C841.237,358.341 841.02,359.337 840.804,360.333 L840.81,360.315 C840.739,360.506 840.667,360.697 840.596,360.888 L840.599,360.88 C840.456,361.17 840.314,361.46 840.171,361.75 C839.351,365.802 836.759,368.824 834.249,371.884 C833.013,373.391 831.695,374.829 830.418,376.303 C828.277,378.774 826.133,381.244 824.007,383.728 C823.669,384.122 823.416,384.589 823.124,385.022 C820.142,388.426 817.144,391.817 814.185,395.242 C812.387,397.322 810.657,399.46 808.881,401.56 C807.018,403.762 805.077,405.901 803.292,408.165 C802.538,409.12 801.873,410.261 801.553,411.423 C800.336,415.85 799.277,420.32 798.12,424.925 C799.101,424.973 799.826,425.008 800.693,425.051 C800.651,425.555 800.491,426.016 800.607,426.392 C800.782,426.958 801.028,427.758 801.46,427.937 C802.497,428.368 802.468,429.067 802.045,429.715 C799.763,433.215 794.144,435.762 790.693,435.216 C788.824,434.922 788.069,433.571 787.204,432.244 C786.941,431.841 786.763,431.382 786.445,430.747 C785.502,431.865 785.071,433.009 785.165,434.308 C785.284,435.941 785.596,437.563 785.641,439.195 C785.675,440.452 785.502,441.75 784.163,442.72 C783.317,439.893 782.454,437.216 781.741,434.501 C781.536,433.725 781.732,432.833 781.796,431.998 C782.301,425.375 784.683,419.361 787.723,413.544 C788.499,412.06 789.14,410.482 789.651,408.886 C790.369,406.641 791.854,404.983 793.384,403.296 C795.098,401.406 796.802,399.488 798.319,397.441 C807.383,385.214 815.251,372.192 823.463,359.4 C823.749,358.955 823.936,358.448 824.169,357.97 C824.379,357.796 824.694,357.665 824.782,357.444 C825.709,355.099 826.599,352.74 827.5,350.385 C828.101,348.425 829.058,346.495 829.227,344.499 C829.559,340.577 829.454,336.617 829.529,332.673" fill="#FEB6B6"/>
      <path d="M923.386,607.957 C923.651,607.846 923.92,607.632 924.182,607.638 C928.258,607.733 932.338,607.777 936.406,608.018 C937.72,608.096 939.16,608.451 940.268,609.128 C942.992,610.791 945.615,612.638 948.167,614.559 C950.24,616.119 951.349,618.367 950.505,620.884 C949.639,623.468 948.19,625.84 945.076,626.343 C943.478,626.601 941.992,626.217 940.615,625.396 C940.085,625.08 939.577,624.728 938.987,624.345 C938.304,626.357 937.73,628.343 936.965,630.252 C932.418,641.608 926.389,652.041 917.678,660.761 C915.191,663.251 912.503,665.539 909.093,666.671 C908.05,667.018 906.818,667.123 905.735,666.947 C903.845,666.64 902.742,665.226 902.96,663.326 C903.171,661.494 903.615,659.661 904.185,657.903 C906.505,650.743 908.289,643.476 908.505,635.924 C908.555,634.198 908.012,632.432 907.593,630.722 C907.244,629.299 907.076,627.947 907.78,626.602 C907.989,626.545 908.233,626.541 908.402,626.424 C915.226,621.754 920.055,615.463 923.386,607.957" fill="#302F41"/>
      <path d="M815.636,627.06 C816.132,627.103 816.743,626.975 817.102,627.218 C818.197,627.962 819.336,628.724 820.206,629.703 C823.287,633.168 825.195,637.333 826.668,641.657 C827.702,644.696 826.202,647.326 823.4,648.819 C819.854,650.708 816.789,650.323 813.974,645.89 C813.513,646.137 813.012,646.335 812.59,646.642 C808.353,649.719 803.504,651.371 798.549,652.829 C792.6,654.581 786.742,656.671 780.736,658.186 C775.389,659.536 769.876,660.145 764.367,658.968 C763.097,658.697 761.808,658.161 760.725,657.448 C758.675,656.097 758.409,653.884 760.081,652.089 C761.22,650.866 762.553,649.79 763.925,648.829 C767.849,646.081 771.968,643.594 775.763,640.683 C779.312,637.962 782.617,634.905 785.878,631.836 C787.034,630.747 787.817,629.228 788.64,627.828 C789.264,626.767 789.836,625.746 791.159,625.474 C796.732,626.429 802.288,627.513 807.886,628.283 C810.502,628.643 813.201,628.404 815.636,627.06" fill="#302F41"/>
      <path d="M865.879,282.279 C864.484,282.64 863.095,283.279 861.693,283.306 C858.206,283.373 854.714,283.138 851.223,283.07 C848.527,283.017 845.83,283.034 843.133,283.02 C843.845,282.479 843.973,281.903 843.459,281.094 C842.369,279.373 841.363,277.6 840.24,275.71 C838.289,277.093 836.362,278.404 834.498,279.799 C832.84,281.039 830.931,281.538 828.953,281.821 C828.625,281.868 828.044,281.469 827.882,281.132 C826.881,279.035 825.26,277.479 823.599,275.938 C823.182,275.551 822.781,275.111 822.5,274.622 C821.822,273.442 821.042,272.484 819.684,271.955 C818.245,271.395 817.745,270.323 818.275,268.816 C819.265,265.999 819.215,263.176 818.704,260.313 C818.63,259.9 818.487,259.434 818.22,259.129 C817.025,257.765 815.715,256.499 814.562,255.103 C813.793,254.171 812.963,253.16 812.612,252.042 C811.992,250.073 811.718,247.996 811.299,245.964 C815.745,242.837 822.014,243.046 827.066,246.331 C831.599,249.278 833.243,253.616 833.172,258.731 C833.14,261.008 832.645,263.278 832.341,265.707 C833.138,265.761 834.169,265.83 835.537,265.922 C835.113,267.945 834.704,269.899 834.264,272 C837.201,272.109 840.151,272.214 843.101,272.328 C848.813,272.55 854.526,272.776 860.238,273 C861.695,275.369 863.155,277.735 864.606,280.107 C865.045,280.822 865.456,281.554 865.879,282.279" fill="#FEB6B6"/>
      <path d="M816.979,312.73 C816.258,313.932 815.575,315.159 814.809,316.331 C813.238,318.736 811.622,321.114 810.025,323.502 C809.574,322.558 809.294,321.469 808.643,320.693 C805.537,316.995 802.401,313.317 799.122,309.774 C798.004,308.567 797.292,307.183 796.39,305.884 C794.366,302.966 792.078,300.215 789.734,297.541 C787.725,295.251 785.488,293.162 783.223,290.852 C782.761,291.52 782.374,292.079 781.895,292.771 C781.414,292.486 781.001,292.143 780.527,291.989 C780.062,291.837 779.464,291.703 779.049,291.87 C777.748,292.394 777.25,292.262 776.833,290.939 C775.868,287.883 775.971,284.832 777.056,281.832 C778.392,278.137 780.031,277.198 783.984,277.757 C784.148,277.78 784.321,277.743 784.576,277.729 C784.439,276.414 783.667,275.593 782.67,275.008 C781.526,274.337 780.315,273.776 779.122,273.192 C777.566,272.431 776.233,271.472 775.698,269.534 C776.063,269.568 776.348,269.551 776.608,269.624 C778.87,270.255 781.142,270.859 783.38,271.568 C784.168,271.818 784.974,272.216 785.596,272.751 C789.534,276.134 793.413,279.539 796.011,284.197 C797.709,287.24 799.85,290.035 801.756,292.965 C802.308,293.813 802.921,294.692 803.184,295.646 C804.058,298.814 805.857,301.407 807.941,303.852 C810.325,306.651 812.763,309.406 815.073,312.265 C815.699,313.041 816.239,313.006 816.979,312.73" fill="#FEB6B6"/>
      <path d="M815.636,627.06 C813.201,628.404 810.502,628.643 807.886,628.283 C802.288,627.512 796.732,626.429 791.159,625.474 C792.774,620.334 794.305,615.167 796.027,610.065 C797.881,604.571 799.634,599.06 800.583,593.326 C803.771,594.23 807.086,593.827 810.32,594.268 C812.506,594.566 814.698,594.826 816.888,595.104 C815.567,601.162 814.311,607.235 812.904,613.273 C811.848,617.81 812.56,621.975 815.012,625.89 C815.246,626.264 815.429,626.67 815.636,627.06" fill="#FEB6B6"/>
      <path d="M923.386,607.957 C920.055,615.463 915.226,621.754 908.402,626.424 C908.233,626.541 907.989,626.545 907.78,626.602 C907.029,624.672 906.378,622.694 905.506,620.821 C902.995,615.425 901.486,609.703 899.868,604.014 C899.519,602.784 899.178,601.552 898.834,600.323 C901.841,598.699 904.852,597.084 907.853,595.448 C909.09,594.775 910.288,594.029 911.535,593.379 C912.025,593.123 912.603,593.036 913.141,592.873 C914.733,596.479 916.308,600.091 917.925,603.684 C918.56,605.094 919.532,606.184 921.048,606.754 C921.863,607.061 922.608,607.55 923.386,607.957" fill="#FEB6B6"/>
      <path d="M817.294,312.423 C817.181,312.524 817.068,312.626 816.956,312.728 C817.068,312.626 817.181,312.524 817.294,312.423" fill="#FEB6B6"/>
      <path d="M875.71,561.775 C875.805,561.89 875.9,562.004 875.995,562.119 C875.9,562.005 875.805,561.89 875.71,561.775" fill="#8D31FC"/>
      <path d="M876.044,562.224 C876.118,562.341 876.192,562.459 876.267,562.577 C876.193,562.459 876.118,562.342 876.044,562.224" fill="#8D31FC"/>
      <path d="M841.449,357.358 C841.452,357.008 841.411,356.652 841.465,356.31 C842.519,349.661 843.578,343.013 844.66,336.368 C844.74,335.88 845.07,335.435 845.167,334.947 C845.231,334.623 845.086,334.257 845.034,333.91 C846.251,326.064 847.412,318.209 848.721,310.378 C849.074,308.263 849.848,306.216 850.484,304.155 C850.646,303.632 851.021,303.174 851.264,302.749 C852.234,305.246 853.221,307.673 854.103,310.138 C854.332,310.781 854.439,311.602 854.248,312.235 C853.446,314.894 854.177,317.399 854.802,319.931 C855.591,323.13 855.284,326.043 852.838,328.542 C851.502,329.907 850.575,331.457 850.698,333.586 C850.76,334.659 850.319,335.948 848.592,336.45 C849.217,336.756 849.529,336.909 849.87,337.075 C849.874,337.164 849.915,337.299 849.882,337.412 C849.442,338.944 848.939,340.46 848.564,342.007 C848.36,342.849 847.96,343.15 847.107,343.186 C845.15,343.269 844.852,343.613 844.549,345.633 C844.098,348.642 843.626,351.647 843.164,354.654 C842.495,354.565 842.121,354.8 841.997,355.518 C841.89,356.144 841.637,356.745 841.449,357.358" fill="#7729D7"/>
      <path d="M860.56,426.127 C860.223,423.595 860.284,421.145 861.72,418.835 C866.891,410.513 869.441,401.371 870.202,391.66 C870.284,390.606 870.793,389.585 871.103,388.55 C871.381,388.546 871.658,388.544 871.936,388.541 C872.19,390.358 872.446,392.174 872.697,393.992 C872.715,394.121 872.674,394.261 872.704,394.386 C873.856,399.201 871.984,403.613 870.272,407.785 C867.665,414.135 864.282,420.165 861.229,426.332 z" fill="#272536"/>
      <path d="M858.484,364.524 L858.975,373.847 C858.818,372.659 858.557,371.06 858.409,369.451 C858.259,367.827 858.223,366.193 858.137,364.563 C858.253,364.55 858.368,364.537 858.484,364.524" fill="#302F41"/>
      <path d="M840.803,360.333 C841.02,359.337 841.237,358.341 841.453,357.346 C841.237,358.341 841.02,359.337 840.803,360.333" fill="#7729D7"/>
      <path d="M840.171,361.75 C840.314,361.461 840.456,361.17 840.599,360.88 C840.456,361.17 840.314,361.461 840.171,361.75" fill="#7729D7"/>
      <path d="M840.596,360.888 C840.667,360.697 840.738,360.506 840.81,360.315 C840.739,360.506 840.667,360.697 840.596,360.888" fill="#7729D7"/>
      <path d="M829.529,332.673 C829.454,336.617 829.559,340.577 829.227,344.499 C829.058,346.495 828.101,348.425 827.5,350.385 C825.665,346.992 823.884,343.569 821.933,340.244 C821.652,339.765 820.419,339.398 819.864,339.607 C817.903,340.346 816.896,339.327 815.896,337.813 C819.039,336.535 819.979,333.876 820.095,330.806 C820.124,330.023 819.878,329.151 819.51,328.451 C819.036,327.552 818.204,327.344 817.242,327.895 C814.534,329.444 812.554,331.414 813.032,334.879 C813.054,335.041 813.02,335.212 813.012,335.403 C810.149,333.883 809.552,331.205 811.836,329.018 C814.992,325.995 818.344,323.171 821.685,320.348 C822.952,319.276 824.544,319.335 825.467,320.579 C826.669,322.2 828.036,322.224 829.672,321.622 C829.837,321.562 830.007,321.517 830.177,321.474 C830.212,321.466 830.255,321.496 830.384,321.536 C830.1,325.235 829.814,328.954 829.529,332.673" fill="#7729D7"/>
      <path d="M874.381,302.685 C873.955,307.362 874.606,312.547 872.771,317.406 C871.54,320.664 870.063,323.846 868.454,326.938 C867.763,328.265 866.279,329.16 865.475,330.45 C864.238,332.434 863.214,334.56 862.228,336.686 C861.813,337.581 861.338,338.043 860.348,337.939 C859.648,337.864 858.94,337.855 858.24,337.775 C856.947,337.627 856.336,336.531 856.861,335.311 C858.879,330.621 860.95,325.952 862.907,321.236 C863.821,319.034 864.549,316.752 865.305,314.486 C865.615,313.556 865.537,312.404 866.068,311.664 C866.61,310.909 867.627,310.391 868.54,310.032 C869.876,309.506 870.719,308.893 870.977,307.277 C871.302,305.24 872.087,303.272 872.755,301.302 C872.855,301.007 873.383,300.763 873.747,300.701 C873.889,300.678 874.175,301.208 874.304,301.524 C874.399,301.757 874.348,302.05 874.381,302.685" fill="#7729D7"/>
      <path d="M832.108,300.139 C831.976,305.174 831.844,310.209 831.707,315.416 C829.583,315.144 827.385,315.093 825.934,313.639 C824.521,312.223 824.49,310.148 825.284,308.285 C825.761,307.165 826.444,306.094 827.211,305.143 C828.646,303.363 830.209,301.687 831.719,299.968 C831.848,300.025 831.978,300.082 832.108,300.139" fill="#7729D7"/>
    </g>
  </g>
</svg>
