<?xml version="1.0" encoding="UTF-8"?>
<!DOCTYPE svg PUBLIC "-//W3C//DTD SVG 1.1//EN" "http://www.w3.org/Graphics/SVG/1.1/DTD/svg11.dtd">
<svg version="1.1" xmlns="http://www.w3.org/2000/svg" xmlns:xlink="http://www.w3.org/1999/xlink" x="0" y="0" width="1028" height="670" viewBox="0, 0, 1028, 670">
  <g id="Layer_2" opacity="0.101">
    <path d="M707.33,530.34 C561.157,530.34 442.66,411.843 442.66,265.67 C442.66,119.497 561.157,1 707.33,1 C853.503,1 972,119.497 972,265.67 C972,411.843 853.503,530.34 707.33,530.34 z" fill="#FFFFFF"/>
    <path d="M243.715,652.798 C115.46,652.798 11.488,548.826 11.488,420.57 C11.488,292.315 115.46,188.343 243.715,188.343 C371.971,188.343 475.943,292.315 475.943,420.57 C475.943,548.826 371.971,652.798 243.715,652.798 z" fill="#FFFFFF"/>
  </g>
  <g id="Layer_3">
    <path d="M925.029,58.869 C925.619,60.617 926.168,62.19 926.676,63.775 C926.84,64.286 927.068,64.544 927.645,64.664 C935.118,66.223 940.157,72.675 939.977,80.398 C939.807,87.664 934.29,93.885 926.958,95.082 C926.78,95.111 926.606,95.165 926.499,95.191 C931.185,109.576 927.488,121.193 915.32,130.147 L915.335,130.179 L917.088,130.179 L917.088,134.226 C852.78,134.22 828.731,134.227 826.682,134.217 C826.645,134.214 826.505,130.19 826.708,130.179 C826.757,130.176 891.714,130.001 899.827,130.227 C908.902,130.48 918.815,125.081 922.797,114.97 C928.486,100.528 919.333,84.501 903.966,82.304 C894.035,80.885 886.138,84.618 880.281,92.724 C880.187,92.855 880.103,92.994 880.022,93.134 C879.983,93.202 879.964,93.282 879.885,93.493 C881.622,93.953 883.341,94.408 885.229,94.908 C881.528,98.695 877.939,102.369 874.2,106.194 C872.768,101.086 871.378,96.133 869.936,90.99 C871.964,91.499 873.826,91.966 875.557,92.4 C876.862,90.674 878.001,88.926 879.375,87.386 C891.581,73.711 913.3,75.146 923.617,90.299 C924.145,91.075 924.646,91.332 925.584,91.223 C930.856,90.615 934.831,86.983 935.815,81.779 C936.781,76.675 933.892,71.313 929.092,69.301 C928.946,69.24 928.791,69.195 928.478,69.087 C928.998,70.683 929.481,72.163 930.031,73.848 C924.831,72.791 919.792,71.767 914.563,70.703 C918.086,66.72 921.486,62.875 925.029,58.869 z" fill="#E6E6E6"/>
    <path d="M947.242,140.105 C947.247,127.73 947.242,126.118 947.242,124.292 C951.849,126.95 956.308,129.523 960.937,132.194 C956.345,134.847 951.892,137.419 947.242,140.105" fill="#E6E6E6"/>
    <path d="M920.578,130.18 L925.848,130.18 L925.848,134.226 L920.578,134.226 L920.578,130.18 z" fill="#E6E6E6"/>
    <path d="M929.339,130.18 L934.609,130.18 L934.609,134.226 L929.339,134.226 L929.339,130.18 z" fill="#E6E6E6"/>
    <path d="M938.094,130.18 L943.364,130.18 L943.364,134.226 L938.094,134.226 L938.094,130.18 z" fill="#E6E6E6"/>
    <path d="M800.348,130.176 L805.618,130.176 L805.618,134.222 L800.348,134.222 L800.348,130.176 z" fill="#E6E6E6"/>
    <path d="M809.109,130.176 L814.379,130.176 L814.379,134.222 L809.109,134.222 L809.109,130.176 z" fill="#E6E6E6"/>
    <path d="M817.864,130.176 L823.134,130.176 L823.134,134.222 L817.864,134.222 L817.864,130.176 z" fill="#E6E6E6"/>
    <path d="M782.838,130.18 L788.108,130.18 L788.108,134.226 L782.838,134.226 L782.838,130.18 z" fill="#E6E6E6"/>
    <path d="M791.593,130.18 L796.863,130.18 L796.863,134.226 L791.593,134.226 L791.593,130.18 z" fill="#E6E6E6"/>
    <path d="M1025.712,643.039 C1024.318,643.105 1023.033,642.266 1022.495,640.939 C1021.957,639.613 1022.28,638.081 1023.304,637.105 C1023.389,636.762 1023.449,636.516 1023.532,636.172 Q1023.487,636.061 1023.441,635.948 C1022.041,632.536 1018.789,630.325 1015.195,630.339 C1011.602,630.353 1008.368,632.589 1006.99,636.011 C1004.3,642.693 1000.875,649.384 1000.031,656.448 C999.659,659.57 999.817,662.735 1000.494,665.802 C994.174,651.59 990.893,636.145 990.872,620.511 C990.87,616.588 991.081,612.668 991.504,608.769 Q992.029,603.975 992.961,599.249 C996.348,582.155 1003.62,566.131 1014.18,552.497 C1019.292,549.621 1023.425,545.201 1026.024,539.829 C1026.966,537.898 1027.632,535.837 1028,533.71 C1027.423,533.788 1026.837,533.836 1026.261,533.875 C1026.081,533.885 1025.893,533.895 1025.713,533.905 L1025.645,533.908 C1024.35,533.968 1023.143,533.239 1022.559,532.046 C1021.975,530.853 1022.126,529.419 1022.942,528.381 Q1023.316,527.908 1023.69,527.435 C1024.068,526.947 1024.455,526.47 1024.833,525.983 C1024.877,525.937 1024.918,525.887 1024.957,525.836 C1025.391,525.281 1025.826,524.735 1026.261,524.18 C1025.467,522.91 1024.4,521.846 1023.141,521.072 C1018.784,518.44 1012.772,520.263 1009.625,524.326 C1006.468,528.389 1005.872,534.09 1006.969,539.166 C1008.047,543.486 1009.83,547.585 1012.243,551.289 C1012.006,551.6 1011.761,551.902 1011.525,552.214 C1007.205,557.94 1003.44,564.089 1000.284,570.572 C1001.051,563.309 1000.136,555.962 997.611,549.135 C995.052,542.772 990.258,537.414 986.034,531.913 C980.963,525.307 970.561,528.19 969.667,536.565 Q969.654,536.687 969.642,536.808 Q970.583,537.355 971.484,537.97 C973.029,539.033 973.781,540.966 973.38,542.836 C972.978,544.706 971.504,546.129 969.668,546.421 L969.576,546.435 C969.8,548.767 970.194,551.076 970.757,553.345 C974.056,566.148 982.384,576.954 993.736,583.161 C994.105,583.356 994.463,583.551 994.833,583.736 C991.661,593 989.672,602.65 988.915,612.443 C988.487,618.221 988.511,624.024 988.991,629.797 L988.962,629.592 C987.752,623.172 984.43,617.38 979.558,613.193 C972.32,607.064 962.095,604.807 954.286,599.881 C952.592,598.759 950.42,598.753 948.721,599.867 C947.021,600.98 946.103,603.008 946.367,605.066 Q946.383,605.173 946.399,605.281 C947.563,605.77 948.696,606.333 949.793,606.967 Q950.734,607.514 951.635,608.128 C953.179,609.192 953.932,611.124 953.53,612.994 C953.128,614.864 951.654,616.288 949.818,616.579 L949.726,616.594 C949.66,616.604 949.603,616.613 949.538,616.623 C951.526,621.518 954.317,626.024 957.789,629.944 C966.457,639.531 978.575,645.012 991.288,645.096 L991.297,645.096 C993.005,652.745 995.478,660.191 998.679,667.312 L1025.051,667.312 C1025.145,667.01 1025.231,666.698 1025.315,666.396 C1022.875,666.555 1020.424,666.404 1018.018,665.948 C1019.975,663.473 1021.931,660.979 1023.888,658.504 C1023.932,658.457 1023.972,658.409 1024.011,658.357 C1025.004,657.09 1026.005,655.833 1026.998,654.567 L1026.999,654.565 C1027.051,650.682 1026.619,646.809 1025.713,643.039 z" fill="#F2F2F2"/>
  </g>
  <g id="new">
    <path d="M743.561,561.108 C783.248,530.879 802.204,480.083 790.337,431.626 Q789.895,429.82 789.403,428.022 C781.536,399.258 762.072,371.921 733.703,362.731 C709.884,355.014 683.884,360.948 659.034,357.879 C610.253,351.855 572.433,312.385 545.823,271.06 C519.212,229.734 498.761,183.476 463.401,149.336 C405.116,93.06 310.039,80.944 237.775,117.575 C165.51,154.206 119.478,235.476 121.441,316.47 C123.404,397.465 171.487,474.902 241.316,515.987 C266.968,531.08 296.637,541.773 326.164,538.031 C351.784,534.785 375.063,521.019 400.563,516.932 C440.654,510.506 480.49,528.633 515.166,549.755 C549.841,570.878 583.336,595.915 622.74,605.708 C661.001,615.216 708.404,587.886 743.561,561.108 z" fill="#F2F2F2"/>
    <path d="M778.8,276.141 C778.8,285.806 770.965,293.641 761.3,293.641 C751.635,293.641 743.8,285.806 743.8,276.141 C743.8,266.476 751.635,258.641 761.3,258.641 C770.965,258.641 778.8,266.476 778.8,276.141 z" fill="#8D30FE"/>
    <path d="M758.912,285.249 C758.3,285.249 757.723,284.96 757.355,284.47 L752.581,278.104 C751.936,277.244 752.11,276.024 752.97,275.379 C753.831,274.734 755.051,274.908 755.696,275.768 L758.819,279.933 L766.841,267.9 C767.438,267.006 768.646,266.765 769.54,267.361 C770.434,267.957 770.676,269.165 770.081,270.059 L760.532,284.382 C760.182,284.907 759.598,285.23 758.967,285.248 C758.948,285.248 758.93,285.249 758.912,285.249 z" fill="#FFFFFF"/>
    <path d="M778.8,420.571 C778.8,430.236 770.965,438.071 761.3,438.071 C751.635,438.071 743.8,430.236 743.8,420.571 C743.8,410.906 751.635,403.071 761.3,403.071 C770.965,403.071 778.8,410.906 778.8,420.571 z" fill="#8D30FE"/>
    <path d="M758.912,429.679 C758.3,429.679 757.723,429.391 757.355,428.9 L752.581,422.535 C751.936,421.674 752.11,420.454 752.97,419.809 C753.831,419.164 755.051,419.339 755.696,420.199 L758.819,424.363 L766.841,412.33 C767.437,411.435 768.647,411.192 769.542,411.789 C770.436,412.386 770.678,413.595 770.081,414.49 L760.532,428.812 C760.182,429.338 759.598,429.661 758.967,429.678 C758.948,429.679 758.93,429.679 758.912,429.679 z" fill="#FFFFFF"/>
    <g>
      <path d="M669.558,186.465 L410.635,186.465 C407.776,186.462 405.458,184.098 405.455,181.18 L405.455,131.392 L407.527,131.392 L407.527,181.18 C407.529,182.931 408.919,184.349 410.635,184.351 L669.558,184.351 C671.274,184.349 672.664,182.931 672.666,181.18 L672.666,131.044 L674.739,131.044 L674.739,181.18 C674.735,184.098 672.418,186.462 669.558,186.465 z" fill="#3F3D56"/>
      <path d="M154.98,130.335 L763.419,130.335 L763.419,132.449 L154.98,132.449 z" fill="#3F3D56"/>
      <path d="M172.848,131.227 C172.848,141.269 164.868,149.411 155.024,149.411 C145.18,149.411 137.2,141.269 137.2,131.227 C137.2,121.184 145.18,113.043 155.024,113.043 C164.868,113.043 172.848,121.184 172.848,131.227 z" fill="#8D30FE" id="a67a4451-c7cc-402c-b29d-5a705f3c9418"/>
      <path d="M353.969,131.227 C353.969,141.269 345.989,149.411 336.145,149.411 C326.302,149.411 318.322,141.269 318.322,131.227 C318.322,121.184 326.302,113.043 336.145,113.043 C345.989,113.043 353.969,121.184 353.969,131.227 z" fill="#8D30FE" id="abdb3fbf-f68e-433e-a33f-153626b38c76"/>
      <path d="M476.888,184.673 C476.888,194.716 468.908,202.857 459.064,202.857 C449.22,202.857 441.24,194.716 441.24,184.673 C441.24,174.631 449.22,166.49 459.064,166.49 C468.908,166.49 476.888,174.631 476.888,184.673 z" fill="#2F2E41" id="ac293633-0933-4e21-a8aa-bc27ca4fbccc"/>
      <path d="M570.333,184.673 C570.333,194.716 562.353,202.857 552.51,202.857 C542.666,202.857 534.686,194.716 534.686,184.673 C534.686,174.631 542.666,166.49 552.51,166.49 C562.353,166.49 570.333,174.631 570.333,184.673 z" fill="#CCCCCC" id="a0cd768d-b738-4d4b-9ab3-78ab535c7573"/>
      <path d="M525.051,131.227 C525.051,141.269 517.071,149.411 507.228,149.411 C497.384,149.411 489.404,141.269 489.404,131.227 C489.404,121.184 497.384,113.043 507.228,113.043 C517.071,113.043 525.051,121.184 525.051,131.227 z" fill="#8D30FE" id="b9eb3d2e-31e0-4fe2-be5c-79abb86bc227"/>
      <path d="M778.8,131.227 C778.8,141.269 770.82,149.411 760.976,149.411 C751.132,149.411 743.152,141.269 743.152,131.227 C743.152,121.184 751.132,113.043 760.976,113.043 C770.82,113.043 778.8,121.184 778.8,131.227 z" fill="#8D30FE" id="aa04baac-fce0-420a-b86a-4a97f3079928"/>
      <path d="M691.526,131.227 C691.526,141.269 683.546,149.411 673.702,149.411 C663.859,149.411 655.879,141.269 655.879,131.227 C655.879,121.184 663.859,113.043 673.702,113.043 C683.546,113.043 691.526,121.184 691.526,131.227 z" fill="#8D30FE" id="e92cf92c-058e-415c-ba96-766a57ee18d9"/>
      <path d="M442.137,1 L475.196,1 L475.196,24.245 L442.137,24.245 z" fill="#2F2E41" id="ac5bf8cc-574d-4509-9338-881c836fd832"/>
      <path d="M138.625,1 L171.684,1 L171.684,24.245 L138.625,24.245 z" fill="#8D30FE" id="ad5a043d-52f1-4931-b771-e4991ef7f7f7"/>
      <path d="M250.603,1 L283.662,1 L283.662,24.245 L250.603,24.245 z" fill="#CCCCCC" id="e5d95e83-bdd9-4322-95a9-5a9c4b449a8f"/>
      <path d="M210.294,132.449 C209.722,132.449 209.258,131.976 209.258,131.392 L209.258,79.212 C209.261,76.295 211.579,73.93 214.439,73.927 L264.872,73.927 C265.445,73.927 265.909,74.4 265.909,74.984 C265.909,75.568 265.445,76.041 264.872,76.041 L214.439,76.041 C212.723,76.043 211.332,77.462 211.33,79.212 L211.33,131.392 C211.33,131.976 210.866,132.449 210.294,132.449 z" fill="#3F3D56"/>
      <path d="M285.066,74.589 C285.066,84.632 277.086,92.773 267.243,92.773 C257.399,92.773 249.419,84.632 249.419,74.589 C249.419,64.546 257.399,56.405 267.243,56.405 C277.086,56.405 285.066,64.546 285.066,74.589 z" fill="#E6E6E6" id="b0a7c1c1-8f27-441f-a84a-e44462cc473e"/>
      <path d="M609.206,131.392 L607.134,131.392 L607.134,79.212 C607.137,76.295 609.454,73.93 612.314,73.927 L662.748,73.927 L662.748,76.041 L612.314,76.041 C610.598,76.043 609.208,77.462 609.206,79.212 z" fill="#3F3D56"/>
      <path d="M682.941,74.589 C682.941,84.632 674.962,92.773 665.118,92.773 C655.274,92.773 647.294,84.632 647.294,74.589 C647.294,64.546 655.274,56.405 665.118,56.405 C674.962,56.405 682.941,64.546 682.941,74.589 z" fill="#E6E6E6" id="b3140cf1-cdb8-48ff-81af-ce41ed4f5739"/>
    </g>
    <g>
      <path d="M778.799,131.5 C778.799,141.165 770.964,149 761.299,149 C751.634,149 743.8,141.165 743.8,131.5 C743.8,121.835 751.634,114 761.299,114 C770.964,114 778.799,121.835 778.799,131.5 z" fill="#8D30FE"/>
      <path d="M758.912,140.608 C758.299,140.608 757.722,140.319 757.355,139.829 L752.581,133.463 C751.936,132.603 752.11,131.383 752.97,130.738 C753.83,130.093 755.05,130.268 755.695,131.128 L758.819,135.292 L766.841,123.259 C767.437,122.363 768.646,122.121 769.541,122.718 C770.436,123.314 770.678,124.524 770.08,125.418 L760.532,139.741 C760.181,140.267 759.598,140.59 758.966,140.607 C758.948,140.608 758.93,140.608 758.912,140.608 z" fill="#FFFFFF"/>
    </g>
    <path d="M1026.376,669.693 L1.625,670 C0.727,669.998 0,669.466 0,668.81 C0,668.153 0.727,667.621 1.625,667.619 L1026.376,667.312 C1027.274,667.314 1028,667.846 1028,668.502 C1028,669.159 1027.274,669.691 1026.376,669.693 z" fill="#CACACA"/>
    <g>
      <path d="M358.037,530.822 L364.43,528.225 L416.502,664.433 L410.109,667.031 z" fill="#E6E6E6"/>
      <path d="M328.544,667.031 L322.15,664.433 L374.222,528.224 L380.616,530.822 z" fill="#E6E6E6"/>
      <path d="M412.084,535.016 C412.084,545.014 391.744,553.12 366.654,553.12 C341.563,553.12 321.223,545.014 321.223,535.016 C321.223,525.017 341.563,516.912 366.654,516.912 C391.744,516.912 412.084,525.017 412.084,535.016 z" fill="#E6E6E6"/>
      <g>
        <path d="M426.808,638.007 C428.109,638.068 429.309,637.285 429.812,636.046 C430.314,634.807 430.012,633.377 429.056,632.465 C428.977,632.145 428.921,631.915 428.843,631.594 Q428.885,631.49 428.928,631.385 C430.236,628.199 433.272,626.134 436.628,626.147 C439.984,626.16 443.004,628.248 444.29,631.444 C446.802,637.683 450.001,643.932 450.789,650.528 C451.136,653.443 450.989,656.399 450.356,659.263 C456.258,645.992 459.322,631.569 459.342,616.97 C459.343,613.306 459.146,609.646 458.751,606.005 Q458.261,601.528 457.391,597.115 C454.228,581.152 447.437,566.189 437.576,553.457 C432.803,550.772 428.943,546.644 426.516,541.628 C425.637,539.825 425.015,537.9 424.671,535.914 C425.21,535.987 425.757,536.032 426.295,536.068 C426.463,536.077 426.639,536.087 426.807,536.096 L426.87,536.099 C428.079,536.155 429.207,535.474 429.752,534.36 C430.297,533.246 430.156,531.907 429.394,530.938 Q429.045,530.496 428.696,530.054 C428.343,529.599 427.981,529.153 427.628,528.698 C427.587,528.655 427.549,528.609 427.513,528.561 C427.107,528.043 426.701,527.533 426.295,527.015 C427.036,525.829 428.033,524.835 429.208,524.112 C433.277,521.655 438.891,523.357 441.83,527.151 C444.778,530.945 445.334,536.269 444.31,541.009 C443.303,545.043 441.638,548.871 439.385,552.329 C439.606,552.62 439.835,552.902 440.056,553.193 C444.09,558.54 447.605,564.282 450.553,570.336 C449.836,563.554 450.691,556.693 453.049,550.318 C455.438,544.376 459.915,539.373 463.859,534.236 C468.595,528.067 478.308,530.759 479.143,538.58 Q479.155,538.694 479.166,538.807 Q478.288,539.318 477.446,539.892 C476.004,540.885 475.301,542.69 475.676,544.436 C476.051,546.182 477.428,547.511 479.142,547.784 L479.228,547.797 C479.019,549.974 478.651,552.13 478.125,554.249 C475.045,566.205 467.268,576.296 456.667,582.092 C456.323,582.274 455.988,582.456 455.643,582.629 C458.605,591.28 460.462,600.291 461.169,609.436 C461.569,614.831 461.546,620.25 461.098,625.641 L461.125,625.45 C462.255,619.455 465.357,614.046 469.907,610.136 C476.666,604.413 486.214,602.305 493.506,597.705 C495.088,596.657 497.116,596.652 498.703,597.692 C500.29,598.731 501.147,600.625 500.901,602.547 Q500.886,602.647 500.871,602.748 C499.784,603.204 498.726,603.73 497.702,604.322 Q496.823,604.833 495.982,605.406 C494.54,606.4 493.837,608.204 494.212,609.95 C494.587,611.696 495.964,613.026 497.678,613.298 L497.764,613.312 C497.826,613.321 497.879,613.33 497.94,613.339 C496.083,617.91 493.477,622.118 490.235,625.778 C482.141,634.731 470.825,639.849 458.953,639.927 L458.945,639.927 C457.35,647.07 455.04,654.023 452.051,660.673 L427.425,660.673 C427.337,660.391 427.257,660.1 427.178,659.818 C429.457,659.966 431.746,659.825 433.992,659.399 C432.165,657.088 430.338,654.759 428.511,652.448 C428.47,652.404 428.432,652.359 428.396,652.311 C427.469,651.128 426.534,649.954 425.607,648.772 L425.606,648.77 C425.557,645.144 425.961,641.527 426.807,638.007 z" fill="#F2F2F2"/>
        <path d="M468.554,664.509 L462.589,667.031 L414.002,475.937 L419.968,473.414 L468.554,664.509 z" fill="#CCCCCC"/>
        <path d="M380.619,664.509 L386.584,667.031 L435.17,475.937 L429.205,473.414 L380.619,664.509 z" fill="#CCCCCC"/>
      </g>
      <g>
        <path d="M397.199,476.261 C397.421,476.338 398.317,475.726 398.763,475.879 C400.726,476.612 401.063,474.733 403.111,475.149 C404.348,478.287 404.333,479.876 405.534,482.035 C406.308,483.291 406.648,484.818 407.44,486.06 C407.963,486.878 408.837,487.67 409.732,488.02 C414.915,490.052 420.238,491.747 425.341,493.953 C429.584,495.784 434.158,497.083 437.708,500.282 C440.744,503.014 443.317,505.963 444.824,509.982 C446.767,515.168 445.438,519.574 442.947,523.991 C441.93,525.795 440.792,527.545 439.936,529.424 C433.14,544.329 422.577,556.599 411.945,568.724 C407.507,573.787 401.842,577.775 396.729,582.243 C395.337,583.459 393.924,584.648 392.35,585.997 C393.027,587.478 393.732,589.021 394.438,590.564 C393.105,591.377 391.731,592.131 390.455,593.024 C389.558,593.652 389.034,593.594 388.32,592.717 C388.022,592.353 386.974,592.23 386.499,592.465 C385.629,592.895 384.928,593.669 384.163,594.306 C381.652,596.394 379.144,598.485 376.634,600.575 C376.494,600.186 376.353,599.797 376.136,599.199 C375.678,599.559 375.292,599.813 374.964,600.125 C371.035,603.869 367.115,607.62 363.194,611.371 C361.102,613.373 359.038,615.406 356.904,617.362 C356.301,617.916 355.496,618.249 354.784,618.679 C354.534,618.099 353.394,618.94 353.197,618.344 C352.944,617.584 352.67,616.666 352.461,615.892 C350.655,610.486 346.989,607.159 342.708,605.405 C341.298,606.122 340.214,606.673 339.129,607.225 C337.699,604.654 337.868,602.816 339.915,600.797 C342.945,597.811 346.11,594.959 349.088,591.923 C350.157,590.832 350.788,589.325 351.73,588.093 C354.119,584.964 356.572,581.883 359.039,578.733 C354.734,575.836 350.005,572.913 345.562,569.606 C337.654,563.718 330.002,557.553 323.375,550.131 C317.671,543.742 312.601,537.015 308.719,529.38 C306.959,525.918 304.807,522.639 303.236,519.099 C302.303,516.996 301.835,514.562 301.72,512.248 C301.487,507.566 301.881,502.729 304.913,499.017 C306.868,496.623 309.833,494.913 312.608,493.365 C316.462,491.211 320.53,489.427 324.569,487.626 C326.458,486.784 327.832,485.834 328.017,483.527 C328.122,482.223 328.806,480.965 329.229,479.686 C332.2,479.121 335.162,478.495 338.147,478.009 C340.45,477.635 342.921,476.813 345.076,477.285 C350.313,478.432 355.471,478.448 360.772,478.078 C368.884,477.513 377.026,477.426 385.154,477.064 C393.438,476.592 389.423,476.865 397.199,476.261 z M378.519,525.751 C375.6,525.699 372.649,526.521 369.739,527.075 C365.716,527.844 361.727,528.791 357.704,529.55 C355.866,529.896 353.978,529.978 351.853,530.208 C353.388,531.568 354.973,532.561 355.987,533.967 C357.411,535.942 358.935,538.106 359.461,540.408 C360.152,543.441 360.889,546.316 362.65,548.917 C363.768,550.569 364.603,552.412 365.715,554.068 C367.686,557.005 369.773,559.865 371.811,562.756 C372.046,562.756 372.282,562.755 372.519,562.755 C373.246,560.96 374.175,559.218 374.661,557.359 C375.913,552.571 378.426,548.638 381.928,545.184 C384.171,542.974 386.063,540.41 388.211,538.096 C390.031,536.135 391.692,533.656 393.976,532.594 C396.489,531.424 398.483,529.815 400.97,527.761 C400.008,527.408 399.268,526.936 398.498,526.884 C391.841,526.435 385.184,525.872 378.519,525.751 z" fill="#2F2E41"/>
        <path d="M403.086,399.866 C403.325,401.29 403.395,402.686 402.956,403.898 C401.877,406.877 400.61,409.746 403.134,412.644 C404.863,414.631 406.505,416.692 408.187,418.721 C407.019,420.542 405.287,422.219 404.783,424.208 C402.875,431.734 401.01,439.306 399.843,446.968 C399.153,451.493 399.717,456.236 401.493,460.644 C402.804,463.896 403.039,467.284 402.913,470.743 C402.892,472.511 402.843,473.102 403.111,475.149 C403.199,475.817 403.395,476.466 403.537,477.124 C401.908,476.866 400.326,476.394 398.763,475.879 C399.58,475.35 399.319,475.668 399.677,475.05 C400.178,472.34 400.881,469.554 400.683,466.856 C400.457,463.779 399.299,460.778 398.655,457.721 C397.305,451.322 394.05,445.281 395.253,438.395 C395.861,434.907 395.915,431.322 396.573,427.848 C396.912,426.058 396.999,424.651 395.995,423.007 C395.451,422.118 395.669,420.639 395.854,419.477 C395.967,418.776 396.754,418.206 397.087,417.505 C397.264,417.134 397.241,416.55 397.064,416.178 C396.977,415.994 396.312,415.967 395.953,416.053 C395.122,416.251 394.331,416.723 393.502,416.784 C392.67,416.845 391.812,416.543 390.965,416.401 C390.947,416.188 390.93,415.976 390.911,415.764 C397.252,412.229 398.666,405.029 403.086,399.866 z" fill="#792BD7"/>
        <path d="M408.557,418.736 C406.875,416.708 405.233,414.647 403.503,412.66 C400.98,409.762 402.246,406.892 403.325,403.914 C403.765,402.703 403.695,401.306 403.456,399.882 C399.036,405.046 397.622,412.245 391.281,415.781 C391.299,415.992 391.317,416.204 391.335,416.416 C392.182,416.559 393.04,416.861 393.872,416.799 C394.702,416.738 395.493,416.267 396.323,416.068 C396.682,415.983 397.346,416.01 397.435,416.195 C397.611,416.567 397.633,417.15 397.456,417.521 C397.123,418.222 396.336,418.791 396.224,419.493 C396.039,420.655 395.822,422.134 396.365,423.022 C397.369,424.666 397.282,426.073 396.943,427.864 C396.285,431.338 396.23,434.924 395.622,438.41 C394.42,445.296 397.675,451.338 399.025,457.737 C399.669,460.794 400.828,463.794 401.053,466.872 C401.25,469.571 400.548,472.355 400.048,475.066 C399.957,475.556 398.945,476.165 398.314,476.219 C394.057,476.587 389.792,476.888 385.524,477.08 C377.397,477.442 369.253,477.529 361.142,478.094 C355.842,478.464 354.04,481.256 348.802,480.109 C346.647,479.637 342.949,480.802 340.645,481.176 C337.66,481.662 330.988,482.961 328.017,483.527 C328.833,475.567 328.103,469.185 328.536,461.203 C328.74,457.429 326.364,449.091 326.098,445.265 C325.445,435.937 325.281,427.043 322.499,418.406 C322.082,417.116 321.543,415.865 321.039,414.605 C320.355,412.9 318.739,412.599 317.475,413.968 C315.49,416.116 313.541,418.293 311.575,420.458 C311.401,420.621 311.228,420.784 311.052,420.947 L311.097,420.931 C310.656,421.11 310.125,421.186 309.79,421.483 C306.809,424.128 303.855,426.802 300.912,429.488 C299.331,430.93 293.48,433.895 292.712,432.662 C291.146,430.146 289.423,429.367 288.004,428.876 C288.232,431.867 290.021,435.011 289.983,438.071 C289.972,438.981 287.525,440.126 286.624,440.638 C282.507,442.97 278.097,444.8 274.481,447.965 C274.29,447.976 274.097,447.987 273.905,447.998 C272.771,447.986 271.638,447.971 270.505,447.961 C267.094,447.93 265.015,447.754 264.999,444.467 C264.997,443.901 264.598,442.961 264.579,442.395 C264.588,440.549 265.549,438.146 265.558,436.301 C265.673,434.626 264.464,433.079 264.579,431.403 C264.501,430.207 266.115,428.898 266.038,427.702 L278.646,426.332 C278.726,426.177 280.454,426.487 280.535,426.332 L279.768,424.436 C282.828,421.232 285.679,417.912 287.774,413.929 C291.72,406.43 296.031,399.122 299.912,391.591 C302.585,386.401 304.738,380.946 307.221,375.655 C309.086,371.68 311.925,368.556 316.394,367.723 C324.943,366.132 333.057,363.277 341.015,359.882 C341.751,360.482 342.455,361.121 343.224,361.671 C344.777,362.785 346.287,363.995 347.957,364.904 C350.919,366.516 353.863,368.778 357.039,369.244 C362.775,370.087 368.422,368.721 373.482,365.589 C374.986,364.657 376.56,363.826 377.999,362.804 C379.657,361.624 381.203,360.283 382.798,359.013 C390.521,361.466 398.248,363.908 405.965,366.382 C408,367.034 410.08,367.614 412.004,368.52 C417.217,370.973 420.921,374.852 422.35,380.557 C423.436,384.893 424.238,389.3 425.366,393.624 C425.805,395.306 426.791,396.846 427.528,398.451 C429.5,402.74 431.474,407.027 433.44,411.318 C433.85,412.214 434.232,413.121 434.628,414.025 C434.569,414.553 434.512,415.082 434.509,415.107 C433.293,415.824 431.772,416.21 431.556,416.969 C431.259,418.011 431.947,419.335 432.186,420.415 C427.991,421.895 423.762,423.245 419.661,424.91 C418.145,425.525 417.561,425.272 416.853,423.952 C415.601,421.62 412.334,420.005 410.221,420.49 C410.221,420.49 410.247,420.515 410.247,420.515 C409.973,420.209 409.7,419.904 409.427,419.599 L409.413,419.582 C409.289,419.443 409.163,419.304 409.04,419.165 L408.991,419.106 C408.848,418.985 408.707,418.863 408.564,418.743 z" fill="#8D30FE"/>
        <path d="M365.857,295.947 L368.377,296.306 C371.553,296.924 374.828,297.616 377.712,298.997 C380.714,300.435 383.723,302.298 385,305.787 L385,305.788 C386.864,308.213 386.921,311.226 386.793,314.144 C386.371,318.787 385.661,323.507 383.117,327.632 C382.111,328.972 382.636,328.317 381.542,329.595 L381.542,329.595 C380.991,331.3 380.502,333.026 379.864,334.697 C379.531,335.569 378.939,336.344 378.464,337.163 C377.95,337.517 377.472,337.947 376.916,338.211 C375.23,339.008 373.286,340.667 371.856,340.315 C368.352,339.453 366.75,341.7 364.707,343.447 C364.056,344.004 363.507,344.677 362.868,345.25 C360.878,347.035 358.749,348.504 355.954,348.793 C351.082,349.296 346.222,349.901 341.357,350.478 C341.022,350.517 340.7,350.685 340.372,350.793 C335.883,350.042 335.973,348.027 335.755,343.25 C335.591,339.652 336.116,335.994 336.624,332.402 C337.131,328.809 337.998,325.268 338.701,321.703 C338.795,321.221 339.083,320.551 338.874,320.271 C337.419,318.318 338.749,316.863 339.57,315.247 C341.237,311.967 342.563,308.484 344.512,305.39 C345.758,303.414 347.66,301.671 349.629,300.368 C353.051,298.135 356.869,296.506 360.961,296.021 C362.582,295.829 364.225,295.972 365.857,295.947 z" fill="#FFB6B6"/>
        <path d="M397.243,595.654 C398.311,597.6 397.713,596.474 399.005,599.047 C399.909,600.947 400.296,603.087 401.13,605.026 C403.721,611.055 406.451,617.025 409.039,623.056 C410.327,629.382 410.96,632.189 411.39,635.025 C411.73,637.27 411.968,639.552 411.965,641.817 C405.466,645.301 404.712,645.54 403.449,644.974 C390.932,639.368 390.414,638.87 389.842,638.756 C386.216,638.029 384.441,635.745 383.644,632.235 C381.631,623.352 379.427,614.513 377.36,605.642 C376.911,602.947 377.042,603.967 376.876,602.593 C385.075,606.121 392.486,602.836 397.243,595.654 z" fill="#2F2E41"/>
        <path d="M394.68,590.564 C396.242,593.298 396.476,591.561 397.024,594.682 C398.539,603.321 379.471,608.933 377.002,601.28 L376.876,600.266 C379.386,598.24 381.894,596.215 384.406,594.19 C385.171,593.573 385.872,592.823 386.741,592.406 C387.217,592.178 388.265,592.298 388.562,592.651 C389.278,593.5 389.801,593.556 390.698,592.948 C391.974,592.083 393.347,591.352 394.68,590.564 z" fill="#E4A1A1"/>
        <path d="M352.875,614.264 C353.084,615.038 353.259,615.824 353.511,616.584 C353.709,617.179 354.002,617.742 354.252,618.323 C351.66,619.177 351.304,621.856 349.885,623.665 L348.045,624.068 C346.473,622.352 346.361,624.416 345.537,623.674 C345.933,623.627 346.027,621.987 346.342,621.776 C347.938,619.361 351.342,616.721 352.875,614.264 z" fill="#E4A1A1"/>
        <path d="M409.85,420.474 C411.964,419.989 415.232,421.604 416.483,423.935 C417.192,425.256 417.775,425.508 419.29,424.893 C423.392,423.229 427.621,421.878 431.816,420.398 C431.577,419.319 430.888,417.995 431.186,416.953 C431.403,416.195 432.922,415.807 434.139,415.092 C434.141,415.067 434.2,414.538 434.257,414.009 C434.981,415.362 435.908,416.647 436.391,418.082 C437.732,422.068 440.502,425.06 443.723,427.303 C449.094,431.046 452.35,436.106 454.687,441.979 C454.263,441.987 453.83,441.946 453.414,442.012 C450.622,442.451 447.584,442.055 445.355,444.412 C444.34,445.484 443.365,446.621 442.218,447.536 C440.466,448.933 439.747,450.822 439.214,452.864 C439.111,453.257 438.87,453.613 438.693,453.985 C435.787,452.033 432.86,450.11 429.991,448.105 C429.26,447.595 428.404,446.929 428.13,446.151 C425.36,438.235 419.51,432.434 414.49,426.065 C412.992,424.163 411.4,422.335 409.85,420.474" fill="#792BD7"/>
        <path d="M382.427,358.997 C380.833,360.267 379.288,361.609 377.629,362.788 C376.19,363.81 374.615,364.641 373.111,365.573 C368.052,368.706 362.405,370.071 356.669,369.229 C353.492,368.763 350.549,366.499 347.586,364.888 C345.917,363.979 344.407,362.77 342.854,361.656 C342.085,361.105 341.381,360.465 340.645,359.866 C341.693,359.312 342.738,358.303 343.792,358.292 C346.642,358.262 346.831,356.556 346.739,354.461 C350.209,353.837 353.659,353.051 357.153,352.632 C361.268,352.139 364.861,351.089 367.136,347.172 C368.277,345.206 370.332,344.285 372.996,343.906 C373.302,346.699 373.574,349.261 373.87,351.821 C373.967,352.666 374.055,353.523 374.271,354.343 C374.644,355.757 377.957,357.626 379.471,357.343 C380.456,357.894 381.442,358.445 382.427,358.997" fill="#FFB6B6"/>
        <path d="M438.693,453.985 C438.87,453.613 439.111,453.257 439.213,452.865 C439.748,450.821 440.466,448.933 442.218,447.536 C443.365,446.621 444.34,445.485 445.356,444.412 C447.585,442.054 450.623,442.451 453.414,442.012 C453.83,441.946 454.263,441.987 454.687,441.978 C456.218,443.746 457.749,445.514 459.279,447.281 C458.569,448.946 458.718,450.082 460.621,451.036 C463.276,452.367 463.73,454.772 462.167,457.303 C461.759,457.962 461.189,458.521 460.773,459.176 C459.553,461.098 458.372,463.046 457.175,464.984 C454.333,466.601 451.542,468.317 448.632,469.799 C446.337,470.968 444.577,470.543 443.142,468.531 C445.529,466.824 447.946,465.15 450.298,463.388 C451.123,462.771 451.789,461.938 452.528,461.203 C454.863,459.642 455.062,459.281 454.444,457.374 C453.7,458.444 453.027,459.41 452.355,460.376 C450.584,461.289 448.807,462.193 447.043,463.121 C446.608,463.35 446.244,463.727 445.798,463.928 C444.449,464.536 442.983,464.728 442.32,463.137 C441.672,461.583 442.952,460.798 444.218,460.398 C446.078,459.809 447.546,458.868 448.203,456.939 C450.039,456.145 451.542,452.989 451.168,451.654 C450.561,452.53 449.807,453.804 448.809,454.844 C448.667,454.992 447.341,454.003 446.165,453.305 C445.727,454.225 445.221,455.293 444.714,456.361 C443.172,458.42 441.696,460.596 438.305,459.768 C438.433,457.859 438.563,455.922 438.693,453.985" fill="#FFB6B6"/>
        <path d="M247.602,418.103 C250.037,418.348 252.526,418.414 254.347,420.463 C254.5,420.636 255.008,420.496 255.352,420.5 C254.976,420.731 254.628,421.056 254.221,421.176 C252.656,421.638 251.42,423.322 252.022,424.347 C253.854,427.473 255.737,430.568 257.59,433.681 C258.384,435.014 259.065,434.556 259.532,433.495 C260.034,432.357 260.366,431.145 260.772,429.965 L260.871,431.049 L260.773,429.964 C260.952,429.313 261.132,428.662 261.311,428.011 C261.484,428.101 261.656,428.19 261.828,428.28 L261.828,428.28 C264.277,427.819 263.053,428.049 265.501,427.59 C265.501,427.591 265.668,427.687 265.668,427.687 C265.745,428.881 265.823,430.076 265.901,431.272 L265.901,431.272 C265.673,434.625 265.787,432.949 265.558,436.301 L265.558,436.301 C265.54,439.992 265.549,438.147 265.532,441.838 C264.973,442.581 265.071,444.104 263.452,443.581 C261.764,443.027 260.042,442.553 258.393,441.897 C256.467,441.131 254.85,441.05 252.76,441.993 C250.004,443.238 247.314,441.797 244.837,440.212 C243.592,439.415 242.074,439.044 240.68,438.482 C239.926,435.272 239.208,432.054 238.401,428.858 C238.075,427.564 237.615,426.326 238.996,425.127 C239.605,426.323 240.106,427.391 240.679,428.418 C242.249,431.226 243.815,434.039 245.478,436.792 C245.734,437.217 246.497,437.335 247.025,437.594 C247.149,437.034 247.502,436.404 247.358,435.924 C246.522,433.142 245.535,430.405 244.669,427.633 C244.179,426.061 243.821,424.447 243.404,422.852 L244.057,422.705 C244.835,424.406 245.547,426.143 246.433,427.785 C246.656,428.197 247.615,428.64 247.921,428.477 C248.403,428.221 248.936,427.432 248.886,426.924 C248.729,425.35 248.251,423.812 248.006,422.243 C247.794,420.875 247.731,419.485 247.602,418.103 z M261.014,432.626 L261.141,434.027 L262.343,434.684 L261.141,434.027 L261.014,432.626 z" fill="#E4A1A1"/>
        <path d="M379.471,357.343 C377.957,357.626 374.644,355.756 374.271,354.343 C374.054,353.524 373.967,352.667 373.869,351.821 C373.575,349.261 373.302,346.699 372.996,343.906 C370.332,344.285 368.278,345.205 367.136,347.171 C364.861,351.089 361.268,352.139 357.154,352.633 C353.659,353.051 350.209,353.837 346.74,354.462 C345.244,352.152 343.156,350.871 340.372,350.794 C340.7,350.685 341.021,350.518 341.358,350.477 C346.221,349.9 351.082,349.296 355.954,348.793 C358.749,348.504 360.878,347.035 362.868,345.25 C363.506,344.678 364.056,344.005 364.707,343.448 C366.75,341.701 368.353,339.453 371.856,340.315 C373.286,340.668 375.23,339.008 376.915,338.211 C377.473,337.946 377.949,337.516 378.464,337.162 C378.071,338.572 377.554,339.961 377.309,341.396 C376.768,344.566 376.14,347.749 375.972,350.949 C375.831,353.618 377.222,355.801 379.471,357.343" fill="#E4A1A1"/>
        <path d="M353.408,614.622 C351.875,617.078 350.366,619.552 348.769,621.967 C348.607,622.211 347.769,622.311 347.482,622.12 C345.722,620.949 343.849,619.859 342.355,618.393 C339.561,615.654 337,612.678 334.344,609.801 C335.939,608.941 337.534,608.083 339.128,607.224 C340.214,606.673 341.298,606.122 342.708,605.406 C346.989,607.159 351.602,609.216 353.408,614.622" fill="#FFB6B6"/>
        <path d="M247.602,418.104 C247.731,419.484 247.795,420.875 248.007,422.242 C248.251,423.812 248.729,425.351 248.886,426.924 C248.937,427.432 248.403,428.22 247.921,428.477 C247.615,428.64 246.656,428.196 246.434,427.786 C245.547,426.143 244.835,424.407 244.057,422.704 L243.405,422.852 C243.822,424.446 244.178,426.06 244.669,427.632 C245.535,430.406 246.522,433.141 247.357,435.923 C247.502,436.404 247.149,437.034 247.026,437.594 C246.497,437.335 245.735,437.216 245.478,436.793 C243.815,434.039 242.25,431.226 240.679,428.418 C240.105,427.392 239.605,426.323 238.996,425.127 C237.615,426.326 238.075,427.563 238.402,428.859 C239.208,432.054 239.926,435.272 240.68,438.481 C240.058,439.244 239.496,439.458 238.922,438.4 C238.279,437.218 237.568,436.074 236.579,434.388 C236.44,435.833 236.354,436.747 236.265,437.67 C231.996,435.769 230.886,430.523 233.787,427.141 C235.008,425.716 236.068,424.815 238.07,424.549 C239.176,424.402 240.158,422.659 241.019,421.504 C242.038,420.139 245.983,417.978 247.602,418.104" fill="#FFB6B6"/>
        <path d="M274.111,447.949 C277.727,444.784 282.137,442.953 286.254,440.621 C287.156,440.111 288.212,438.884 288.224,437.974 C288.263,434.915 287.862,431.851 287.634,428.86 C289.053,429.352 291.447,428.461 293.013,430.977 C293.781,432.21 298.961,430.914 300.542,429.472 C303.485,426.786 306.439,424.112 309.42,421.467 C309.755,421.17 310.287,421.093 310.727,420.915 C307.374,424.203 303.991,427.461 300.677,430.789 C299.036,432.438 297.495,434.19 295.956,435.938 C294.399,437.706 292.718,439.405 291.42,441.353 C289.463,444.291 286.542,445.738 283.442,446.744 C281.355,447.421 279.028,447.361 276.807,447.63 C275.909,447.739 275.01,447.842 274.111,447.949" fill="#792BD7"/>
        <path d="M467.314,463.372 C468.324,465.076 468.315,466.673 466.86,468.154 C466.417,468.606 465.931,469.081 465.677,469.641 C464.346,472.586 462.038,474.425 459.216,475.842 C457.759,476.573 456.861,476.131 455.84,475.141 C455.415,474.728 454.593,474.345 454.082,474.473 C452.324,474.909 451.705,473.769 451.252,472.561 C450.762,471.258 451.899,471.172 452.734,470.583 C454.8,469.128 457.505,468.131 457.99,465.112 C458.366,464.71 458.782,464.336 459.115,463.899 C460.639,461.898 462.089,459.834 463.71,457.915 C463.945,457.637 465.417,457.839 465.542,458.14 C465.894,458.993 465.982,460.022 465.921,460.963 C465.839,462.22 465.518,463.462 465.299,464.709 C465.062,464.836 464.825,464.964 464.587,465.092 L464.837,465.366 C464.985,465.141 465.135,464.916 465.283,464.69 C465.96,464.25 466.637,463.811 467.314,463.372" fill="#F3B7AA"/>
        <path d="M260.773,429.964 C260.366,431.144 260.034,432.357 259.532,433.495 C259.065,434.556 258.384,435.014 257.59,433.682 C255.738,430.568 253.854,427.473 252.022,424.348 C251.42,423.321 252.656,421.638 254.221,421.176 C254.629,421.055 254.976,420.731 255.351,420.5 C255.613,418.935 255.835,417.362 256.152,415.808 C256.293,415.114 256.623,414.46 256.868,413.787 C257.572,414.208 258.659,414.468 258.912,415.076 C259.856,417.336 260.761,419.665 261.224,422.056 C261.596,423.975 261.307,426.022 261.311,428.011 C261.132,428.662 260.952,429.313 260.773,429.964" fill="#FFB6B6"/>
        <path d="M467.314,463.372 C466.637,463.811 465.96,464.25 465.283,464.69 L465.299,464.709 C465.518,463.462 465.839,462.22 465.921,460.963 C465.982,460.022 465.894,458.993 465.542,458.14 C465.417,457.839 463.945,457.637 463.71,457.915 C462.089,459.834 460.639,461.898 459.115,463.899 C458.782,464.336 458.366,464.71 457.99,465.112 C457.719,465.07 457.448,465.028 457.176,464.984 C458.372,463.046 459.553,461.099 460.774,459.176 C461.189,458.521 461.759,457.962 462.167,457.303 C463.73,454.772 463.277,452.367 460.621,451.036 C458.718,450.082 458.568,448.947 459.279,447.281 C463.965,450.529 466.903,454.769 466.974,460.68 C466.984,461.578 467.195,462.475 467.314,463.372" fill="#E4A1A1"/>
        <path d="M279.398,424.421 L282.364,427.221 C282.283,427.376 282.204,427.532 282.124,427.686 C276.639,427.686 271.152,427.686 265.668,427.687 C265.668,427.687 265.501,427.591 265.501,427.591 C268.119,426.618 270.736,425.643 273.351,424.67 C273.35,424.67 273.522,424.673 273.522,424.673 L273.623,424.535 C275.549,424.496 277.473,424.458 279.398,424.421" fill="#792BD7"/>
        <path d="M444.714,456.361 C445.221,455.293 445.728,454.226 446.165,453.305 C447.342,454.004 448.667,454.992 448.81,454.843 C449.808,453.804 450.561,452.53 451.169,451.655 C451.542,452.989 450.039,456.144 448.203,456.94 C447.253,455.468 446.09,455.277 444.714,456.361" fill="#E4A1A1"/>
        <path d="M263.453,443.581 C265.071,444.104 264.974,442.58 265.531,441.839 C265.55,442.404 265.582,442.97 265.585,443.536 C265.601,446.823 266.724,447.914 270.134,447.946 C271.268,447.955 272.401,447.97 273.535,447.983 C270.906,448.085 268.274,448.269 265.647,448.21 C265.209,448.201 264.68,447.18 264.399,446.537 C263.986,445.594 263.758,444.57 263.453,443.581" fill="#792BD7"/>
        <path d="M452.355,460.376 C453.027,459.411 453.699,458.444 454.444,457.374 C455.062,459.281 454.863,459.642 452.528,461.203 C452.47,460.928 452.413,460.652 452.355,460.376" fill="#E4A1A1"/>
        <path d="M409.057,419.583 C409.33,419.888 409.604,420.193 409.877,420.499 C409.604,420.193 409.33,419.888 409.057,419.583" fill="#151B36"/>
        <path d="M273.623,424.535 L273.523,424.673 C273.523,424.673 273.35,424.67 273.352,424.669 C273.353,424.669 273.432,424.5 273.432,424.5 z" fill="#290187"/>
        <path d="M310.683,420.931 C310.857,420.768 311.031,420.606 311.205,420.442 C311.032,420.605 310.857,420.768 310.683,420.931" fill="#151B36"/>
        <path d="M408.669,419.149 C408.794,419.288 408.919,419.427 409.043,419.567 C408.919,419.428 408.794,419.288 408.669,419.149" fill="#151B36"/>
        <path d="M408.194,418.727 C408.336,418.848 408.478,418.968 408.621,419.09 C408.478,418.968 408.336,418.848 408.194,418.727" fill="#151B36"/>
        <path d="M465.283,464.69 C465.134,464.916 464.985,465.14 464.836,465.366 L464.587,465.092 C464.825,464.963 465.062,464.836 465.3,464.708 z" fill="#AE273E"/>
        <path d="M392.763,311.408 C390.919,302.293 384.554,295.022 376.224,292.516 C373.954,288.415 370.085,285.644 365.7,284.977 C361.634,284.394 357.56,285.695 353.651,287.035 Q350.029,288.278 346.425,289.583 C344.469,290.291 342.065,291.909 342.714,294.022 C341.698,293.451 340.455,293.688 339.682,294.6 C338.909,295.512 338.802,296.87 339.422,297.909 C338.514,296.647 336.417,297.457 335.913,298.959 C335.408,300.459 336.002,302.123 336.74,303.507 C341.307,311.605 350.365,315.355 358.781,312.631 C361.174,311.786 363.619,310.399 366.069,311.019 C368.384,311.604 370.049,313.919 370.708,316.382 C371.189,318.537 371.321,320.764 371.097,322.966 C371.747,321.339 373.496,320.584 375.006,321.28 C376.754,322.221 377.381,324.699 376.949,326.753 C376.515,328.809 371.972,336.774 370.773,338.437 C369.458,340.005 368.49,341.874 367.943,343.906 Q374.404,342.834 380.865,341.762 L381.098,342.015 C387.776,336.417 394.452,320.35 392.763,311.408 z" fill="#2F2E41"/>
        <path d="M334.323,609.657 C336.979,612.534 339.54,615.51 342.333,618.249 C349.413,623.855 350.464,622.981 350.882,622.972 C348.896,628.447 347.721,635.03 347.89,640.815 C347.992,644.307 348.242,647.794 348.459,651.281 C349.094,657.993 349.006,657.694 349.182,658.291 C350.405,662.821 347.447,666.491 343.119,667.031 C338.524,664.231 337.82,664.007 337.381,663.856 C335.134,663.085 333.155,661.689 333.258,659.259 C333.476,654.216 331.952,649.754 330.032,645.223 C329.094,643.009 329.048,640.364 328.879,637.893 C328.663,634.76 328.999,631.571 328.596,628.472 C328.245,625.774 327.163,623.174 326.464,620.515 C325.306,616.107 326.914,612.835 330.999,611.133 C332.118,610.667 333.216,610.15 334.323,609.657 z" fill="#2F2E41"/>
      </g>
    </g>
    <g>
      <path d="M1296.862,640.976 C1298.163,641.037 1299.363,640.254 1299.866,639.015 C1300.368,637.776 1300.066,636.346 1299.11,635.434 C1299.031,635.114 1298.975,634.884 1298.897,634.563 Q1298.939,634.459 1298.982,634.354 C1300.29,631.168 1303.326,629.103 1306.682,629.116 C1310.038,629.129 1313.058,631.217 1314.344,634.413 C1316.856,640.652 1320.055,646.901 1320.843,653.497 C1321.19,656.412 1321.043,659.368 1320.41,662.232 C1326.312,648.961 1329.376,634.538 1329.396,619.939 C1329.397,616.275 1329.2,612.615 1328.805,608.974 Q1328.315,604.497 1327.445,600.084 C1324.282,584.121 1317.491,569.158 1307.63,556.426 C1302.857,553.741 1298.997,549.613 1296.57,544.597 C1295.691,542.794 1295.069,540.869 1294.725,538.883 C1295.264,538.956 1295.811,539.001 1296.349,539.037 C1296.517,539.046 1296.693,539.056 1296.861,539.065 L1296.924,539.068 C1298.133,539.124 1299.261,538.443 1299.806,537.329 C1300.351,536.215 1300.21,534.876 1299.448,533.907 Q1299.099,533.465 1298.75,533.023 C1298.397,532.568 1298.035,532.122 1297.682,531.667 C1297.641,531.624 1297.603,531.578 1297.567,531.53 C1297.161,531.012 1296.755,530.502 1296.349,529.984 C1297.09,528.798 1298.087,527.804 1299.262,527.081 C1303.331,524.624 1308.945,526.326 1311.884,530.12 C1314.832,533.914 1315.388,539.238 1314.364,543.978 C1313.357,548.012 1311.692,551.84 1309.439,555.298 C1309.66,555.589 1309.889,555.871 1310.11,556.162 C1314.144,561.509 1317.659,567.251 1320.607,573.305 C1319.89,566.523 1320.745,559.662 1323.103,553.287 C1325.492,547.345 1329.969,542.342 1333.913,537.205 C1338.649,531.036 1348.362,533.728 1349.197,541.549 Q1349.209,541.663 1349.22,541.776 Q1348.342,542.287 1347.5,542.861 C1346.058,543.854 1345.355,545.659 1345.73,547.405 C1346.105,549.151 1347.482,550.48 1349.196,550.753 L1349.282,550.766 C1349.073,552.943 1348.705,555.099 1348.179,557.218 C1345.099,569.174 1337.322,579.265 1326.721,585.061 C1326.377,585.243 1326.042,585.425 1325.697,585.598 C1328.659,594.249 1330.516,603.26 1331.223,612.405 C1331.623,617.8 1331.6,623.219 1331.152,628.61 L1331.179,628.419 C1332.309,622.424 1335.411,617.015 1339.961,613.105 C1346.72,607.382 1356.268,605.274 1363.56,600.674 C1365.142,599.626 1367.17,599.621 1368.757,600.661 C1370.344,601.7 1371.201,603.594 1370.955,605.516 Q1370.94,605.616 1370.925,605.717 C1369.838,606.173 1368.78,606.699 1367.756,607.291 Q1366.877,607.802 1366.036,608.375 C1364.594,609.369 1363.891,611.173 1364.266,612.919 C1364.641,614.665 1366.018,615.995 1367.732,616.267 L1367.818,616.281 C1367.88,616.29 1367.933,616.299 1367.994,616.308 C1366.137,620.879 1363.531,625.087 1360.289,628.747 C1352.195,637.7 1340.879,642.818 1329.007,642.896 L1328.999,642.896 C1327.404,650.039 1325.094,656.992 1322.105,663.642 L1297.479,663.642 C1297.391,663.36 1297.311,663.069 1297.232,662.787 C1299.511,662.935 1301.8,662.794 1304.046,662.368 C1302.219,660.057 1300.392,657.728 1298.565,655.417 C1298.524,655.373 1298.486,655.328 1298.45,655.28 C1297.523,654.097 1296.588,652.923 1295.661,651.741 L1295.66,651.739 C1295.611,648.113 1296.015,644.496 1296.861,640.976 z" fill="#F2F2F2"/>
      <path d="M1217.961,533.303 L1224.354,530.706 L1276.426,666.914 L1270.033,669.512 z" fill="#E6E6E6"/>
      <path d="M1188.468,669.512 L1182.074,666.914 L1234.146,530.705 L1240.54,533.303 z" fill="#E6E6E6"/>
      <path d="M1272.008,537.497 C1272.008,547.495 1251.668,555.601 1226.578,555.601 C1201.487,555.601 1181.147,547.495 1181.147,537.497 C1181.147,527.498 1201.487,519.393 1226.578,519.393 C1251.668,519.393 1272.008,527.498 1272.008,537.497 z" fill="#E6E6E6"/>
      <path d="M1264.487,545.192 L1191.8,536.205 C1177.681,534.459 1167.607,521.244 1169.301,506.689 C1170.994,492.133 1183.813,481.748 1197.933,483.494 L1270.619,492.481 C1284.739,494.227 1294.812,507.442 1293.119,521.997 C1291.425,536.553 1278.606,546.938 1264.487,545.192 z" fill="#2F2E41"/>
      <path d="M1246.295,356.213 L1260.889,367.401 L1274.508,373.628 C1273.318,374.477 1267.048,461.571 1275.127,465.195 C1282.006,468.282 1274.995,470.835 1275.233,478.019 C1275.47,485.204 1276.361,499.981 1276.361,499.981 C1238.551,514.986 1223.875,516.439 1201.897,490.693 C1201.585,487.72 1203.322,484.923 1206.073,483.971 C1210.946,482.032 1203.501,469.244 1207.474,467.751 C1211.446,466.258 1208.153,448.639 1208.153,448.639 L1199.692,408.942 L1197.621,402.945 L1209.174,371.184 L1220.376,366.219 L1230.618,357.468 z" fill="#8D30FE"/>
      <path d="M1107.793,437.194 C1110.136,435.214 1113.209,434.405 1116.185,434.985 C1119.162,435.565 1121.736,437.475 1123.216,440.2 L1159.029,433.623 L1151.551,451.52 L1118.689,455.022 C1113.98,457.332 1108.34,455.645 1105.56,451.097 C1102.78,446.549 1103.739,440.576 1107.793,437.194 z" fill="#FFB6B6"/>
      <path d="M1144.822,452.861 C1147.965,456.21 1151.053,455.808 1154.097,452.333 L1196.713,449.903 L1196.844,449.648 C1196.994,449.355 1205.975,431.817 1213.941,415.402 C1215.168,412.874 1216.37,410.373 1217.513,407.966 Q1218.253,406.407 1218.956,404.906 C1222.118,398.156 1224.638,392.45 1225.622,389.452 C1227.899,382.743 1227.882,375.433 1225.573,368.735 L1225.506,368.574 L1225.359,368.485 C1219.127,364.807 1211.254,366.08 1206.414,371.548 C1195.135,384.427 1186.915,399.832 1182.402,416.548 L1179.845,426.059 L1153.469,432.794 C1150.777,431.298 1148.456,431.669 1146.631,434.54 z" fill="#8D30FE"/>
      <path d="M1186.227,632.994 L1195.277,641.507 L1231.439,609.569 L1218.081,597.004 L1186.227,632.994 z" fill="#FFB6B6"/>
      <path d="M1186.614,627.775 L1189.162,630.172 L1202.798,635.358 L1204.439,644.542 L1204.439,644.543 C1210.712,650.444 1211.157,660.47 1205.433,666.938 L1205.096,667.318 L1175.912,639.866 z" fill="#2F2E41"/>
      <path d="M1254.793,533.632 L1246.98,518.081 C1247.633,502.335 1260.882,490.033 1276.094,491.602 C1284.566,492.477 1292.341,497.677 1295.103,512.354 C1302.205,550.096 1216.517,624.799 1216.517,624.799 L1201.635,614.514 L1201.302,604.236 L1210.026,599.142 L1210.348,590.4 L1218.625,586.734 z" fill="#2F2E41"/>
      <path d="M1234,303.015 C1246.84,304.288 1256.249,316.05 1255.014,329.287 C1253.78,342.524 1242.37,352.224 1229.529,350.951 C1216.689,349.679 1207.28,337.916 1208.515,324.679 C1209.749,311.442 1221.159,301.742 1234,303.015 z" fill="#FFB6B6"/>
      <path d="M1236.295,338.213 L1240.295,338.213 C1243.609,338.213 1246.295,340.9 1246.295,344.213 L1246.295,356.213 C1246.295,359.527 1243.609,362.213 1240.295,362.213 L1236.295,362.213 C1232.982,362.213 1230.295,359.527 1230.295,356.213 L1230.295,344.213 C1230.295,340.9 1232.982,338.213 1236.295,338.213 z" fill="#FFB6B6"/>
      <path d="M1250.57,630.632 L1240.343,637.589 L1209.449,600.233 L1224.543,589.967 L1250.57,630.632 z" fill="#FFB6B6"/>
      <path d="M1259.72,639.078 L1226.744,661.508 L1226.468,661.078 C1221.791,653.77 1223.746,643.938 1230.834,639.116 L1230.835,639.115 L1233.843,630.307 L1248.097,627.374 L1250.975,625.416 z" fill="#2F2E41"/>
      <path d="M1203.828,532.124 L1213.498,515.917 C1215.232,500.258 1204.004,485.978 1188.74,485.086 C1180.24,484.589 1171.774,488.477 1166.828,502.531 C1154.109,538.672 1227.463,626.224 1227.463,626.224 L1243.717,618.454 L1245.6,608.355 L1237.751,601.922 L1238.754,593.235 L1231.133,588.285 z" fill="#2F2E41"/>
      <path d="M1239.754,332.722 Q1239.786,332.257 1239.816,331.788 C1239.716,332.089 1239.695,332.411 1239.754,332.722 z" fill="#2F2E41"/>
      <path d="M1259.85,321.576 C1258.145,313.522 1252.26,307.098 1244.557,304.884 C1242.458,301.26 1238.88,298.812 1234.825,298.223 C1231.066,297.708 1227.298,298.857 1223.684,300.041 Q1220.334,301.139 1217.002,302.292 C1215.193,302.918 1212.97,304.347 1213.57,306.214 C1212.631,305.71 1211.481,305.919 1210.767,306.725 C1210.052,307.531 1209.953,308.731 1210.526,309.649 C1209.687,308.534 1207.747,309.249 1207.281,310.576 C1206.814,311.902 1207.364,313.372 1208.046,314.595 C1212.269,321.75 1220.645,325.063 1228.427,322.656 C1230.64,321.91 1232.901,320.684 1235.167,321.232 C1237.307,321.749 1238.847,323.794 1239.456,325.97 C1239.901,327.874 1240.023,329.842 1239.816,331.788 C1240.417,330.35 1242.034,329.683 1243.431,330.298 C1245.047,331.129 1245.627,333.319 1245.227,335.134 C1244.826,336.95 1240.625,343.988 1239.516,345.457 C1238.3,346.842 1237.405,348.494 1236.899,350.289 Q1242.874,349.342 1248.848,348.395 L1249.064,348.618 C1255.239,343.672 1261.412,329.476 1259.85,321.576 z" fill="#2F2E41"/>
      <path d="M1202.626,491.161 C1203.742,488.257 1206.048,486.012 1208.923,485.03 C1211.799,484.048 1214.949,484.429 1217.526,486.071 L1245.74,462.402 L1247.629,481.792 L1220.546,501.296 C1217.517,505.672 1211.791,507.02 1207.219,504.434 C1202.647,501.848 1200.674,496.146 1202.626,491.161 z" fill="#FFB6B6"/>
      <path d="M1247.267,485.387 C1250.666,486.641 1253.295,485.709 1254.369,480.371 L1286.353,457.78 L1286.347,457.491 C1290.519,457.158 1289.565,393.572 1283.167,390.461 C1281.999,383.456 1278.542,377.074 1273.369,372.374 L1273.235,372.265 L1273.064,372.262 C1265.884,372.164 1259.6,377.217 1257.943,384.419 C1254.146,401.323 1254.212,418.905 1258.136,435.778 L1260.379,445.373 L1246.416,457.556 C1242.558,456.515 1240.847,458.116 1241.13,462.169 z" fill="#8D30FE"/>
      <path d="M1338.608,667.478 L1332.643,670 L1284.056,478.906 L1290.022,476.383 L1338.608,667.478 z" fill="#CCCCCC"/>
      <path d="M1250.673,667.478 L1256.638,670 L1305.224,478.906 L1299.259,476.383 L1250.673,667.478 z" fill="#CCCCCC"/>
    </g>
    <g>
      <path d="M199.765,478.714 L200.222,479.673 C200.526,480.292 201.169,480.688 201.876,480.692 L259.802,480.692 C260.42,480.681 260.993,480.372 261.328,479.868 C261.663,479.365 261.717,478.733 261.471,478.183 C261.451,478.132 261.422,478.085 261.387,478.043 z" fill="#000000" opacity="0.17"/>
      <g>
        <path d="M217.932,441.647 L225.554,474.115 L230.425,479.28 L233.938,479.28 L219.457,420.247 L218.741,430.276 L218.741,430.283 L217.932,441.647 z" fill="#3F3D56"/>
        <path d="M181.251,474.828 L225.966,474.555 L229.934,474.529 L232.764,474.51 L236.062,474.491 L236.088,474.491 C236.566,474.492 237.025,474.675 237.365,475.001 L242.933,480.391 C243.056,480.509 243.156,480.647 243.229,480.799 C243.264,480.842 243.292,480.889 243.314,480.939 C243.559,481.49 243.505,482.122 243.169,482.626 C242.834,483.129 242.262,483.438 241.643,483.45 L183.719,483.45 C183.01,483.447 182.365,483.051 182.061,482.43 L181.607,481.474 L180.672,479.531 L179.612,477.339 C179.499,477.106 179.441,476.851 179.441,476.594 C179.447,475.626 180.252,474.841 181.251,474.828 z" fill="#3F3D56"/>
        <path d="M218.741,430.276 L218.741,430.283 L231.141,479.28 L233.938,479.28 L219.457,420.247 L218.741,430.276 z" fill="#000000" opacity="0.17"/>
        <path d="M203.523,439.254 L221.076,309.961 C221.14,309.477 221.4,309.037 221.8,308.738 L233.883,294.095 L234.969,293.286 C235.371,292.991 235.877,292.861 236.377,292.923 L238.194,293.159 C239.237,293.289 239.974,294.213 239.839,295.223 L239.839,295.223 L221.648,429.186 L221.648,429.193 L220.536,437.387 L219.213,447.117 L219.213,447.13 L217.16,462.269 C217.094,462.794 216.793,463.265 216.337,463.557 C215.889,463.855 215.331,463.953 214.803,463.824 L213.652,463.544 C213.211,463.434 212.824,463.177 212.559,462.817 L212.046,462.11 L211.809,461.779 L203.859,440.56 C203.58,440.182 203.46,439.715 203.523,439.254 z" fill="#3F3D56"/>
        <path d="M233.886,294.096 L211.807,461.782 L212.047,462.11 L212.558,462.815 C212.822,463.175 213.21,463.432 213.651,463.542 L214.805,463.823 C215.333,463.949 215.891,463.852 216.341,463.556 C216.791,463.259 217.089,462.791 217.16,462.269 L239.837,295.225 C239.973,294.215 239.239,293.289 238.196,293.156 L236.374,292.924 C235.875,292.859 235.37,292.99 234.972,293.289 z" fill="#000000" opacity="0.17"/>
        <path d="M233.236,298.891 L221.519,315.083 L207.592,417.672 L215.142,432.173 L233.236,298.891 z" fill="#8D30FE"/>
        <path d="M192.138,441.443 L196.45,446.035 C196.858,446.367 197.429,446.439 197.911,446.218 C198.626,445.973 199.262,445.551 199.756,444.994 C202.837,441.608 206.296,438.563 210.07,435.915 C210.69,435.491 211.185,434.918 211.505,434.252 C211.769,433.815 211.757,433.271 211.472,432.846 C211.429,430.334 209.968,428.778 207.128,428.22 C206.63,427.718 205.505,427.908 204.497,428.67 C200.349,431.803 196.451,435.234 192.836,438.934 C191.948,439.843 191.648,440.922 192.138,441.443 z" fill="#8D30FE"/>
        <path d="M203.219,431.561 L206.848,435.425 C206.973,435.559 207.275,435.49 207.523,435.272 C207.77,435.055 207.869,434.77 207.744,434.637 L204.115,430.772 C203.99,430.639 203.688,430.707 203.44,430.925 C203.193,431.143 203.094,431.428 203.219,431.561 z" fill="#FFFFFF"/>
        <path d="M199.636,434.715 L203.265,438.58 C203.39,438.713 203.692,438.645 203.939,438.427 C204.187,438.209 204.286,437.924 204.16,437.791 L200.532,433.927 C200.406,433.793 200.104,433.862 199.857,434.08 C199.609,434.297 199.511,434.582 199.636,434.715 z" fill="#FFFFFF"/>
        <path d="M196.052,437.87 L199.681,441.734 C199.806,441.867 200.108,441.799 200.356,441.581 C200.603,441.363 200.702,441.079 200.577,440.945 L196.948,437.081 C196.823,436.948 196.521,437.016 196.273,437.234 C196.026,437.452 195.927,437.736 196.052,437.87 z" fill="#FFFFFF"/>
      </g>
      <g>
        <path d="M543.637,480.067 L436.204,480.067 L438.478,472.374 L541.363,472.374 L543.637,480.067 z" fill="#2F2E41"/>
        <path d="M576.232,291.942 L400.653,291.942 C397.512,291.948 394.967,294.708 394.962,298.116 L394.962,426.649 C394.965,430.057 397.511,432.819 400.653,432.823 L576.232,432.823 C579.374,432.819 581.92,430.057 581.923,426.649 L581.923,298.116 C581.918,294.708 579.373,291.948 576.232,291.942 z" fill="#3F3D56"/>
        <path d="M509.139,399.863 L467.74,399.863 C466.521,399.865 465.534,400.981 465.535,402.357 L465.535,476.118 L511.35,476.118 L511.35,402.357 C511.351,401.695 511.118,401.06 510.703,400.593 C510.288,400.125 509.726,399.862 509.139,399.863 z M488.579,441.773 C485.884,441.759 483.703,439.298 483.691,436.259 L483.691,427.751 C483.694,424.709 485.881,422.244 488.579,422.244 C491.277,422.244 493.464,424.709 493.468,427.751 L493.468,436.259 C493.455,439.298 491.274,441.759 488.579,441.773 z" fill="#2F2E41"/>
        <path d="M575.271,422.299 C575.271,423.959 574.03,425.306 572.499,425.306 C570.968,425.306 569.727,423.959 569.727,422.299 C569.727,420.638 570.968,419.292 572.499,419.292 C574.03,419.292 575.271,420.638 575.271,422.299 z" fill="#2F2E41"/>
        <path d="M422.818,417.937 C422.282,417.937 421.847,418.408 421.847,418.989 L421.847,424.404 C421.849,424.984 422.283,425.454 422.818,425.454 C423.352,425.454 423.786,424.984 423.788,424.404 L423.788,418.989 C423.788,418.408 423.353,417.937 422.818,417.937 z" fill="#2F2E41"/>
        <path d="M428.085,417.937 C427.549,417.937 427.115,418.408 427.115,418.989 L427.115,424.404 C427.115,424.985 427.549,425.456 428.085,425.456 C428.621,425.456 429.055,424.985 429.055,424.404 L429.055,418.989 C429.055,418.408 428.621,417.937 428.085,417.937 z" fill="#2F2E41"/>
        <path d="M433.353,417.937 C432.817,417.937 432.383,418.408 432.383,418.989 L432.383,424.404 C432.384,424.984 432.818,425.454 433.353,425.454 C433.888,425.454 434.321,424.984 434.323,424.404 L434.323,418.989 C434.323,418.408 433.888,417.937 433.353,417.937 z" fill="#2F2E41"/>
        <path d="M438.62,417.937 C438.085,417.937 437.65,418.408 437.65,418.989 L437.65,424.404 C437.652,424.984 438.086,425.454 438.62,425.454 C439.155,425.454 439.589,424.984 439.59,424.404 L439.59,418.989 C439.59,418.408 439.156,417.937 438.62,417.937 z" fill="#2F2E41"/>
      </g>
      <g>
        <path d="M76.959,541.479 L82.119,539.072 L124.149,665.272 L118.989,667.679 z" fill="#E6E6E6"/>
        <path d="M53.154,667.679 L47.993,665.272 L90.023,539.072 L95.183,541.479 z" fill="#E6E6E6"/>
        <path d="M120.583,545.365 C120.583,554.628 104.166,562.138 83.914,562.138 C63.662,562.138 47.245,554.628 47.245,545.365 C47.245,536.1 63.662,528.59 83.914,528.59 C104.166,528.59 120.583,536.1 120.583,545.365 z" fill="#E6E6E6"/>
        <path d="M61.665,352.062 C63.396,364.871 73.571,373.597 84.396,371.555 Q85.279,371.388 86.138,371.128 C96.095,368.148 102.485,356.667 100.868,344.665 C100.621,342.821 100.187,341.019 99.577,339.299 C95.699,328.325 85.501,322.515 75.834,325.769 C66.167,329.024 60.081,340.317 61.665,352.062 z" fill="#FFB6B6"/>
        <path d="M78.031,350.566 L78.031,350.566 C81.161,350.566 83.698,353.103 83.698,356.233 L83.698,379.422 C83.698,382.551 81.161,385.088 78.031,385.088 L78.031,385.088 C74.902,385.088 72.365,382.551 72.365,379.422 L72.365,356.233 C72.365,353.103 74.902,350.566 78.031,350.566 z" fill="#FFB6B6"/>
        <path d="M168.683,649.032 L177.598,645.895 L171.701,602.772 L158.543,607.403 L168.683,649.032 z" fill="#FFB6B6"/>
        <path d="M114.011,632.011 C114.554,632.571 115.097,633.122 115.647,633.676 C116.741,634.781 117.849,635.876 118.959,636.955 C119.516,637.495 120.08,638.037 120.639,638.57 L120.636,638.591 L120.672,638.605 L120.683,638.615 L121.584,639.064 L123.492,635.11 L124.372,633.288 L125.616,630.708 L127.895,625.988 L139.894,601.139 L127.254,594.834 L126.442,597.126 L126.436,597.125 L126.034,598.261 L118.487,619.456 L116.946,623.789 L116.897,623.92 L115.97,626.508 L115.171,628.751 L114.28,631.256 z" fill="#FFB6B6"/>
        <path d="M47.968,524.469 C48.59,526.21 49.231,527.946 49.88,529.67 Q51.688,534.484 53.641,539.192 C53.64,539.199 53.646,539.2 53.651,539.208 C54.487,540.467 55.445,541.605 56.504,542.6 C56.547,542.653 56.598,542.692 56.642,542.737 C57.423,543.458 58.277,544.062 59.184,544.536 C59.511,544.7 59.845,544.866 60.172,545.03 C61.355,545.607 62.533,546.131 63.71,546.617 Q66.851,547.904 69.982,548.797 C70.15,548.85 70.318,548.897 70.487,548.943 C79.096,551.332 87.738,551.704 96.856,551.368 C101.357,551.207 105.976,550.869 110.759,550.518 C112.323,550.398 113.891,550.285 115.478,550.176 C115.598,550.169 115.724,550.156 115.85,550.15 C118.118,549.992 120.421,549.848 122.777,549.721 C125.744,549.561 128.799,549.439 131.965,549.376 L131.058,554.47 C130.347,558.387 129.132,562.151 127.455,565.631 C125.531,569.936 124.008,573.343 125.202,581.254 L125.775,585.082 C124.173,588.528 124.028,592.664 125.384,596.255 L125.546,596.676 L113.175,621.463 L112.373,623.071 L116.896,623.918 L122.458,624.968 L131.887,626.735 L149.815,596.987 L150.672,595.567 L150.683,595.489 L157.585,533.156 C157.64,532.604 157.677,532.044 157.69,531.485 C157.862,526.363 156.288,521.375 153.322,517.64 C150.483,514.037 146.541,511.931 142.38,511.795 L137.628,511.635 L127.919,511.307 L121.079,511.08 L120.942,511.077 L100.773,510.398 L100.271,503.289 L100.024,503.125 L92.186,497.956 L65.078,480.08 L65.009,480.037 L63.226,478.861 L62.943,479.251 C62.858,479.369 62.774,479.485 62.696,479.603 C60.293,483.222 58.21,487.121 56.477,491.241 C53.591,497.96 51.031,504.87 48.809,511.934 Q48.663,512.393 48.548,512.77 L48.519,512.846 C48.484,512.965 48.461,513.042 48.452,513.063 C47.351,516.209 47.28,520.286 47.968,524.469 z" fill="#2F2E41"/>
        <path d="M49.815,501.367 C49.968,500.923 50.146,500.476 50.328,500.045 C51.755,496.789 53.332,493.629 55.052,490.579 C56.99,487.102 59.25,483.413 61.882,479.454 Q63.793,476.578 65.963,473.492 Q67.049,471.946 68.212,470.347 C68.243,470.297 68.277,470.249 68.312,470.204 L68.535,469.891 L96.406,479.737 L104.56,483.374 L106.581,489.774 L106.526,491.351 C106.532,491.352 106.532,491.352 106.525,491.358 L106.386,495.659 L106.385,495.666 L106.205,501.348 L106.255,501.35 L122.313,501.886 L138.861,502.44 L147.75,502.739 C151.912,502.876 155.854,504.982 158.692,508.586 C161.657,512.321 163.231,517.309 163.06,522.43 C163.047,522.945 163.014,523.47 162.964,523.985 L168.097,548.568 C171.17,563.27 172.35,578.437 171.598,593.556 L174.572,617.483 L173.702,617.416 L160.743,616.427 L157.321,616.169 L151.612,601.949 C150.961,600.328 150.359,598.672 149.817,596.99 C148.921,594.242 148.174,591.428 147.581,588.567 L137.572,540.32 Q135.659,540.35 133.787,540.35 Q125.124,540.388 117.217,539.954 C100.077,539.023 85.469,536.462 72.738,532.141 Q67.375,530.328 62.443,528.085 Q60.633,527.27 58.882,526.392 C58.607,526.259 58.337,526.127 58.069,525.988 C53.166,523.47 49.679,518.178 48.812,511.937 C48.288,508.372 48.636,504.705 49.815,501.367 z" fill="#2F2E41"/>
        <path d="M169.704,642.164 L179.35,638.76 L180.864,638.223 L182.236,645.171 L197.37,652.194 C198.906,652.905 199.872,654.715 199.755,656.663 C199.637,658.61 198.463,660.239 196.857,660.685 L180.546,665.211 L176.376,659.121 L176.638,666.295 L170.495,668.001 L167.359,642.995 z" fill="#2F2E41"/>
        <path d="M113.175,621.463 L112.373,623.071 L112.946,623.177 L113.175,621.463 z" fill="#2F2E41"/>
        <path d="M116.019,624.129 L124.898,629.742 L126.292,630.621 L123.137,636.701 L129.714,654.292 C130.383,656.076 129.993,658.168 128.752,659.453 C127.511,660.739 125.707,660.919 124.301,659.899 L110.02,649.533 L110.678,641.734 L106.599,647.05 L101.219,643.147 L113.859,622.767 z" fill="#2F2E41"/>
        <path d="M178.123,487.805 C176.211,488.498 174.138,488.153 172.462,486.863 C170.786,485.573 169.679,483.471 169.438,481.122 L145.975,475.106 L154.893,464.782 L175.807,472.078 C179.243,471.857 182.277,474.712 182.868,478.725 C183.459,482.736 181.42,486.638 178.123,487.805 z" fill="#FFB6B6"/>
        <path d="M109.212,474.834 L65.901,431.036 C58.76,423.798 57.917,411.085 64.018,402.619 L64.018,402.619 C67.307,398.065 72.136,395.478 77.197,395.559 C82.259,395.64 87.027,398.381 90.21,403.038 L122.016,449.579 L164.678,463.208 L163.572,479.884 z" fill="#E6E6E6"/>
        <path d="M58.701,429.868 L57.784,469.622 C45.16,494.859 43.724,507.114 47.219,513.648 L105.808,490.332 L106.683,487.86 L102.711,470.977 L107.625,452.65 C108.49,450.735 120.238,438.97 109.226,416.653 L87.072,381.337 L79.062,380.574 C76.136,389.462 71.673,393.872 66.4,395.922 C54.477,408.854 56.229,410.958 58.701,429.868 z" fill="#E6E6E6"/>
        <path d="M103.444,335.125 C102.821,337.212 101.493,338.897 99.777,339.778 C98.424,338.266 96.959,336.9 95.402,335.694 C96.079,337.321 96.633,339.014 97.06,340.756 C97.029,340.763 97.004,340.763 96.973,340.77 C94.163,341.215 91.34,340.391 88.592,339.574 L88.974,339.99 C89.022,345.312 86.46,350.187 82.404,352.49 C80.204,353.686 77.301,354.517 76.759,357.302 C76.278,359.768 78.084,361.978 79.822,363.444 C81.56,364.91 83.594,366.514 83.877,369.022 C84.333,373.106 79.908,375.695 79.156,379.714 C78.503,383.156 80.753,386.438 83.224,388.407 C85.695,390.376 88.604,391.733 90.515,394.445 C93.898,399.251 92.807,406.916 89.319,411.62 C88.942,412.132 88.538,412.617 88.111,413.072 C87.156,411.643 86.111,410.302 84.987,409.06 C83.633,407.549 82.168,406.182 80.611,404.977 C81.288,406.602 81.843,408.296 82.269,410.037 C82.825,412.271 83.179,414.569 83.323,416.893 C80.81,418.304 78.175,419.388 75.465,420.124 C68.641,422.1 61.619,422.954 54.597,422.661 C51.39,422.602 48.202,422.068 45.107,421.071 C46.524,415.773 46.938,410.171 46.321,404.663 C44.565,409.504 41.848,413.772 38.401,417.104 C35.511,414.413 33.366,410.599 33.009,406.304 C32.571,401.024 34.815,395.976 37.304,391.564 C39.8,387.153 42.672,382.849 43.769,377.709 C45.372,370.211 42.925,362.415 42.611,354.692 C42.208,344.873 45.282,335.301 51.092,328.276 C56.902,321.25 64.924,317.408 73.228,317.673 C76.931,317.93 80.605,318.594 84.204,319.657 C86.157,320.153 88.105,320.656 90.059,321.152 C92.474,321.682 94.843,322.478 97.134,323.529 C99.13,324.452 100.885,325.985 102.218,327.971 C103.547,329.999 104,332.644 103.444,335.125 z" fill="#2F2E41"/>
        <path d="M76.695,665.381 L71.535,667.884 L29.505,478.128 L34.665,475.624 L76.695,665.381 z" fill="#CCCCCC"/>
        <path d="M0.539,665.381 L5.7,667.884 L47.729,478.128 L42.569,475.624 L0.539,665.381 z" fill="#CCCCCC"/>
        <path d="M177.06,470.025 C175.22,470.951 173.128,470.866 171.347,469.792 C169.566,468.718 168.278,466.765 167.83,464.46 L143.963,461.392 L151.915,450.017 L173.361,454.674 C176.759,454.026 180.029,456.488 180.973,460.405 C181.916,464.321 180.235,468.454 177.06,470.025 z" fill="#FFB6B6"/>
        <path d="M107.379,465.691 L60.421,427.517 C52.676,421.207 50.71,408.669 56.026,399.491 L56.026,399.491 C58.892,394.554 63.465,391.381 68.506,390.833 C73.546,390.285 78.532,392.418 82.11,396.654 L117.871,438.984 L161.507,447.236 L161.886,463.957 z" fill="#E6E6E6"/>
      </g>
      <path d="M146.74,480.063 C152.269,484.215 158.249,488.117 164.637,491.741 L629.597,492.144 C635.984,488.521 641.965,484.619 647.493,480.467 z" fill="#CCCCCC"/>
      <path d="M500.943,363.061 C500.943,369.965 495.346,375.561 488.443,375.561 C481.539,375.561 475.943,369.965 475.943,363.061 C475.943,356.157 481.539,350.561 488.443,350.561 C495.346,350.561 500.943,356.157 500.943,363.061 z" fill="#2F2E41" id="a0cd768d-b738-4d4b-9ab3-78ab535c7573"/>
      <g>
        <g>
          <path d="M602.958,477.225 C603.63,479.295 605.559,480.698 607.736,480.697 L628.468,480.525 C630.664,480.521 632.594,479.071 633.21,476.964 L636.69,445.658 C637.722,446.147 638.851,446.4 639.993,446.397 C644.168,446.365 647.525,442.955 647.493,438.781 C647.462,434.606 644.052,431.248 639.878,431.28 C639.421,431.27 638.965,431.31 638.517,431.398 C637.554,430.318 636.179,429.697 634.733,429.686 L602.842,429.953 C602.578,429.957 602.314,429.986 602.054,430.037 C600.635,430.276 599.389,431.116 598.637,432.343 C597.885,433.57 597.699,435.062 598.13,436.435 z M637.328,443.539 L639.545,436.103 C639.798,435.244 639.82,434.334 639.607,433.464 C639.709,433.465 639.799,433.419 639.901,433.42 C642.88,433.411 645.306,435.814 645.324,438.794 C645.342,441.774 642.945,444.207 639.965,444.233 C639.039,444.246 638.127,444.006 637.328,443.539 z" fill="#2F2E41"/>
          <path d="M602.626,430.17 C603.213,434.582 610.622,437.806 619.606,437.423 C627.866,437.126 634.673,433.883 635.98,429.922 C635.525,429.757 635.05,429.676 634.573,429.68 L603.397,430.073 C603.138,430.079 602.881,430.112 602.626,430.17 z" fill="#3F3D56"/>
        </g>
        <path d="M624.076,464.441 C624.124,464.428 624.169,464.409 624.211,464.381 L629.347,461.043 C629.473,460.96 629.549,460.821 629.549,460.671 C629.549,460.522 629.473,460.383 629.347,460.301 L624.008,456.829 C623.875,456.741 623.705,456.73 623.562,456.802 C623.419,456.873 623.326,457.015 623.318,457.173 C623.309,457.332 623.385,457.483 623.519,457.569 L628.287,460.671 L623.722,463.64 C623.54,463.758 623.47,463.99 623.558,464.189 C623.645,464.387 623.865,464.494 624.076,464.441 z" fill="#FFFFFF"/>
        <path d="M615.964,464.812 C616.14,464.768 616.272,464.622 616.297,464.442 C616.321,464.263 616.235,464.088 616.077,463.997 L611.343,461.302 L615.919,457.926 C616.116,457.78 616.157,457.502 616.011,457.306 C615.863,457.11 615.584,457.069 615.387,457.215 L610.263,460.994 C610.142,461.084 610.075,461.227 610.084,461.376 C610.093,461.525 610.177,461.66 610.307,461.735 L615.632,464.767 C615.733,464.824 615.852,464.841 615.964,464.812 z" fill="#FFFFFF"/>
        <path d="M623.565,467.367 C623.608,467.356 623.65,467.338 623.687,467.315 C623.789,467.254 623.861,467.156 623.89,467.041 C623.917,466.927 623.899,466.806 623.837,466.706 L616.556,454.817 C616.427,454.608 616.153,454.543 615.943,454.669 C615.733,454.797 615.666,455.069 615.794,455.279 L623.075,467.167 C623.176,467.333 623.375,467.414 623.565,467.367 z" fill="#FFFFFF"/>
      </g>
    </g>
    <path d="M861.7,401.413" fill="#272536"/>
  </g>
  <g id="Layer_5">
    <path d="M829.042,275.738 L834.467,276.905 C834.503,274.628 834.786,272.36 835.311,270.144 C835.804,272.858 836.843,275.443 838.365,277.74 L869.48,284.41 L899.352,252.766 C899.398,236.945 890.645,224.921 874.951,224.921 C874.005,224.921 873.024,224.967 872.033,225.058 C854.409,222.097 837.613,233.672 834.034,251.245 C822.91,262.239 826.945,268.703 829.042,275.738 z" fill="#2F2E41" display="none"/>
    <path d="M813.745,645.8 L802.459,645.8 L797.089,602.102 L813.747,602.103 L813.745,645.8 z" fill="#FFB6B6" display="none"/>
    <path d="M816.544,640.212 L798.703,639.143 L798.703,646.815 L781.74,658.574 C780.021,659.766 779.273,661.942 779.895,663.945 C780.517,665.947 782.364,667.311 784.454,667.311 L805.694,667.311 L809.356,659.721 L810.785,667.311 L818.794,667.311 z" fill="#2F2E41" display="none"/>
    <path d="M945.97,633.469 L936.154,639.059 L910,603.713 L924.489,595.463 L945.97,633.469 z" fill="#FFB6B6" display="none"/>
    <path d="M945.657,627.222 L929.614,635.13 L933.386,641.803 L924.415,660.433 C923.505,662.321 923.924,664.584 925.45,666.018 C926.975,667.451 929.252,667.723 931.07,666.687 L949.544,656.166 L948.997,647.751 L953.971,653.644 L960.937,649.677 z" fill="#2F2E41" display="none"/>
    <path d="M772.027,283.394 C774.954,283.819 777.544,285.524 779.099,288.05 C780.654,290.576 781.014,293.664 780.083,296.482 L797.354,311.487 L790.829,324.245 L766.736,302.712 C762.02,300.786 759.483,295.623 760.833,290.694 C762.183,285.766 766.992,282.63 772.027,283.394 z" fill="#FFB6B6" display="none"/>
    <path d="M789.419,334.992 C795.18,343.75 808.091,352.209 827.254,359.707 C829.391,360.567 831.789,360.488 833.865,359.49 C841.097,356.187 845.731,343.906 846.166,342.715 L860.172,323.75 C860.421,323.474 866.97,316.013 866.221,308.678 C865.88,305.567 864.2,302.762 861.625,300.999 C851.022,293.11 827.26,320.51 824.177,324.153 L808.669,314.669 L797.37,309.608 L788.248,298.467 L775.404,311.648 L786.956,330.094 C787.572,331.822 788.399,333.468 789.419,334.992 z" fill="#2F2E41" display="none"/>
    <path d="M829.698,368.594 C829.698,368.594 796.513,421.653 802.525,427.688 C808.537,433.723 817.893,435.308 817.893,435.308 L838.598,408.377 z" fill="#2F2E41" display="none"/>
    <path d="M859.039,296.129 L843.399,306.749 C828.462,316.891 822.045,335.752 827.681,352.947 L832.084,366.381 z" fill="#2F2E41" display="none"/>
    <path d="M886.696,440.965 L888.787,448.275 L895.922,536.433 L931.57,603.118 L914.557,615.316 L865.945,551.884 L846.718,488.901 L816.524,628.328 L793.839,626.701 L809.594,433.387 L839.491,378.974 L886.696,440.965 z" fill="#2F2E41" display="none"/>
    <path d="M861.699,298.799 L839.931,316.656 C835.154,320.576 831.713,325.893 830.09,331.868 L830.09,331.868 C829.353,334.581 829.002,337.386 829.049,340.198 L829.698,378.974 L809.739,432.516 C809.739,432.516 863.849,453.034 871.064,434.93 C878.279,416.825 861.699,298.799 861.699,298.799 z" fill="#8D30FE" display="none"/>
    <path d="M855.189,444.328 C882.22,444.328 888.807,444.532 889.234,444.445 L889.662,444.359 L889.662,428.039 L883.088,398.721 C883.857,389.619 885.656,377.617 885.493,367.34 C884.904,330.195 886.723,293.911 886.723,293.911 L872.416,280.656 L865.917,284.901 L856.106,289.014 C842.092,323.632 828.727,364.21 828.657,366.304 L827.776,402.342 L831.383,416.825 C847.702,428.388 832.792,444.328 855.189,444.328 z" fill="#2F2E41" display="none"/>
    <path d="M880.66,326.27 L883.946,346.859 L861.7,356.069 L880.66,326.27 z" fill="#000000" opacity="0.2" display="none"/>
    <path d="M836.468,254.931 C836.468,267.005 846.22,276.793 858.249,276.793 C870.278,276.793 880.03,267.005 880.03,254.931 C880.03,242.856 870.278,233.068 858.249,233.068 C846.22,233.068 836.468,242.856 836.468,254.931 z" fill="#FFB6B6" display="none"/>
    <path d="M861.856,266.346 L865.106,266.346 C868.42,266.346 871.106,269.032 871.106,272.346 L874.106,284.561 C874.106,287.875 869.67,292.953 866.356,292.953 L862.356,292.953 C859.043,292.953 856.106,292.328 856.106,289.014 L855.856,272.346 C855.856,269.032 858.543,266.346 861.856,266.346 z" fill="#FFB6B6" display="none"/>
    <path d="M894.744,365.859 L894.744,365.859 C882.821,379.717 863.069,383.724 846.72,375.603 L841.979,373.248 z" fill="#000000" opacity="0.2" display="none"/>
    <path d="M818.953,360.826 C820.92,358.608 823.764,357.379 826.721,357.468 C829.678,357.558 832.443,358.958 834.273,361.291 L856.264,355.094 L863.276,367.59 L832.097,375.903 C827.897,378.792 822.207,378.071 818.854,374.225 C815.5,370.378 815.543,364.622 818.953,360.826 z" fill="#FFB6B6" display="none"/>
    <path d="M871.432,374.694 C881.888,374.695 896.035,368.541 912.829,356.623 C914.721,355.307 915.977,353.255 916.292,350.966 C917.53,343.088 909.875,332.439 909.125,331.418 L901.078,309.236 C900.985,308.875 898.391,299.278 891.881,295.863 C889.107,294.435 885.849,294.296 882.964,295.482 C870.563,300.014 880.247,335.017 881.576,339.607 L865.146,347.369 L854.712,354.045 L840.423,355.546 L844.302,373.567 L866.003,374.057 C867.779,374.494 869.603,374.707 871.432,374.694 z" fill="#2F2E41" display="none"/>
    <path d="M832.131,240.548 C833.875,242.825 839.881,244.838 847.016,246.463 C847.004,246.314 847.004,246.165 847.004,246.017 C847.04,243.739 847.323,241.472 847.848,239.255 C848.341,241.97 849.381,244.554 850.902,246.852 C851.016,247.023 851.13,247.195 851.256,247.367 C857.376,248.579 863.85,249.517 868.922,250.147 C865.434,262.754 852.065,273.096 853.512,280.761 L892.685,288.792 C892.444,285.607 892.698,282.403 893.437,279.296 C894.186,283.397 896.167,287.169 899.113,290.107 L902.441,290.794 L903.433,285.886 C912.026,265.168 900.048,243.957 880.421,232.986 C876.922,227.721 871.489,224.06 865.309,222.804 L860.419,221.798 C847.449,219.134 834.784,227.529 832.131,240.548 z" fill="#2F2E41" display="none"/>
  </g>
  <g id="Layer_4">
    <path d="M837.345,506.753 C836.377,502.128 835.42,497.501 834.429,492.881 C834.291,492.241 833.985,491.638 833.757,491.019 C826.943,473.766 822.546,456.528 821.433,438.071 C821.393,431.814 822.312,424.821 822.318,418.563 C822.324,411.551 822.306,404.536 822.492,397.526 C822.577,394.346 823.18,391.182 823.439,388.001 C823.519,387.023 823.239,386.016 823.124,385.022 C823.416,384.589 823.67,384.123 824.007,383.729 C826.133,381.244 828.277,378.775 830.418,376.303 C831.695,374.829 833.013,373.391 834.249,371.883 C836.759,368.824 839.351,365.802 840.171,361.75 C840.314,361.46 840.456,361.17 840.599,360.88 L840.596,360.888 C840.667,360.697 840.739,360.506 840.81,360.315 C840.81,360.315 840.804,360.333 840.803,360.333 C841.02,359.337 841.237,358.341 841.453,357.346 L841.448,357.358 C841.637,356.745 841.89,356.144 841.997,355.518 C842.121,354.8 842.495,354.565 843.163,354.655 C843.685,354.671 844.217,354.627 844.726,354.713 C848.995,355.435 853.259,356.181 857.525,356.92 C857.799,357.155 858.231,357.34 858.324,357.633 C859.122,360.134 860.783,362.021 862.581,363.824 C866.596,367.85 870.814,371.697 874.568,375.952 C880.32,382.472 883.416,390.313 884.802,398.851 C885.752,404.706 885.816,410.508 883.865,416.217 C882.83,419.245 881.193,421.894 879.182,424.36 C875.179,429.269 871.8,434.563 869.438,440.474 C869.045,441.457 868.582,442.44 867.982,443.307 C865.179,447.35 864.116,451.913 863.803,456.723 C863.332,463.987 862.734,471.246 862.404,478.517 C862.03,486.794 862.175,495.05 865.117,502.975 C866.451,506.57 868.554,509.651 871.257,512.366 C879.517,520.663 887.141,529.475 893.379,539.435 C898.936,548.308 902.922,557.807 905.483,567.958 C906.379,571.509 907.636,575.002 909.069,578.377 C911.178,583.343 913.459,585.946 919.402,591.19 C917.268,591.764 915.204,592.319 913.141,592.873 C912.603,593.036 912.025,593.123 911.535,593.379 C910.287,594.03 909.089,594.775 907.853,595.448 C904.852,597.084 901.84,598.699 898.833,600.322 C897.225,601.007 895.618,601.691 893.787,602.47 C893.039,599.569 892.224,596.813 891.629,594.01 C890.487,588.625 888.465,583.691 885.484,579.005 C882.118,573.715 879.315,568.068 876.267,562.576 C876.193,562.459 876.119,562.341 876.044,562.224 C876.044,562.224 875.996,562.12 875.995,562.12 C875.9,562.004 875.805,561.89 875.71,561.775 L875.726,561.782 C874.812,560.067 874.066,558.234 872.955,556.658 C868.026,549.664 862.928,542.788 858.023,535.777 C855.448,532.096 852.168,529.287 848.384,526.984 C843.475,523.995 840.361,519.687 838.993,514.125 C838.393,511.681 837.892,509.211 837.345,506.753" fill="#2F2E41"/>
    <path d="M822.426,437.336 C823.54,455.792 826.943,473.766 833.757,491.019 C832.592,493.865 831.17,496.639 830.322,499.578 C828.891,504.533 829.223,509.583 830.277,514.606 C832.734,526.309 832.167,537.933 829.786,549.614 C827.956,558.594 826.737,567.698 825.234,576.745 C824.146,583.293 823.038,589.837 821.905,596.587 C819.979,596.017 818.434,595.561 816.888,595.104 C814.698,594.826 812.506,594.566 810.319,594.268 C807.086,593.827 803.771,594.23 800.583,593.325 C799.871,593.2 799.717,592.82 799.861,592.111 C802.338,579.911 803.694,567.557 804.697,555.168 C805.325,547.421 805.463,539.634 806.098,531.888 C806.601,525.748 805.685,519.899 803.294,514.301 C801.538,510.19 801.776,506.098 802.754,501.939 C803.087,500.52 803.492,499.077 804.13,497.776 C807.539,490.828 809.581,483.433 811.412,475.965 C814.187,464.646 818.347,453.771 821.939,442.713 C822.482,441.043 822.282,439.134 822.426,437.336" fill="#272536"/>
    <path d="M811.3,245.964 C810.641,246.389 809.982,246.815 809.221,247.305 C808.528,241.791 807.266,236.405 807.988,230.855 C808.806,224.557 812.227,220.393 818.33,218.697 C826.109,216.536 833.938,214.55 842.067,214.167 C845.647,213.999 849.131,214.083 852.431,215.842 C853.687,216.511 855.252,216.573 856.633,217.037 C866.286,220.279 872.514,227.11 876.465,236.227 C879.774,243.865 880.818,251.905 880.514,260.179 C880.44,262.204 880.701,264.242 880.809,266.3 C878.44,267.227 874.838,266.552 873.178,264.773 C872.754,270.192 868.584,271.379 864.447,272.499 C863.097,272.865 861.644,272.844 860.238,273 C854.526,272.776 848.813,272.55 843.101,272.328 C840.151,272.214 837.201,272.108 834.264,271.999 C834.704,269.899 835.113,267.945 835.537,265.922 C834.169,265.83 833.138,265.761 832.341,265.707 C832.645,263.278 833.14,261.007 833.171,258.731 C833.243,253.616 831.599,249.278 827.066,246.33 C822.014,243.046 815.745,242.837 811.3,245.964" fill="#2F2E41"/>
    <path d="M832.108,300.139 C831.978,300.082 831.848,300.025 831.719,299.968 C830.209,301.687 828.646,303.363 827.211,305.143 C826.444,306.094 825.761,307.165 825.284,308.285 C824.49,310.148 824.521,312.223 825.934,313.639 C827.385,315.093 829.583,315.144 831.707,315.416 C831.844,310.209 831.976,305.174 832.108,300.139 M874.381,302.685 C874.348,302.051 874.399,301.757 874.304,301.524 C874.175,301.209 873.889,300.678 873.747,300.702 C873.383,300.762 872.855,301.007 872.755,301.302 C872.087,303.273 871.302,305.241 870.977,307.278 C870.719,308.893 869.876,309.506 868.54,310.032 C867.627,310.391 866.61,310.909 866.068,311.663 C865.537,312.404 865.615,313.556 865.305,314.487 C864.549,316.752 863.821,319.034 862.907,321.236 C860.95,325.952 858.879,330.621 856.861,335.312 C856.336,336.531 856.947,337.626 858.24,337.776 C858.94,337.856 859.648,337.864 860.348,337.939 C861.338,338.043 861.813,337.581 862.228,336.685 C863.213,334.56 864.238,332.435 865.475,330.45 C866.279,329.16 867.763,328.264 868.454,326.938 C870.063,323.847 871.54,320.664 872.771,317.405 C874.606,312.547 873.955,307.363 874.381,302.685 M857.525,356.92 C853.259,356.18 848.995,355.435 844.726,354.713 C844.217,354.627 843.685,354.671 843.164,354.654 C843.626,351.647 844.098,348.641 844.549,345.633 C844.852,343.614 845.15,343.268 847.107,343.186 C847.96,343.15 848.36,342.85 848.564,342.007 C848.939,340.46 849.442,338.944 849.883,337.412 C849.915,337.299 849.874,337.164 849.87,337.075 C849.529,336.908 849.217,336.756 848.592,336.45 C850.319,335.948 850.76,334.659 850.698,333.586 C850.575,331.458 851.502,329.908 852.838,328.542 C855.284,326.043 855.591,323.13 854.802,319.93 C854.177,317.4 853.446,314.893 854.248,312.234 C854.439,311.603 854.333,310.78 854.103,310.138 C853.221,307.673 852.234,305.246 851.264,302.748 C851.021,303.175 850.645,303.631 850.484,304.155 C849.848,306.216 849.074,308.264 848.721,310.378 C847.412,318.208 846.251,326.063 845.034,333.91 C844.111,333.309 843.249,332.564 842.252,332.132 C839.103,330.768 835.895,329.514 832.435,331.126 C831.441,331.589 830.496,332.155 829.529,332.673 C828.853,339.169 832.108,337.953 827.5,350.385 C826.624,352.749 825.709,355.099 824.782,357.444 C824.694,357.664 824.379,357.796 824.169,357.969 C823.798,356.513 823.265,355.076 823.088,353.597 C822.713,350.485 821.396,347.78 820.034,345.017 C818.628,342.165 816.917,339.831 814.063,338.22 C811.282,336.651 809.29,334.245 808.699,330.946 C808.226,328.307 808.753,325.836 810.024,323.503 C811.622,321.113 813.238,318.737 814.809,316.331 C815.575,315.158 816.258,313.932 816.979,312.73 L816.956,312.728 C817.069,312.626 817.181,312.525 817.294,312.423 C817.684,311.94 818.041,311.427 818.469,310.98 C822.33,306.953 825.615,302.511 828.347,297.638 C829.871,294.919 831.746,292.439 834.156,290.399 C834.48,290.125 834.695,289.61 834.773,289.173 C835.311,286.158 837.189,284.571 840.089,283.955 C841.123,283.735 842.119,283.337 843.133,283.02 C845.83,283.034 848.528,283.017 851.223,283.07 C854.715,283.138 858.206,283.373 861.693,283.306 C863.094,283.279 864.484,282.639 865.879,282.279 C866.177,282.43 866.562,282.508 866.759,282.743 C869.729,286.275 872.683,289.819 875.62,293.378 C878.558,296.936 878.588,301.122 878.134,305.39 C877.618,310.246 875.877,314.752 874.211,319.295 C870.459,329.522 865.393,339.118 860.302,348.707 C858.931,351.291 857.619,353.901 857.525,356.92" fill="#8D31FC"/>
    <path d="M829.529,332.673 C830.496,332.155 831.441,331.589 832.435,331.126 C835.895,329.514 839.103,330.768 842.252,332.132 C843.25,332.564 844.111,333.309 845.034,333.91 C845.086,334.257 845.231,334.623 845.167,334.947 C845.07,335.435 844.739,335.88 844.66,336.368 C843.578,343.013 842.519,349.661 841.465,356.31 C841.411,356.652 841.452,357.008 841.448,357.358 L841.453,357.345 C841.237,358.341 841.02,359.337 840.804,360.333 L840.81,360.315 C840.739,360.506 840.667,360.697 840.596,360.888 L840.599,360.88 C840.456,361.17 840.314,361.46 840.171,361.75 C839.351,365.802 836.759,368.824 834.249,371.884 C833.013,373.391 831.695,374.829 830.418,376.303 C828.277,378.774 826.133,381.244 824.007,383.728 C823.669,384.122 823.416,384.589 823.124,385.022 C820.142,388.426 817.144,391.817 814.185,395.242 C812.387,397.322 810.657,399.46 808.881,401.56 C807.018,403.762 805.077,405.901 803.292,408.165 C802.538,409.12 801.873,410.261 801.553,411.423 C800.336,415.85 799.277,420.32 798.12,424.925 C799.101,424.973 799.826,425.008 800.693,425.051 C800.651,425.555 800.491,426.016 800.607,426.392 C800.782,426.958 801.028,427.758 801.46,427.937 C802.497,428.368 802.468,429.067 802.045,429.715 C799.763,433.215 794.144,435.762 790.693,435.216 C788.824,434.922 788.069,433.571 787.204,432.244 C786.941,431.841 786.763,431.382 786.445,430.747 C785.502,431.865 785.071,433.009 785.165,434.308 C785.284,435.941 785.596,437.563 785.641,439.195 C785.675,440.452 785.502,441.75 784.163,442.72 C783.317,439.893 782.454,437.216 781.741,434.501 C781.536,433.725 781.732,432.833 781.796,431.998 C782.301,425.375 784.683,419.361 787.723,413.544 C788.499,412.06 789.14,410.482 789.651,408.886 C790.369,406.641 791.854,404.983 793.384,403.296 C795.098,401.406 796.802,399.488 798.319,397.441 C807.383,385.214 815.251,372.192 823.463,359.4 C823.749,358.955 823.936,358.448 824.169,357.97 C824.379,357.796 824.694,357.665 824.782,357.444 C825.709,355.099 826.599,352.74 827.5,350.385 C828.101,348.425 829.058,346.495 829.227,344.499 C829.559,340.577 829.454,336.617 829.529,332.673" fill="#FEB6B6"/>
    <path d="M923.386,607.957 C923.651,607.846 923.92,607.632 924.182,607.638 C928.258,607.733 932.338,607.777 936.406,608.018 C937.72,608.096 939.16,608.451 940.268,609.128 C942.992,610.791 945.615,612.638 948.167,614.559 C950.24,616.119 951.349,618.367 950.505,620.884 C949.639,623.468 948.19,625.84 945.076,626.343 C943.478,626.601 941.992,626.217 940.615,625.396 C940.085,625.08 939.577,624.728 938.987,624.345 C938.304,626.357 937.73,628.343 936.965,630.252 C932.418,641.608 926.389,652.041 917.678,660.761 C915.191,663.251 912.503,665.539 909.093,666.671 C908.05,667.018 906.818,667.123 905.735,666.947 C903.845,666.64 902.742,665.226 902.96,663.326 C903.171,661.494 903.615,659.661 904.185,657.903 C906.505,650.743 908.289,643.476 908.505,635.924 C908.555,634.198 908.012,632.432 907.593,630.722 C907.244,629.299 907.076,627.947 907.78,626.602 C907.989,626.545 908.233,626.541 908.402,626.424 C915.226,621.754 920.055,615.463 923.386,607.957" fill="#302F41"/>
    <path d="M815.636,627.06 C816.132,627.103 816.743,626.975 817.102,627.218 C818.197,627.962 819.336,628.724 820.206,629.703 C823.287,633.168 825.195,637.333 826.668,641.657 C827.702,644.696 826.202,647.326 823.4,648.819 C819.854,650.708 816.789,650.323 813.974,645.89 C813.513,646.137 813.012,646.335 812.59,646.642 C808.353,649.719 803.504,651.371 798.549,652.829 C792.6,654.581 786.742,656.671 780.736,658.186 C775.389,659.536 769.876,660.145 764.367,658.968 C763.097,658.697 761.808,658.161 760.725,657.448 C758.675,656.097 758.409,653.884 760.081,652.089 C761.22,650.866 762.553,649.79 763.925,648.829 C767.849,646.081 771.968,643.594 775.763,640.683 C779.312,637.962 782.617,634.905 785.878,631.836 C787.034,630.747 787.817,629.228 788.64,627.828 C789.264,626.767 789.836,625.746 791.159,625.474 C796.732,626.429 802.288,627.513 807.886,628.283 C810.502,628.643 813.201,628.404 815.636,627.06" fill="#302F41"/>
    <path d="M865.879,282.279 C864.484,282.64 863.095,283.279 861.693,283.306 C858.206,283.373 854.714,283.138 851.223,283.07 C848.527,283.017 845.83,283.034 843.133,283.02 C843.845,282.479 843.973,281.903 843.459,281.094 C842.369,279.373 841.363,277.6 840.24,275.71 C838.289,277.093 836.362,278.404 834.498,279.799 C832.84,281.039 830.931,281.538 828.953,281.821 C828.625,281.868 828.044,281.469 827.882,281.132 C826.881,279.035 825.26,277.479 823.599,275.938 C823.182,275.551 822.781,275.111 822.5,274.622 C821.822,273.442 821.042,272.484 819.684,271.955 C818.245,271.395 817.745,270.323 818.275,268.816 C819.265,265.999 819.215,263.176 818.704,260.313 C818.63,259.9 818.487,259.434 818.22,259.129 C817.025,257.765 815.715,256.499 814.562,255.103 C813.793,254.171 812.963,253.16 812.612,252.042 C811.992,250.073 811.718,247.996 811.299,245.964 C815.745,242.837 822.014,243.046 827.066,246.331 C831.599,249.278 833.243,253.616 833.172,258.731 C833.14,261.008 832.645,263.278 832.341,265.707 C833.138,265.761 834.169,265.83 835.537,265.922 C835.113,267.945 834.704,269.899 834.264,272 C837.201,272.109 840.151,272.214 843.101,272.328 C848.813,272.55 854.526,272.776 860.238,273 C861.695,275.369 863.155,277.735 864.606,280.107 C865.045,280.822 865.456,281.554 865.879,282.279" fill="#FEB6B6"/>
    <path d="M816.979,312.73 C816.258,313.932 815.575,315.159 814.809,316.331 C813.238,318.736 811.622,321.114 810.025,323.502 C809.574,322.558 809.294,321.469 808.643,320.693 C805.537,316.995 802.401,313.317 799.122,309.774 C798.004,308.567 797.292,307.183 796.39,305.884 C794.366,302.966 792.078,300.215 789.734,297.541 C787.725,295.251 785.488,293.162 783.223,290.852 C782.761,291.52 782.374,292.079 781.895,292.771 C781.414,292.486 781.001,292.143 780.527,291.989 C780.062,291.837 779.464,291.703 779.049,291.87 C777.748,292.394 777.25,292.262 776.833,290.939 C775.868,287.883 775.971,284.832 777.056,281.832 C778.392,278.137 780.031,277.198 783.984,277.757 C784.148,277.78 784.321,277.743 784.576,277.729 C784.439,276.414 783.667,275.593 782.67,275.008 C781.526,274.337 780.315,273.776 779.122,273.192 C777.566,272.431 776.233,271.472 775.698,269.534 C776.063,269.568 776.348,269.551 776.608,269.624 C778.87,270.255 781.142,270.859 783.38,271.568 C784.168,271.818 784.974,272.216 785.596,272.751 C789.534,276.134 793.413,279.539 796.011,284.197 C797.709,287.24 799.85,290.035 801.756,292.965 C802.308,293.813 802.921,294.692 803.184,295.646 C804.058,298.814 805.857,301.407 807.941,303.852 C810.325,306.651 812.763,309.406 815.073,312.265 C815.699,313.041 816.239,313.006 816.979,312.73" fill="#FEB6B6"/>
    <path d="M815.636,627.06 C813.201,628.404 810.502,628.643 807.886,628.283 C802.288,627.512 796.732,626.429 791.159,625.474 C792.774,620.334 794.305,615.167 796.027,610.065 C797.881,604.571 799.634,599.06 800.583,593.326 C803.771,594.23 807.086,593.827 810.32,594.268 C812.506,594.566 814.698,594.826 816.888,595.104 C815.567,601.162 814.311,607.235 812.904,613.273 C811.848,617.81 812.56,621.975 815.012,625.89 C815.246,626.264 815.429,626.67 815.636,627.06" fill="#FEB6B6"/>
    <path d="M923.386,607.957 C920.055,615.463 915.226,621.754 908.402,626.424 C908.233,626.541 907.989,626.545 907.78,626.602 C907.029,624.672 906.378,622.694 905.506,620.821 C902.995,615.425 901.486,609.703 899.868,604.014 C899.519,602.784 899.178,601.552 898.834,600.323 C901.841,598.699 904.852,597.084 907.853,595.448 C909.09,594.775 910.288,594.029 911.535,593.379 C912.025,593.123 912.603,593.036 913.141,592.873 C914.733,596.479 916.308,600.091 917.925,603.684 C918.56,605.094 919.532,606.184 921.048,606.754 C921.863,607.061 922.608,607.55 923.386,607.957" fill="#FEB6B6"/>
    <path d="M817.294,312.423 C817.181,312.524 817.068,312.626 816.956,312.728 C817.068,312.626 817.181,312.524 817.294,312.423" fill="#FEB6B6"/>
    <path d="M875.71,561.775 C875.805,561.89 875.9,562.004 875.995,562.119 C875.9,562.005 875.805,561.89 875.71,561.775" fill="#8D31FC"/>
    <path d="M876.044,562.224 C876.118,562.341 876.192,562.459 876.267,562.577 C876.193,562.459 876.118,562.342 876.044,562.224" fill="#8D31FC"/>
    <path d="M841.449,357.358 C841.452,357.008 841.411,356.652 841.465,356.31 C842.519,349.661 843.578,343.013 844.66,336.368 C844.74,335.88 845.07,335.435 845.167,334.947 C845.231,334.623 845.086,334.257 845.034,333.91 C846.251,326.064 847.412,318.209 848.721,310.378 C849.074,308.263 849.848,306.216 850.484,304.155 C850.646,303.632 851.021,303.174 851.264,302.749 C852.234,305.246 853.221,307.673 854.103,310.138 C854.332,310.781 854.439,311.602 854.248,312.235 C853.446,314.894 854.177,317.399 854.802,319.931 C855.591,323.13 855.284,326.043 852.838,328.542 C851.502,329.907 850.575,331.457 850.698,333.586 C850.76,334.659 850.319,335.948 848.592,336.45 C849.217,336.756 849.529,336.909 849.87,337.075 C849.874,337.164 849.915,337.299 849.882,337.412 C849.442,338.944 848.939,340.46 848.564,342.007 C848.36,342.849 847.96,343.15 847.107,343.186 C845.15,343.269 844.852,343.613 844.549,345.633 C844.098,348.642 843.626,351.647 843.164,354.654 C842.495,354.565 842.121,354.8 841.997,355.518 C841.89,356.144 841.637,356.745 841.449,357.358" fill="#7729D7"/>
    <path d="M858.484,364.524 L858.975,373.847 C858.818,372.659 858.557,371.06 858.409,369.451 C858.259,367.827 858.223,366.193 858.137,364.563 C858.253,364.55 858.368,364.537 858.484,364.524" fill="#302F41"/>
    <path d="M840.803,360.333 C841.02,359.337 841.237,358.341 841.453,357.346 C841.237,358.341 841.02,359.337 840.803,360.333" fill="#7729D7"/>
    <path d="M840.171,361.75 C840.314,361.461 840.456,361.17 840.599,360.88 C840.456,361.17 840.314,361.461 840.171,361.75" fill="#7729D7"/>
    <path d="M840.596,360.888 C840.667,360.697 840.738,360.506 840.81,360.315 C840.739,360.506 840.667,360.697 840.596,360.888" fill="#7729D7"/>
    <path d="M829.275,333.233 C829.2,337.177 829.305,341.137 828.973,345.059 C828.804,347.055 827.847,348.985 827.246,350.945 C826.415,322.76 827.782,322.784 829.418,322.182 C829.583,322.122 829.753,322.077 829.923,322.034 C829.958,322.026 830.001,322.056 830.13,322.096 C829.846,325.795 829.56,329.514 829.275,333.233" fill="#7729D7"/>
    <path d="M874.381,302.685 C873.955,307.362 874.606,312.547 872.771,317.406 C871.54,320.664 870.063,323.846 868.454,326.938 C867.763,328.265 866.279,329.16 865.475,330.45 C864.238,332.434 863.214,334.56 862.228,336.686 C861.813,337.581 861.338,338.043 860.348,337.939 C859.648,337.864 858.94,337.855 858.24,337.775 C856.947,337.627 856.336,336.531 856.861,335.311 C858.879,330.621 860.95,325.952 862.907,321.236 C863.821,319.034 864.549,316.752 865.305,314.486 C865.615,313.556 865.537,312.404 866.068,311.664 C866.61,310.909 867.627,310.391 868.54,310.032 C869.876,309.506 870.719,308.893 870.977,307.277 C871.302,305.24 872.087,303.272 872.755,301.302 C872.855,301.007 873.383,300.763 873.747,300.701 C873.889,300.678 874.175,301.208 874.304,301.524 C874.399,301.757 874.348,302.05 874.381,302.685" fill="#7729D7"/>
    <path d="M832.108,300.139 C831.976,305.174 831.844,310.209 831.707,315.416 C829.583,315.144 827.385,315.093 825.934,313.639 C824.521,312.223 824.49,310.148 825.284,308.285 C825.761,307.165 826.444,306.094 827.211,305.143 C828.646,303.363 830.209,301.687 831.719,299.968 C831.848,300.025 831.978,300.082 832.108,300.139" fill="#7729D7"/>
  </g>
</svg>
