<?xml version="1.0" encoding="UTF-8"?>
<!DOCTYPE svg PUBLIC "-//W3C//DTD SVG 1.1//EN" "http://www.w3.org/Graphics/SVG/1.1/DTD/svg11.dtd">
<svg version="1.1" xmlns="http://www.w3.org/2000/svg" xmlns:xlink="http://www.w3.org/1999/xlink" x="0" y="0" width="1028" height="670" viewBox="0, 0, 1028, 670">
  <g id="Layer_2" opacity="0.101">
    <path d="M763.33,530.34 C617.157,530.34 498.66,411.843 498.66,265.67 C498.66,119.497 617.157,1 763.33,1 C909.503,1 1028,119.497 1028,265.67 C1028,411.843 909.503,530.34 763.33,530.34 z" fill="#FFFFFF"/>
    <path d="M232.227,667.312 C103.972,667.312 0,563.34 0,435.084 C0,306.829 103.972,202.857 232.227,202.857 C360.483,202.857 464.455,306.829 464.455,435.084 C464.455,563.34 360.483,667.312 232.227,667.312 z" fill="#FFFFFF"/>
  </g>
  <g id="Layer_9">
    <path d="M799.951,556.345 C839.638,526.116 858.594,475.32 846.727,426.863 Q846.285,425.057 845.793,423.259 C837.926,394.495 818.462,367.158 790.093,357.968 C766.274,350.251 740.274,356.185 715.424,353.116 C666.643,347.092 628.823,307.622 602.213,266.297 C575.602,224.971 555.151,178.713 519.791,144.573 C461.506,88.297 366.429,76.181 294.165,112.812 C221.9,149.443 175.868,230.713 177.831,311.707 C179.794,392.702 227.877,470.139 297.706,511.224 C323.358,526.317 353.027,537.01 382.554,533.268 C408.174,530.022 431.453,516.256 456.953,512.169 C497.044,505.743 536.88,523.87 571.556,544.992 C606.231,566.115 639.726,591.152 679.13,600.945 C717.391,610.453 764.794,583.123 799.951,556.345 z" fill="#F2F2F2"/>
    <path d="M834.8,276.141 C834.8,285.806 826.965,293.641 817.3,293.641 C807.635,293.641 799.8,285.806 799.8,276.141 C799.8,266.476 807.635,258.641 817.3,258.641 C826.965,258.641 834.8,266.476 834.8,276.141 z" fill="#8D30FE"/>
    <path d="M814.912,285.249 C814.3,285.249 813.723,284.96 813.355,284.47 L808.581,278.104 C807.936,277.244 808.11,276.024 808.97,275.379 C809.831,274.734 811.051,274.908 811.696,275.768 L814.819,279.933 L822.841,267.9 C823.438,267.006 824.646,266.765 825.54,267.361 C826.434,267.957 826.676,269.165 826.081,270.059 L816.532,284.382 C816.182,284.907 815.598,285.23 814.967,285.248 C814.948,285.248 814.93,285.249 814.912,285.249 z" fill="#FFFFFF"/>
    <path d="M834.8,420.571 C834.8,430.236 826.965,438.071 817.3,438.071 C807.635,438.071 799.8,430.236 799.8,420.571 C799.8,410.906 807.635,403.071 817.3,403.071 C826.965,403.071 834.8,410.906 834.8,420.571 z" fill="#8D30FE"/>
    <path d="M814.912,429.679 C814.3,429.679 813.723,429.391 813.355,428.9 L808.581,422.535 C807.936,421.674 808.11,420.454 808.97,419.809 C809.831,419.164 811.051,419.339 811.696,420.199 L814.819,424.363 L822.841,412.33 C823.437,411.435 824.647,411.192 825.542,411.789 C826.436,412.386 826.678,413.595 826.081,414.49 L816.532,428.812 C816.182,429.338 815.598,429.661 814.967,429.678 C814.948,429.679 814.93,429.679 814.912,429.679 z" fill="#FFFFFF"/>
    <g>
      <path d="M725.558,186.465 L466.635,186.465 C463.776,186.462 461.458,184.098 461.455,181.18 L461.455,131.392 L463.527,131.392 L463.527,181.18 C463.529,182.931 464.919,184.349 466.635,184.351 L725.558,184.351 C727.274,184.349 728.664,182.931 728.666,181.18 L728.666,131.044 L730.739,131.044 L730.739,181.18 C730.735,184.098 728.418,186.462 725.558,186.465 z" fill="#3F3D56"/>
      <path d="M210.98,130.335 L819.419,130.335 L819.419,132.449 L210.98,132.449 z" fill="#3F3D56"/>
      <path d="M228.848,131.227 C228.848,141.269 220.868,149.411 211.024,149.411 C201.18,149.411 193.2,141.269 193.2,131.227 C193.2,121.184 201.18,113.043 211.024,113.043 C220.868,113.043 228.848,121.184 228.848,131.227 z" fill="#8D30FE" id="a67a4451-c7cc-402c-b29d-5a705f3c9418"/>
      <path d="M409.969,131.227 C409.969,141.269 401.989,149.411 392.145,149.411 C382.302,149.411 374.322,141.269 374.322,131.227 C374.322,121.184 382.302,113.043 392.145,113.043 C401.989,113.043 409.969,121.184 409.969,131.227 z" fill="#8D30FE" id="abdb3fbf-f68e-433e-a33f-153626b38c76"/>
      <path d="M532.888,184.673 C532.888,194.716 524.908,202.857 515.064,202.857 C505.22,202.857 497.24,194.716 497.24,184.673 C497.24,174.631 505.22,166.49 515.064,166.49 C524.908,166.49 532.888,174.631 532.888,184.673 z" fill="#3F3D56" id="ac293633-0933-4e21-a8aa-bc27ca4fbccc"/>
      <path d="M626.333,184.673 C626.333,194.716 618.353,202.857 608.51,202.857 C598.666,202.857 590.686,194.716 590.686,184.673 C590.686,174.631 598.666,166.49 608.51,166.49 C618.353,166.49 626.333,174.631 626.333,184.673 z" fill="#CCCCCC" id="a0cd768d-b738-4d4b-9ab3-78ab535c7573"/>
      <path d="M581.051,131.227 C581.051,141.269 573.071,149.411 563.228,149.411 C553.384,149.411 545.404,141.269 545.404,131.227 C545.404,121.184 553.384,113.043 563.228,113.043 C573.071,113.043 581.051,121.184 581.051,131.227 z" fill="#8D30FE" id="b9eb3d2e-31e0-4fe2-be5c-79abb86bc227"/>
      <path d="M834.8,131.227 C834.8,141.269 826.82,149.411 816.976,149.411 C807.132,149.411 799.152,141.269 799.152,131.227 C799.152,121.184 807.132,113.043 816.976,113.043 C826.82,113.043 834.8,121.184 834.8,131.227 z" fill="#8D30FE" id="aa04baac-fce0-420a-b86a-4a97f3079928"/>
      <path d="M747.526,131.227 C747.526,141.269 739.546,149.411 729.702,149.411 C719.859,149.411 711.879,141.269 711.879,131.227 C711.879,121.184 719.859,113.043 729.702,113.043 C739.546,113.043 747.526,121.184 747.526,131.227 z" fill="#8D30FE" id="e92cf92c-058e-415c-ba96-766a57ee18d9"/>
      <path d="M498.137,1 L531.196,1 L531.196,24.245 L498.137,24.245 z" fill="#3F3D56" id="ac5bf8cc-574d-4509-9338-881c836fd832"/>
      <path d="M194.625,1 L227.684,1 L227.684,24.245 L194.625,24.245 z" fill="#8D30FE" id="ad5a043d-52f1-4931-b771-e4991ef7f7f7"/>
      <path d="M306.603,1 L339.662,1 L339.662,24.245 L306.603,24.245 z" fill="#CCCCCC" id="e5d95e83-bdd9-4322-95a9-5a9c4b449a8f"/>
      <path d="M266.294,132.449 C265.722,132.449 265.258,131.976 265.258,131.392 L265.258,79.212 C265.261,76.295 267.579,73.93 270.439,73.927 L320.872,73.927 C321.445,73.927 321.909,74.4 321.909,74.984 C321.909,75.568 321.445,76.041 320.872,76.041 L270.439,76.041 C268.723,76.043 267.332,77.462 267.33,79.212 L267.33,131.392 C267.33,131.976 266.866,132.449 266.294,132.449 z" fill="#3F3D56"/>
      <path d="M341.066,74.589 C341.066,84.632 333.086,92.773 323.243,92.773 C313.399,92.773 305.419,84.632 305.419,74.589 C305.419,64.546 313.399,56.405 323.243,56.405 C333.086,56.405 341.066,64.546 341.066,74.589 z" fill="#E6E6E6" id="b0a7c1c1-8f27-441f-a84a-e44462cc473e"/>
      <path d="M665.206,131.392 L663.134,131.392 L663.134,79.212 C663.137,76.295 665.454,73.93 668.314,73.927 L718.748,73.927 L718.748,76.041 L668.314,76.041 C666.598,76.043 665.208,77.462 665.206,79.212 z" fill="#3F3D56"/>
      <path d="M738.941,74.589 C738.941,84.632 730.962,92.773 721.118,92.773 C711.274,92.773 703.294,84.632 703.294,74.589 C703.294,64.546 711.274,56.405 721.118,56.405 C730.962,56.405 738.941,64.546 738.941,74.589 z" fill="#E6E6E6" id="b3140cf1-cdb8-48ff-81af-ce41ed4f5739"/>
    </g>
    <g>
      <path d="M885.042,276.426 L890.467,277.593 C890.503,275.316 890.786,273.048 891.311,270.832 C891.804,273.546 892.843,276.131 894.365,278.428 L925.48,285.098 L955.352,253.454 C955.398,237.633 946.645,225.609 930.951,225.609 C930.005,225.609 929.024,225.655 928.033,225.746 C910.409,222.785 893.613,234.36 890.034,251.933 C878.91,262.927 882.945,269.391 885.042,276.426 z" fill="#2F2E41"/>
      <path d="M869.745,646.488 L858.459,646.488 L853.089,602.79 L869.747,602.791 L869.745,646.488 z" fill="#FFB6B6"/>
      <path d="M872.544,640.9 L854.703,639.831 L854.703,647.503 L837.74,659.262 C836.021,660.454 835.273,662.63 835.895,664.633 C836.517,666.635 838.364,667.999 840.454,667.999 L861.694,667.999 L865.356,660.409 L866.785,667.999 L874.794,667.999 z" fill="#2F2E41"/>
      <path d="M1001.97,634.157 L992.154,639.747 L966,604.401 L980.489,596.151 L1001.97,634.157 z" fill="#FFB6B6"/>
      <path d="M1001.657,627.91 L985.614,635.818 L989.386,642.491 L980.415,661.121 C979.505,663.009 979.924,665.272 981.45,666.706 C982.975,668.139 985.252,668.411 987.07,667.375 L1005.544,656.854 L1004.997,648.439 L1009.971,654.332 L1016.937,650.365 z" fill="#2F2E41"/>
      <path d="M828.027,284.082 C830.954,284.507 833.544,286.212 835.099,288.738 C836.654,291.264 837.014,294.352 836.083,297.17 L853.354,312.175 L846.829,324.933 L822.736,303.4 C818.02,301.474 815.483,296.311 816.833,291.382 C818.183,286.454 822.992,283.318 828.027,284.082 z" fill="#FFB6B6"/>
      <path d="M845.419,335.68 C851.18,344.438 864.091,352.897 883.254,360.395 C885.391,361.255 887.789,361.176 889.865,360.178 C897.097,356.875 901.731,344.594 902.166,343.403 L916.172,324.438 C916.421,324.162 922.97,316.701 922.221,309.366 C921.88,306.255 920.2,303.45 917.625,301.687 C907.022,293.798 883.26,321.198 880.177,324.841 L864.669,315.357 L853.37,310.296 L844.248,299.155 L831.404,312.336 L842.956,330.782 C843.572,332.51 844.399,334.156 845.419,335.68 z" fill="#2F2E41"/>
      <path d="M885.698,369.282 C885.698,369.282 852.513,422.341 858.525,428.376 C864.537,434.411 873.893,435.996 873.893,435.996 L894.598,409.065 z" fill="#2F2E41"/>
      <path d="M915.039,296.817 L899.399,307.437 C884.462,317.579 878.045,336.44 883.681,353.635 L888.084,367.069 z" fill="#2F2E41"/>
      <path d="M942.696,441.653 L944.787,448.963 L951.922,537.121 L987.57,603.806 L970.557,616.004 L921.945,552.572 L902.718,489.589 L872.524,629.016 L849.839,627.389 L865.594,434.075 L895.491,379.662 L942.696,441.653 z" fill="#2F2E41"/>
      <path d="M917.699,299.487 L895.931,317.344 C891.154,321.264 887.713,326.581 886.09,332.556 L886.09,332.556 C885.353,335.269 885.002,338.074 885.049,340.886 L885.698,379.662 L865.739,433.204 C865.739,433.204 919.849,453.722 927.064,435.618 C934.279,417.513 917.699,299.487 917.699,299.487 z" fill="#8D30FE"/>
      <path d="M911.189,445.016 C938.22,445.016 944.807,445.22 945.234,445.133 L945.662,445.047 L945.662,428.727 L939.088,399.409 C939.857,390.307 941.656,378.305 941.493,368.028 C940.904,330.883 942.723,294.599 942.723,294.599 L928.416,281.344 L921.917,285.589 L909.861,297.69 C895.847,332.308 884.727,364.898 884.657,366.992 L883.776,403.03 L887.383,417.513 C903.702,429.076 888.792,445.016 911.189,445.016 z" fill="#2F2E41"/>
      <path d="M936.66,326.958 L939.946,347.547 L917.7,356.757 L936.66,326.958 z" fill="#000000" opacity="0.2"/>
      <path d="M892.468,255.619 C892.468,267.693 902.22,277.481 914.249,277.481 C926.278,277.481 936.03,267.693 936.03,255.619 C936.03,243.544 926.278,233.756 914.249,233.756 C902.22,233.756 892.468,243.544 892.468,255.619 z" fill="#FFB6B6"/>
      <path d="M950.744,366.547 L950.744,366.547 C938.821,380.405 919.069,384.412 902.72,376.291 L897.979,373.936 z" fill="#000000" opacity="0.2"/>
      <path d="M874.953,361.514 C876.92,359.296 879.764,358.067 882.721,358.156 C885.678,358.246 888.443,359.646 890.273,361.979 L912.264,355.782 L919.276,368.278 L888.097,376.591 C883.897,379.48 878.207,378.759 874.854,374.913 C871.5,371.066 871.543,365.31 874.953,361.514 z" fill="#FFB6B6"/>
      <path d="M927.432,375.382 C937.888,375.383 952.035,369.229 968.829,357.311 C970.721,355.995 971.977,353.943 972.292,351.654 C973.53,343.776 965.875,333.127 965.125,332.106 L957.078,309.924 C956.985,309.563 954.391,299.966 947.881,296.551 C945.107,295.123 941.849,294.984 938.964,296.17 C926.563,300.702 936.247,335.705 937.576,340.295 L921.146,348.057 L910.712,354.733 L896.423,356.234 L900.302,374.255 L922.003,374.745 C923.779,375.182 925.603,375.395 927.432,375.382 z" fill="#2F2E41"/>
      <path d="M888.131,241.236 C889.875,243.513 895.881,245.526 903.016,247.151 C903.004,247.002 903.004,246.853 903.004,246.705 C903.04,244.427 903.323,242.16 903.848,239.943 C904.341,242.658 905.381,245.242 906.902,247.54 C907.016,247.711 907.13,247.883 907.256,248.055 C913.376,249.267 919.85,250.205 924.922,250.835 C921.434,263.442 908.065,273.784 909.512,281.449 L948.685,289.48 C948.444,286.295 948.698,283.091 949.437,279.984 C950.186,284.085 952.167,287.857 955.113,290.795 L958.441,291.482 L959.433,286.574 C968.026,265.856 956.048,244.645 936.421,233.674 C932.922,228.409 927.489,224.748 921.309,223.492 L916.419,222.486 C903.449,219.822 890.784,228.217 888.131,241.236 z" fill="#2F2E41"/>
    </g>
    <g>
      <path d="M834.799,131.5 C834.799,141.165 826.964,149 817.299,149 C807.634,149 799.8,141.165 799.8,131.5 C799.8,121.835 807.634,114 817.299,114 C826.964,114 834.799,121.835 834.799,131.5 z" fill="#8D30FE"/>
      <path d="M814.912,140.608 C814.299,140.608 813.722,140.319 813.355,139.829 L808.581,133.463 C807.936,132.603 808.11,131.383 808.97,130.738 C809.83,130.093 811.05,130.268 811.695,131.128 L814.819,135.292 L822.841,123.259 C823.437,122.363 824.646,122.121 825.541,122.718 C826.436,123.314 826.678,124.524 826.08,125.418 L816.532,139.741 C816.181,140.267 815.598,140.59 814.966,140.607 C814.948,140.608 814.93,140.608 814.912,140.608 z" fill="#FFFFFF"/>
    </g>
    <g>
      <path d="M497.151,638.976 C498.452,639.037 499.652,638.254 500.155,637.015 C500.657,635.776 500.355,634.346 499.399,633.434 C499.32,633.114 499.264,632.884 499.186,632.563 Q499.228,632.459 499.271,632.354 C500.579,629.168 503.615,627.103 506.971,627.116 C510.327,627.129 513.347,629.217 514.633,632.413 C517.145,638.652 520.344,644.901 521.132,651.497 C521.479,654.412 521.332,657.368 520.699,660.232 C526.601,646.961 529.665,632.538 529.685,617.939 C529.686,614.275 529.489,610.615 529.094,606.974 Q528.604,602.497 527.734,598.084 C524.571,582.121 517.78,567.158 507.919,554.426 C503.146,551.741 499.286,547.613 496.859,542.597 C495.98,540.794 495.358,538.869 495.014,536.883 C495.553,536.956 496.1,537.001 496.638,537.037 C496.806,537.046 496.982,537.056 497.15,537.065 L497.213,537.068 C498.422,537.124 499.55,536.443 500.095,535.329 C500.64,534.215 500.499,532.876 499.737,531.907 Q499.388,531.465 499.039,531.023 C498.686,530.568 498.324,530.122 497.971,529.667 C497.93,529.624 497.892,529.578 497.856,529.53 C497.45,529.012 497.044,528.502 496.638,527.984 C497.379,526.798 498.376,525.804 499.551,525.081 C503.62,522.624 509.234,524.326 512.173,528.12 C515.121,531.914 515.677,537.238 514.653,541.978 C513.646,546.012 511.981,549.84 509.728,553.298 C509.949,553.589 510.178,553.871 510.399,554.162 C514.433,559.509 517.948,565.251 520.896,571.305 C520.179,564.523 521.034,557.662 523.392,551.287 C525.781,545.345 530.258,540.342 534.202,535.205 C538.938,529.036 548.651,531.728 549.486,539.549 Q549.498,539.663 549.509,539.776 Q548.631,540.287 547.789,540.861 C546.347,541.854 545.644,543.659 546.019,545.405 C546.394,547.151 547.771,548.48 549.485,548.753 L549.571,548.766 C549.362,550.943 548.994,553.099 548.468,555.218 C545.388,567.174 537.611,577.265 527.01,583.061 C526.666,583.243 526.331,583.425 525.986,583.598 C528.948,592.249 530.805,601.26 531.512,610.405 C531.912,615.8 531.889,621.219 531.441,626.61 L531.468,626.419 C532.598,620.424 535.7,615.015 540.25,611.105 C547.009,605.382 556.557,603.274 563.849,598.674 C565.431,597.626 567.459,597.621 569.046,598.661 C570.633,599.7 571.49,601.594 571.244,603.516 Q571.229,603.616 571.214,603.717 C570.127,604.173 569.069,604.699 568.045,605.291 Q567.166,605.802 566.325,606.375 C564.883,607.369 564.18,609.173 564.555,610.919 C564.93,612.665 566.307,613.995 568.021,614.267 L568.107,614.281 C568.169,614.29 568.222,614.299 568.283,614.308 C566.426,618.879 563.82,623.087 560.578,626.747 C552.484,635.7 541.168,640.818 529.296,640.896 L529.288,640.896 C527.693,648.039 525.383,654.992 522.394,661.642 L497.768,661.642 C497.68,661.36 497.6,661.069 497.521,660.787 C499.8,660.935 502.089,660.794 504.335,660.368 C502.508,658.057 500.681,655.728 498.854,653.417 C498.813,653.373 498.775,653.328 498.739,653.28 C497.812,652.097 496.877,650.923 495.95,649.741 L495.949,649.739 C495.9,646.113 496.304,642.496 497.15,638.976 z" fill="#F2F2F2"/>
      <path d="M418.25,531.303 L424.643,528.706 L476.715,664.914 L470.322,667.512 z" fill="#E6E6E6"/>
      <path d="M388.757,667.512 L382.363,664.914 L434.435,528.705 L440.829,531.303 z" fill="#E6E6E6"/>
      <path d="M472.297,535.497 C472.297,545.495 451.957,553.601 426.867,553.601 C401.776,553.601 381.436,545.495 381.436,535.497 C381.436,525.498 401.776,517.393 426.867,517.393 C451.957,517.393 472.297,525.498 472.297,535.497 z" fill="#E6E6E6"/>
      <path d="M464.776,543.192 L392.089,534.205 C377.97,532.459 367.896,519.244 369.59,504.689 C371.283,490.133 384.102,479.748 398.222,481.494 L470.908,490.481 C485.028,492.227 495.101,505.442 493.408,519.997 C491.714,534.553 478.895,544.938 464.776,543.192 z" fill="#2F2E41"/>
      <path d="M450.525,354.748 L461.178,365.401 L474.797,371.628 C473.607,372.477 467.337,459.571 475.416,463.195 C482.295,466.282 475.284,468.835 475.522,476.019 C475.759,483.204 476.65,497.981 476.65,497.981 C438.84,512.986 424.164,514.439 402.186,488.693 C401.874,485.72 403.611,482.923 406.362,481.971 C411.235,480.032 403.79,467.244 407.763,465.751 C411.735,464.258 408.442,446.639 408.442,446.639 L399.981,406.942 L397.91,400.945 L408.6,367.142 L420.665,364.219 L426.617,353.321 z" fill="#8D30FE"/>
      <path d="M308.082,435.194 C310.425,433.214 313.498,432.405 316.474,432.985 C319.451,433.565 322.025,435.475 323.505,438.2 L359.318,431.623 L351.84,449.52 L318.978,453.022 C314.269,455.332 308.629,453.645 305.849,449.097 C303.069,444.549 304.028,438.576 308.082,435.194 z" fill="#A0616A"/>
      <path d="M345.111,450.861 C348.254,454.21 351.342,453.808 354.386,450.333 L397.002,447.903 L397.133,447.648 C397.283,447.355 406.264,429.817 414.23,413.402 C415.457,410.874 416.659,408.373 417.802,405.966 Q418.542,404.407 419.245,402.906 C422.407,396.156 424.927,390.45 425.911,387.452 C428.188,380.743 428.171,373.433 425.862,366.735 L425.795,366.574 L425.648,366.485 C419.416,362.807 411.543,364.08 406.703,369.548 C395.424,382.427 387.204,397.832 382.691,414.548 L380.134,424.059 L353.758,430.794 C351.066,429.298 348.745,429.669 346.92,432.54 z" fill="#8D30FE"/>
      <path d="M386.516,630.994 L395.566,639.507 L431.728,607.569 L418.37,595.004 L386.516,630.994 z" fill="#FFB6B6"/>
      <path d="M386.903,625.775 L389.451,628.172 L403.087,633.358 L404.728,642.542 L404.728,642.543 C411.001,648.444 411.446,658.47 405.722,664.938 L405.385,665.318 L376.201,637.866 z" fill="#2F2E41"/>
      <path d="M455.082,531.632 L447.269,516.081 C447.922,500.335 461.171,488.033 476.383,489.602 C484.855,490.477 492.63,495.677 495.392,510.354 C502.494,548.096 416.806,622.799 416.806,622.799 L401.924,612.514 L401.591,602.236 L410.315,597.142 L410.637,588.4 L418.914,584.734 z" fill="#2F2E41"/>
      <path d="M434.289,301.015 C447.129,302.288 456.538,314.05 455.303,327.287 C454.069,340.524 442.659,350.224 429.818,348.951 C416.978,347.679 407.569,335.916 408.804,322.679 C410.038,309.442 421.448,299.742 434.289,301.015 z" fill="#A0616A"/>
      <path d="M450.859,628.632 L440.632,635.589 L409.738,598.233 L424.832,587.967 L450.859,628.632 z" fill="#FFB6B6"/>
      <path d="M460.009,637.078 L427.033,659.508 L426.757,659.078 C422.08,651.77 424.035,641.938 431.123,637.116 L431.124,637.115 L434.132,628.307 L448.386,625.374 L451.264,623.416 z" fill="#2F2E41"/>
      <path d="M404.117,530.124 L413.787,513.917 C415.521,498.258 404.293,483.978 389.029,483.086 C380.529,482.589 372.063,486.477 367.117,500.531 C354.398,536.672 427.752,624.224 427.752,624.224 L444.006,616.454 L445.889,606.355 L438.04,599.922 L439.043,591.235 L431.422,586.285 z" fill="#2F2E41"/>
      <path d="M440.043,330.722 Q440.075,330.257 440.105,329.788 C440.005,330.089 439.984,330.411 440.043,330.722 z" fill="#2F2E41"/>
      <path d="M460.139,319.576 C458.434,311.522 452.549,305.098 444.846,302.884 C442.747,299.26 439.169,296.812 435.114,296.223 C431.355,295.708 427.587,296.857 423.973,298.041 Q420.623,299.139 417.291,300.292 C415.482,300.918 413.259,302.347 413.859,304.214 C412.92,303.71 411.77,303.919 411.056,304.725 C410.341,305.531 410.242,306.731 410.815,307.649 C409.976,306.534 408.036,307.249 407.57,308.576 C407.103,309.902 407.653,311.372 408.335,312.595 C412.558,319.75 420.934,323.063 428.716,320.656 C430.929,319.91 433.19,318.684 435.456,319.232 C437.596,319.749 439.136,321.794 439.745,323.97 C440.19,325.874 440.312,327.842 440.105,329.788 C440.706,328.35 442.323,327.683 443.72,328.298 C445.336,329.129 445.916,331.319 445.516,333.134 C445.115,334.95 440.914,341.988 439.805,343.457 C438.589,344.842 437.694,346.494 437.188,348.289 Q443.163,347.342 449.137,346.395 L449.353,346.618 C455.528,341.672 461.701,327.476 460.139,319.576 z" fill="#2F2E41"/>
      <path d="M402.915,489.161 C404.031,486.257 406.337,484.012 409.212,483.03 C412.088,482.048 415.238,482.429 417.815,484.071 L446.029,460.402 L447.918,479.792 L420.835,499.296 C417.806,503.672 412.08,505.02 407.508,502.434 C402.936,499.848 400.963,494.146 402.915,489.161 z" fill="#A0616A"/>
      <path d="M447.556,483.387 C450.955,484.641 453.584,483.709 454.658,478.371 L486.642,455.78 L486.636,455.491 C490.808,455.158 489.854,391.572 483.456,388.461 C482.288,381.456 478.831,375.074 473.658,370.374 L473.524,370.265 L473.353,370.262 C466.173,370.164 459.889,375.217 458.232,382.419 C454.435,399.323 454.501,416.905 458.425,433.778 L460.668,443.373 L446.705,455.556 C442.847,454.515 441.136,456.116 441.419,460.169 z" fill="#8D30FE"/>
      <path d="M538.897,665.478 L532.932,668 L484.345,476.906 L490.311,474.383 L538.897,665.478 z" fill="#CCCCCC"/>
      <path d="M450.962,665.478 L456.927,668 L505.513,476.906 L499.548,474.383 L450.962,665.478 z" fill="#CCCCCC"/>
    </g>
    <path d="M255.765,478.718 L256.222,479.677 C256.526,480.296 257.169,480.692 257.876,480.696 L315.802,480.696 C316.42,480.685 316.993,480.376 317.328,479.872 C317.663,479.369 317.717,478.737 317.471,478.187 C317.451,478.136 317.422,478.089 317.387,478.047 z" fill="#000000" opacity="0.17"/>
    <g>
      <path d="M273.932,441.647 L281.554,474.115 L286.425,479.28 L289.938,479.28 L275.457,420.247 L274.741,430.276 L274.741,430.283 L273.932,441.647 z" fill="#3F3D56"/>
      <path d="M237.251,474.828 L281.966,474.555 L285.934,474.529 L288.764,474.51 L292.062,474.491 L292.088,474.491 C292.566,474.492 293.025,474.675 293.365,475.001 L298.933,480.391 C299.056,480.509 299.156,480.647 299.229,480.799 C299.264,480.842 299.292,480.889 299.314,480.939 C299.559,481.49 299.505,482.122 299.169,482.626 C298.834,483.129 298.262,483.438 297.643,483.45 L239.719,483.45 C239.01,483.447 238.365,483.051 238.061,482.43 L237.607,481.474 L236.672,479.531 L235.612,477.339 C235.499,477.106 235.441,476.851 235.441,476.594 C235.447,475.626 236.252,474.841 237.251,474.828 z" fill="#3F3D56"/>
      <path d="M274.741,430.276 L274.741,430.283 L287.141,479.28 L289.938,479.28 L275.457,420.247 L274.741,430.276 z" fill="#000000" opacity="0.17"/>
      <path d="M259.523,439.254 L277.076,309.961 C277.14,309.477 277.4,309.037 277.8,308.738 L289.883,294.095 L290.969,293.286 C291.371,292.991 291.877,292.861 292.377,292.923 L294.194,293.159 C295.237,293.289 295.974,294.213 295.839,295.223 L295.839,295.223 L277.648,429.186 L277.648,429.193 L276.536,437.387 L275.213,447.117 L275.213,447.13 L273.16,462.269 C273.094,462.794 272.793,463.265 272.337,463.557 C271.889,463.855 271.331,463.953 270.803,463.824 L269.652,463.544 C269.211,463.434 268.824,463.177 268.559,462.817 L268.046,462.11 L267.809,461.779 L259.859,440.56 C259.58,440.182 259.46,439.715 259.523,439.254 z" fill="#3F3D56"/>
      <path d="M289.886,294.096 L267.807,461.782 L268.047,462.11 L268.558,462.815 C268.822,463.175 269.21,463.432 269.651,463.542 L270.805,463.823 C271.333,463.949 271.891,463.852 272.341,463.556 C272.791,463.259 273.089,462.791 273.16,462.269 L295.837,295.225 C295.973,294.215 295.239,293.289 294.196,293.156 L292.374,292.924 C291.875,292.859 291.37,292.99 290.972,293.289 z" fill="#000000" opacity="0.17"/>
      <path d="M289.236,298.891 L277.519,315.083 L263.592,417.672 L271.142,432.173 L289.236,298.891 z" fill="#8D30FE"/>
      <path d="M248.138,441.443 L252.45,446.035 C252.858,446.367 253.429,446.439 253.911,446.218 C254.626,445.973 255.262,445.551 255.756,444.994 C258.837,441.608 262.296,438.563 266.07,435.915 C266.69,435.491 267.185,434.918 267.505,434.252 C267.769,433.815 267.757,433.271 267.472,432.846 C267.429,430.334 265.968,428.778 263.128,428.22 C262.63,427.718 261.505,427.908 260.497,428.67 C256.349,431.803 252.451,435.234 248.836,438.934 C247.948,439.843 247.648,440.922 248.138,441.443 z" fill="#8D30FE"/>
      <path d="M259.219,431.561 L262.848,435.425 C262.973,435.559 263.275,435.49 263.523,435.272 C263.77,435.055 263.869,434.77 263.744,434.637 L260.115,430.772 C259.99,430.639 259.688,430.707 259.44,430.925 C259.193,431.143 259.094,431.428 259.219,431.561 z" fill="#FFFFFF"/>
      <path d="M255.636,434.715 L259.265,438.58 C259.39,438.713 259.692,438.645 259.939,438.427 C260.187,438.209 260.286,437.924 260.16,437.791 L256.532,433.927 C256.406,433.793 256.104,433.862 255.857,434.08 C255.609,434.297 255.511,434.582 255.636,434.715 z" fill="#FFFFFF"/>
      <path d="M252.052,437.87 L255.681,441.734 C255.806,441.867 256.108,441.799 256.356,441.581 C256.603,441.363 256.702,441.079 256.577,440.945 L252.948,437.081 C252.823,436.948 252.521,437.016 252.273,437.234 C252.026,437.452 251.927,437.736 252.052,437.87 z" fill="#FFFFFF"/>
    </g>
    <g>
      <path d="M599.637,480.067 L492.204,480.067 L494.478,472.374 L597.363,472.374 L599.637,480.067 z" fill="#2F2E41"/>
      <path d="M632.232,291.942 L456.653,291.942 C453.512,291.948 450.967,294.708 450.962,298.116 L450.962,426.649 C450.965,430.057 453.511,432.819 456.653,432.823 L632.232,432.823 C635.374,432.819 637.92,430.057 637.923,426.649 L637.923,298.116 C637.918,294.708 635.373,291.948 632.232,291.942 z" fill="#3F3D56"/>
      <path d="M565.139,399.863 L523.74,399.863 C522.521,399.865 521.534,400.981 521.535,402.357 L521.535,476.118 L567.35,476.118 L567.35,402.357 C567.351,401.695 567.118,401.06 566.703,400.593 C566.288,400.125 565.726,399.862 565.139,399.863 z M544.579,441.773 C541.884,441.759 539.703,439.298 539.691,436.259 L539.691,427.751 C539.694,424.709 541.881,422.244 544.579,422.244 C547.277,422.244 549.464,424.709 549.468,427.751 L549.468,436.259 C549.455,439.298 547.274,441.759 544.579,441.773 z" fill="#2F2E41"/>
      <path d="M631.271,422.299 C631.271,423.959 630.03,425.306 628.499,425.306 C626.968,425.306 625.727,423.959 625.727,422.299 C625.727,420.638 626.968,419.292 628.499,419.292 C630.03,419.292 631.271,420.638 631.271,422.299 z" fill="#2F2E41"/>
      <path d="M478.818,417.937 C478.282,417.937 477.847,418.408 477.847,418.989 L477.847,424.404 C477.849,424.984 478.283,425.454 478.818,425.454 C479.352,425.454 479.786,424.984 479.788,424.404 L479.788,418.989 C479.788,418.408 479.353,417.937 478.818,417.937 z" fill="#2F2E41"/>
      <path d="M484.085,417.937 C483.549,417.937 483.115,418.408 483.115,418.989 L483.115,424.404 C483.115,424.985 483.549,425.456 484.085,425.456 C484.621,425.456 485.055,424.985 485.055,424.404 L485.055,418.989 C485.055,418.408 484.621,417.937 484.085,417.937 z" fill="#2F2E41"/>
      <path d="M489.353,417.937 C488.817,417.937 488.383,418.408 488.383,418.989 L488.383,424.404 C488.384,424.984 488.818,425.454 489.353,425.454 C489.888,425.454 490.321,424.984 490.323,424.404 L490.323,418.989 C490.323,418.408 489.888,417.937 489.353,417.937 z" fill="#2F2E41"/>
      <path d="M494.62,417.937 C494.085,417.937 493.65,418.408 493.65,418.989 L493.65,424.404 C493.652,424.984 494.086,425.454 494.62,425.454 C495.155,425.454 495.589,424.984 495.59,424.404 L495.59,418.989 C495.59,418.408 495.156,417.937 494.62,417.937 z" fill="#2F2E41"/>
    </g>
    <g>
      <path d="M132.959,541.478 L138.119,539.071 L180.149,665.271 L174.989,667.678 z" fill="#E6E6E6"/>
      <path d="M109.154,667.678 L103.993,665.271 L146.023,539.071 L151.183,541.478 z" fill="#E6E6E6"/>
      <path d="M176.583,545.364 C176.583,554.627 160.166,562.137 139.914,562.137 C119.662,562.137 103.245,554.627 103.245,545.364 C103.245,536.099 119.662,528.589 139.914,528.589 C160.166,528.589 176.583,536.099 176.583,545.364 z" fill="#E6E6E6"/>
      <path d="M117.665,352.061 C119.396,364.87 129.571,373.596 140.396,371.554 Q141.279,371.387 142.138,371.127 C152.095,368.147 158.485,356.666 156.868,344.664 C156.621,342.82 156.187,341.018 155.577,339.298 C151.699,328.324 141.501,322.514 131.834,325.768 C122.167,329.023 116.081,340.316 117.665,352.061 z" fill="#FFB6B6"/>
      <path d="M224.683,649.031 L233.598,645.894 L227.701,602.771 L214.543,607.402 L224.683,649.031 z" fill="#FFB6B6"/>
      <path d="M170.011,632.01 C170.554,632.57 171.097,633.121 171.647,633.675 C172.741,634.78 173.849,635.875 174.959,636.954 C175.516,637.494 176.08,638.036 176.639,638.569 L176.636,638.59 L176.672,638.604 L176.683,638.614 L177.584,639.063 L179.492,635.109 L180.372,633.287 L181.616,630.707 L183.895,625.987 L195.894,601.138 L183.254,594.833 L182.442,597.125 L182.436,597.124 L182.034,598.26 L174.487,619.455 L172.946,623.788 L172.897,623.919 L171.97,626.507 L171.171,628.75 L170.28,631.255 z" fill="#FFB6B6"/>
      <path d="M103.968,524.468 C104.59,526.209 105.231,527.945 105.88,529.669 Q107.688,534.483 109.641,539.191 C109.64,539.198 109.646,539.199 109.651,539.207 C110.487,540.466 111.445,541.604 112.504,542.599 C112.547,542.652 112.598,542.691 112.642,542.736 C113.423,543.457 114.277,544.061 115.184,544.535 C115.511,544.699 115.845,544.865 116.172,545.029 C117.355,545.606 118.533,546.13 119.71,546.616 Q122.851,547.903 125.982,548.796 C126.15,548.849 126.318,548.896 126.487,548.942 C135.096,551.331 143.738,551.703 152.856,551.367 C157.357,551.206 161.976,550.868 166.759,550.517 C168.323,550.397 169.891,550.284 171.478,550.175 C171.598,550.168 171.724,550.155 171.85,550.149 C174.118,549.991 176.421,549.847 178.777,549.72 C181.744,549.56 184.799,549.438 187.965,549.375 L187.058,554.469 C186.347,558.386 185.132,562.15 183.455,565.63 C181.531,569.935 180.008,573.342 181.202,581.253 L181.775,585.081 C180.173,588.527 180.028,592.663 181.384,596.254 L181.546,596.675 L169.175,621.462 L168.373,623.07 L172.896,623.917 L178.458,624.967 L187.887,626.734 L205.815,596.986 L206.672,595.566 L206.683,595.488 L213.585,533.155 C213.64,532.603 213.677,532.043 213.69,531.484 C213.862,526.362 212.288,521.374 209.322,517.639 C206.483,514.036 202.541,511.93 198.38,511.794 L193.628,511.634 L183.919,511.306 L177.079,511.079 L176.942,511.076 L156.773,510.397 L156.271,503.288 L156.024,503.124 L148.186,497.955 L121.078,480.079 L121.009,480.036 L119.226,478.86 L118.943,479.25 C118.858,479.368 118.774,479.484 118.696,479.602 C116.293,483.221 114.21,487.12 112.477,491.24 C109.591,497.959 107.031,504.869 104.809,511.933 Q104.663,512.392 104.548,512.769 L104.519,512.845 C104.484,512.964 104.461,513.041 104.452,513.062 C103.351,516.208 103.28,520.285 103.968,524.468 z" fill="#2F2E41"/>
      <path d="M105.815,501.366 C105.968,500.922 106.146,500.475 106.328,500.044 C107.755,496.788 109.332,493.628 111.052,490.578 C112.99,487.101 115.25,483.412 117.882,479.453 Q119.793,476.577 121.963,473.491 Q123.049,471.945 124.212,470.346 C124.243,470.296 124.277,470.248 124.312,470.203 L124.535,469.89 L152.406,479.736 L160.56,483.373 L162.581,489.773 L162.526,491.35 C162.532,491.351 162.532,491.351 162.525,491.357 L162.386,495.658 L162.385,495.665 L162.205,501.347 L162.255,501.349 L178.313,501.885 L194.861,502.439 L203.75,502.738 C207.912,502.875 211.854,504.981 214.692,508.585 C217.657,512.32 219.231,517.308 219.06,522.429 C219.047,522.944 219.014,523.469 218.964,523.984 L224.097,548.567 C227.17,563.269 228.35,578.436 227.598,593.555 L230.572,617.482 L229.702,617.415 L216.743,616.426 L213.321,616.168 L207.612,601.948 C206.961,600.327 206.359,598.671 205.817,596.989 C204.921,594.241 204.174,591.427 203.581,588.566 L193.572,540.319 Q191.659,540.349 189.787,540.349 Q181.124,540.387 173.217,539.953 C156.077,539.022 141.469,536.461 128.738,532.14 Q123.375,530.327 118.443,528.084 Q116.633,527.269 114.882,526.391 C114.607,526.258 114.337,526.126 114.069,525.987 C109.166,523.469 105.679,518.177 104.812,511.936 C104.288,508.371 104.636,504.704 105.815,501.366 z" fill="#2F2E41"/>
      <path d="M225.704,642.163 L235.35,638.759 L236.864,638.222 L238.236,645.17 L253.37,652.193 C254.906,652.904 255.872,654.714 255.755,656.662 C255.637,658.609 254.463,660.238 252.857,660.684 L236.546,665.21 L232.376,659.12 L232.638,666.294 L226.495,668 L223.359,642.994 z" fill="#2F2E41"/>
      <path d="M169.175,621.462 L168.373,623.07 L168.946,623.176 L169.175,621.462 z" fill="#2F2E41"/>
      <path d="M172.019,624.128 L180.898,629.741 L182.292,630.62 L179.137,636.7 L185.714,654.291 C186.383,656.075 185.993,658.167 184.752,659.452 C183.511,660.738 181.707,660.918 180.301,659.898 L166.02,649.532 L166.678,641.733 L162.599,647.049 L157.219,643.146 L169.859,622.766 z" fill="#2F2E41"/>
      <path d="M234.123,487.804 C232.211,488.497 230.138,488.152 228.462,486.862 C226.786,485.572 225.679,483.47 225.438,481.121 L201.975,475.105 L210.893,464.781 L231.807,472.077 C235.243,471.856 238.277,474.711 238.868,478.724 C239.459,482.735 237.42,486.637 234.123,487.804 z" fill="#FFB6B6"/>
      <path d="M165.212,474.833 L121.901,431.035 C114.76,423.797 113.917,411.084 120.018,402.618 L120.018,402.618 C123.307,398.064 128.136,395.477 133.197,395.558 C138.259,395.639 143.027,398.38 146.21,403.037 L178.016,449.578 L220.678,463.207 L219.572,479.883 z" fill="#E6E6E6"/>
      <path d="M114.701,429.867 L113.784,469.621 C101.16,494.858 99.724,507.113 103.219,513.647 L161.808,490.331 L162.683,487.859 L158.711,470.976 L163.625,452.649 C164.49,450.734 176.238,438.969 165.226,416.652 L143.072,381.336 L135.062,380.573 C132.136,389.461 127.673,393.871 122.4,395.921 C110.477,408.853 112.229,410.957 114.701,429.867 z" fill="#E6E6E6"/>
      <path d="M159.444,335.124 C158.821,337.211 157.493,338.896 155.777,339.777 C154.424,338.265 152.959,336.899 151.402,335.693 C152.079,337.32 152.633,339.013 153.06,340.755 C153.029,340.762 153.004,340.762 152.973,340.769 C150.163,341.214 147.34,340.39 144.592,339.573 L144.974,339.989 C145.022,345.311 142.46,350.186 138.404,352.489 C136.204,353.685 133.301,354.516 132.759,357.301 C132.278,359.767 134.084,361.977 135.822,363.443 C137.56,364.909 139.594,366.513 139.877,369.021 C140.333,373.105 135.908,375.694 135.156,379.713 C134.503,383.155 136.753,386.437 139.224,388.406 C141.695,390.375 144.604,391.732 146.515,394.444 C149.898,399.25 148.807,406.915 145.319,411.619 C144.942,412.131 144.538,412.616 144.111,413.071 C143.156,411.642 142.111,410.301 140.987,409.059 C139.633,407.548 138.168,406.181 136.611,404.976 C137.288,406.601 137.843,408.295 138.269,410.036 C138.825,412.27 139.179,414.568 139.323,416.892 C136.81,418.303 134.175,419.387 131.465,420.123 C124.641,422.099 117.619,422.953 110.597,422.66 C107.39,422.601 104.202,422.067 101.107,421.07 C102.524,415.772 102.938,410.17 102.321,404.662 C100.565,409.503 97.848,413.771 94.401,417.103 C91.511,414.412 89.366,410.598 89.009,406.303 C88.571,401.023 90.815,395.975 93.304,391.563 C95.8,387.152 98.672,382.848 99.769,377.708 C101.372,370.21 98.925,362.414 98.611,354.691 C98.208,344.872 101.282,335.3 107.092,328.275 C112.902,321.249 120.924,317.407 129.228,317.672 C132.931,317.929 136.605,318.593 140.204,319.656 C142.157,320.152 144.105,320.655 146.059,321.151 C148.474,321.681 150.843,322.477 153.134,323.528 C155.13,324.451 156.885,325.984 158.218,327.97 C159.547,329.998 160,332.643 159.444,335.124 z" fill="#2F2E41"/>
      <path d="M132.695,665.38 L127.535,667.883 L85.505,478.127 L90.665,475.623 L132.695,665.38 z" fill="#CCCCCC"/>
      <path d="M56.539,665.38 L61.7,667.883 L103.729,478.127 L98.569,475.623 L56.539,665.38 z" fill="#CCCCCC"/>
      <path d="M233.06,470.024 C231.22,470.95 229.128,470.865 227.347,469.791 C225.566,468.717 224.278,466.764 223.83,464.459 L199.963,461.391 L207.915,450.016 L229.361,454.673 C232.759,454.025 236.029,456.487 236.973,460.404 C237.916,464.32 236.235,468.453 233.06,470.024 z" fill="#FFB6B6"/>
      <path d="M163.379,465.69 L116.421,427.516 C108.676,421.206 106.71,408.668 112.026,399.49 L112.026,399.49 C114.892,394.553 119.465,391.38 124.506,390.832 C129.546,390.284 134.532,392.417 138.11,396.653 L173.871,438.983 L217.507,447.235 L217.886,463.956 z" fill="#E6E6E6"/>
    </g>
    <path d="M202.74,480.067 C208.269,484.219 214.249,488.121 220.637,491.745 L685.597,492.148 C691.984,488.525 697.965,484.623 703.493,480.471 z" fill="#CCCCCC"/>
    <path d="M1026.376,669.693 L1.625,670 C0.727,669.998 0,669.466 0,668.81 C0,668.153 0.727,667.621 1.625,667.619 L1026.376,667.312 C1027.274,667.314 1028,667.846 1028,668.502 C1028,669.159 1027.274,669.691 1026.376,669.693 z" fill="#CACACA"/>
    <path d="M556.943,363.065 C556.943,369.969 551.346,375.565 544.443,375.565 C537.539,375.565 531.943,369.969 531.943,363.065 C531.943,356.161 537.539,350.565 544.443,350.565 C551.346,350.565 556.943,356.161 556.943,363.065 z" fill="#2F2E41" id="a0cd768d-b738-4d4b-9ab3-78ab535c7573"/>
    <g>
      <g>
        <path d="M658.958,477.224 C659.63,479.294 661.559,480.697 663.736,480.696 L684.468,480.524 C686.664,480.52 688.594,479.07 689.21,476.963 L692.69,445.657 C693.722,446.146 694.851,446.399 695.993,446.396 C700.168,446.364 703.525,442.954 703.493,438.78 C703.462,434.605 700.052,431.247 695.878,431.279 C695.421,431.269 694.965,431.309 694.517,431.397 C693.554,430.317 692.179,429.696 690.733,429.685 L658.842,429.952 C658.578,429.956 658.314,429.985 658.054,430.036 C656.635,430.275 655.389,431.115 654.637,432.342 C653.885,433.569 653.699,435.061 654.13,436.434 z M693.328,443.538 L695.545,436.102 C695.798,435.243 695.82,434.333 695.607,433.463 C695.709,433.464 695.799,433.418 695.901,433.419 C698.88,433.41 701.306,435.813 701.324,438.793 C701.342,441.773 698.945,444.206 695.965,444.232 C695.039,444.245 694.127,444.005 693.328,443.538 z" fill="#2F2E41"/>
        <path d="M658.626,430.169 C659.213,434.581 666.622,437.805 675.606,437.422 C683.866,437.125 690.673,433.882 691.98,429.921 C691.525,429.756 691.05,429.675 690.573,429.679 L659.397,430.072 C659.138,430.078 658.881,430.111 658.626,430.169 z" fill="#3F3D56"/>
      </g>
      <path d="M680.076,464.44 C680.124,464.427 680.169,464.408 680.211,464.38 L685.347,461.042 C685.473,460.959 685.549,460.82 685.549,460.67 C685.549,460.521 685.473,460.382 685.347,460.3 L680.008,456.828 C679.875,456.74 679.705,456.729 679.562,456.801 C679.419,456.872 679.326,457.014 679.318,457.172 C679.309,457.331 679.385,457.482 679.519,457.568 L684.287,460.67 L679.722,463.639 C679.54,463.757 679.47,463.989 679.558,464.188 C679.645,464.386 679.865,464.493 680.076,464.44 z" fill="#8D30FE"/>
      <path d="M671.964,464.811 C672.14,464.767 672.272,464.621 672.297,464.441 C672.321,464.262 672.235,464.087 672.077,463.996 L667.343,461.301 L671.919,457.925 C672.116,457.779 672.157,457.501 672.011,457.305 C671.863,457.109 671.584,457.068 671.387,457.214 L666.263,460.993 C666.142,461.083 666.075,461.226 666.084,461.375 C666.093,461.524 666.177,461.659 666.307,461.734 L671.632,464.766 C671.733,464.823 671.852,464.84 671.964,464.811 z" fill="#8D30FE"/>
      <path d="M679.565,467.366 C679.608,467.355 679.65,467.337 679.687,467.314 C679.789,467.253 679.861,467.155 679.89,467.04 C679.917,466.926 679.899,466.805 679.837,466.705 L672.556,454.816 C672.427,454.607 672.153,454.542 671.943,454.668 C671.733,454.796 671.666,455.068 671.794,455.278 L679.075,467.166 C679.176,467.332 679.375,467.413 679.565,467.366 z" fill="#8D30FE"/>
    </g>
  </g>
</svg>
