<?xml version="1.0" encoding="UTF-8"?>
<!DOCTYPE svg PUBLIC "-//W3C//DTD SVG 1.1//EN" "http://www.w3.org/Graphics/SVG/1.1/DTD/svg11.dtd">
<svg version="1.1" xmlns="http://www.w3.org/2000/svg" xmlns:xlink="http://www.w3.org/1999/xlink" x="0" y="0" width="1028" height="670" viewBox="0, 0, 1028, 670">
  <g id="Layer_2" opacity="0.104">
    <path d="M558.881,629.042 C402.308,629.042 275.381,502.115 275.381,345.542 C275.381,188.969 402.308,62.042 558.881,62.042 C715.454,62.042 842.381,188.969 842.381,345.542 C842.381,502.115 715.454,629.042 558.881,629.042 z" fill="#FFFFFF"/>
  </g>
  <g id="Layer_3"/>
  <g id="Layer_4">
    <path d="M930.964,633.3 C932.667,633.389 934.238,632.249 934.895,630.445 C935.553,628.64 935.158,626.557 933.906,625.229 C933.803,624.763 933.73,624.428 933.628,623.961 C935.255,619.218 939.229,616.082 943.673,616.034 C948.116,615.986 952.141,619.035 953.846,623.742 C958.657,636.659 964.884,650.03 961.787,664.257 C982.241,614.534 975.285,552.684 945.057,510.162 C936.702,504.883 929.93,495.503 928.167,484.612 C932.302,486.219 937.458,482.361 934.349,477.365 C933.001,475.455 931.64,473.561 930.293,471.651 C946,452.463 964.716,482.62 947.426,508.519 C953.082,516.652 957.981,525.442 962.044,534.745 C961.106,524.867 962.225,514.875 965.311,505.59 C968.438,496.937 974.299,489.649 979.461,482.169 C985.736,473.054 998.653,477.259 999.497,488.826 C993.705,491.009 992.953,500.606 999.578,501.919 C997.843,523.437 985.587,543.211 968.707,552.648 C974.941,572.71 977.375,594.065 975.847,615.291 C978.827,590.484 1002.041,584.465 1018.267,574.605 C1020.377,573.053 1023.088,573.078 1025.176,574.669 C1027.264,576.259 1028.336,579.116 1027.907,581.948 C1025.667,582.993 1023.524,584.29 1021.508,585.821 C1019.572,587.313 1018.664,590.041 1019.239,592.634 C1019.814,595.226 1021.749,597.124 1024.071,597.374 C1015.892,620.593 994.746,636.184 973.028,636.097 C970.941,646.499 967.917,656.625 964.005,666.311 L931.772,666.311 C931.656,665.9 931.552,665.476 931.448,665.066 C934.432,665.281 937.427,665.076 940.367,664.456 C932.474,653.736 926.369,648.266 930.963,633.3 z" fill="#F2F2F2"/>
    <path d="M864.928,569.389 C904.616,539.16 923.571,488.364 911.704,439.907 Q911.262,438.101 910.771,436.303 C902.903,407.54 883.439,380.202 855.071,371.012 C831.251,363.295 805.251,369.229 780.401,366.16 C731.62,360.136 693.801,320.666 667.19,279.341 C640.579,238.015 620.128,191.758 584.769,157.617 C526.484,101.341 431.407,89.225 359.142,125.856 C286.877,162.487 240.845,243.757 242.808,324.752 C244.772,405.747 292.855,483.183 362.683,524.269 C388.336,539.362 418.005,550.054 447.532,546.312 C473.152,543.066 496.431,529.3 521.93,525.213 C562.021,518.787 601.857,536.914 636.533,558.036 C671.209,579.159 704.703,604.196 744.107,613.989 C782.369,623.497 829.771,596.167 864.928,569.389 z" fill="#F2F2F2"/>
    <path d="M807.906,127.557 C807.036,126.977 806.156,126.427 805.286,125.867 C780.137,109.783 753.182,96.716 724.976,86.937 L718.436,177.157 L676.976,177.157 L676.976,73.767 C674.366,73.227 671.736,72.717 669.106,72.237 L669.106,177.157 L619.836,177.157 C563.354,177.157 517.566,131.369 517.566,74.887 L517.566,74.887 C514.926,75.457 512.306,76.067 509.686,76.717 L509.686,177.157 L469.556,177.157 L463.326,91.127 C434.341,102.243 406.824,116.862 381.386,134.657 C380.946,134.957 380.506,135.267 380.076,135.567 C377.866,137.117 375.686,138.697 373.516,140.297 L373.516,484.487 L491.786,484.487 L489.696,455.537 L478.196,296.587 L709.786,296.587 L698.286,455.537 L696.196,484.487 L813.156,484.487 L813.156,131.037 Q810.546,129.267 807.906,127.557 z M509.686,270.337 L476.296,270.337 L470.126,185.037 L509.686,185.037 z M669.106,270.337 L613.026,270.337 L613.026,268.647 C613.026,267.006 612.374,265.433 611.213,264.274 C610.052,263.114 608.477,262.464 606.836,262.467 L582.456,262.467 C579.043,262.466 576.275,265.233 576.276,268.647 L576.276,270.337 L517.566,270.337 L517.566,185.037 L669.106,185.037 z M676.976,270.337 L676.976,185.037 L717.866,185.037 L711.696,270.337 z" fill="#3F3D56"/>
    <path d="M199.48,506.528 C208.168,516.821 217.564,526.495 227.6,535.478 L958.18,536.478 C968.217,527.495 977.613,517.821 986.3,507.528 z" fill="#3F3D56"/>
    <path d="M629.746,131.782 C629.746,146.529 617.792,158.483 603.046,158.483 C588.299,158.483 576.345,146.529 576.345,131.782 C576.345,117.036 588.299,105.081 603.046,105.081 C617.792,105.081 629.746,117.036 629.746,131.782 z" fill="#F2F2F2"/>
    <path d="M336.414,395.081 L336.414,497.641 L408.264,497.641 L408.264,395.081 C408.267,393.567 407.281,392.228 405.834,391.781 C405.502,391.672 405.154,391.618 404.804,391.621 L339.884,391.621 C337.97,391.618 336.416,393.167 336.414,395.081 z M364.454,430.321 C364.493,426.113 367.916,422.722 372.124,422.722 C376.333,422.722 379.755,426.113 379.794,430.321 L379.794,442.221 C379.773,446.442 376.345,449.852 372.124,449.852 C367.903,449.852 364.476,446.442 364.454,442.221 z" fill="#2F2E41"/>
    <path d="M336.194,494.361 L336.194,504.251 C336.198,505.318 337.058,506.183 338.124,506.191 L406.554,506.191 C407.622,506.186 408.484,505.319 408.484,504.251 L408.484,494.361 z" fill="#3F3D56"/>
    <path d="M223.384,240.561 L223.384,427.821 C223.388,432.79 227.415,436.817 232.384,436.821 L509.884,436.821 C514.853,436.817 518.88,432.79 518.884,427.821 L518.884,240.561 C518.872,235.597 514.848,231.578 509.884,231.571 L232.384,231.571 C227.42,231.578 223.396,235.597 223.384,240.561 z" fill="#3F3D56"/>
    <path d="M229.894,242.891 L229.894,425.511 C229.899,428.166 232.05,430.317 234.704,430.321 L507.574,430.321 C510.229,430.317 512.38,428.166 512.384,425.511 L512.384,242.891 C512.384,240.233 510.232,238.077 507.574,238.071 L234.704,238.071 C232.046,238.077 229.895,240.233 229.894,242.891 z" fill="#FFFFFF"/>
    <path d="M288.534,505.521 C289.097,506.227 289.952,506.636 290.854,506.631 L453.194,506.631 C454.093,506.63 454.944,506.224 455.511,505.526 C456.077,504.828 456.299,503.911 456.114,503.031 L453.594,491.061 C453.382,490.07 452.682,489.253 451.734,488.891 C451.397,488.759 451.037,488.691 450.674,488.691 L293.364,488.691 C293.002,488.691 292.642,488.759 292.304,488.891 C291.357,489.253 290.656,490.07 290.444,491.061 L287.924,503.031 C287.743,503.911 287.967,504.825 288.534,505.521 z" fill="#2F2E41"/>
    <path d="M498.719,263.228 L243.395,263.228 C242.843,263.216 242.402,262.765 242.402,262.213 C242.402,261.661 242.843,261.21 243.395,261.197 L498.719,261.197 C499.271,261.21 499.712,261.661 499.712,262.213 C499.712,262.765 499.271,263.216 498.719,263.228 z" fill="#3F3D56"/>
    <path d="M266.726,249.93 C266.726,253.29 264.062,256.013 260.776,256.013 C257.489,256.013 254.825,253.29 254.825,249.93 C254.825,246.571 257.489,243.847 260.776,243.847 C264.062,243.847 266.726,246.571 266.726,249.93 z" fill="#3F3D56"/>
    <path d="M287.282,249.93 C287.282,253.29 284.618,256.013 281.332,256.013 C278.045,256.013 275.381,253.29 275.381,249.93 C275.381,246.571 278.045,243.847 281.332,243.847 C284.618,243.847 287.282,246.571 287.282,249.93 z" fill="#3F3D56"/>
    <path d="M307.838,249.93 C307.838,253.29 305.174,256.013 301.888,256.013 C298.601,256.013 295.937,253.29 295.937,249.93 C295.937,246.571 298.601,243.847 301.888,243.847 C305.174,243.847 307.838,246.571 307.838,249.93 z" fill="#3F3D56"/>
    <path d="M486.341,245.351 L471.741,245.351 C471.14,245.365 470.661,245.856 470.661,246.456 C470.661,247.057 471.14,247.547 471.741,247.561 L486.341,247.561 C486.945,247.553 487.43,247.061 487.43,246.456 C487.43,245.852 486.945,245.36 486.341,245.351 z" fill="#3F3D56"/>
    <path d="M486.341,249.501 L471.741,249.501 C471.14,249.515 470.66,250.006 470.66,250.606 C470.66,251.207 471.14,251.698 471.741,251.711 L486.341,251.711 C486.946,251.704 487.432,251.212 487.432,250.606 C487.432,250.001 486.946,249.509 486.341,249.501 z" fill="#3F3D56"/>
    <path d="M486.341,253.651 L471.741,253.651 C471.14,253.665 470.661,254.156 470.661,254.756 C470.661,255.357 471.14,255.847 471.741,255.861 L486.341,255.861 C486.945,255.853 487.43,255.361 487.43,254.756 C487.43,254.152 486.945,253.66 486.341,253.651 z" fill="#3F3D56"/>
    <g>
      <path d="M837.826,503.164 C838.684,505.811 841.15,507.604 843.932,507.603 L870.432,507.383 C873.239,507.377 875.705,505.525 876.493,502.831 L880.941,462.816 C882.261,463.441 883.703,463.764 885.164,463.761 C890.499,463.72 894.791,459.361 894.75,454.025 C894.71,448.69 890.351,444.397 885.016,444.438 C884.432,444.426 883.849,444.477 883.277,444.589 C882.046,443.209 880.288,442.414 878.439,442.401 L837.677,442.742 C837.339,442.748 837.002,442.784 836.67,442.849 C834.857,443.155 833.264,444.229 832.302,445.797 C831.341,447.365 831.103,449.272 831.654,451.027 z M881.757,460.108 L884.591,450.603 C884.914,449.505 884.942,448.341 884.67,447.23 C884.8,447.231 884.915,447.172 885.045,447.174 C888.854,447.162 891.955,450.234 891.977,454.043 C892,457.852 888.936,460.961 885.127,460.995 C883.944,461.011 882.779,460.705 881.757,460.108 z" fill="#2F2E41"/>
      <path d="M836.67,442.849 C837.451,447.828 847.15,451.487 858.896,451.085 C869.695,450.777 878.585,447.141 880.28,442.678 C879.684,442.491 879.064,442.398 878.439,442.401 L837.677,442.742 C837.339,442.748 837.002,442.784 836.67,442.849 z" fill="#3F3D56"/>
      <path d="M860.516,481.529 C860.569,481.516 860.62,481.495 860.668,481.465 L866.486,477.801 C866.628,477.71 866.716,477.555 866.719,477.386 C866.722,477.218 866.64,477.059 866.5,476.964 L860.59,472.944 C860.442,472.843 860.252,472.827 860.09,472.905 C859.929,472.983 859.821,473.141 859.809,473.32 C859.796,473.498 859.879,473.67 860.027,473.77 L865.306,477.361 L860.135,480.619 C859.928,480.749 859.846,481.009 859.94,481.235 C860.034,481.461 860.278,481.585 860.516,481.529 z" fill="#FFFFFF"/>
      <path d="M851.423,481.79 C851.621,481.743 851.772,481.581 851.803,481.379 C851.834,481.178 851.74,480.978 851.565,480.873 L846.316,477.741 L851.507,474.024 C851.731,473.863 851.783,473.551 851.623,473.327 C851.462,473.102 851.149,473.05 850.926,473.212 L845.113,477.373 C844.975,477.471 844.897,477.632 844.905,477.8 C844.912,477.968 845.003,478.122 845.147,478.208 L851.052,481.732 C851.164,481.798 851.296,481.819 851.423,481.79 z" fill="#FFFFFF"/>
      <path d="M859.885,484.819 C859.935,484.808 859.981,484.788 860.023,484.763 C860.138,484.696 860.221,484.586 860.256,484.458 C860.289,484.33 860.27,484.193 860.203,484.079 L852.282,470.53 C852.143,470.292 851.837,470.213 851.599,470.352 C851.361,470.492 851.281,470.797 851.42,471.036 L859.34,484.584 C859.451,484.773 859.672,484.868 859.885,484.819 z" fill="#FFFFFF"/>
    </g>
    <path d="M357.373,318.428 L401.564,318.428 C403.367,318.428 404.828,319.889 404.828,321.692 L404.828,326.009 C404.828,327.812 403.367,329.273 401.564,329.273 L357.373,329.273 C355.57,329.273 354.109,327.812 354.109,326.009 L354.109,321.692 C354.109,319.889 355.57,318.428 357.373,318.428 z" fill="#8D30FE"/>
    <path d="M331.614,340.119 L427.322,340.119 C429.125,340.119 430.587,341.581 430.587,343.383 L430.587,347.701 C430.587,349.503 429.125,350.965 427.322,350.965 L331.614,350.965 C329.812,350.965 328.35,349.503 328.35,347.701 L328.35,343.383 C328.35,341.581 329.812,340.119 331.614,340.119 z" fill="#E6E6E6"/>
    <path d="M331.614,361.81 L427.322,361.81 C429.125,361.81 430.587,363.272 430.587,365.075 L430.587,369.392 C430.587,371.195 429.125,372.656 427.322,372.656 L331.614,372.656 C329.812,372.656 328.35,371.195 328.35,369.392 L328.35,365.075 C328.35,363.272 329.812,361.81 331.614,361.81 z" fill="#E6E6E6"/>
    <g>
      <path d="M586.96,403.343 L586.96,489.047 C586.962,491.321 588.805,493.164 591.079,493.166 L718.084,493.166 C720.358,493.164 722.201,491.321 722.203,489.047 L722.203,403.343 C722.197,401.071 720.356,399.231 718.084,399.229 L591.079,399.229 C588.807,399.231 586.966,401.071 586.96,403.343 z" fill="#3F3D56"/>
      <path d="M589.94,404.409 L589.94,487.99 C589.942,489.205 590.926,490.189 592.141,490.191 L717.026,490.191 C718.241,490.189 719.226,489.205 719.228,487.99 L719.228,404.409 C719.228,403.193 718.243,402.206 717.026,402.203 L592.141,402.203 C590.925,402.206 589.94,403.193 589.94,404.409 z" fill="#8D30FE"/>
      <path d="M584.304,505.762 C584.775,506.353 585.492,506.695 586.247,506.691 L722.239,506.691 C722.993,506.69 723.705,506.35 724.18,505.765 C724.654,505.18 724.84,504.413 724.685,503.676 L722.575,493.648 C722.397,492.818 721.81,492.133 721.016,491.831 C720.734,491.72 720.432,491.663 720.128,491.663 L588.35,491.663 C588.046,491.663 587.745,491.72 587.462,491.831 C586.668,492.133 586.082,492.818 585.904,493.648 L583.793,503.676 C583.641,504.412 583.829,505.179 584.304,505.762 z" fill="#2F2E41"/>
      <path d="M718.674,495.982 L715.462,495.982 C715.193,495.982 714.974,495.764 714.974,495.494 L714.974,493.957 C714.974,493.688 715.193,493.469 715.462,493.469 L718.674,493.469 C718.944,493.469 719.163,493.688 719.163,493.957 L719.163,495.494 C719.163,495.764 718.944,495.982 718.674,495.982 z" fill="#3F3D56"/>
      <path d="M710.297,495.982 L707.085,495.982 C706.816,495.982 706.597,495.764 706.597,495.494 L706.597,493.957 C706.597,493.688 706.816,493.469 707.085,493.469 L710.297,493.469 C710.567,493.469 710.786,493.688 710.786,493.957 L710.786,495.494 C710.786,495.764 710.567,495.982 710.297,495.982 z" fill="#3F3D56"/>
      <path d="M701.92,495.982 L698.708,495.982 C698.439,495.982 698.22,495.764 698.22,495.494 L698.22,493.957 C698.22,493.688 698.439,493.469 698.708,493.469 L701.92,493.469 C702.19,493.469 702.409,493.688 702.409,493.957 L702.409,495.494 C702.409,495.764 702.19,495.982 701.92,495.982 z" fill="#3F3D56"/>
      <path d="M693.543,495.982 L690.331,495.982 C690.062,495.982 689.843,495.764 689.843,495.494 L689.843,493.957 C689.843,493.688 690.062,493.469 690.331,493.469 L693.543,493.469 C693.813,493.469 694.032,493.688 694.032,493.957 L694.032,495.494 C694.032,495.764 693.813,495.982 693.543,495.982 z" fill="#3F3D56"/>
      <path d="M685.166,495.982 L681.954,495.982 C681.685,495.982 681.466,495.764 681.466,495.494 L681.466,493.957 C681.466,493.688 681.685,493.469 681.954,493.469 L685.166,493.469 C685.436,493.469 685.655,493.688 685.655,493.957 L685.655,495.494 C685.655,495.764 685.436,495.982 685.166,495.982 z" fill="#3F3D56"/>
      <path d="M676.789,495.982 L673.577,495.982 C673.308,495.982 673.089,495.764 673.089,495.494 L673.089,493.957 C673.089,493.688 673.308,493.469 673.577,493.469 L676.789,493.469 C677.059,493.469 677.278,493.688 677.278,493.957 L677.278,495.494 C677.278,495.764 677.059,495.982 676.789,495.982 z" fill="#3F3D56"/>
      <path d="M668.412,495.982 L665.2,495.982 C664.931,495.982 664.712,495.764 664.712,495.494 L664.712,493.957 C664.712,493.688 664.931,493.469 665.2,493.469 L668.412,493.469 C668.682,493.469 668.901,493.688 668.901,493.957 L668.901,495.494 C668.901,495.764 668.682,495.982 668.412,495.982 z" fill="#3F3D56"/>
      <path d="M660.036,495.982 L656.823,495.982 C656.554,495.982 656.335,495.764 656.335,495.494 L656.335,493.957 C656.335,493.688 656.554,493.469 656.823,493.469 L660.036,493.469 C660.305,493.469 660.524,493.688 660.524,493.957 L660.524,495.494 C660.524,495.764 660.305,495.982 660.036,495.982 z" fill="#3F3D56"/>
      <path d="M651.659,495.982 L648.446,495.982 C648.177,495.982 647.958,495.764 647.958,495.494 L647.958,493.957 C647.958,493.688 648.177,493.469 648.446,493.469 L651.659,493.469 C651.928,493.469 652.147,493.688 652.147,493.957 L652.147,495.494 C652.147,495.764 651.928,495.982 651.659,495.982 z" fill="#3F3D56"/>
      <path d="M643.281,495.982 L640.069,495.982 C639.8,495.982 639.581,495.764 639.581,495.494 L639.581,493.957 C639.581,493.688 639.8,493.469 640.069,493.469 L643.281,493.469 C643.551,493.469 643.77,493.688 643.77,493.957 L643.77,495.494 C643.77,495.764 643.551,495.982 643.281,495.982 z" fill="#3F3D56"/>
      <path d="M634.905,495.982 L631.692,495.982 C631.423,495.982 631.204,495.764 631.204,495.494 L631.204,493.957 C631.204,493.688 631.423,493.469 631.692,493.469 L634.905,493.469 C635.174,493.469 635.393,493.688 635.393,493.957 L635.393,495.494 C635.393,495.764 635.174,495.982 634.905,495.982 z" fill="#3F3D56"/>
      <path d="M626.528,495.982 L623.315,495.982 C623.046,495.982 622.827,495.764 622.827,495.494 L622.827,493.957 C622.827,493.688 623.046,493.469 623.315,493.469 L626.528,493.469 C626.797,493.469 627.016,493.688 627.016,493.957 L627.016,495.494 C627.016,495.764 626.797,495.982 626.528,495.982 z" fill="#3F3D56"/>
      <path d="M618.151,495.982 L614.938,495.982 C614.669,495.982 614.45,495.764 614.45,495.494 L614.45,493.957 C614.45,493.688 614.669,493.469 614.938,493.469 L618.151,493.469 C618.42,493.469 618.639,493.688 618.639,493.957 L618.639,495.494 C618.639,495.764 618.42,495.982 618.151,495.982 z" fill="#3F3D56"/>
      <path d="M609.774,495.982 L606.561,495.982 C606.292,495.982 606.073,495.764 606.073,495.494 L606.073,493.957 C606.073,493.688 606.292,493.469 606.561,493.469 L609.774,493.469 C610.043,493.469 610.262,493.688 610.262,493.957 L610.262,495.494 C610.262,495.764 610.043,495.982 609.774,495.982 z" fill="#3F3D56"/>
      <path d="M601.397,495.982 L598.185,495.982 C597.915,495.982 597.696,495.764 597.696,495.494 L597.696,493.957 C597.696,493.688 597.915,493.469 598.185,493.469 L601.397,493.469 C601.666,493.469 601.885,493.688 601.885,493.957 L601.885,495.494 C601.885,495.764 601.666,495.982 601.397,495.982 z" fill="#3F3D56"/>
      <path d="M593.02,495.982 L589.808,495.982 C589.538,495.982 589.319,495.764 589.319,495.494 L589.319,493.957 C589.319,493.688 589.538,493.469 589.808,493.469 L593.02,493.469 C593.289,493.469 593.508,493.688 593.508,493.957 L593.508,495.494 C593.508,495.764 593.289,495.982 593.02,495.982 z" fill="#3F3D56"/>
      <path d="M718.773,500.171 L715.561,500.171 C715.292,500.171 715.073,499.952 715.073,499.682 L715.073,498.146 C715.073,497.876 715.292,497.658 715.561,497.658 L718.773,497.658 C719.043,497.658 719.262,497.876 719.262,498.146 L719.262,499.682 C719.262,499.952 719.043,500.171 718.773,500.171 z" fill="#3F3D56"/>
      <path d="M710.396,500.171 L707.184,500.171 C706.915,500.171 706.696,499.952 706.696,499.682 L706.696,498.146 C706.696,497.876 706.915,497.658 707.184,497.658 L710.396,497.658 C710.666,497.658 710.885,497.876 710.885,498.146 L710.885,499.682 C710.885,499.952 710.666,500.171 710.396,500.171 z" fill="#3F3D56"/>
      <path d="M702.019,500.171 L698.807,500.171 C698.538,500.171 698.319,499.952 698.319,499.682 L698.319,498.146 C698.319,497.876 698.538,497.658 698.807,497.658 L702.019,497.658 C702.289,497.658 702.508,497.876 702.508,498.146 L702.508,499.682 C702.508,499.952 702.289,500.171 702.019,500.171 z" fill="#3F3D56"/>
      <path d="M693.642,500.171 L690.43,500.171 C690.161,500.171 689.942,499.952 689.942,499.682 L689.942,498.146 C689.942,497.876 690.161,497.658 690.43,497.658 L693.642,497.658 C693.912,497.658 694.131,497.876 694.131,498.146 L694.131,499.682 C694.131,499.952 693.912,500.171 693.642,500.171 z" fill="#3F3D56"/>
      <path d="M685.265,500.171 L682.053,500.171 C681.784,500.171 681.565,499.952 681.565,499.682 L681.565,498.146 C681.565,497.876 681.784,497.658 682.053,497.658 L685.265,497.658 C685.535,497.658 685.754,497.876 685.754,498.146 L685.754,499.682 C685.754,499.952 685.535,500.171 685.265,500.171 z" fill="#3F3D56"/>
      <path d="M676.888,500.171 L673.676,500.171 C673.407,500.171 673.188,499.952 673.188,499.682 L673.188,498.146 C673.188,497.876 673.407,497.658 673.676,497.658 L676.888,497.658 C677.158,497.658 677.377,497.876 677.377,498.146 L677.377,499.682 C677.377,499.952 677.158,500.171 676.888,500.171 z" fill="#3F3D56"/>
      <path d="M668.511,500.171 L665.299,500.171 C665.03,500.171 664.811,499.952 664.811,499.682 L664.811,498.146 C664.811,497.876 665.03,497.658 665.299,497.658 L668.511,497.658 C668.781,497.658 669,497.876 669,498.146 L669,499.682 C669,499.952 668.781,500.171 668.511,500.171 z" fill="#3F3D56"/>
      <path d="M660.135,500.171 L656.922,500.171 C656.653,500.171 656.434,499.952 656.434,499.682 L656.434,498.146 C656.434,497.876 656.653,497.658 656.922,497.658 L660.135,497.658 C660.404,497.658 660.623,497.876 660.623,498.146 L660.623,499.682 C660.623,499.952 660.404,500.171 660.135,500.171 z" fill="#3F3D56"/>
      <path d="M651.758,500.171 L648.545,500.171 C648.276,500.171 648.057,499.952 648.057,499.682 L648.057,498.146 C648.057,497.876 648.276,497.658 648.545,497.658 L651.758,497.658 C652.027,497.658 652.246,497.876 652.246,498.146 L652.246,499.682 C652.246,499.952 652.027,500.171 651.758,500.171 z" fill="#3F3D56"/>
      <path d="M643.381,500.171 L640.168,500.171 C639.899,500.171 639.68,499.952 639.68,499.682 L639.68,498.146 C639.68,497.876 639.899,497.658 640.168,497.658 L643.381,497.658 C643.65,497.658 643.869,497.876 643.869,498.146 L643.869,499.682 C643.869,499.952 643.65,500.171 643.381,500.171 z" fill="#3F3D56"/>
      <path d="M635.004,500.171 L631.791,500.171 C631.522,500.171 631.303,499.952 631.303,499.682 L631.303,498.146 C631.303,497.876 631.522,497.658 631.791,497.658 L635.004,497.658 C635.273,497.658 635.492,497.876 635.492,498.146 L635.492,499.682 C635.492,499.952 635.273,500.171 635.004,500.171 z" fill="#3F3D56"/>
      <path d="M626.627,500.171 L623.414,500.171 C623.145,500.171 622.926,499.952 622.926,499.682 L622.926,498.146 C622.926,497.876 623.145,497.658 623.414,497.658 L626.627,497.658 C626.896,497.658 627.115,497.876 627.115,498.146 L627.115,499.682 C627.115,499.952 626.896,500.171 626.627,500.171 z" fill="#3F3D56"/>
      <path d="M618.25,500.171 L615.037,500.171 C614.768,500.171 614.549,499.952 614.549,499.682 L614.549,498.146 C614.549,497.876 614.768,497.658 615.037,497.658 L618.25,497.658 C618.519,497.658 618.738,497.876 618.738,498.146 L618.738,499.682 C618.738,499.952 618.519,500.171 618.25,500.171 z" fill="#3F3D56"/>
      <path d="M609.873,500.171 L606.661,500.171 C606.391,500.171 606.172,499.952 606.172,499.682 L606.172,498.146 C606.172,497.876 606.391,497.658 606.661,497.658 L609.873,497.658 C610.142,497.658 610.361,497.876 610.361,498.146 L610.361,499.682 C610.361,499.952 610.142,500.171 609.873,500.171 z" fill="#3F3D56"/>
      <path d="M601.496,500.171 L598.284,500.171 C598.014,500.171 597.795,499.952 597.795,499.682 L597.795,498.146 C597.795,497.876 598.014,497.658 598.284,497.658 L601.496,497.658 C601.765,497.658 601.984,497.876 601.984,498.146 L601.984,499.682 C601.984,499.952 601.765,500.171 601.496,500.171 z" fill="#3F3D56"/>
      <path d="M593.119,500.171 L589.906,500.171 C589.637,500.171 589.418,499.952 589.418,499.682 L589.418,498.146 C589.418,497.876 589.637,497.658 589.906,497.658 L593.119,497.658 C593.388,497.658 593.607,497.876 593.607,498.146 L593.607,499.682 C593.607,499.952 593.388,500.171 593.119,500.171 z" fill="#3F3D56"/>
      <path d="M678.564,505.197 L646.032,505.197 C645.763,505.197 645.544,504.978 645.544,504.709 L645.544,503.172 C645.544,502.902 645.763,502.684 646.032,502.684 L678.564,502.684 C678.833,502.684 679.052,502.902 679.052,503.172 L679.052,504.709 C679.052,504.978 678.833,505.197 678.564,505.197 z" fill="#3F3D56"/>
      <path d="M608.722,420.489 L611.566,420.489 C612.428,420.489 613.127,421.188 613.127,422.05 L613.127,422.05 C613.127,422.912 612.428,423.611 611.566,423.611 L608.722,423.611 C607.86,423.611 607.161,422.912 607.161,422.05 L607.161,422.05 C607.161,421.188 607.86,420.489 608.722,420.489 z" fill="#FFFFFF"/>
      <path d="M641.245,420.489 L644.089,420.489 C644.951,420.489 645.65,421.188 645.65,422.05 L645.65,422.05 C645.65,422.912 644.951,423.611 644.089,423.611 L641.245,423.611 C640.383,423.611 639.684,422.912 639.684,422.05 L639.684,422.05 C639.684,421.188 640.383,420.489 641.245,420.489 z" fill="#FFFFFF"/>
      <path d="M650.46,420.489 L653.304,420.489 C654.166,420.489 654.865,421.188 654.865,422.05 L654.865,422.05 C654.865,422.912 654.166,423.611 653.304,423.611 L650.46,423.611 C649.598,423.611 648.899,422.912 648.899,422.05 L648.899,422.05 C648.899,421.188 649.598,420.489 650.46,420.489 z" fill="#FFFFFF"/>
      <path d="M617.569,420.229 L635.243,420.229 C636.105,420.229 636.804,420.927 636.804,421.79 L636.804,421.79 C636.804,422.652 636.105,423.351 635.243,423.351 L617.569,423.351 C616.707,423.351 616.008,422.652 616.008,421.79 L616.008,421.79 C616.008,420.927 616.707,420.229 617.569,420.229 z" fill="#FFFFFF"/>
      <path d="M660.933,420.229 L678.607,420.229 C679.469,420.229 680.168,420.927 680.168,421.79 L680.168,421.79 C680.168,422.652 679.469,423.351 678.607,423.351 L660.933,423.351 C660.071,423.351 659.372,422.652 659.372,421.79 L659.372,421.79 C659.372,420.927 660.071,420.229 660.933,420.229 z" fill="#FFFFFF"/>
      <path d="M617.395,427.535 L620.239,427.535 C621.101,427.535 621.8,428.234 621.8,429.097 L621.8,429.097 C621.8,429.959 621.101,430.658 620.239,430.658 L617.395,430.658 C616.533,430.658 615.834,429.959 615.834,429.097 L615.834,429.097 C615.834,428.234 616.533,427.535 617.395,427.535 z" fill="#FFFFFF"/>
      <path d="M649.918,427.535 L652.762,427.535 C653.624,427.535 654.323,428.234 654.323,429.097 L654.323,429.097 C654.323,429.959 653.624,430.658 652.762,430.658 L649.918,430.658 C649.056,430.658 648.357,429.959 648.357,429.097 L648.357,429.097 C648.357,428.234 649.056,427.535 649.918,427.535 z" fill="#FFFFFF"/>
      <path d="M659.133,427.535 L661.977,427.535 C662.839,427.535 663.538,428.234 663.538,429.097 L663.538,429.097 C663.538,429.959 662.839,430.658 661.977,430.658 L659.133,430.658 C658.271,430.658 657.572,429.959 657.572,429.097 L657.572,429.097 C657.572,428.234 658.271,427.535 659.133,427.535 z" fill="#FFFFFF"/>
      <path d="M626.242,427.275 L643.916,427.275 C644.778,427.275 645.477,427.974 645.477,428.836 L645.477,428.836 C645.477,429.698 644.778,430.397 643.916,430.397 L626.242,430.397 C625.379,430.397 624.681,429.698 624.681,428.836 L624.681,428.836 C624.681,427.974 625.379,427.275 626.242,427.275 z" fill="#FFFFFF"/>
      <path d="M669.606,427.275 L687.28,427.275 C688.142,427.275 688.841,427.974 688.841,428.836 L688.841,428.836 C688.841,429.698 688.142,430.397 687.28,430.397 L669.606,430.397 C668.743,430.397 668.045,429.698 668.045,428.836 L668.045,428.836 C668.045,427.974 668.743,427.275 669.606,427.275 z" fill="#FFFFFF"/>
      <path d="M626.068,434.582 L628.912,434.582 C629.774,434.582 630.473,435.281 630.473,436.143 L630.473,436.143 C630.473,437.005 629.774,437.704 628.912,437.704 L626.068,437.704 C625.206,437.704 624.507,437.005 624.507,436.143 L624.507,436.143 C624.507,435.281 625.206,434.582 626.068,434.582 z" fill="#FFFFFF"/>
      <path d="M658.591,434.582 L661.435,434.582 C662.297,434.582 662.996,435.281 662.996,436.143 L662.996,436.143 C662.996,437.005 662.297,437.704 661.435,437.704 L658.591,437.704 C657.729,437.704 657.03,437.005 657.03,436.143 L657.03,436.143 C657.03,435.281 657.729,434.582 658.591,434.582 z" fill="#FFFFFF"/>
      <path d="M667.806,434.582 L670.65,434.582 C671.512,434.582 672.211,435.281 672.211,436.143 L672.211,436.143 C672.211,437.005 671.512,437.704 670.65,437.704 L667.806,437.704 C666.944,437.704 666.245,437.005 666.245,436.143 L666.245,436.143 C666.245,435.281 666.944,434.582 667.806,434.582 z" fill="#FFFFFF"/>
      <path d="M634.914,434.322 L652.588,434.322 C653.451,434.322 654.149,435.021 654.149,435.883 L654.149,435.883 C654.149,436.745 653.451,437.444 652.588,437.444 L634.914,437.444 C634.052,437.444 633.353,436.745 633.353,435.883 L633.353,435.883 C633.353,435.021 634.052,434.322 634.914,434.322 z" fill="#FFFFFF"/>
      <path d="M678.278,434.322 L695.952,434.322 C696.815,434.322 697.513,435.021 697.513,435.883 L697.513,435.883 C697.513,436.745 696.815,437.444 695.952,437.444 L678.278,437.444 C677.416,437.444 676.717,436.745 676.717,435.883 L676.717,435.883 C676.717,435.021 677.416,434.322 678.278,434.322 z" fill="#FFFFFF"/>
      <path d="M634.741,441.629 L637.585,441.629 C638.447,441.629 639.146,442.328 639.146,443.19 L639.146,443.19 C639.146,444.052 638.447,444.751 637.585,444.751 L634.741,444.751 C633.879,444.751 633.18,444.052 633.18,443.19 L633.18,443.19 C633.18,442.328 633.879,441.629 634.741,441.629 z" fill="#FFFFFF"/>
      <path d="M667.264,441.629 L670.108,441.629 C670.97,441.629 671.669,442.328 671.669,443.19 L671.669,443.19 C671.669,444.052 670.97,444.751 670.108,444.751 L667.264,444.751 C666.402,444.751 665.703,444.052 665.703,443.19 L665.703,443.19 C665.703,442.328 666.402,441.629 667.264,441.629 z" fill="#FFFFFF"/>
      <path d="M676.479,441.629 L679.322,441.629 C680.185,441.629 680.883,442.328 680.883,443.19 L680.883,443.19 C680.883,444.052 680.185,444.751 679.322,444.751 L676.479,444.751 C675.617,444.751 674.918,444.052 674.918,443.19 L674.918,443.19 C674.918,442.328 675.617,441.629 676.479,441.629 z" fill="#FFFFFF"/>
      <path d="M643.587,441.368 L661.261,441.368 C662.123,441.368 662.822,442.067 662.822,442.93 L662.822,442.93 C662.822,443.792 662.123,444.491 661.261,444.491 L643.587,444.491 C642.725,444.491 642.026,443.792 642.026,442.93 L642.026,442.93 C642.026,442.067 642.725,441.368 643.587,441.368 z" fill="#FFFFFF"/>
      <path d="M641.245,469.649 L644.089,469.649 C644.951,469.649 645.65,470.348 645.65,471.21 L645.65,471.21 C645.65,472.072 644.951,472.771 644.089,472.771 L641.245,472.771 C640.383,472.771 639.684,472.072 639.684,471.21 L639.684,471.21 C639.684,470.348 640.383,469.649 641.245,469.649 z" fill="#FFFFFF"/>
      <path d="M650.46,469.649 L653.304,469.649 C654.166,469.649 654.865,470.348 654.865,471.21 L654.865,471.21 C654.865,472.072 654.166,472.771 653.304,472.771 L650.46,472.771 C649.598,472.771 648.899,472.072 648.899,471.21 L648.899,471.21 C648.899,470.348 649.598,469.649 650.46,469.649 z" fill="#FFFFFF"/>
      <path d="M660.933,469.91 L678.607,469.91 C679.469,469.91 680.168,470.608 680.168,471.471 L680.168,471.471 C680.168,472.333 679.469,473.032 678.607,473.032 L660.933,473.032 C660.071,473.032 659.372,472.333 659.372,471.471 L659.372,471.471 C659.372,470.608 660.071,469.91 660.933,469.91 z" fill="#FFFFFF"/>
      <path d="M608.722,469.649 L611.566,469.649 C612.428,469.649 613.127,470.348 613.127,471.21 L613.127,471.21 C613.127,472.072 612.428,472.771 611.566,472.771 L608.722,472.771 C607.86,472.771 607.161,472.072 607.161,471.21 L607.161,471.21 C607.161,470.348 607.86,469.649 608.722,469.649 z" fill="#FFFFFF"/>
      <path d="M617.569,469.91 L635.243,469.91 C636.105,469.91 636.804,470.608 636.804,471.471 L636.804,471.471 C636.804,472.333 636.105,473.032 635.243,473.032 L617.569,473.032 C616.707,473.032 616.008,472.333 616.008,471.471 L616.008,471.471 C616.008,470.608 616.707,469.91 617.569,469.91 z" fill="#FFFFFF"/>
      <path d="M617.395,462.603 L620.239,462.603 C621.101,462.603 621.8,463.302 621.8,464.164 L621.8,464.164 C621.8,465.026 621.101,465.725 620.239,465.725 L617.395,465.725 C616.533,465.725 615.834,465.026 615.834,464.164 L615.834,464.164 C615.834,463.302 616.533,462.603 617.395,462.603 z" fill="#FFFFFF"/>
      <path d="M649.918,462.603 L652.762,462.603 C653.624,462.603 654.323,463.302 654.323,464.164 L654.323,464.164 C654.323,465.026 653.624,465.725 652.762,465.725 L649.918,465.725 C649.056,465.725 648.357,465.026 648.357,464.164 L648.357,464.164 C648.357,463.302 649.056,462.603 649.918,462.603 z" fill="#FFFFFF"/>
      <path d="M659.133,462.603 L661.977,462.603 C662.839,462.603 663.538,463.302 663.538,464.164 L663.538,464.164 C663.538,465.026 662.839,465.725 661.977,465.725 L659.133,465.725 C658.271,465.725 657.572,465.026 657.572,464.164 L657.572,464.164 C657.572,463.302 658.271,462.603 659.133,462.603 z" fill="#FFFFFF"/>
      <path d="M626.242,462.863 L643.916,462.863 C644.778,462.863 645.477,463.562 645.477,464.424 L645.477,464.424 C645.477,465.286 644.778,465.985 643.916,465.985 L626.242,465.985 C625.379,465.985 624.681,465.286 624.681,464.424 L624.681,464.424 C624.681,463.562 625.379,462.863 626.242,462.863 z" fill="#FFFFFF"/>
      <path d="M626.068,455.556 L628.912,455.556 C629.774,455.556 630.473,456.255 630.473,457.117 L630.473,457.117 C630.473,457.979 629.774,458.678 628.912,458.678 L626.068,458.678 C625.206,458.678 624.507,457.979 624.507,457.117 L624.507,457.117 C624.507,456.255 625.206,455.556 626.068,455.556 z" fill="#FFFFFF"/>
      <path d="M658.591,455.556 L661.435,455.556 C662.297,455.556 662.996,456.255 662.996,457.117 L662.996,457.117 C662.996,457.979 662.297,458.678 661.435,458.678 L658.591,458.678 C657.729,458.678 657.03,457.979 657.03,457.117 L657.03,457.117 C657.03,456.255 657.729,455.556 658.591,455.556 z" fill="#FFFFFF"/>
      <path d="M667.806,455.556 L670.65,455.556 C671.512,455.556 672.211,456.255 672.211,457.117 L672.211,457.117 C672.211,457.979 671.512,458.678 670.65,458.678 L667.806,458.678 C666.944,458.678 666.245,457.979 666.245,457.117 L666.245,457.117 C666.245,456.255 666.944,455.556 667.806,455.556 z" fill="#FFFFFF"/>
      <path d="M634.914,455.816 L652.588,455.816 C653.451,455.816 654.149,456.515 654.149,457.377 L654.149,457.377 C654.149,458.239 653.451,458.938 652.588,458.938 L634.914,458.938 C634.052,458.938 633.353,458.239 633.353,457.377 L633.353,457.377 C633.353,456.515 634.052,455.816 634.914,455.816 z" fill="#FFFFFF"/>
      <path d="M634.741,448.509 L637.585,448.509 C638.447,448.509 639.146,449.208 639.146,450.07 L639.146,450.07 C639.146,450.932 638.447,451.631 637.585,451.631 L634.741,451.631 C633.879,451.631 633.18,450.932 633.18,450.07 L633.18,450.07 C633.18,449.208 633.879,448.509 634.741,448.509 z" fill="#FFFFFF"/>
      <path d="M667.264,448.509 L670.108,448.509 C670.97,448.509 671.669,449.208 671.669,450.07 L671.669,450.07 C671.669,450.932 670.97,451.631 670.108,451.631 L667.264,451.631 C666.402,451.631 665.703,450.932 665.703,450.07 L665.703,450.07 C665.703,449.208 666.402,448.509 667.264,448.509 z" fill="#FFFFFF"/>
      <path d="M676.479,448.509 L679.322,448.509 C680.185,448.509 680.883,449.208 680.883,450.07 L680.883,450.07 C680.883,450.932 680.185,451.631 679.322,451.631 L676.479,451.631 C675.617,451.631 674.918,450.932 674.918,450.07 L674.918,450.07 C674.918,449.208 675.617,448.509 676.479,448.509 z" fill="#FFFFFF"/>
      <path d="M643.587,448.77 L661.261,448.77 C662.123,448.77 662.822,449.468 662.822,450.331 L662.822,450.331 C662.822,451.193 662.123,451.892 661.261,451.892 L643.587,451.892 C642.725,451.892 642.026,451.193 642.026,450.331 L642.026,450.331 C642.026,449.468 642.725,448.77 643.587,448.77 z" fill="#FFFFFF"/>
    </g>
    <path d="M225.081,651.352 L217.371,638.962 L215.831,646.042 C215.561,647.282 215.291,648.542 215.041,649.792 C212.851,647.922 210.521,646.192 208.241,644.532 Q197.741,636.912 187.251,629.272 L189.441,641.972 C190.791,649.792 192.201,657.772 195.541,664.922 C195.911,665.732 196.311,666.532 196.741,667.312 L229.281,667.312 C229.543,666.588 229.724,665.836 229.821,665.072 C229.829,665.022 229.832,664.972 229.831,664.922 C230.341,660.072 227.661,655.502 225.081,651.352 z" fill="#F0F0F0"/>
    <path d="M86.068,657.701 L97.946,657.7 L103.597,615.919 L86.066,615.92 L86.068,657.701 z" fill="#FFB6B6"/>
    <path d="M85.65,669 L122.178,668.999 L122.178,668.578 C122.177,661.417 115.812,655.613 107.96,655.613 L107.959,655.613 L101.287,650.997 L88.838,655.613 L85.649,655.614 z" fill="#2F2E41"/>
    <path d="M105.25,607.151 L114.601,613.83 L147.305,584.117 L133.503,574.259 L105.25,607.151 z" fill="#FFB6B6"/>
    <path d="M97.279,615.811 L126.035,636.351 L126.32,636.02 C131.162,630.383 130.076,622.234 123.895,617.818 L123.895,617.818 L121.764,610.432 L108.841,607.066 L106.331,605.273 z" fill="#2F2E41"/>
    <path d="M161.174,416.784 C161.174,416.784 176.939,431.692 169.933,466.301 L175.815,525.56 L177.333,528.303 C179.189,531.656 178.475,535.717 175.562,538.372 L175.562,538.372 L174.312,541.909 L173.144,548.831 L129.644,608.465 L113.003,592.491 L139.862,536.584 L132.563,522.208 L115.63,472.158 L103.952,563.739 L106.288,642.541 L83.937,642.541 L70.086,554.688 L55.489,431.16 L63.082,416.784 z" fill="#2F2E41"/>
    <path d="M59.129,442.401 L58.97,442.197 C50.462,431.335 63.258,405.236 65.188,401.453 L65.188,401.453 C60.462,400.054 57.477,395.807 58.058,391.308 L58.89,384.859 L59.757,378.534 L53.544,372.869 L53.527,372.728 L49.952,344.201 L44.753,325.255 C40.766,310.671 45.715,295.26 57.701,284.942 L69.716,283.203 L84.319,270.373 L107.868,270.373 L115.942,277.407 C131.015,279.818 133.604,279.031 146.551,293.198 L140.668,337.246 L139.201,343.306 L139.205,351.525 L142.936,355.306 C145.661,358.068 146.796,361.841 145.997,365.484 L145.506,367.721 L145.506,367.721 C149.355,369.225 153.027,395.951 153.904,399.684 L155.215,405.26 C156.336,406.609 163.736,415.607 163.736,418.067 C163.736,418.437 163.437,418.794 162.796,419.19 C157.752,422.304 137.646,444.394 125.308,439.893 C112.167,435.101 59.927,442.289 59.401,442.362 z" fill="#8D30FE"/>
    <path d="M55.965,391.18 C55.965,391.18 62.013,360.015 55.92,348.295 L31.752,349.869 L35.43,394.329 L56.558,443.694 C55.666,447.9 58.234,452.08 62.633,453.582 C67.033,455.085 71.98,453.472 74.338,449.767 C76.696,446.061 75.776,441.345 72.162,438.607 z" fill="#FFB6B6"/>
    <path d="M31.752,331.766 L33.248,316.913 C34.385,305.622 40.413,295.21 49.995,287.985 L49.995,287.985 C56.009,283.485 64.302,282.487 71.391,285.41 L71.391,285.41 C81.135,289.501 85.739,299.775 81.925,308.918 C76.339,322.277 78.356,336.404 67.464,338.126 L68.648,343.26 L57.938,375.13 L27.436,371.908 z" fill="#8D30FE"/>
    <path d="M192.624,376.409 C192.624,376.409 174.921,349.187 161.921,343.924 L144.724,359.49 L179.308,391.008 L230.628,415.868 C232.96,419.587 237.895,421.229 242.305,419.751 C246.716,418.274 249.312,414.11 248.45,409.899 C247.587,405.687 243.517,402.658 238.82,402.732 z" fill="#FFB6B6"/>
    <path d="M131.778,345.766 L122.289,333.616 C115.077,324.38 112.201,312.902 114.299,301.726 L114.299,301.726 C115.639,294.738 121.213,289.05 128.677,287.051 L128.677,287.051 C138.99,284.358 149.827,289.409 153.475,298.608 C158.794,312.057 178.194,334.161 171.169,341.944 L175.737,345.132 L182.641,363.068 L157.213,378.764 z" fill="#8D30FE"/>
    <path d="M120.657,240.327 C120.657,253.497 108.948,264.174 94.504,264.174 C80.061,264.174 68.352,253.497 68.352,240.327 C68.352,227.156 80.061,216.479 94.504,216.479 C108.948,216.479 120.657,227.156 120.657,240.327 z" fill="#FFB6B6"/>
    <path d="M91.649,256.571 L99.25,256.571 C102.564,256.571 105.25,259.257 105.25,262.571 L105.25,269.584 C105.25,272.898 102.564,275.584 99.25,275.584 L91.649,275.584 C88.335,275.584 85.649,272.898 85.649,269.584 L85.649,262.571 C85.649,259.257 88.335,256.571 91.649,256.571 z" fill="#FFB6B6"/>
    <path d="M75.525,257.136 C75.297,256.953 75.081,256.758 74.858,256.571 C74.85,256.59 74.849,256.61 74.84,256.629 z" fill="#2F2E41"/>
    <path d="M115.936,215.143 C114.637,213.236 112.837,211.653 110.699,210.539 C109.238,209.893 107.703,209.397 106.121,209.06 L101.982,208.03 C99.862,207.432 97.68,207.031 95.471,206.834 C89.217,206.553 83.312,209.474 80.161,214.408 C78.911,216.431 77.907,218.951 75.494,219.691 C73.548,220.288 71.425,219.446 69.38,219.609 C66.946,219.931 64.849,221.34 63.79,223.364 C62.771,225.37 62.269,227.562 62.324,229.772 C62.161,239.919 66.715,249.654 74.858,256.571 C75.533,254.948 74.421,253.197 73.543,251.645 C72.653,250.074 72.104,247.885 73.593,246.754 C75.25,245.495 77.906,246.716 79.866,245.895 C81.139,245.228 81.961,244.023 82.055,242.686 C82.244,241.382 82.046,240.057 82.136,238.744 C82.316,236.115 83.64,233.661 85.814,231.927 C87.988,230.193 90.831,229.323 93.712,229.511 C98.173,229.802 102.503,232.582 106.796,231.438 C108.811,230.901 110.53,229.534 112.614,229.304 C114.923,229.05 117.094,230.238 119.054,231.378 C120.493,225.806 119.366,219.938 115.936,215.143 z" fill="#2F2E41"/>
    <path d="M1026.376,669.693 L1.626,670 C0.727,669.998 0,669.466 0,668.81 C0,668.153 0.727,667.621 1.626,667.619 L1026.376,667.312 C1027.274,667.314 1028,667.846 1028,668.502 C1028,669.159 1027.274,669.691 1026.376,669.693 z" fill="#CACACA"/>
    <path d="M282.147,634.989 L272.99,609.897 L271.161,624.235 C270.841,626.746 270.52,629.298 270.223,631.83 C267.622,628.043 264.855,624.539 262.147,621.177 Q249.678,605.745 237.22,590.272 L239.821,615.992 C241.424,631.83 243.098,647.991 247.065,662.472 C247.504,664.112 247.979,665.732 248.49,667.312 L287.135,667.312 C287.446,665.846 287.661,664.323 287.776,662.775 C287.785,662.674 287.789,662.573 287.788,662.472 C288.394,652.649 285.211,643.394 282.147,634.989 z" fill="#F0F0F0"/>
  </g>
</svg>
