<?xml version="1.0" encoding="UTF-8"?>
<!DOCTYPE svg PUBLIC "-//W3C//DTD SVG 1.1//EN" "http://www.w3.org/Graphics/SVG/1.1/DTD/svg11.dtd">
<svg version="1.1" xmlns="http://www.w3.org/2000/svg" xmlns:xlink="http://www.w3.org/1999/xlink" x="0" y="0" width="1028" height="670" viewBox="0, 0, 1028, 670">
  <g id="Layer_2" opacity="0.104">
    <path d="M531.881,629.042 C375.308,629.042 248.381,502.115 248.381,345.542 C248.381,188.969 375.308,62.042 531.881,62.042 C688.454,62.042 815.381,188.969 815.381,345.542 C815.381,502.115 688.454,629.042 531.881,629.042 z" fill="#FFFFFF"/>
  </g>
  <g id="Layer_4">
    <path d="M929.964,633.3 C931.667,633.389 933.238,632.249 933.895,630.445 C934.553,628.64 934.158,626.557 932.906,625.229 C932.803,624.763 932.73,624.428 932.628,623.961 C934.255,619.218 938.229,616.082 942.673,616.034 C947.116,615.986 951.141,619.035 952.846,623.742 C957.657,636.659 963.884,650.03 960.787,664.257 C981.241,614.534 974.285,552.684 944.057,510.162 C935.702,504.883 928.93,495.503 927.167,484.612 C931.302,486.219 936.458,482.361 933.349,477.365 C932.001,475.455 930.64,473.561 929.293,471.651 C945,452.463 963.716,482.62 946.426,508.519 C952.082,516.652 956.981,525.442 961.044,534.745 C960.106,524.867 961.225,514.875 964.311,505.59 C967.438,496.937 973.299,489.649 978.461,482.169 C984.736,473.054 997.653,477.259 998.497,488.826 C992.705,491.009 991.953,500.606 998.578,501.919 C996.843,523.437 984.587,543.211 967.707,552.648 C973.941,572.71 976.375,594.065 974.847,615.291 C977.827,590.484 1001.041,584.465 1017.267,574.605 C1019.377,573.053 1022.088,573.078 1024.176,574.669 C1026.264,576.259 1027.336,579.116 1026.907,581.948 C1024.667,582.993 1022.524,584.29 1020.508,585.821 C1018.572,587.313 1017.664,590.041 1018.239,592.634 C1018.814,595.226 1020.749,597.124 1023.071,597.374 C1014.892,620.593 993.746,636.184 972.028,636.097 C969.941,646.499 966.917,656.625 963.005,666.311 L930.772,666.311 C930.656,665.9 930.552,665.476 930.448,665.066 C933.432,665.281 936.427,665.076 939.367,664.456 C931.474,653.736 925.369,648.266 929.963,633.3 z" fill="#F2F2F2"/>
    <path d="M837.928,569.389 C877.616,539.16 896.571,488.364 884.704,439.907 Q884.262,438.101 883.771,436.303 C875.903,407.54 856.439,380.202 828.071,371.012 C804.251,363.295 778.251,369.229 753.401,366.16 C704.62,360.136 666.801,320.666 640.19,279.341 C613.579,238.015 593.128,191.758 557.769,157.617 C499.484,101.341 404.407,89.225 332.142,125.856 C259.877,162.487 213.845,243.757 215.808,324.752 C217.772,405.747 265.855,483.183 335.683,524.269 C361.336,539.362 391.005,550.054 420.532,546.312 C446.152,543.066 469.431,529.3 494.93,525.213 C535.021,518.787 574.857,536.914 609.533,558.036 C644.209,579.159 677.703,604.196 717.107,613.989 C755.369,623.497 802.771,596.167 837.928,569.389 z" fill="#F2F2F2"/>
    <path d="M780.906,127.557 C780.036,126.977 779.156,126.427 778.286,125.867 C753.137,109.783 726.182,96.716 697.976,86.937 L691.436,177.157 L649.976,177.157 L649.976,73.767 C647.366,73.227 644.736,72.717 642.106,72.237 L642.106,177.157 L592.836,177.157 C536.354,177.157 490.566,131.369 490.566,74.887 L490.566,74.887 C487.926,75.457 485.306,76.067 482.686,76.717 L482.686,177.157 L442.556,177.157 L436.326,91.127 C407.341,102.243 379.824,116.862 354.386,134.657 C353.946,134.957 353.506,135.267 353.076,135.567 C350.866,137.117 348.686,138.697 346.516,140.297 L346.516,484.487 L464.786,484.487 L462.696,455.537 L451.196,296.587 L682.786,296.587 L671.286,455.537 L669.196,484.487 L786.156,484.487 L786.156,131.037 Q783.546,129.267 780.906,127.557 z M482.686,270.337 L449.296,270.337 L443.126,185.037 L482.686,185.037 z M642.106,270.337 L586.026,270.337 L586.026,268.647 C586.026,267.006 585.374,265.433 584.213,264.274 C583.052,263.114 581.477,262.464 579.836,262.467 L555.456,262.467 C552.043,262.466 549.275,265.233 549.276,268.647 L549.276,270.337 L490.566,270.337 L490.566,185.037 L642.106,185.037 z M649.976,270.337 L649.976,185.037 L690.866,185.037 L684.696,270.337 z" fill="#3F3D56"/>
    <path d="M172.48,506.528 C180.813,516.821 189.825,526.495 199.452,535.478 L900.195,536.478 C909.822,527.495 918.835,517.821 927.167,507.528 z" fill="#3F3D56"/>
    <path d="M602.746,131.782 C602.746,146.529 590.792,158.483 576.046,158.483 C561.299,158.483 549.345,146.529 549.345,131.782 C549.345,117.036 561.299,105.081 576.046,105.081 C590.792,105.081 602.746,117.036 602.746,131.782 z" fill="#F2F2F2"/>
    <path d="M309.414,395.081 L309.414,497.641 L381.264,497.641 L381.264,395.081 C381.267,393.567 380.281,392.228 378.834,391.781 C378.502,391.672 378.154,391.618 377.804,391.621 L312.884,391.621 C310.97,391.618 309.416,393.167 309.414,395.081 z M337.454,430.321 C337.493,426.113 340.916,422.722 345.124,422.722 C349.333,422.722 352.755,426.113 352.794,430.321 L352.794,442.221 C352.773,446.442 349.345,449.852 345.124,449.852 C340.903,449.852 337.476,446.442 337.454,442.221 z" fill="#2F2E41"/>
    <path d="M309.194,494.361 L309.194,504.251 C309.198,505.318 310.058,506.183 311.124,506.191 L379.554,506.191 C380.622,506.186 381.484,505.319 381.484,504.251 L381.484,494.361 z" fill="#3F3D56"/>
    <path d="M196.384,240.561 L196.384,427.821 C196.388,432.79 200.415,436.817 205.384,436.821 L482.884,436.821 C487.853,436.817 491.88,432.79 491.884,427.821 L491.884,240.561 C491.872,235.597 487.848,231.578 482.884,231.571 L205.384,231.571 C200.42,231.578 196.396,235.597 196.384,240.561 z" fill="#3F3D56"/>
    <path d="M202.894,242.891 L202.894,425.511 C202.899,428.166 205.05,430.317 207.704,430.321 L480.574,430.321 C483.229,430.317 485.38,428.166 485.384,425.511 L485.384,242.891 C485.384,240.233 483.232,238.077 480.574,238.071 L207.704,238.071 C205.046,238.077 202.895,240.233 202.894,242.891 z" fill="#FFFFFF"/>
    <path d="M261.534,505.521 C262.097,506.227 262.952,506.636 263.854,506.631 L426.194,506.631 C427.093,506.63 427.944,506.224 428.511,505.526 C429.077,504.828 429.299,503.911 429.114,503.031 L426.594,491.061 C426.382,490.07 425.682,489.253 424.734,488.891 C424.397,488.759 424.037,488.691 423.674,488.691 L266.364,488.691 C266.002,488.691 265.642,488.759 265.304,488.891 C264.357,489.253 263.656,490.07 263.444,491.061 L260.924,503.031 C260.743,503.911 260.967,504.825 261.534,505.521 z" fill="#2F2E41"/>
    <path d="M471.719,263.228 L216.395,263.228 C215.843,263.216 215.402,262.765 215.402,262.213 C215.402,261.661 215.843,261.21 216.395,261.197 L471.719,261.197 C472.271,261.21 472.712,261.661 472.712,262.213 C472.712,262.765 472.271,263.216 471.719,263.228 z" fill="#3F3D56"/>
    <path d="M239.726,249.93 C239.726,253.29 237.062,256.013 233.776,256.013 C230.489,256.013 227.825,253.29 227.825,249.93 C227.825,246.571 230.489,243.847 233.776,243.847 C237.062,243.847 239.726,246.571 239.726,249.93 z" fill="#3F3D56"/>
    <path d="M260.282,249.93 C260.282,253.29 257.618,256.013 254.332,256.013 C251.045,256.013 248.381,253.29 248.381,249.93 C248.381,246.571 251.045,243.847 254.332,243.847 C257.618,243.847 260.282,246.571 260.282,249.93 z" fill="#3F3D56"/>
    <path d="M280.838,249.93 C280.838,253.29 278.174,256.013 274.888,256.013 C271.601,256.013 268.937,253.29 268.937,249.93 C268.937,246.571 271.601,243.847 274.888,243.847 C278.174,243.847 280.838,246.571 280.838,249.93 z" fill="#3F3D56"/>
    <path d="M459.341,245.351 L444.741,245.351 C444.14,245.365 443.661,245.856 443.661,246.456 C443.661,247.057 444.14,247.547 444.741,247.561 L459.341,247.561 C459.945,247.553 460.43,247.061 460.43,246.456 C460.43,245.852 459.945,245.36 459.341,245.351 z" fill="#3F3D56"/>
    <path d="M459.341,249.501 L444.741,249.501 C444.14,249.515 443.66,250.006 443.66,250.606 C443.66,251.207 444.14,251.698 444.741,251.711 L459.341,251.711 C459.946,251.704 460.432,251.212 460.432,250.606 C460.432,250.001 459.946,249.509 459.341,249.501 z" fill="#3F3D56"/>
    <path d="M459.341,253.651 L444.741,253.651 C444.14,253.665 443.661,254.156 443.661,254.756 C443.661,255.357 444.14,255.847 444.741,255.861 L459.341,255.861 C459.945,255.853 460.43,255.361 460.43,254.756 C460.43,254.152 459.945,253.66 459.341,253.651 z" fill="#3F3D56"/>
    <g>
      <path d="M810.826,503.164 C811.684,505.811 814.15,507.604 816.932,507.603 L843.432,507.383 C846.239,507.377 848.705,505.525 849.493,502.831 L853.941,462.816 C855.261,463.441 856.703,463.764 858.164,463.761 C863.499,463.72 867.791,459.361 867.75,454.025 C867.71,448.69 863.351,444.397 858.016,444.438 C857.432,444.426 856.849,444.477 856.277,444.589 C855.046,443.209 853.288,442.414 851.439,442.401 L810.677,442.742 C810.339,442.748 810.002,442.784 809.67,442.849 C807.857,443.155 806.264,444.229 805.302,445.797 C804.341,447.365 804.103,449.272 804.654,451.027 z M854.757,460.108 L857.591,450.603 C857.914,449.505 857.942,448.341 857.67,447.23 C857.8,447.231 857.915,447.172 858.045,447.174 C861.854,447.162 864.955,450.234 864.977,454.043 C865,457.852 861.936,460.961 858.127,460.995 C856.944,461.011 855.779,460.705 854.757,460.108 z" fill="#2F2E41"/>
      <path d="M809.67,442.849 C810.451,447.828 820.15,451.487 831.896,451.085 C842.695,450.777 851.585,447.141 853.28,442.678 C852.684,442.491 852.064,442.398 851.439,442.401 L810.677,442.742 C810.339,442.748 810.002,442.784 809.67,442.849 z" fill="#3F3D56"/>
      <path d="M833.516,481.529 C833.569,481.516 833.62,481.495 833.668,481.465 L839.486,477.801 C839.628,477.71 839.716,477.555 839.719,477.386 C839.722,477.218 839.64,477.059 839.5,476.964 L833.59,472.944 C833.442,472.843 833.252,472.827 833.09,472.905 C832.929,472.983 832.821,473.141 832.809,473.32 C832.796,473.498 832.879,473.67 833.027,473.77 L838.306,477.361 L833.135,480.619 C832.928,480.749 832.846,481.009 832.94,481.235 C833.034,481.461 833.278,481.585 833.516,481.529 z" fill="#FFFFFF"/>
      <path d="M824.423,481.79 C824.621,481.743 824.772,481.581 824.803,481.379 C824.834,481.178 824.74,480.978 824.565,480.873 L819.316,477.741 L824.507,474.024 C824.731,473.863 824.783,473.551 824.623,473.327 C824.462,473.102 824.149,473.05 823.926,473.212 L818.113,477.373 C817.975,477.471 817.897,477.632 817.905,477.8 C817.912,477.968 818.003,478.122 818.147,478.208 L824.052,481.732 C824.164,481.798 824.296,481.819 824.423,481.79 z" fill="#FFFFFF"/>
      <path d="M832.885,484.819 C832.935,484.808 832.981,484.788 833.023,484.763 C833.138,484.696 833.221,484.586 833.256,484.458 C833.289,484.33 833.27,484.193 833.203,484.079 L825.282,470.53 C825.143,470.292 824.837,470.213 824.599,470.352 C824.361,470.492 824.281,470.797 824.42,471.036 L832.34,484.584 C832.451,484.773 832.672,484.868 832.885,484.819 z" fill="#FFFFFF"/>
    </g>
    <path d="M330.373,318.428 L374.564,318.428 C376.367,318.428 377.828,319.889 377.828,321.692 L377.828,326.009 C377.828,327.812 376.367,329.273 374.564,329.273 L330.373,329.273 C328.57,329.273 327.109,327.812 327.109,326.009 L327.109,321.692 C327.109,319.889 328.57,318.428 330.373,318.428 z" fill="#8D30FE"/>
    <path d="M304.614,340.119 L400.322,340.119 C402.125,340.119 403.587,341.581 403.587,343.383 L403.587,347.701 C403.587,349.503 402.125,350.965 400.322,350.965 L304.614,350.965 C302.812,350.965 301.35,349.503 301.35,347.701 L301.35,343.383 C301.35,341.581 302.812,340.119 304.614,340.119 z" fill="#E6E6E6"/>
    <path d="M304.614,361.81 L400.322,361.81 C402.125,361.81 403.587,363.272 403.587,365.075 L403.587,369.392 C403.587,371.195 402.125,372.656 400.322,372.656 L304.614,372.656 C302.812,372.656 301.35,371.195 301.35,369.392 L301.35,365.075 C301.35,363.272 302.812,361.81 304.614,361.81 z" fill="#E6E6E6"/>
    <g>
      <path d="M559.96,403.343 L559.96,489.047 C559.962,491.321 561.805,493.164 564.079,493.166 L691.084,493.166 C693.358,493.164 695.201,491.321 695.203,489.047 L695.203,403.343 C695.197,401.071 693.356,399.231 691.084,399.229 L564.079,399.229 C561.807,399.231 559.966,401.071 559.96,403.343 z" fill="#3F3D56"/>
      <path d="M562.94,404.409 L562.94,487.99 C562.942,489.205 563.926,490.189 565.141,490.191 L690.026,490.191 C691.241,490.189 692.226,489.205 692.228,487.99 L692.228,404.409 C692.228,403.193 691.243,402.206 690.026,402.203 L565.141,402.203 C563.925,402.206 562.94,403.193 562.94,404.409 z" fill="#8D30FE"/>
      <path d="M557.304,505.762 C557.775,506.353 558.492,506.695 559.247,506.691 L695.239,506.691 C695.993,506.69 696.705,506.35 697.18,505.765 C697.654,505.18 697.84,504.413 697.685,503.676 L695.575,493.648 C695.397,492.818 694.81,492.133 694.016,491.831 C693.734,491.72 693.432,491.663 693.128,491.663 L561.35,491.663 C561.046,491.663 560.745,491.72 560.462,491.831 C559.668,492.133 559.082,492.818 558.904,493.648 L556.793,503.676 C556.641,504.412 556.829,505.179 557.304,505.762 z" fill="#2F2E41"/>
      <path d="M691.674,495.982 L688.462,495.982 C688.193,495.982 687.974,495.764 687.974,495.494 L687.974,493.957 C687.974,493.688 688.193,493.469 688.462,493.469 L691.674,493.469 C691.944,493.469 692.163,493.688 692.163,493.957 L692.163,495.494 C692.163,495.764 691.944,495.982 691.674,495.982 z" fill="#3F3D56"/>
      <path d="M683.297,495.982 L680.085,495.982 C679.816,495.982 679.597,495.764 679.597,495.494 L679.597,493.957 C679.597,493.688 679.816,493.469 680.085,493.469 L683.297,493.469 C683.567,493.469 683.786,493.688 683.786,493.957 L683.786,495.494 C683.786,495.764 683.567,495.982 683.297,495.982 z" fill="#3F3D56"/>
      <path d="M674.92,495.982 L671.708,495.982 C671.439,495.982 671.22,495.764 671.22,495.494 L671.22,493.957 C671.22,493.688 671.439,493.469 671.708,493.469 L674.92,493.469 C675.19,493.469 675.409,493.688 675.409,493.957 L675.409,495.494 C675.409,495.764 675.19,495.982 674.92,495.982 z" fill="#3F3D56"/>
      <path d="M666.543,495.982 L663.331,495.982 C663.062,495.982 662.843,495.764 662.843,495.494 L662.843,493.957 C662.843,493.688 663.062,493.469 663.331,493.469 L666.543,493.469 C666.813,493.469 667.032,493.688 667.032,493.957 L667.032,495.494 C667.032,495.764 666.813,495.982 666.543,495.982 z" fill="#3F3D56"/>
      <path d="M658.166,495.982 L654.954,495.982 C654.685,495.982 654.466,495.764 654.466,495.494 L654.466,493.957 C654.466,493.688 654.685,493.469 654.954,493.469 L658.166,493.469 C658.436,493.469 658.655,493.688 658.655,493.957 L658.655,495.494 C658.655,495.764 658.436,495.982 658.166,495.982 z" fill="#3F3D56"/>
      <path d="M649.789,495.982 L646.577,495.982 C646.308,495.982 646.089,495.764 646.089,495.494 L646.089,493.957 C646.089,493.688 646.308,493.469 646.577,493.469 L649.789,493.469 C650.059,493.469 650.278,493.688 650.278,493.957 L650.278,495.494 C650.278,495.764 650.059,495.982 649.789,495.982 z" fill="#3F3D56"/>
      <path d="M641.412,495.982 L638.2,495.982 C637.931,495.982 637.712,495.764 637.712,495.494 L637.712,493.957 C637.712,493.688 637.931,493.469 638.2,493.469 L641.412,493.469 C641.682,493.469 641.901,493.688 641.901,493.957 L641.901,495.494 C641.901,495.764 641.682,495.982 641.412,495.982 z" fill="#3F3D56"/>
      <path d="M633.036,495.982 L629.823,495.982 C629.554,495.982 629.335,495.764 629.335,495.494 L629.335,493.957 C629.335,493.688 629.554,493.469 629.823,493.469 L633.036,493.469 C633.305,493.469 633.524,493.688 633.524,493.957 L633.524,495.494 C633.524,495.764 633.305,495.982 633.036,495.982 z" fill="#3F3D56"/>
      <path d="M624.659,495.982 L621.446,495.982 C621.177,495.982 620.958,495.764 620.958,495.494 L620.958,493.957 C620.958,493.688 621.177,493.469 621.446,493.469 L624.659,493.469 C624.928,493.469 625.147,493.688 625.147,493.957 L625.147,495.494 C625.147,495.764 624.928,495.982 624.659,495.982 z" fill="#3F3D56"/>
      <path d="M616.281,495.982 L613.069,495.982 C612.8,495.982 612.581,495.764 612.581,495.494 L612.581,493.957 C612.581,493.688 612.8,493.469 613.069,493.469 L616.281,493.469 C616.551,493.469 616.77,493.688 616.77,493.957 L616.77,495.494 C616.77,495.764 616.551,495.982 616.281,495.982 z" fill="#3F3D56"/>
      <path d="M607.905,495.982 L604.692,495.982 C604.423,495.982 604.204,495.764 604.204,495.494 L604.204,493.957 C604.204,493.688 604.423,493.469 604.692,493.469 L607.905,493.469 C608.174,493.469 608.393,493.688 608.393,493.957 L608.393,495.494 C608.393,495.764 608.174,495.982 607.905,495.982 z" fill="#3F3D56"/>
      <path d="M599.528,495.982 L596.315,495.982 C596.046,495.982 595.827,495.764 595.827,495.494 L595.827,493.957 C595.827,493.688 596.046,493.469 596.315,493.469 L599.528,493.469 C599.797,493.469 600.016,493.688 600.016,493.957 L600.016,495.494 C600.016,495.764 599.797,495.982 599.528,495.982 z" fill="#3F3D56"/>
      <path d="M591.151,495.982 L587.938,495.982 C587.669,495.982 587.45,495.764 587.45,495.494 L587.45,493.957 C587.45,493.688 587.669,493.469 587.938,493.469 L591.151,493.469 C591.42,493.469 591.639,493.688 591.639,493.957 L591.639,495.494 C591.639,495.764 591.42,495.982 591.151,495.982 z" fill="#3F3D56"/>
      <path d="M582.774,495.982 L579.561,495.982 C579.292,495.982 579.073,495.764 579.073,495.494 L579.073,493.957 C579.073,493.688 579.292,493.469 579.561,493.469 L582.774,493.469 C583.043,493.469 583.262,493.688 583.262,493.957 L583.262,495.494 C583.262,495.764 583.043,495.982 582.774,495.982 z" fill="#3F3D56"/>
      <path d="M574.397,495.982 L571.185,495.982 C570.915,495.982 570.696,495.764 570.696,495.494 L570.696,493.957 C570.696,493.688 570.915,493.469 571.185,493.469 L574.397,493.469 C574.666,493.469 574.885,493.688 574.885,493.957 L574.885,495.494 C574.885,495.764 574.666,495.982 574.397,495.982 z" fill="#3F3D56"/>
      <path d="M566.02,495.982 L562.808,495.982 C562.538,495.982 562.319,495.764 562.319,495.494 L562.319,493.957 C562.319,493.688 562.538,493.469 562.808,493.469 L566.02,493.469 C566.289,493.469 566.508,493.688 566.508,493.957 L566.508,495.494 C566.508,495.764 566.289,495.982 566.02,495.982 z" fill="#3F3D56"/>
      <path d="M691.773,500.171 L688.561,500.171 C688.292,500.171 688.073,499.952 688.073,499.682 L688.073,498.146 C688.073,497.876 688.292,497.658 688.561,497.658 L691.773,497.658 C692.043,497.658 692.262,497.876 692.262,498.146 L692.262,499.682 C692.262,499.952 692.043,500.171 691.773,500.171 z" fill="#3F3D56"/>
      <path d="M683.396,500.171 L680.184,500.171 C679.915,500.171 679.696,499.952 679.696,499.682 L679.696,498.146 C679.696,497.876 679.915,497.658 680.184,497.658 L683.396,497.658 C683.666,497.658 683.885,497.876 683.885,498.146 L683.885,499.682 C683.885,499.952 683.666,500.171 683.396,500.171 z" fill="#3F3D56"/>
      <path d="M675.019,500.171 L671.807,500.171 C671.538,500.171 671.319,499.952 671.319,499.682 L671.319,498.146 C671.319,497.876 671.538,497.658 671.807,497.658 L675.019,497.658 C675.289,497.658 675.508,497.876 675.508,498.146 L675.508,499.682 C675.508,499.952 675.289,500.171 675.019,500.171 z" fill="#3F3D56"/>
      <path d="M666.642,500.171 L663.43,500.171 C663.161,500.171 662.942,499.952 662.942,499.682 L662.942,498.146 C662.942,497.876 663.161,497.658 663.43,497.658 L666.642,497.658 C666.912,497.658 667.131,497.876 667.131,498.146 L667.131,499.682 C667.131,499.952 666.912,500.171 666.642,500.171 z" fill="#3F3D56"/>
      <path d="M658.265,500.171 L655.053,500.171 C654.784,500.171 654.565,499.952 654.565,499.682 L654.565,498.146 C654.565,497.876 654.784,497.658 655.053,497.658 L658.265,497.658 C658.535,497.658 658.754,497.876 658.754,498.146 L658.754,499.682 C658.754,499.952 658.535,500.171 658.265,500.171 z" fill="#3F3D56"/>
      <path d="M649.888,500.171 L646.676,500.171 C646.407,500.171 646.188,499.952 646.188,499.682 L646.188,498.146 C646.188,497.876 646.407,497.658 646.676,497.658 L649.888,497.658 C650.158,497.658 650.377,497.876 650.377,498.146 L650.377,499.682 C650.377,499.952 650.158,500.171 649.888,500.171 z" fill="#3F3D56"/>
      <path d="M641.511,500.171 L638.299,500.171 C638.03,500.171 637.811,499.952 637.811,499.682 L637.811,498.146 C637.811,497.876 638.03,497.658 638.299,497.658 L641.511,497.658 C641.781,497.658 642,497.876 642,498.146 L642,499.682 C642,499.952 641.781,500.171 641.511,500.171 z" fill="#3F3D56"/>
      <path d="M633.135,500.171 L629.922,500.171 C629.653,500.171 629.434,499.952 629.434,499.682 L629.434,498.146 C629.434,497.876 629.653,497.658 629.922,497.658 L633.135,497.658 C633.404,497.658 633.623,497.876 633.623,498.146 L633.623,499.682 C633.623,499.952 633.404,500.171 633.135,500.171 z" fill="#3F3D56"/>
      <path d="M624.758,500.171 L621.545,500.171 C621.276,500.171 621.057,499.952 621.057,499.682 L621.057,498.146 C621.057,497.876 621.276,497.658 621.545,497.658 L624.758,497.658 C625.027,497.658 625.246,497.876 625.246,498.146 L625.246,499.682 C625.246,499.952 625.027,500.171 624.758,500.171 z" fill="#3F3D56"/>
      <path d="M616.381,500.171 L613.168,500.171 C612.899,500.171 612.68,499.952 612.68,499.682 L612.68,498.146 C612.68,497.876 612.899,497.658 613.168,497.658 L616.381,497.658 C616.65,497.658 616.869,497.876 616.869,498.146 L616.869,499.682 C616.869,499.952 616.65,500.171 616.381,500.171 z" fill="#3F3D56"/>
      <path d="M608.004,500.171 L604.791,500.171 C604.522,500.171 604.303,499.952 604.303,499.682 L604.303,498.146 C604.303,497.876 604.522,497.658 604.791,497.658 L608.004,497.658 C608.273,497.658 608.492,497.876 608.492,498.146 L608.492,499.682 C608.492,499.952 608.273,500.171 608.004,500.171 z" fill="#3F3D56"/>
      <path d="M599.627,500.171 L596.414,500.171 C596.145,500.171 595.926,499.952 595.926,499.682 L595.926,498.146 C595.926,497.876 596.145,497.658 596.414,497.658 L599.627,497.658 C599.896,497.658 600.115,497.876 600.115,498.146 L600.115,499.682 C600.115,499.952 599.896,500.171 599.627,500.171 z" fill="#3F3D56"/>
      <path d="M591.25,500.171 L588.037,500.171 C587.768,500.171 587.549,499.952 587.549,499.682 L587.549,498.146 C587.549,497.876 587.768,497.658 588.037,497.658 L591.25,497.658 C591.519,497.658 591.738,497.876 591.738,498.146 L591.738,499.682 C591.738,499.952 591.519,500.171 591.25,500.171 z" fill="#3F3D56"/>
      <path d="M582.873,500.171 L579.661,500.171 C579.391,500.171 579.172,499.952 579.172,499.682 L579.172,498.146 C579.172,497.876 579.391,497.658 579.661,497.658 L582.873,497.658 C583.142,497.658 583.361,497.876 583.361,498.146 L583.361,499.682 C583.361,499.952 583.142,500.171 582.873,500.171 z" fill="#3F3D56"/>
      <path d="M574.496,500.171 L571.284,500.171 C571.014,500.171 570.795,499.952 570.795,499.682 L570.795,498.146 C570.795,497.876 571.014,497.658 571.284,497.658 L574.496,497.658 C574.765,497.658 574.984,497.876 574.984,498.146 L574.984,499.682 C574.984,499.952 574.765,500.171 574.496,500.171 z" fill="#3F3D56"/>
      <path d="M566.119,500.171 L562.906,500.171 C562.637,500.171 562.418,499.952 562.418,499.682 L562.418,498.146 C562.418,497.876 562.637,497.658 562.906,497.658 L566.119,497.658 C566.388,497.658 566.607,497.876 566.607,498.146 L566.607,499.682 C566.607,499.952 566.388,500.171 566.119,500.171 z" fill="#3F3D56"/>
      <path d="M651.564,505.197 L619.032,505.197 C618.763,505.197 618.544,504.978 618.544,504.709 L618.544,503.172 C618.544,502.902 618.763,502.684 619.032,502.684 L651.564,502.684 C651.833,502.684 652.052,502.902 652.052,503.172 L652.052,504.709 C652.052,504.978 651.833,505.197 651.564,505.197 z" fill="#3F3D56"/>
      <path d="M581.722,420.489 L584.566,420.489 C585.428,420.489 586.127,421.188 586.127,422.05 L586.127,422.05 C586.127,422.912 585.428,423.611 584.566,423.611 L581.722,423.611 C580.86,423.611 580.161,422.912 580.161,422.05 L580.161,422.05 C580.161,421.188 580.86,420.489 581.722,420.489 z" fill="#FFFFFF"/>
      <path d="M614.245,420.489 L617.089,420.489 C617.951,420.489 618.65,421.188 618.65,422.05 L618.65,422.05 C618.65,422.912 617.951,423.611 617.089,423.611 L614.245,423.611 C613.383,423.611 612.684,422.912 612.684,422.05 L612.684,422.05 C612.684,421.188 613.383,420.489 614.245,420.489 z" fill="#FFFFFF"/>
      <path d="M623.46,420.489 L626.304,420.489 C627.166,420.489 627.865,421.188 627.865,422.05 L627.865,422.05 C627.865,422.912 627.166,423.611 626.304,423.611 L623.46,423.611 C622.598,423.611 621.899,422.912 621.899,422.05 L621.899,422.05 C621.899,421.188 622.598,420.489 623.46,420.489 z" fill="#FFFFFF"/>
      <path d="M590.569,420.229 L608.243,420.229 C609.105,420.229 609.804,420.927 609.804,421.79 L609.804,421.79 C609.804,422.652 609.105,423.351 608.243,423.351 L590.569,423.351 C589.707,423.351 589.008,422.652 589.008,421.79 L589.008,421.79 C589.008,420.927 589.707,420.229 590.569,420.229 z" fill="#FFFFFF"/>
      <path d="M633.933,420.229 L651.607,420.229 C652.469,420.229 653.168,420.927 653.168,421.79 L653.168,421.79 C653.168,422.652 652.469,423.351 651.607,423.351 L633.933,423.351 C633.071,423.351 632.372,422.652 632.372,421.79 L632.372,421.79 C632.372,420.927 633.071,420.229 633.933,420.229 z" fill="#FFFFFF"/>
      <path d="M590.395,427.535 L593.239,427.535 C594.101,427.535 594.8,428.234 594.8,429.097 L594.8,429.097 C594.8,429.959 594.101,430.658 593.239,430.658 L590.395,430.658 C589.533,430.658 588.834,429.959 588.834,429.097 L588.834,429.097 C588.834,428.234 589.533,427.535 590.395,427.535 z" fill="#FFFFFF"/>
      <path d="M622.918,427.535 L625.762,427.535 C626.624,427.535 627.323,428.234 627.323,429.097 L627.323,429.097 C627.323,429.959 626.624,430.658 625.762,430.658 L622.918,430.658 C622.056,430.658 621.357,429.959 621.357,429.097 L621.357,429.097 C621.357,428.234 622.056,427.535 622.918,427.535 z" fill="#FFFFFF"/>
      <path d="M632.133,427.535 L634.977,427.535 C635.839,427.535 636.538,428.234 636.538,429.097 L636.538,429.097 C636.538,429.959 635.839,430.658 634.977,430.658 L632.133,430.658 C631.271,430.658 630.572,429.959 630.572,429.097 L630.572,429.097 C630.572,428.234 631.271,427.535 632.133,427.535 z" fill="#FFFFFF"/>
      <path d="M599.242,427.275 L616.916,427.275 C617.778,427.275 618.477,427.974 618.477,428.836 L618.477,428.836 C618.477,429.698 617.778,430.397 616.916,430.397 L599.242,430.397 C598.379,430.397 597.681,429.698 597.681,428.836 L597.681,428.836 C597.681,427.974 598.379,427.275 599.242,427.275 z" fill="#FFFFFF"/>
      <path d="M642.606,427.275 L660.28,427.275 C661.142,427.275 661.841,427.974 661.841,428.836 L661.841,428.836 C661.841,429.698 661.142,430.397 660.28,430.397 L642.606,430.397 C641.743,430.397 641.045,429.698 641.045,428.836 L641.045,428.836 C641.045,427.974 641.743,427.275 642.606,427.275 z" fill="#FFFFFF"/>
      <path d="M599.068,434.582 L601.912,434.582 C602.774,434.582 603.473,435.281 603.473,436.143 L603.473,436.143 C603.473,437.005 602.774,437.704 601.912,437.704 L599.068,437.704 C598.206,437.704 597.507,437.005 597.507,436.143 L597.507,436.143 C597.507,435.281 598.206,434.582 599.068,434.582 z" fill="#FFFFFF"/>
      <path d="M631.591,434.582 L634.435,434.582 C635.297,434.582 635.996,435.281 635.996,436.143 L635.996,436.143 C635.996,437.005 635.297,437.704 634.435,437.704 L631.591,437.704 C630.729,437.704 630.03,437.005 630.03,436.143 L630.03,436.143 C630.03,435.281 630.729,434.582 631.591,434.582 z" fill="#FFFFFF"/>
      <path d="M640.806,434.582 L643.65,434.582 C644.512,434.582 645.211,435.281 645.211,436.143 L645.211,436.143 C645.211,437.005 644.512,437.704 643.65,437.704 L640.806,437.704 C639.944,437.704 639.245,437.005 639.245,436.143 L639.245,436.143 C639.245,435.281 639.944,434.582 640.806,434.582 z" fill="#FFFFFF"/>
      <path d="M607.914,434.322 L625.588,434.322 C626.451,434.322 627.149,435.021 627.149,435.883 L627.149,435.883 C627.149,436.745 626.451,437.444 625.588,437.444 L607.914,437.444 C607.052,437.444 606.353,436.745 606.353,435.883 L606.353,435.883 C606.353,435.021 607.052,434.322 607.914,434.322 z" fill="#FFFFFF"/>
      <path d="M651.278,434.322 L668.952,434.322 C669.815,434.322 670.513,435.021 670.513,435.883 L670.513,435.883 C670.513,436.745 669.815,437.444 668.952,437.444 L651.278,437.444 C650.416,437.444 649.717,436.745 649.717,435.883 L649.717,435.883 C649.717,435.021 650.416,434.322 651.278,434.322 z" fill="#FFFFFF"/>
      <path d="M607.741,441.629 L610.585,441.629 C611.447,441.629 612.146,442.328 612.146,443.19 L612.146,443.19 C612.146,444.052 611.447,444.751 610.585,444.751 L607.741,444.751 C606.879,444.751 606.18,444.052 606.18,443.19 L606.18,443.19 C606.18,442.328 606.879,441.629 607.741,441.629 z" fill="#FFFFFF"/>
      <path d="M640.264,441.629 L643.108,441.629 C643.97,441.629 644.669,442.328 644.669,443.19 L644.669,443.19 C644.669,444.052 643.97,444.751 643.108,444.751 L640.264,444.751 C639.402,444.751 638.703,444.052 638.703,443.19 L638.703,443.19 C638.703,442.328 639.402,441.629 640.264,441.629 z" fill="#FFFFFF"/>
      <path d="M649.479,441.629 L652.322,441.629 C653.185,441.629 653.883,442.328 653.883,443.19 L653.883,443.19 C653.883,444.052 653.185,444.751 652.322,444.751 L649.479,444.751 C648.617,444.751 647.918,444.052 647.918,443.19 L647.918,443.19 C647.918,442.328 648.617,441.629 649.479,441.629 z" fill="#FFFFFF"/>
      <path d="M616.587,441.368 L634.261,441.368 C635.123,441.368 635.822,442.067 635.822,442.93 L635.822,442.93 C635.822,443.792 635.123,444.491 634.261,444.491 L616.587,444.491 C615.725,444.491 615.026,443.792 615.026,442.93 L615.026,442.93 C615.026,442.067 615.725,441.368 616.587,441.368 z" fill="#FFFFFF"/>
      <path d="M614.245,469.649 L617.089,469.649 C617.951,469.649 618.65,470.348 618.65,471.21 L618.65,471.21 C618.65,472.072 617.951,472.771 617.089,472.771 L614.245,472.771 C613.383,472.771 612.684,472.072 612.684,471.21 L612.684,471.21 C612.684,470.348 613.383,469.649 614.245,469.649 z" fill="#FFFFFF"/>
      <path d="M623.46,469.649 L626.304,469.649 C627.166,469.649 627.865,470.348 627.865,471.21 L627.865,471.21 C627.865,472.072 627.166,472.771 626.304,472.771 L623.46,472.771 C622.598,472.771 621.899,472.072 621.899,471.21 L621.899,471.21 C621.899,470.348 622.598,469.649 623.46,469.649 z" fill="#FFFFFF"/>
      <path d="M633.933,469.91 L651.607,469.91 C652.469,469.91 653.168,470.608 653.168,471.471 L653.168,471.471 C653.168,472.333 652.469,473.032 651.607,473.032 L633.933,473.032 C633.071,473.032 632.372,472.333 632.372,471.471 L632.372,471.471 C632.372,470.608 633.071,469.91 633.933,469.91 z" fill="#FFFFFF"/>
      <path d="M581.722,469.649 L584.566,469.649 C585.428,469.649 586.127,470.348 586.127,471.21 L586.127,471.21 C586.127,472.072 585.428,472.771 584.566,472.771 L581.722,472.771 C580.86,472.771 580.161,472.072 580.161,471.21 L580.161,471.21 C580.161,470.348 580.86,469.649 581.722,469.649 z" fill="#FFFFFF"/>
      <path d="M590.569,469.91 L608.243,469.91 C609.105,469.91 609.804,470.608 609.804,471.471 L609.804,471.471 C609.804,472.333 609.105,473.032 608.243,473.032 L590.569,473.032 C589.707,473.032 589.008,472.333 589.008,471.471 L589.008,471.471 C589.008,470.608 589.707,469.91 590.569,469.91 z" fill="#FFFFFF"/>
      <path d="M590.395,462.603 L593.239,462.603 C594.101,462.603 594.8,463.302 594.8,464.164 L594.8,464.164 C594.8,465.026 594.101,465.725 593.239,465.725 L590.395,465.725 C589.533,465.725 588.834,465.026 588.834,464.164 L588.834,464.164 C588.834,463.302 589.533,462.603 590.395,462.603 z" fill="#FFFFFF"/>
      <path d="M622.918,462.603 L625.762,462.603 C626.624,462.603 627.323,463.302 627.323,464.164 L627.323,464.164 C627.323,465.026 626.624,465.725 625.762,465.725 L622.918,465.725 C622.056,465.725 621.357,465.026 621.357,464.164 L621.357,464.164 C621.357,463.302 622.056,462.603 622.918,462.603 z" fill="#FFFFFF"/>
      <path d="M632.133,462.603 L634.977,462.603 C635.839,462.603 636.538,463.302 636.538,464.164 L636.538,464.164 C636.538,465.026 635.839,465.725 634.977,465.725 L632.133,465.725 C631.271,465.725 630.572,465.026 630.572,464.164 L630.572,464.164 C630.572,463.302 631.271,462.603 632.133,462.603 z" fill="#FFFFFF"/>
      <path d="M599.242,462.863 L616.916,462.863 C617.778,462.863 618.477,463.562 618.477,464.424 L618.477,464.424 C618.477,465.286 617.778,465.985 616.916,465.985 L599.242,465.985 C598.379,465.985 597.681,465.286 597.681,464.424 L597.681,464.424 C597.681,463.562 598.379,462.863 599.242,462.863 z" fill="#FFFFFF"/>
      <path d="M599.068,455.556 L601.912,455.556 C602.774,455.556 603.473,456.255 603.473,457.117 L603.473,457.117 C603.473,457.979 602.774,458.678 601.912,458.678 L599.068,458.678 C598.206,458.678 597.507,457.979 597.507,457.117 L597.507,457.117 C597.507,456.255 598.206,455.556 599.068,455.556 z" fill="#FFFFFF"/>
      <path d="M631.591,455.556 L634.435,455.556 C635.297,455.556 635.996,456.255 635.996,457.117 L635.996,457.117 C635.996,457.979 635.297,458.678 634.435,458.678 L631.591,458.678 C630.729,458.678 630.03,457.979 630.03,457.117 L630.03,457.117 C630.03,456.255 630.729,455.556 631.591,455.556 z" fill="#FFFFFF"/>
      <path d="M640.806,455.556 L643.65,455.556 C644.512,455.556 645.211,456.255 645.211,457.117 L645.211,457.117 C645.211,457.979 644.512,458.678 643.65,458.678 L640.806,458.678 C639.944,458.678 639.245,457.979 639.245,457.117 L639.245,457.117 C639.245,456.255 639.944,455.556 640.806,455.556 z" fill="#FFFFFF"/>
      <path d="M607.914,455.816 L625.588,455.816 C626.451,455.816 627.149,456.515 627.149,457.377 L627.149,457.377 C627.149,458.239 626.451,458.938 625.588,458.938 L607.914,458.938 C607.052,458.938 606.353,458.239 606.353,457.377 L606.353,457.377 C606.353,456.515 607.052,455.816 607.914,455.816 z" fill="#FFFFFF"/>
      <path d="M607.741,448.509 L610.585,448.509 C611.447,448.509 612.146,449.208 612.146,450.07 L612.146,450.07 C612.146,450.932 611.447,451.631 610.585,451.631 L607.741,451.631 C606.879,451.631 606.18,450.932 606.18,450.07 L606.18,450.07 C606.18,449.208 606.879,448.509 607.741,448.509 z" fill="#FFFFFF"/>
      <path d="M640.264,448.509 L643.108,448.509 C643.97,448.509 644.669,449.208 644.669,450.07 L644.669,450.07 C644.669,450.932 643.97,451.631 643.108,451.631 L640.264,451.631 C639.402,451.631 638.703,450.932 638.703,450.07 L638.703,450.07 C638.703,449.208 639.402,448.509 640.264,448.509 z" fill="#FFFFFF"/>
      <path d="M649.479,448.509 L652.322,448.509 C653.185,448.509 653.883,449.208 653.883,450.07 L653.883,450.07 C653.883,450.932 653.185,451.631 652.322,451.631 L649.479,451.631 C648.617,451.631 647.918,450.932 647.918,450.07 L647.918,450.07 C647.918,449.208 648.617,448.509 649.479,448.509 z" fill="#FFFFFF"/>
      <path d="M616.587,448.77 L634.261,448.77 C635.123,448.77 635.822,449.468 635.822,450.331 L635.822,450.331 C635.822,451.193 635.123,451.892 634.261,451.892 L616.587,451.892 C615.725,451.892 615.026,451.193 615.026,450.331 L615.026,450.331 C615.026,449.468 615.725,448.77 616.587,448.77 z" fill="#FFFFFF"/>
    </g>
    <path d="M198.081,651.352 L190.371,638.962 L188.831,646.042 C188.561,647.282 188.291,648.542 188.041,649.792 C185.851,647.922 183.521,646.192 181.241,644.532 Q170.741,636.912 160.251,629.272 L162.441,641.972 C163.791,649.792 165.201,657.772 168.541,664.922 C168.911,665.732 169.311,666.532 169.741,667.312 L202.281,667.312 C202.543,666.588 202.724,665.836 202.821,665.072 C202.829,665.022 202.832,664.972 202.831,664.922 C203.341,660.072 200.661,655.502 198.081,651.352 z" fill="#F0F0F0"/>
    <path d="M59.068,657.701 L70.946,657.7 L76.597,615.919 L59.066,615.92 L59.068,657.701 z" fill="#FFB6B6"/>
    <path d="M58.303,667.312 L94.831,667.311 L94.831,666.89 C94.83,659.729 88.465,653.925 80.613,653.925 L80.612,653.925 L73.94,649.309 L61.491,653.925 L58.302,653.926 z" fill="#2F2E41"/>
    <path d="M78.25,607.151 L87.601,613.83 L120.305,584.117 L106.503,574.259 L78.25,607.151 z" fill="#FFB6B6"/>
    <path d="M70.279,615.811 L99.035,636.351 L99.32,636.02 C104.162,630.383 103.076,622.234 96.895,617.818 L96.895,617.818 L94.764,610.432 L81.841,607.066 L79.331,605.273 z" fill="#2F2E41"/>
    <path d="M134.174,416.784 C134.174,416.784 149.939,431.692 142.933,466.301 L148.815,525.56 L150.333,528.303 C152.189,531.656 151.475,535.717 148.562,538.372 L148.562,538.372 L147.312,541.909 L146.144,548.831 L102.644,608.465 L86.003,592.491 L112.862,536.584 L105.563,522.208 L88.63,472.158 L76.952,563.739 L79.288,642.541 L56.937,642.541 L43.086,554.688 L28.489,431.16 L36.082,416.784 z" fill="#2F2E41"/>
    <path d="M32.129,442.401 L31.97,442.197 C23.462,431.335 36.258,405.236 38.188,401.453 L38.188,401.453 C33.462,400.054 30.477,395.807 31.058,391.308 L31.89,384.859 L32.757,378.534 L26.544,372.869 L26.527,372.728 L22.952,344.201 L17.753,325.255 C13.766,310.671 18.715,295.26 30.701,284.942 L42.716,283.203 L57.319,270.373 L80.868,270.373 L88.942,277.407 C104.015,279.818 106.604,279.031 119.551,293.198 L113.668,337.246 L112.201,343.306 L112.205,351.525 L115.936,355.306 C118.661,358.068 119.796,361.841 118.997,365.484 L118.506,367.721 L118.506,367.721 C122.355,369.225 126.027,395.951 126.904,399.684 L128.215,405.26 C129.336,406.609 136.736,415.607 136.736,418.067 C136.736,418.437 136.437,418.794 135.796,419.19 C130.752,422.304 110.646,444.394 98.308,439.893 C85.167,435.101 32.927,442.289 32.401,442.362 z" fill="#8D30FE"/>
    <path d="M28.965,391.18 C28.965,391.18 35.013,360.015 28.92,348.295 L4.752,349.869 L8.43,394.329 L29.558,443.694 C28.666,447.9 31.234,452.08 35.633,453.582 C40.033,455.085 44.98,453.472 47.338,449.767 C49.696,446.061 48.776,441.345 45.162,438.607 z" fill="#FFB6B6"/>
    <path d="M4.752,331.766 L6.248,316.913 C7.385,305.622 13.413,295.21 22.995,287.985 L22.995,287.985 C29.009,283.485 37.302,282.487 44.391,285.41 L44.391,285.41 C54.135,289.501 58.739,299.775 54.925,308.918 C49.339,322.277 51.356,336.404 40.464,338.126 L41.648,343.26 L30.938,375.13 L0.436,371.908 z" fill="#8D30FE"/>
    <path d="M165.624,376.409 C165.624,376.409 147.921,349.187 134.921,343.924 L117.724,359.49 L152.308,391.008 L203.628,415.868 C205.96,419.587 210.895,421.229 215.305,419.751 C219.716,418.274 222.312,414.11 221.45,409.899 C220.587,405.687 216.517,402.658 211.82,402.732 z" fill="#FFB6B6"/>
    <path d="M104.778,345.766 L95.289,333.616 C88.077,324.38 85.201,312.902 87.299,301.726 L87.299,301.726 C88.639,294.738 94.213,289.05 101.677,287.051 L101.677,287.051 C111.99,284.358 122.827,289.409 126.475,298.608 C131.794,312.057 151.194,334.161 144.169,341.944 L148.737,345.132 L155.641,363.068 L130.213,378.764 z" fill="#8D30FE"/>
    <path d="M93.657,240.327 C93.657,253.497 81.948,264.174 67.504,264.174 C53.061,264.174 41.352,253.497 41.352,240.327 C41.352,227.156 53.061,216.479 67.504,216.479 C81.948,216.479 93.657,227.156 93.657,240.327 z" fill="#FFB6B6"/>
    <path d="M64.649,256.571 L72.25,256.571 C75.564,256.571 78.25,259.257 78.25,262.571 L78.25,269.584 C78.25,272.898 75.564,275.584 72.25,275.584 L64.649,275.584 C61.335,275.584 58.649,272.898 58.649,269.584 L58.649,262.571 C58.649,259.257 61.335,256.571 64.649,256.571 z" fill="#FFB6B6"/>
    <path d="M48.525,257.136 C48.297,256.953 48.081,256.758 47.858,256.571 C47.85,256.59 47.849,256.61 47.84,256.629 z" fill="#2F2E41"/>
    <path d="M88.936,215.143 C87.637,213.236 85.837,211.653 83.699,210.539 C82.238,209.893 80.703,209.397 79.121,209.06 L74.982,208.03 C72.862,207.432 70.68,207.031 68.471,206.834 C62.217,206.553 56.312,209.474 53.161,214.408 C51.911,216.431 50.907,218.951 48.494,219.691 C46.548,220.288 44.425,219.446 42.38,219.609 C39.946,219.931 37.849,221.34 36.79,223.364 C35.771,225.37 35.269,227.562 35.324,229.772 C35.161,239.919 39.715,249.654 47.858,256.571 C48.533,254.948 47.421,253.197 46.543,251.645 C45.653,250.074 45.104,247.885 46.593,246.754 C48.25,245.495 50.906,246.716 52.866,245.895 C54.139,245.228 54.961,244.023 55.055,242.686 C55.244,241.382 55.046,240.057 55.136,238.744 C55.316,236.115 56.64,233.661 58.814,231.927 C60.988,230.193 63.831,229.323 66.712,229.511 C71.173,229.802 75.503,232.582 79.796,231.438 C81.811,230.901 83.53,229.534 85.614,229.304 C87.923,229.05 90.094,230.238 92.054,231.378 C93.493,225.806 92.366,219.938 88.936,215.143 z" fill="#2F2E41"/>
    <path d="M1026.376,669.693 L1.626,670 C0.727,669.998 0,669.466 0,668.81 C0,668.153 0.727,667.621 1.626,667.619 L1026.376,667.312 C1027.274,667.314 1028,667.846 1028,668.502 C1028,669.159 1027.274,669.691 1026.376,669.693 z" fill="#CACACA"/>
    <path d="M255.147,634.989 L245.99,609.897 L244.161,624.235 C243.841,626.746 243.52,629.298 243.223,631.83 C240.622,628.043 237.855,624.539 235.147,621.177 Q222.678,605.745 210.22,590.272 L212.821,615.992 C214.424,631.83 216.098,647.991 220.065,662.472 C220.504,664.112 220.979,665.732 221.49,667.312 L260.135,667.312 C260.446,665.846 260.661,664.323 260.776,662.775 C260.785,662.674 260.789,662.573 260.788,662.472 C261.394,652.649 258.211,643.394 255.147,634.989 z" fill="#F0F0F0"/>
  </g>
</svg>
