<?xml version="1.0" encoding="UTF-8"?>
<!DOCTYPE svg PUBLIC "-//W3C//DTD SVG 1.1//EN" "http://www.w3.org/Graphics/SVG/1.1/DTD/svg11.dtd">
<svg version="1.1" xmlns="http://www.w3.org/2000/svg" xmlns:xlink="http://www.w3.org/1999/xlink" x="0" y="0" width="624" height="624" viewBox="0, 0, 624, 624">
  <g id="Layer_1" opacity="0.082">
    <path d="M143.707,457.854 L143.707,457.854 C150.678,458.367 157.693,458.661 164.657,458.763 C164.759,463.394 164.983,468.096 165.208,472.799 C169.646,547.702 194.531,602.322 232.226,612.41 C268.361,622.087 314.509,589.534 354.222,530.65 C358.15,524.834 361.86,518.974 365.518,512.921 C369.631,515.132 373.743,517.343 377.926,519.432 C445.003,553.015 504.723,558.754 532.325,531.171 C558.755,504.625 553.637,448.435 522.461,384.63 C519.42,378.302 516.089,372.051 512.687,365.923 C519.819,361.631 526.539,357.345 533.04,353.015 C590.67,313.865 621.922,268.222 612.268,232.193 C602.303,195.004 548.749,169.393 476.502,164.422 C470.6,164.037 464.751,163.843 458.902,163.651 C458.751,156.134 458.478,148.546 457.89,140.939 C452.717,71.408 428.811,21.599 392.772,11.896 C355.514,1.898 306.548,35.517 266.25,95.698 C263.08,100.481 259.961,105.458 256.773,110.556 C250.089,106.861 243.456,103.358 236.585,100.127 C173.808,69.842 118.651,65.676 92.292,92.099 C65.121,119.36 69.707,178.591 101.703,243.522 C104.163,248.454 106.771,253.553 109.573,258.599 C106.117,260.768 102.66,262.936 99.3,265.079 C36.783,306.469 1.851,355.377 11.945,393.049 C21.625,429.174 72.915,452.908 143.707,457.854 z M332.141,515.861 C298.132,566.281 260.784,592.646 239.023,586.778 C215.826,580.569 195.475,535.916 191.694,471.188 C191.502,466.996 191.31,462.803 191.215,458.583 C219.286,457.48 247.181,454.561 274.874,449.729 C296.282,467.804 318.95,484.403 342.564,499.505 C339.259,504.947 335.761,510.439 332.141,515.861 z M434.345,344.778 C437.493,332.961 440.326,321.124 442.941,309.243 C455.114,324.927 466.173,340.702 475.893,356.111 C459.832,364.556 442.404,372.539 424.023,380.052 C427.705,368.299 431.196,356.596 434.345,344.778 L434.345,344.778 z M426.764,248.872 C418.534,239.793 410.065,230.985 401.429,222.325 C392.646,213.498 383.624,204.941 374.338,196.559 C374.338,196.559 374.338,196.559 374.338,196.559 L374.338,196.559 C374.338,196.559 374.338,196.559 374.338,196.559 C393.427,193.618 412.679,191.669 431.97,190.641 C431.264,209.258 429.458,228.791 426.764,248.872 z M421.245,282.755 C417.725,301.299 413.547,319.707 408.712,337.981 C403.877,356.255 398.262,374.324 392.06,392.136 C374.554,398.277 356.479,403.844 337.933,408.814 C319.387,413.783 300.853,418.025 282.621,421.46 C268.441,409.109 254.667,396.34 241.272,383.053 C227.877,369.768 214.984,356.037 202.47,341.79 C206.062,323.125 210.336,304.691 215.242,286.294 L215.242,286.294 C220.103,268.116 225.595,249.977 231.577,232.121 C249.014,226.102 267.281,220.482 286.02,215.461 C304.76,210.441 323.074,206.154 340.868,202.629 C355.267,215.024 369.261,227.839 382.707,241.318 C396.103,254.604 409.021,268.431 421.245,282.755 z M189.584,279.4 C186.293,291.463 183.344,303.641 180.712,315.837 C168.474,300.689 156.976,284.824 146.366,268.411 C163.702,259.314 181.588,251.105 199.828,243.837 C196.171,255.687 192.803,267.459 189.584,279.4 z M196.797,375.093 C205.123,384.147 213.714,393.027 222.446,401.66 C231.056,410.224 239.833,418.638 248.751,426.809 C228.979,429.519 209.773,431.249 191.421,431.921 C192.339,412.936 194.081,393.938 196.797,375.093 z M355.683,476.216 L355.683,476.216 C339.573,465.936 323.984,454.894 308.916,443.092 C332.891,437.91 356.557,431.569 379.815,424.094 C372.339,442.559 364.192,460.064 355.683,476.216 z M513.525,512.397 C496.54,529.371 447.681,524.76 389.776,495.655 C386.057,493.753 382.337,491.851 378.566,489.755 C391.684,464.914 403.112,439.178 412.712,412.795 C439.014,403.159 464.657,391.837 489.448,378.879 C492.624,384.55 495.632,390.369 498.571,396.311 L498.571,396.311 C525.324,450.949 529.436,496.434 513.525,512.397 z M458.573,190.242 C463.984,190.345 469.324,190.57 474.594,190.919 C506.553,193.122 534.17,199.595 554.588,209.342 C572.88,218.107 583.805,228.742 586.548,238.98 C592.398,260.81 567.325,297.448 518.017,330.951 C511.806,335.204 505.517,339.167 499.08,342.962 C484.03,319.249 467.494,296.556 449.496,274.979 C454.434,247.049 457.499,218.689 458.573,190.242 z M288.259,110.609 C306.077,83.991 325.596,63.335 344.204,50.481 C360.893,38.97 375.619,34.816 385.903,37.652 C407.76,43.493 426.991,83.582 431.314,142.987 C431.844,149.989 432.181,157.042 432.298,164.05 C404.113,165.495 376.005,168.781 348.223,174.051 C326.5,155.957 303.611,139.314 279.586,124.218 C282.492,119.608 285.327,115.122 288.259,110.609 z M266.757,147.429 C266.757,147.429 266.757,147.429 266.757,147.429 L266.757,147.429 C266.757,147.429 266.757,147.429 266.757,147.429 C282.421,157.208 298.377,168.462 314.451,180.926 C302.827,183.524 291.088,186.462 279.11,189.671 C266.843,192.958 254.847,196.483 243.095,200.15 C250.095,182.227 258.022,164.677 266.757,147.429 z M101.498,153.508 C99.896,133.233 103.628,118.567 111.117,110.97 C127.124,94.982 171.401,98.336 225.032,124.238 C231.219,127.239 237.459,130.433 243.776,133.916 C231,158.874 219.913,184.724 210.559,211.248 C183.845,220.891 157.816,232.318 132.593,245.599 C130.017,241.008 127.66,236.464 125.426,231.99 L125.4,231.893 C111.504,203.212 103.284,176.013 101.498,153.508 z M114.085,287.414 C117.084,285.471 120.181,283.503 123.276,281.534 C138.642,305.266 155.592,327.952 174.072,349.399 C169.196,376.795 166.144,404.427 164.985,432.172 C158.337,432.089 151.928,431.737 145.615,431.357 C84.95,427.115 43.462,407.897 37.638,386.164 C31.427,362.982 59.96,323.035 114.085,287.414 z" fill="#AAAAAA"/>
    <path d="M366.061,321.573 C371.392,291.34 351.276,262.61 321.042,257.279 C290.808,251.948 262.078,272.065 256.748,302.298 C251.417,332.532 271.533,361.262 301.767,366.593 C332.001,371.923 360.748,351.708 366.061,321.573 z" fill="#AAAAAA"/>
  </g>
</svg>
