<?xml version="1.0" encoding="UTF-8"?>
<!DOCTYPE svg PUBLIC "-//W3C//DTD SVG 1.1//EN" "http://www.w3.org/Graphics/SVG/1.1/DTD/svg11.dtd">
<svg version="1.1" xmlns="http://www.w3.org/2000/svg" xmlns:xlink="http://www.w3.org/1999/xlink" x="0" y="0" width="624" height="624" viewBox="0, 0, 624, 624">
  <g id="Layer_1" opacity="0.102">
    <path d="M269.829,93.355 L269.829,93.355 C265.899,99.135 262.137,105.063 258.567,111.043 C254.505,108.816 250.321,106.659 246.136,104.503 C179.049,70.894 119.304,65.135 91.72,92.736 C65.272,119.192 70.39,175.433 101.529,239.268 C104.601,245.578 107.821,251.72 111.234,257.915 C107.263,260.371 103.292,262.827 99.392,265.405 C36.769,306.704 1.939,355.554 12.026,393.249 C21.8,429.411 73.021,453.074 143.866,457.977 C150.867,458.508 157.946,458.748 164.954,458.866 C165.105,467.189 165.457,475.151 165.956,482.946 C171.046,552.43 194.948,602.317 230.977,611.971 C268.166,621.935 317.123,588.362 357.551,528.279 C360.836,523.361 363.928,518.392 367.019,513.423 C373.604,517.051 380.312,520.608 387.194,523.902 C449.996,554.188 505.085,558.389 531.508,532.03 C558.795,504.763 554.163,445.547 522.194,380.558 C519.637,375.421 516.886,370.232 514.065,364.921 C520.607,360.98 526.957,356.988 533.191,352.653 C590.807,313.429 621.993,267.744 612.29,231.705 C602.267,194.544 548.678,168.9 476.448,164.144 C470.947,163.809 465.227,163.518 459.456,163.421 C459.306,159.344 459.156,155.266 458.981,151.285 C454.394,76.448 429.505,21.742 391.833,11.648 C355.708,1.968 309.509,34.52 269.829,93.355 z M125.377,227.54 C98.716,172.877 94.558,127.35 110.52,111.439 C127.495,94.454 176.342,99.156 234.288,128.245 C238.015,130.175 241.742,132.106 245.444,134.133 C232.363,158.995 220.944,184.612 211.282,211.011 C184.925,220.513 159.216,231.845 134.33,244.744 C131.27,239.161 128.262,233.386 125.377,227.54 z M222.437,401.592 C231.097,410.227 239.931,418.599 248.913,426.804 C229.244,429.505 210.053,431.195 191.848,431.908 C192.565,413.776 194.366,394.691 197.05,375.016 C205.387,384.082 213.777,392.956 222.437,401.592 L222.437,401.592 z M309.284,442.98 C321.262,440.392 333.124,437.462 344.942,434.313 C356.978,431.12 368.9,427.585 380.802,423.734 C380.802,423.734 380.802,423.734 380.802,423.734 L380.802,423.734 C380.802,423.734 380.802,423.734 380.802,423.734 C373.804,441.736 365.866,459.383 357.111,476.604 C341.341,466.684 325.328,455.354 309.284,442.98 z M282.7,421.259 C268.401,408.939 254.548,396.116 241.14,382.792 C227.731,369.468 214.891,355.571 202.566,341.294 C206.001,323.062 210.217,304.625 215.186,286.079 C220.156,267.533 225.749,249.362 231.89,231.855 C249.676,225.75 267.622,220.206 285.826,215.249 C304.029,210.291 322.367,205.991 340.962,202.277 C355.331,214.72 369.158,227.639 382.637,241.086 L382.637,241.086 C395.949,254.384 408.912,268.21 421.385,282.319 C417.879,300.429 413.612,319.059 408.591,337.798 C403.569,356.537 398.124,374.541 392.28,391.714 C374.346,397.986 356.251,403.697 337.855,408.603 C319.651,413.561 301.217,417.835 282.7,421.259 z M401.437,222.312 C392.635,213.431 383.563,204.788 374.317,196.41 C393.555,193.386 413.043,191.361 432.562,190.379 C431.772,209.941 429.939,229.535 427.113,248.965 C418.679,239.873 410.168,231.07 401.437,222.312 z M314.957,180.712 C302.953,183.396 290.968,186.396 279.125,189.642 C267.404,192.816 255.728,196.21 244.193,199.848 C251.732,181.37 259.837,163.872 268.431,147.643 C284.413,157.93 299.995,168.938 314.957,180.712 z M147.939,267.75 L147.939,267.75 C164.897,258.939 182.254,250.959 200.009,243.811 C192.509,267.165 186.168,290.831 181.012,314.71 C168.759,299.003 157.673,283.195 147.939,267.75 z M37.685,386.355 C31.477,363.158 59.9,323.151 114.058,287.556 C117.565,285.286 121.072,283.016 124.772,280.798 C139.727,304.579 156.3,327.344 174.349,348.849 C169.543,376.445 166.527,404.314 165.353,432.263 C158.854,432.178 152.31,431.873 145.695,431.447 L145.695,431.447 C85.001,427.297 43.553,408.116 37.685,386.355 z M344.155,499.843 C341.36,504.477 338.495,508.989 335.558,513.379 C317.671,539.955 298.257,560.635 279.606,573.444 C262.87,584.903 248.197,589.047 237.959,586.303 C216.129,580.454 196.936,540.422 192.575,480.968 C191.998,473.463 191.71,466.035 191.642,458.563 C219.703,457.385 247.624,454.411 275.309,449.613 C297.028,467.855 320.056,484.689 344.155,499.843 z M498.276,392.163 C512.419,420.903 520.548,448.135 522.376,470.676 C524.001,490.885 520.235,505.715 512.637,513.204 C496.65,529.212 452.316,525.822 398.708,499.863 C392.38,496.821 386.103,493.586 379.975,490.184 C392.817,465.052 404.025,439.067 413.352,412.372 C439.883,402.606 465.741,391.106 490.827,377.847 C493.366,382.669 495.834,387.367 498.276,392.163 z M477.14,355.131 C477.14,355.131 477.14,355.131 477.14,355.131 L477.14,355.131 C477.14,355.131 477.14,355.131 477.14,355.131 C460.839,363.807 443.115,371.999 424.284,379.687 C427.846,368.322 431.171,356.686 434.381,344.709 C437.668,332.441 440.613,320.29 443.314,308.279 C455.335,323.303 466.57,338.943 477.14,355.131 z M554.505,208.974 C572.865,217.724 583.7,228.289 586.535,238.573 C592.377,260.429 567.334,297.097 518.087,330.592 C512.394,334.45 506.508,338.257 500.333,341.986 C485.107,318.443 468.264,295.916 449.97,274.553 C454.976,246.596 458.095,218.341 459.205,189.857 C464.468,189.922 469.582,190.153 474.574,190.455 L474.671,190.481 C506.457,192.787 534.122,199.268 554.505,208.974 z M432.246,152.921 C432.429,156.49 432.585,160.156 432.742,163.821 C404.507,165.262 376.385,168.598 348.571,173.879 C327.284,155.958 304.88,139.499 281.431,124.623 C284.827,118.907 288.337,113.533 291.822,108.255 C325.829,57.839 363.216,31.518 384.949,37.341 C408.131,43.553 428.459,88.237 432.246,152.921 z" fill="#AAAAAA"/>
    <path d="M365.001,326.222 C372.947,296.568 355.411,266.194 325.757,258.249 C296.103,250.303 265.729,267.839 257.784,297.493 C249.838,327.147 267.374,357.521 297.028,365.467 C326.682,373.412 357.082,355.779 365.001,326.222 z" fill="#AAAAAA"/>
  </g>
</svg>
