<?xml version="1.0" encoding="UTF-8"?>
<!DOCTYPE svg PUBLIC "-//W3C//DTD SVG 1.1//EN" "http://www.w3.org/Graphics/SVG/1.1/DTD/svg11.dtd">
<svg version="1.1" xmlns="http://www.w3.org/2000/svg" xmlns:xlink="http://www.w3.org/1999/xlink" x="0" y="0" width="609" height="418" viewBox="0, 0, 609, 418">
  <defs>
    <linearGradient id="Gradient_1" gradientUnits="userSpaceOnUse" x1="121.977" y1="57.844" x2="2.5" y2="57.844">
      <stop offset="0" stop-color="#5F41DB"/>
      <stop offset="0" stop-color="#AC98FF"/>
      <stop offset="0" stop-color="#AC98FF" stop-opacity="0.8"/>
      <stop offset="1" stop-color="#C16EF1" stop-opacity="0.251"/>
    </linearGradient>
    <linearGradient id="Gradient_2" gradientUnits="userSpaceOnUse" x1="166.5" y1="49.961" x2="30.289" y2="49.961">
      <stop offset="0" stop-color="#5F41DB"/>
      <stop offset="0" stop-color="#AC98FF"/>
      <stop offset="0" stop-color="#AC98FF" stop-opacity="0.8"/>
      <stop offset="1" stop-color="#C16EF1" stop-opacity="0.251"/>
    </linearGradient>
    <linearGradient id="Gradient_3" gradientUnits="userSpaceOnUse" x1="166.5" y1="49.961" x2="30.289" y2="49.961">
      <stop offset="0" stop-color="#5F41DB"/>
      <stop offset="0" stop-color="#AC98FF"/>
      <stop offset="0" stop-color="#AC98FF" stop-opacity="0.8"/>
      <stop offset="1" stop-color="#C16EF1" stop-opacity="0.251"/>
    </linearGradient>
    <linearGradient id="Gradient_4" gradientUnits="userSpaceOnUse" x1="271.5" y1="229.101" x2="606.5" y2="229.101">
      <stop offset="0" stop-color="#5F41DB"/>
      <stop offset="0" stop-color="#AC98FF"/>
      <stop offset="0" stop-color="#AC98FF" stop-opacity="0.8"/>
      <stop offset="0" stop-color="#8C35FF" stop-opacity="0.612"/>
      <stop offset="1" stop-color="#C16EF1" stop-opacity="0.25"/>
    </linearGradient>
    <linearGradient id="Gradient_5" gradientUnits="userSpaceOnUse" x1="79.499" y1="226.101" x2="234.499" y2="226.101">
      <stop offset="0" stop-color="#5F41DB"/>
      <stop offset="0" stop-color="#AC98FF"/>
      <stop offset="0" stop-color="#FBFBFF" stop-opacity="0.8"/>
      <stop offset="0" stop-color="#5F41DB"/>
      <stop offset="0" stop-color="#5F41DB"/>
      <stop offset="0" stop-color="#8C35FF" stop-opacity="0.557"/>
      <stop offset="1" stop-color="#C16EF1" stop-opacity="0.25"/>
    </linearGradient>
    <linearGradient id="Gradient_6" gradientUnits="userSpaceOnUse" x1="30.288" y1="326.909" x2="106.288" y2="326.909">
      <stop offset="0" stop-color="#5F41DB"/>
      <stop offset="0" stop-color="#8C35FF" stop-opacity="0.606"/>
      <stop offset="1" stop-color="#C16EF0" stop-opacity="0.368"/>
    </linearGradient>
    <linearGradient id="Gradient_7" gradientUnits="userSpaceOnUse" x1="NaN" y1="NaN" x2="NaN" y2="NaN">
      <stop offset="0" stop-color="#5F41DB"/>
      <stop offset="0" stop-color="#AC98FF"/>
      <stop offset="0" stop-color="#AC98FF" stop-opacity="0.8"/>
      <stop offset="1" stop-color="#C16EF0" stop-opacity="0.552"/>
      <stop offset="1" stop-color="#8C42B5" stop-opacity="0.452"/>
    </linearGradient>
    <linearGradient id="Gradient_8" gradientUnits="userSpaceOnUse" x1="271.5" y1="229.101" x2="606.5" y2="229.101">
      <stop offset="0" stop-color="#5F41DB"/>
      <stop offset="0" stop-color="#AC98FF"/>
      <stop offset="0" stop-color="#AC98FF" stop-opacity="0.8"/>
      <stop offset="0" stop-color="#9C84FF"/>
      <stop offset="1" stop-color="#BC48FF" stop-opacity="0.25"/>
    </linearGradient>
    <linearGradient id="Gradient_9" gradientUnits="userSpaceOnUse" x1="79.499" y1="266.674" x2="234.499" y2="266.674">
      <stop offset="0" stop-color="#5F41DB"/>
      <stop offset="0" stop-color="#AC98FF"/>
      <stop offset="0" stop-color="#FBFBFF" stop-opacity="0.8"/>
      <stop offset="0" stop-color="#5F41DB"/>
      <stop offset="0" stop-color="#5F41DB"/>
      <stop offset="0" stop-color="#A08AFF"/>
      <stop offset="1" stop-color="#B64CF3" stop-opacity="0.25"/>
    </linearGradient>
    <linearGradient id="Gradient_10" gradientUnits="userSpaceOnUse" x1="30.288" y1="326.909" x2="106.288" y2="326.909">
      <stop offset="0" stop-color="#5F41DB"/>
      <stop offset="0" stop-color="#9F88FF"/>
      <stop offset="1" stop-color="#BA5FEE" stop-opacity="0.441"/>
    </linearGradient>
    <linearGradient id="Gradient_11" gradientUnits="userSpaceOnUse" x1="NaN" y1="NaN" x2="NaN" y2="NaN">
      <stop offset="0" stop-color="#5F41DB"/>
      <stop offset="0" stop-color="#AC98FF"/>
      <stop offset="0" stop-color="#AC98FF" stop-opacity="0.8"/>
      <stop offset="1" stop-color="#C16EF0" stop-opacity="0.552"/>
      <stop offset="1" stop-color="#8C42B5" stop-opacity="0.452"/>
    </linearGradient>
    <linearGradient id="Gradient_12" gradientUnits="userSpaceOnUse" x1="37.473" y1="27.013" x2="181.732" y2="-70.452" gradientTransform="matrix(0.707, 0.707, -0.707, 0.707, 0, 0)">
      <stop offset="0" stop-color="#5F41DB"/>
      <stop offset="0" stop-color="#AC98FF"/>
      <stop offset="0" stop-color="#FBFBFF" stop-opacity="0.8"/>
      <stop offset="0" stop-color="#5F41DB"/>
      <stop offset="0" stop-color="#8D73FA"/>
      <stop offset="1" stop-color="#B85CED" stop-opacity="0.409"/>
    </linearGradient>
    <linearGradient id="Gradient_13" gradientUnits="userSpaceOnUse" x1="372.478" y1="325.781" x2="418.635" y2="325.781">
      <stop offset="0" stop-color="#5F41DB"/>
      <stop offset="0" stop-color="#AC98FF"/>
      <stop offset="0" stop-color="#AC98FF" stop-opacity="0.475"/>
      <stop offset="1" stop-color="#C16EF1" stop-opacity="0.251"/>
    </linearGradient>
    <clipPath id="Clip_1">
      <path d="M301.817,246.732 L366.476,246.732 L366.476,396.512 L301.817,396.512 z"/>
    </clipPath>
    <clipPath id="Clip_2">
      <path d="M427.467,251.632 L510.196,251.632 L510.196,411.713 L427.467,411.713 z"/>
    </clipPath>
    <linearGradient id="Gradient_14" gradientUnits="userSpaceOnUse" x1="372.478" y1="325.781" x2="418.635" y2="325.781">
      <stop offset="0" stop-color="#5F41DB"/>
      <stop offset="0" stop-color="#AC98FF"/>
      <stop offset="0" stop-color="#AC98FF" stop-opacity="0.475"/>
      <stop offset="1" stop-color="#C16EF1" stop-opacity="0.251"/>
    </linearGradient>
    <clipPath id="Clip_3">
      <path d="M301.817,246.732 L366.476,246.732 L366.476,396.512 L301.817,396.512 z"/>
    </clipPath>
    <clipPath id="Clip_4">
      <path d="M427.467,251.632 L510.196,251.632 L510.196,411.713 L427.467,411.713 z"/>
    </clipPath>
  </defs>
  <g id="Layer_3" display="none">
    <path d="M-18,-8 L694,-8 L694,480 L-18,480 L-18,-8 z" fill="#383838"/>
  </g>
  <g id="Layer_1" opacity="0.697">
    <path d="M606.5,91.738 L606.5,366.462 L271.501,325.008 L271.501,121.462 L606.5,91.738 z M513.5,121.253 L487.501,123.095 L487.501,148.292 L513.5,147.008 L513.5,121.253 z M547.5,118.844 L521.5,120.686 L521.5,146.612 L547.5,145.327 L547.5,118.844 z M583.5,116.293 L557.5,118.135 L557.5,144.834 L583.5,143.549 L583.5,116.293 z" fill="#FFFFFF"/>
    <path d="M30.289,241.65 L30.289,414.409 L106.288,401.186 L106.288,239.409 z M40.288,251.409 L97.288,249.149 L97.288,263.659 L40.288,267.439 z" fill="#FFFFFF" fill-opacity="0.821"/>
    <path d="M30.289,241.65 L30.289,414.409 L106.288,401.186 L106.288,239.409 z M40.288,251.409 L97.288,249.149 L97.288,263.659 L40.288,267.439 z" fill="#FFFFFF"/>
    <path d="M330.499,169.257" fill="#FFFFFF"/>
    <path d="M92.473,3.817 L126.54,98.071 L154.57,74.288 L110.402,31.252 L121.137,20.362 L182.289,78.789 L133.465,117.727 L135.283,122.79 L116.631,119.589 L84.07,27.571 L56.323,55.318 L101.486,92.975 L90.643,103.08 L30.289,54.987 L79.413,8.796 L77.524,3.591 L92.473,3.817 z" fill="#FFFFFF"/>
    <path d="M79.499,145.317 L234.499,163.543 L234.499,363.959 L79.499,388.03 L79.499,145.317 z M141.852,164.416 L141.852,178.306 L158.12,179.087 L158.12,165.587 L141.852,164.416 z M118.736,162.751 L118.736,177.197 L135.004,177.978 L135.004,163.923 L118.736,162.751 z M95.62,161.087 L95.62,176.087 L111.888,176.868 L111.888,162.258 L95.62,161.087 z" fill="#FFFFFF"/>
  </g>
  <g id="Layer_2" display="none">
    <path d="M29.549,30.973 C26.498,37.96 26.569,44.948 25.949,44.74 L25.949,44.74 C15.883,41.378 3.065,50.728 2.525,63.825 L2.525,63.825 C1.985,76.897 10.194,84.263 25.806,87.41 L25.806,87.41 L103.39,98.332 C112.273,99.735 121.256,91.367 121.929,82.376 L121.929,82.376 C122.553,72.621 117.072,65.134 108.796,63.069 L108.796,63.069 C109.021,59.992 108.711,54.789 107.28,51.977 L107.28,51.977 C103.393,44.925 95.323,40.779 87.781,42.569 L87.781,42.569 C82.428,33.183 81.52,24.252 62.066,18.622 L62.066,18.622 L60.82,18.296 C57.296,17.541 54.14,17.201 51.315,17.201 L51.315,17.201 C38.594,17.2 32.556,24.087 29.549,30.973 z" fill="url(#Gradient_1)"/>
    <path d="M61.065,18.131 C57.649,25.517 57.725,32.901 57.022,32.666 L57.022,32.666 C45.545,28.833 30.933,39.493 30.317,54.424 L30.317,54.424 C29.702,69.328 39.059,77.725 56.857,81.312 L56.857,81.312 L145.308,96.155 C155.436,97.755 165.678,88.216 166.445,77.964 L166.445,77.964 C167.156,66.842 160.907,58.307 151.471,55.952 L151.471,55.952 C151.73,52.445 151.374,46.514 149.745,43.306 L149.745,43.306 C145.313,35.268 136.112,30.539 127.513,32.581 L127.513,32.581 C121.413,21.882 120.377,11.698 98.197,5.279 L98.197,5.279 L96.776,4.909 C92.525,3.998 88.745,3.591 85.384,3.591 L85.384,3.591 C71.177,3.591 64.429,10.861 61.065,18.131 z" fill="url(#Gradient_2)"/>
    <path d="M61.065,18.131 C57.649,25.517 57.725,32.901 57.022,32.666 L57.022,32.666 C45.545,28.833 30.933,39.493 30.317,54.424 L30.317,54.424 C29.702,69.328 39.059,77.725 56.857,81.312 L56.857,81.312 L145.308,96.155 C155.436,97.755 165.678,88.216 166.445,77.964 L166.445,77.964 C167.156,66.842 160.907,58.307 151.471,55.952 L151.471,55.952 C151.73,52.445 151.374,46.514 149.745,43.306 L149.745,43.306 C145.313,35.268 136.112,30.539 127.513,32.581 L127.513,32.581 C121.413,21.882 120.377,11.698 98.197,5.279 L98.197,5.279 L96.776,4.909 C92.525,3.998 88.745,3.591 85.384,3.591 L85.384,3.591 C71.177,3.591 64.429,10.861 61.065,18.131 z" fill="url(#Gradient_3)"/>
    <path d="M606.5,91.738 L606.5,366.462 L271.501,325.008 L271.501,121.462 L606.5,91.738 z M513.5,121.253 L487.501,123.095 L487.501,148.292 L513.5,147.008 L513.5,121.253 z M547.5,118.844 L521.5,120.686 L521.5,146.612 L547.5,145.327 L547.5,118.844 z M583.5,116.293 L557.5,118.135 L557.5,144.834 L583.5,143.549 L583.5,116.293 z" fill="url(#Gradient_4)"/>
    <path d="M79.499,98.487 L234.499,116.713 L234.499,332.976 L79.499,353.714 L79.499,98.487 z M141.852,121.586 L141.852,135.476 L158.12,136.257 L158.12,122.757 L141.852,121.586 z M118.736,119.921 L118.736,134.367 L135.004,135.148 L135.004,121.093 L118.736,119.921 z M95.62,118.257 L95.62,133.257 L111.888,134.038 L111.888,119.428 L95.62,118.257 z" fill="url(#Gradient_5)"/>
    <path d="M30.289,241.65 L30.289,414.409 L106.288,401.186 L106.288,239.409 z M40.288,251.409 L97.288,249.149 L97.288,263.659 L40.288,267.439 z" fill="#FFFFFF" fill-opacity="0.821"/>
    <path d="M30.289,241.65 L30.289,414.409 L106.288,401.186 L106.288,239.409 z M40.288,251.409 L97.288,249.149 L97.288,263.659 L40.288,267.439 z" fill="url(#Gradient_6)"/>
    <path d="M330.499,169.257" fill="url(#Gradient_7)"/>
    <path d="M297.917,353.106 L439.005,382.486 L341.884,411.801 L328.134,393.988 L371.409,383.539 L309.792,369.731 L297.917,353.106 z" fill="#C16EF1" fill-opacity="0.48"/>
    <path d="M252.917,353.106 L257.792,369.731 L217.409,376.872 L263.376,389.988 L269.417,408.988 L149.255,375.236 L252.917,353.106 z" fill="#8C35FF" fill-opacity="0.61"/>
    <path d="M264.178,346.979 L280.928,346.979 L323.7,417.555 L293.367,417.555 L264.178,346.979 z" fill="#8C35FF" fill-opacity="0.513"/>
  </g>
  <g id="Layer_2">
    <path d="M606.5,91.738 L606.5,366.462 L271.501,325.008 L271.501,121.462 L606.5,91.738 z M513.5,121.253 L487.501,123.095 L487.501,148.292 L513.5,147.008 L513.5,121.253 z M547.5,118.844 L521.5,120.686 L521.5,146.612 L547.5,145.327 L547.5,118.844 z M583.5,116.293 L557.5,118.135 L557.5,144.834 L583.5,143.549 L583.5,116.293 z" fill="url(#Gradient_8)"/>
    <path d="M79.499,145.317 L234.499,163.543 L234.499,363.959 L79.499,388.03 L79.499,145.317 z M141.852,164.416 L141.852,178.306 L158.12,179.087 L158.12,165.587 L141.852,164.416 z M118.736,162.751 L118.736,177.197 L135.004,177.978 L135.004,163.923 L118.736,162.751 z M95.62,161.087 L95.62,176.087 L111.888,176.868 L111.888,162.258 L95.62,161.087 z" fill="url(#Gradient_9)"/>
    <path d="M30.289,241.65 L30.289,414.409 L106.288,401.186 L106.288,239.409 z M40.288,251.409 L97.288,249.149 L97.288,263.659 L40.288,267.439 z" fill="#FFFFFF" fill-opacity="0.546"/>
    <path d="M30.289,241.65 L30.289,414.409 L106.288,401.186 L106.288,239.409 z M40.288,251.409 L97.288,249.149 L97.288,263.659 L40.288,267.439 z" fill="url(#Gradient_10)"/>
    <path d="M330.499,169.257" fill="url(#Gradient_11)"/>
    <path d="M92.473,3.817 L126.54,98.071 L154.57,74.288 L110.402,31.252 L121.137,20.362 L182.289,78.789 L133.465,117.727 L135.283,122.79 L116.631,119.589 L84.07,27.571 L56.323,55.318 L101.486,92.975 L90.643,103.08 L30.289,54.987 L79.413,8.796 L77.524,3.591 L92.473,3.817 z" fill="url(#Gradient_12)"/>
  </g>
  <g id="Layer_5" display="none">
    <g>
      <path d="M372.478,401.074 L392.014,409.453 L418.635,247.701 L398.136,242.105 z" fill="url(#Gradient_13)"/>
      <g clip-path="url(#Clip_1)" opacity="0.84">
        <path d="M352.419,246.732 L366.476,263.881 L325.565,318.854 L366.476,382.26 L352.419,396.513 L302.409,317.276 L301.816,316.475 L301.863,316.412 L301.818,316.341 L302.386,315.692 z" fill="#8C35FF" fill-opacity="0.29"/>
      </g>
      <g clip-path="url(#Clip_2)" opacity="0.434">
        <path d="M451.555,411.713 L434.884,390.074 L478.72,337.581 L427.467,266.954 L441.781,251.632 L509.308,342.596 L510.189,343.633 L510.129,343.702 L510.197,343.792 L509.461,344.478 z" fill="#C16EF0" fill-opacity="0.788"/>
      </g>
    </g>
    <g>
      <path d="M372.478,401.074 L392.014,409.453 L418.635,247.701 L398.136,242.105 z" fill="url(#Gradient_14)"/>
      <g clip-path="url(#Clip_3)" opacity="0.84">
        <path d="M352.419,246.732 L366.476,263.881 L325.565,318.854 L366.476,382.26 L352.419,396.513 L302.409,317.276 L301.816,316.475 L301.863,316.412 L301.818,316.341 L302.386,315.692 z" fill="#8C35FF" fill-opacity="0.29"/>
      </g>
      <g clip-path="url(#Clip_4)" opacity="0.434">
        <path d="M451.555,411.713 L434.884,390.074 L478.72,337.581 L427.467,266.954 L441.781,251.632 L509.308,342.596 L510.189,343.633 L510.129,343.702 L510.197,343.792 L509.461,344.478 z" fill="#C16EF0" fill-opacity="0.788"/>
      </g>
    </g>
  </g>
  <g id="Layer_5" display="none" opacity="0.543">
    <path d="M605.21,366.407 L484.674,400.124 L274.79,357.979 L403.756,337.748 L403.756,218.897 L403.773,218.957 L605.21,219.741 L605.21,366.407 z" fill="#7E7E7E" fill-opacity="0.522"/>
    <path d="M354.023,114.377 L0,69.649 L0,382.422 L155.095,360.126 L155.095,415.296 L239.387,398.541 L239.387,348.007 L354.023,331.525 L354.023,114.377 z" fill="#7E7E7E" fill-opacity="0.522"/>
    <path d="M11.598,341.489 L342.425,305.456" fill="#7E7E7E" fill-opacity="0.522"/>
    <path d="M416.022,339.111 L590.523,365.308" fill="#7E7E7E" fill-opacity="0.522"/>
    <path d="M551.062,16.169 C600.53,5.112 597.757,55.296 599.662,54.631 C613.691,49.741 631.555,63.341 632.309,82.388 C633.061,101.401 621.621,112.115 599.861,116.693 L491.73,132.578 C479.35,134.618 466.83,122.448 465.892,109.372 C465.022,95.182 472.662,84.294 484.196,81.29 C483.882,76.815 484.315,69.248 486.308,65.157 C491.726,54.901 502.974,48.87 513.486,51.474 C520.944,37.823 522.211,24.832 549.325,16.644 L551.062,16.169 z" fill="#7E7E7E" fill-opacity="0.522" id="Layer_2"/>
    <g id="Layer_2">
      <path d="M500.948,-3.301 C557.345,-15.907 554.183,37.829 556.355,37.071 C572.35,31.495 592.715,47 593.574,68.716 C594.431,90.393 581.391,102.606 556.584,107.823 L433.307,129.412 C419.192,131.739 404.918,117.863 403.85,102.954 C402.858,86.778 411.568,74.364 424.719,70.94 C424.358,65.838 424.854,57.212 427.125,52.546 C433.301,40.854 446.125,33.978 458.109,36.947 C466.612,21.386 468.056,6.573 498.968,-2.762 L500.948,-3.301 z" fill="#7E7E7E" fill-opacity="0.522"/>
      <path d="M500.948,-3.301 C557.345,-15.907 554.183,37.829 556.355,37.071 C572.35,31.495 592.715,47 593.574,68.716 C594.431,90.393 581.391,102.606 556.584,107.823 L433.307,129.412 C419.192,131.739 404.918,117.863 403.85,102.954 C402.858,86.778 411.568,74.364 424.719,70.94 C424.358,65.838 424.854,57.212 427.125,52.546 C433.301,40.854 446.125,33.978 458.109,36.947 C466.612,21.386 468.056,6.573 498.968,-2.762 L500.948,-3.301 z" fill="#7E7E7E" fill-opacity="0.522"/>
    </g>
  </g>
</svg>
