<?xml version="1.0" encoding="UTF-8"?>
<!DOCTYPE svg PUBLIC "-//W3C//DTD SVG 1.1//EN" "http://www.w3.org/Graphics/SVG/1.1/DTD/svg11.dtd">
<svg version="1.1" xmlns="http://www.w3.org/2000/svg" xmlns:xlink="http://www.w3.org/1999/xlink" x="0" y="0" width="1028" height="669.03" viewBox="0, 0, 1028, 669.03">
  <g id="Layer_2">
    <path d="M1008.436,215.929 C1003.771,215.955 999.732,217.075 996.345,218.743 C995.094,216.268 993.843,214.104 993.635,212.489 C993.4,210.613 993.114,209.466 993.4,207.225 C993.687,204.984 994.99,201.805 994.99,201.544 C994.963,201.31 994.703,200.163 992.019,200.137 C989.335,200.111 987.016,200.658 986.755,201.362 C986.494,202.065 985.973,203.681 985.635,205.349 C985.165,207.798 980.266,216.476 977.478,221.036 C976.566,219.264 975.784,217.701 975.628,216.45 C975.393,214.574 975.107,213.427 975.393,211.186 C975.68,208.945 976.983,205.766 976.983,205.505 C976.957,205.271 976.696,204.124 974.013,204.098 C971.328,204.072 969.009,204.619 968.749,205.323 C968.488,206.026 968.201,207.694 967.628,209.31 C967.081,210.925 960.566,225.414 958.872,229.192 C958.012,231.121 957.257,232.658 956.709,233.701 C956.162,234.743 956.683,233.779 956.631,233.883 C956.162,234.769 955.901,235.264 955.901,235.264 L955.901,235.29 C955.537,235.942 955.146,236.567 954.963,236.567 C954.833,236.567 954.572,234.821 955.015,232.424 C955.979,227.394 958.325,219.551 958.299,219.264 C958.299,219.134 958.742,217.753 956.787,217.049 C954.885,216.346 954.208,217.518 954.051,217.518 C953.895,217.518 953.764,217.935 953.764,217.935 C953.764,217.935 955.875,209.102 949.725,209.102 C945.869,209.102 940.553,213.297 937.921,217.128 C936.253,218.04 932.709,219.968 928.957,222.027 C927.523,222.809 926.038,223.643 924.631,224.398 L924.344,224.085 C916.892,216.137 903.107,210.508 903.68,199.824 C903.888,195.942 905.243,185.701 930.156,173.297 C950.56,163.134 966.899,165.922 969.739,172.124 C973.778,180.984 961.009,197.453 939.797,199.824 C931.719,200.736 927.471,197.609 926.403,196.437 C925.283,195.212 925.126,195.16 924.71,195.394 C924.032,195.759 924.449,196.854 924.71,197.505 C925.335,199.147 927.941,202.065 932.371,203.525 C936.253,204.802 945.739,205.505 957.205,201.075 C970.052,196.098 980.084,182.287 977.14,170.743 C974.143,158.99 954.651,155.134 936.227,161.674 C925.256,165.583 913.374,171.681 904.826,179.681 C894.664,189.166 893.048,197.453 893.725,200.893 C896.097,213.166 913.009,221.166 919.784,227.082 C919.445,227.264 919.133,227.446 918.846,227.603 C915.458,229.27 902.559,236.02 899.328,243.16 C895.68,251.238 899.901,257.049 902.716,257.831 C911.419,260.254 920.331,255.903 925.152,248.737 C929.947,241.57 929.374,232.267 927.159,228.02 L927.08,227.863 L929.738,226.3 C931.458,225.284 933.152,224.346 934.637,223.537 C933.804,225.805 933.204,228.489 932.892,232.397 C932.527,236.984 934.403,242.925 936.879,245.27 C937.973,246.286 939.276,246.313 940.084,246.313 C942.95,246.313 944.253,243.941 945.687,241.101 C947.458,237.635 949.022,233.622 949.022,233.622 C949.022,233.622 947.068,244.489 952.41,244.489 C954.364,244.489 956.318,241.961 957.204,240.658 L957.204,240.684 C957.204,240.684 957.257,240.606 957.361,240.424 C957.47,240.262 957.574,240.097 957.674,239.929 L957.674,239.877 C958.455,238.522 960.201,235.421 962.807,230.287 C966.168,223.668 969.4,215.381 969.4,215.381 C969.4,215.381 969.713,217.414 970.677,220.749 C971.25,222.73 972.501,224.893 973.465,227.004 C972.683,228.098 972.214,228.724 972.214,228.724 L972.24,228.75 C971.615,229.584 970.911,230.47 970.182,231.356 C967.524,234.535 964.345,238.157 963.928,239.2 C963.432,240.424 963.537,241.336 964.501,242.066 C965.204,242.587 966.455,242.691 967.784,242.587 C970.182,242.431 971.849,241.831 972.683,241.466 C973.986,240.997 975.472,240.294 976.905,239.251 C979.511,237.323 981.1,234.587 980.944,230.939 C980.866,228.932 980.214,226.952 979.406,225.076 C979.641,224.737 979.876,224.398 980.11,224.033 C984.227,218.014 987.406,211.395 987.406,211.395 C987.406,211.395 987.719,213.427 988.683,216.763 C989.178,218.457 990.169,220.307 991.055,222.131 C987.198,225.284 984.775,228.933 983.941,231.33 C982.403,235.76 983.602,237.767 985.869,238.236 C986.885,238.444 988.345,237.975 989.439,237.506 C990.794,237.063 992.436,236.307 993.947,235.187 C996.553,233.258 999.055,230.574 998.924,226.952 C998.846,225.284 998.403,223.643 997.804,222.079 C1001.087,220.724 1005.335,219.942 1010.729,220.594 C1022.325,221.949 1024.618,229.193 1024.176,232.216 C1023.733,235.239 1021.309,236.907 1020.501,237.428 C1019.693,237.923 1019.433,238.106 1019.511,238.47 C1019.615,239.018 1019.98,238.991 1020.683,238.887 C1021.648,238.731 1026.781,236.412 1026.99,230.835 C1027.302,223.668 1020.501,215.851 1008.436,215.929 z M919.002,246.079 C915.172,250.274 909.778,251.864 907.484,250.509 C905.009,249.075 905.973,242.899 910.69,238.443 C913.556,235.733 917.283,233.232 919.732,231.694 C920.279,231.355 921.113,230.861 922.103,230.261 C922.26,230.157 922.364,230.105 922.364,230.105 C922.546,230 922.755,229.87 922.963,229.74 C924.709,236.098 923.042,241.675 919.002,246.079 z M947.016,227.03 C945.687,230.287 942.872,238.652 941.178,238.183 C939.719,237.792 938.833,231.46 940.891,225.206 C941.934,222.052 944.149,218.3 945.452,216.84 C947.563,214.495 949.856,213.713 950.429,214.678 C951.107,215.929 947.849,224.997 947.016,227.03 z M970.13,238.079 C969.556,238.365 969.035,238.574 968.801,238.418 C968.618,238.313 969.035,237.922 969.035,237.922 C969.035,237.922 971.927,234.821 973.074,233.388 C973.725,232.555 974.507,231.59 975.341,230.496 L975.341,230.808 C975.341,234.561 971.745,237.062 970.13,238.079 z M987.953,234.013 C987.536,233.701 987.589,232.736 988.996,229.714 C989.543,228.515 990.794,226.508 992.957,224.606 C993.217,225.388 993.374,226.143 993.348,226.847 C993.322,231.538 989.986,233.284 987.953,234.013 z" fill="#E6E6E6" id="sass-1"/>
    <g>
      <path d="M773.593,350.91 L765.569,260.906 L853.744,260.906 L845.71,350.895 L809.602,360.906 L773.593,350.91" fill="#E6E6E6"/>
      <path d="M809.658,301.646 L795.052,301.646 L794.043,290.342 L809.658,290.342 L809.658,279.304 L781.979,279.304 L784.956,312.685 L809.658,312.685 L809.658,301.646" fill="#FFFFFF"/>
      <path d="M809.658,330.314 L809.61,330.327 L797.316,327.008 L796.53,318.204 L785.449,318.204 L786.996,335.536 L809.608,341.813 L809.658,341.799 L809.658,330.314" fill="#FFFFFF"/>
      <path d="M809.62,301.646 L809.62,312.685 L823.213,312.685 L821.932,327.001 L809.62,330.324 L809.62,341.808 L832.25,335.536 L835.01,304.61 L835.279,301.646 L809.62,301.646" fill="#FFFFFF"/>
      <path d="M809.62,279.304 L809.62,290.343 L836.283,290.343 L836.505,287.861 L837.008,282.265 L837.272,279.304 L809.62,279.304" fill="#FFFFFF"/>
    </g>
    <g>
      <path d="M820.2,126.763 C820.2,132.587 815.479,137.307 809.656,137.307 C803.833,137.307 799.113,132.587 799.113,126.763 C799.113,120.94 803.833,116.22 809.656,116.22 C815.479,116.22 820.2,120.94 820.2,126.763 z" fill="#E6E6E6"/>
      <g>
        <path d="M809.657,105.228 C823.813,105.228 836.964,107.26 846.88,110.673 C858.827,114.786 866.172,121.021 866.172,126.666 C866.172,132.549 858.388,139.172 845.558,143.422 C835.859,146.636 823.095,148.314 809.657,148.314 C795.88,148.314 782.833,146.739 773.024,143.387 C760.615,139.145 753.14,132.437 753.14,126.666 C753.14,121.067 760.153,114.88 771.932,110.774 C781.885,107.304 795.361,105.228 809.655,105.228 z" fill-opacity="0" stroke="#E6E6E6" stroke-width="6"/>
        <path d="M790.995,116.009 C798.067,103.746 806.397,93.368 814.307,86.484 C823.839,78.19 832.909,74.941 837.799,77.761 C842.895,80.7 844.744,90.752 842.017,103.989 C839.957,113.997 835.032,125.892 828.318,137.533 C821.435,149.468 813.554,159.983 805.751,166.804 C795.877,175.435 786.331,178.559 781.332,175.676 C776.481,172.88 774.626,163.713 776.953,151.457 C778.92,141.102 783.854,128.392 790.993,116.009 z" fill-opacity="0" stroke="#E6E6E6" stroke-width="6"/>
        <path d="M791.013,137.564 C783.921,125.315 779.092,112.914 777.076,102.622 C774.65,90.222 776.366,80.741 781.251,77.913 C786.342,74.966 795.975,78.385 806.081,87.358 C813.722,94.143 821.568,104.348 828.301,115.978 C835.204,127.901 840.377,139.981 842.39,150.148 C844.936,163.013 842.875,172.843 837.881,175.734 C833.035,178.539 824.167,175.569 814.712,167.432 C806.723,160.558 798.175,149.935 791.013,137.564 z" fill-opacity="0" stroke="#E6E6E6" stroke-width="6"/>
      </g>
    </g>
    <path d="M1010.175,0 L1010.175,100 L910.175,100 L910.175,0 L1010.175,0 z M986.279,45.372 C977.888,45.372 972.518,50.743 972.518,57.791 C972.518,65.444 977.016,69.068 983.796,71.954 L986.144,72.962 C990.441,74.841 992.991,75.982 992.991,79.204 C992.991,81.889 990.508,83.836 986.614,83.836 C981.983,83.836 979.365,81.42 977.351,78.13 L969.699,82.56 L969.699,82.56 C972.451,87.998 978.09,92.159 986.816,92.159 C995.744,92.159 1002.389,87.528 1002.389,79.07 C1002.389,71.216 997.891,67.726 989.903,64.302 L987.554,63.296 C983.527,61.55 981.782,60.409 981.781,57.589 C981.782,55.308 983.527,53.562 986.279,53.562 C988.964,53.562 990.709,54.703 992.32,57.589 L999.637,52.891 C996.549,47.454 992.253,45.372 986.279,45.372 z M964.595,45.91 L955.197,45.91 L955.197,77.862 C955.197,82.561 953.25,83.768 950.162,83.768 C946.941,83.768 945.598,81.554 944.122,78.936 L936.469,83.567 C939.333,89.484 944.134,91.948 950.565,92.159 C958.889,92.159 964.595,87.728 964.595,77.995 L964.595,45.91 z M936.469,83.567 L936.469,83.567 L936.469,83.567 L936.469,83.567 z" fill="#E6E6E6"/>
  </g>
  <g id="Layer_1">
    <path d="M243.928,669.03 L243.274,668.787 C221.131,660.435 203.783,642.766 195.839,620.474 C193.686,614.278 192.322,607.837 191.779,601.3 L191.726,600.677 L192.342,600.787 C199.696,602.107 207.415,602.836 210.855,603.121 L191.558,590.353 L191.593,589.689 C191.894,583.456 195.956,578.032 201.854,575.991 C207.808,573.793 214.501,575.437 218.758,580.145 C220.676,582.227 222.705,584.323 224.666,586.351 C231.405,593.316 238.374,600.519 242.781,609.022 C249.409,622.123 249.768,637.516 243.76,650.912 z" fill="#F2F2F2"/>
    <path d="M634.365,656.657 L634.357,656.588 C633.504,637.649 630.029,618.92 624.031,600.936 L624.026,600.907 C623.676,599.06 623.778,597.155 624.322,595.356 C625.997,590.199 631.192,587.042 636.541,587.93 C642.066,588.968 647.781,587.993 652.648,585.18 C655.74,583.387 659.491,583.138 662.792,584.509 C665.905,585.777 668.234,588.444 669.07,591.7 C669.136,591.956 669.193,592.214 669.242,592.477 C669.418,611.505 672.913,630.356 679.57,648.182 L679.574,648.205 C680.271,651.886 679.16,655.678 676.586,658.401 C674.312,660.709 671.125,661.88 667.898,661.593 C662.103,661.198 656.144,662.374 649.679,665.188 C647.421,666.193 644.882,666.371 642.506,665.692 C638.303,664.46 635.154,660.965 634.365,656.657 z" fill="#8D30FE"/>
    <path d="M275.22,394.418 L275.22,643.118 L449.451,643.118 L449.451,394.418 C449.457,390.746 447.067,387.5 443.558,386.416 C442.753,386.15 441.909,386.019 441.061,386.028 L283.635,386.028 C278.993,386.019 275.225,389.777 275.22,394.418 z M343.215,479.872 C343.309,469.667 351.609,461.444 361.814,461.444 C372.02,461.444 380.319,469.667 380.413,479.872 L380.413,508.729 C380.365,518.967 372.052,527.24 361.814,527.24 C351.577,527.24 343.264,518.967 343.215,508.729 z" fill="#F2F2F2"/>
    <path d="M274.687,635.165 L274.687,659.147 C274.695,661.733 276.782,663.83 279.367,663.852 L445.304,663.852 C447.893,663.839 449.985,661.736 449.985,659.147 L449.985,635.165 z" fill="#E6E6E6"/>
    <path d="M1.283,21.8 L1.283,475.892 C1.292,487.941 11.058,497.706 23.107,497.716 L696.024,497.716 C708.073,497.706 717.839,487.941 717.848,475.892 L717.848,21.8 C717.82,9.763 708.062,0.015 696.024,-0 L23.107,-0 C11.07,0.015 1.312,9.763 1.283,21.8 z" fill="#E6E6E6"/>
    <path d="M690.41,15.762 L28.721,15.762 C22.276,15.776 17.058,21.005 17.057,27.45 L17.057,470.29 C17.068,476.727 22.284,481.943 28.721,481.954 L690.41,481.954 C696.848,481.943 702.063,476.727 702.074,470.29 L702.074,27.45 C702.074,21.005 696.856,15.776 690.41,15.762 z M523.497,330.38 C521.519,334.287 517.508,336.746 513.129,336.736 L513.059,336.731 Q503.544,335.405 493.959,334.983 C494.951,335.693 495.824,336.557 496.546,337.541 C498.4,340.198 498.97,343.545 498.099,346.667 C496.654,352.292 496.722,358.365 498.31,365.235 C498.886,367.638 498.598,370.168 497.497,372.38 C495.519,376.287 491.508,378.746 487.129,378.736 L487.059,378.731 C471.911,376.621 456.574,376.213 441.334,377.513 C441.274,377.897 441.198,378.282 441.099,378.667 C439.654,384.292 439.722,390.365 441.31,397.235 C441.886,399.638 441.598,402.168 440.497,404.38 C438.519,408.287 434.508,410.746 430.129,410.736 L430.059,410.731 C414.502,408.565 398.746,408.194 383.104,409.625 C382.985,413.532 383.391,417.436 384.31,421.235 C384.886,423.638 384.598,426.168 383.497,428.38 C381.519,432.287 377.508,434.746 373.129,434.736 L373.059,434.731 C354.283,432.115 335.234,432.115 316.458,434.731 L316.427,434.731 C314.548,434.738 312.694,434.291 311.024,433.427 C306.259,430.84 304.103,425.157 305.952,420.059 C306.519,418.455 306.941,416.802 307.212,415.122 C290.004,413.138 272.614,413.343 255.458,415.731 L255.427,415.731 C253.548,415.738 251.694,415.291 250.024,414.427 C245.259,411.84 243.103,406.157 244.952,401.059 C246.981,395.816 247.064,390.019 245.186,384.72 C244.301,382.235 244.301,379.521 245.186,377.036 C232.252,376.377 219.285,376.944 206.458,378.731 L206.427,378.731 C204.548,378.738 202.694,378.291 201.024,377.427 C196.259,374.84 194.103,369.157 195.952,364.059 C197.981,358.816 198.064,353.019 196.186,347.72 C194.987,344.353 195.427,340.619 197.377,337.624 C199.192,334.795 202.239,332.992 205.593,332.763 C205.856,332.745 206.121,332.736 206.388,332.736 C212.96,333.885 219.595,334.634 226.258,334.98 C222.008,332.187 220.227,326.844 221.952,322.059 C223.981,316.816 224.064,311.019 222.186,305.72 C220.987,302.353 221.427,298.619 223.377,295.624 C223.461,295.495 223.559,295.38 223.648,295.256 Q216.536,295.746 209.458,296.731 L209.427,296.731 C207.548,296.738 205.694,296.291 204.024,295.427 C199.259,292.84 197.103,287.157 198.952,282.059 C200.981,276.816 201.064,271.019 199.186,265.72 C197.987,262.353 198.427,258.619 200.377,255.624 C202.192,252.795 205.239,250.992 208.593,250.763 C208.856,250.745 209.121,250.736 209.388,250.736 C217.29,252.119 225.283,252.924 233.302,253.143 C231.256,250.195 230.754,246.442 231.952,243.059 C233.981,237.816 234.064,232.019 232.186,226.72 C230.987,223.353 231.427,219.619 233.377,216.624 C235.192,213.795 238.239,211.992 241.593,211.763 C241.856,211.745 242.121,211.736 242.388,211.736 C249.075,212.905 255.828,213.661 262.608,214 C261.152,211.242 260.914,208 261.952,205.059 C263.981,199.816 264.064,194.019 262.186,188.72 C260.987,185.353 261.427,181.619 263.377,178.624 C265.192,175.795 268.239,173.992 271.593,173.763 C271.856,173.745 272.121,173.736 272.388,173.736 C280.257,175.113 288.215,175.917 296.2,176.14 C295.113,173.572 295.025,170.69 295.952,168.059 C297.981,162.816 298.064,157.019 296.186,151.72 C294.987,148.353 295.427,144.619 297.377,141.624 C299.192,138.795 302.239,136.992 305.593,136.763 C305.856,136.745 306.121,136.736 306.388,136.736 C325.129,140.035 344.301,140.037 363.043,136.743 L363.066,136.743 C364.513,137.041 366.005,137.041 367.451,136.743 L367.474,136.743 C386.216,140.037 405.388,140.035 424.129,136.736 C424.396,136.736 424.661,136.745 424.925,136.763 C428.278,136.992 431.325,138.795 433.14,141.624 C435.09,144.619 435.53,148.353 434.331,151.72 C432.453,157.019 432.536,162.816 434.565,168.059 C435.493,170.69 435.404,173.572 434.317,176.14 C442.302,175.917 450.26,175.113 458.129,173.736 C458.396,173.736 458.661,173.745 458.925,173.763 C462.278,173.992 465.325,175.795 467.14,178.624 C469.09,181.619 469.53,185.353 468.331,188.72 C466.453,194.019 466.536,199.816 468.565,205.059 C469.603,208 469.365,211.242 467.909,214 C474.689,213.661 481.442,212.906 488.129,211.736 C488.396,211.736 488.661,211.745 488.925,211.763 C492.278,211.992 495.325,213.795 497.14,216.624 C499.09,219.619 499.53,223.353 498.331,226.72 C496.453,232.019 496.536,237.816 498.565,243.059 C499.767,246.451 499.259,250.213 497.201,253.165 C498.094,253.839 498.884,254.639 499.546,255.541 C501.4,258.198 501.97,261.545 501.099,264.667 C499.654,270.292 499.723,276.365 501.31,283.235 C501.886,285.638 501.598,288.168 500.497,290.38 C500.094,291.168 499.603,291.907 499.034,292.585 Q506.056,291.967 513.043,290.743 L513.066,290.743 C516.813,290.73 520.338,292.514 522.546,295.541 C524.4,298.198 524.97,301.545 524.099,304.667 C522.654,310.292 522.723,316.365 524.31,323.235 C524.886,325.638 524.598,328.168 523.497,330.38 z" fill="#FFFFFF"/>
    <path d="M668.949,76.765 L49.808,76.765 C48.47,76.736 47.4,75.642 47.4,74.303 C47.4,72.964 48.47,71.87 49.808,71.841 L668.949,71.841 C670.287,71.87 671.357,72.964 671.357,74.303 C671.357,75.642 670.287,76.736 668.949,76.765 z" fill="#E6E6E6"/>
    <path d="M106.383,44.519 C106.383,52.666 99.923,59.27 91.954,59.27 C83.985,59.27 77.525,52.666 77.525,44.519 C77.525,36.372 83.985,29.768 91.954,29.768 C99.923,29.768 106.383,36.372 106.383,44.519 z" fill="#3F3D56"/>
    <path d="M156.23,44.519 C156.23,52.666 149.77,59.27 141.801,59.27 C133.832,59.27 127.372,52.666 127.372,44.519 C127.372,36.372 133.832,29.768 141.801,29.768 C149.77,29.768 156.23,36.372 156.23,44.519 z" fill="#3F3D56"/>
    <path d="M206.077,44.519 C206.077,52.666 199.617,59.27 191.648,59.27 C183.679,59.27 177.218,52.666 177.218,44.519 C177.218,36.372 183.679,29.768 191.648,29.768 C199.617,29.768 206.077,36.372 206.077,44.519 z" fill="#3F3D56"/>
    <path d="M654.933,33.416 L619.529,33.416 C618.073,33.449 616.91,34.639 616.91,36.095 C616.91,37.552 618.073,38.741 619.529,38.775 L654.933,38.775 C656.398,38.755 657.576,37.561 657.576,36.095 C657.576,34.629 656.398,33.436 654.933,33.416 z" fill="#3F3D56"/>
    <path d="M654.933,43.479 L619.529,43.479 C618.073,43.512 616.909,44.702 616.909,46.159 C616.909,47.615 618.073,48.805 619.529,48.838 L654.932,48.838 C656.398,48.818 657.576,47.625 657.576,46.159 C657.576,44.693 656.398,43.499 654.932,43.479 z" fill="#3F3D56"/>
    <path d="M654.933,53.542 L619.529,53.542 C618.073,53.576 616.91,54.766 616.91,56.222 C616.91,57.678 618.073,58.868 619.529,58.902 L654.933,58.902 C656.398,58.882 657.576,57.688 657.576,56.222 C657.576,54.756 656.398,53.562 654.933,53.542 z" fill="#3F3D56"/>
    <path d="M535.195,428.22 L535.126,428.215 C516.349,425.598 497.301,425.598 478.524,428.215 L478.494,428.215 C476.614,428.222 474.76,427.775 473.091,426.911 C468.326,424.323 466.169,418.64 468.018,413.543 C470.047,408.299 470.13,402.503 468.253,397.203 C467.053,393.837 467.494,390.103 469.443,387.107 C471.258,384.278 474.305,382.475 477.659,382.246 C477.923,382.229 478.187,382.22 478.455,382.22 C497.195,385.518 516.368,385.521 535.109,382.227 L535.133,382.227 C538.879,382.214 542.404,383.998 544.612,387.025 C546.467,389.682 547.037,393.029 546.166,396.15 C544.72,401.775 544.789,407.849 546.377,414.719 C546.953,417.122 546.665,419.651 545.563,421.864 C543.586,425.771 539.574,428.23 535.195,428.22 z" fill="#8D30FE"/>
    <path d="M592.938,330.173 L577.832,317.672 C566.505,323.61 549.268,347.314 549.268,347.314 L509.504,375.913 C505.305,376.113 501.856,379.301 501.328,383.472 C500.8,387.644 503.346,391.591 507.363,392.831 C511.381,394.071 515.708,392.244 517.623,388.501 L571.65,359.951 z" fill="#FFB8B8"/>
    <path d="M623.856,278.317 L623.856,278.317 C628.553,282.294 631.235,288.157 631.173,294.311 C631.111,300.465 628.312,306.273 623.536,310.155 L613.93,317.964 C613.93,317.964 589.97,352.457 577.498,356.459 L545.479,373.187 L531.041,358.711 L560.06,335.062 C560.06,335.062 573.407,322.438 574.743,313.196 C575.562,307.537 585.14,292.12 594.741,280.685 C598.285,276.505 603.346,273.906 608.807,273.462 C614.269,273.018 619.684,274.764 623.856,278.317 z" fill="#8D30FE"/>
    <path d="M592.813,651.672 L579.166,651.671 L572.674,599.031 L592.816,599.032 L592.813,651.672 z" fill="#FFB6B6"/>
    <path d="M593.294,665.908 L551.327,665.907 L551.327,665.376 C551.328,656.355 558.64,649.042 567.661,649.042 L567.662,649.042 L575.328,643.226 L589.631,649.043 L593.294,649.043 z" fill="#2F2E41"/>
    <path d="M696.797,579.842 L690.334,591.861 L640.896,572.653 L650.435,554.913 L696.797,579.842 z" fill="#FFB6B6"/>
    <path d="M709.564,586.16 L689.69,623.122 L689.222,622.871 C681.277,618.599 678.299,608.695 682.57,600.749 L682.571,600.748 L681.079,591.242 L692.974,581.399 L694.709,578.173 z" fill="#2F2E41"/>
    <path d="M567.011,410.61 L554.966,506.97 L560.989,539.276 L669.393,586.768 L675.416,567.195 C647.706,550.239 618.085,524.578 599.421,522.691 C599.421,522.691 597.873,505.591 611.244,495.038 C613.941,492.908 613.351,490.028 614.442,487.417 C615.193,485.621 618.177,483.751 618.941,481.908 C619.932,479.521 618.706,477.149 619.702,474.723 C620.262,473.359 622.385,473.274 622.941,471.908 C623.891,469.58 623.269,465.975 624.194,463.674 C626.171,458.758 628.071,453.951 629.806,449.444 C635.207,435.416 639.008,424.303 638.528,421.903 C637.023,414.374 567.011,410.61 567.011,410.61 z" fill="#2F2E41"/>
    <path d="M564.937,506.691 L558.635,547.385 L574.539,630.431 L595.618,630.431 C603.191,602.527 603.581,565.852 596.371,534.824 z" fill="#2F2E41"/>
    <path d="M577.046,298.158 L586.763,281.226 L597.196,272.856 L616.769,269.845 L622.207,274.026 L622.207,274.026 C641.777,303.937 649.074,340.235 642.585,375.385 L641.057,383.659 L640.088,388.91 L640.508,395.188 L637.241,404.327 L637.691,411.019 L637.931,414.594 L638.172,418.181 L638.508,423.188 C639.109,426.046 636.079,425.669 636.508,428.188 C637.26,432.612 640.636,439.167 635.508,439.188 L582.508,428.188 C569.043,428.243 556.508,412.188 569.508,399.188 z" fill="#8D30FE"/>
    <path d="M629.024,234.112 C629.024,248.326 617.501,259.848 603.287,259.848 C589.073,259.848 577.551,248.326 577.551,234.112 C577.551,219.898 589.073,208.375 603.287,208.375 C617.501,208.375 629.024,219.898 629.024,234.112 z" fill="#FFB8B8"/>
    <path d="M603.723,259.117 C607.489,259.176 611.253,258.913 614.974,258.331 C618.662,257.581 626.913,251.535 629.213,247.896 L629.213,247.896 C630.922,245.193 632.015,240.972 632.631,237.907 C634.308,229.704 632.429,221.175 627.46,214.436 C626.516,213.043 625.212,211.93 623.687,211.216 C623.552,211.163 623.413,211.117 623.273,211.077 C621.051,210.492 619.054,209.257 617.54,207.529 C617.246,207.18 616.928,206.852 616.587,206.548 C614.875,205.104 612.845,204.085 610.664,203.575 C607.144,202.632 602.048,203.568 595.521,206.357 C592.241,207.759 588.654,207.252 585.895,206.653 C585.58,206.592 585.257,206.703 585.045,206.944 C583.871,208.046 582.324,208.663 580.714,208.671 C579.727,208.714 578.693,210.08 577.442,211.86 C577.158,212.265 576.827,212.736 576.588,213.023 L576.556,212.472 L575.998,213.087 C574.216,215.052 573.565,217.793 574.273,220.349 C574.982,222.905 576.951,224.92 579.49,225.687 C580.482,225.951 581.498,226.113 582.523,226.171 C583.144,226.226 583.786,226.284 584.402,226.391 C588.42,227.214 591.71,230.087 593.067,233.958 C593.386,234.849 594.102,235.541 595.003,235.831 C595.905,236.121 596.89,235.976 597.669,235.438 C598.97,234.425 600.685,234.113 602.26,234.602 C602.93,234.975 603.452,235.567 603.738,236.279 C604.086,237.072 604.661,237.744 605.392,238.208 C607.892,239.497 608.064,245.206 607.166,249.965 C606.301,254.552 604.59,257.87 603.007,258.034 C601.788,258.16 601.648,258.247 601.56,258.462 L601.481,258.655 L601.618,258.836 C602.291,259.08 603.009,259.176 603.723,259.117 z" fill="#2F2E41"/>
    <path d="M546.195,249.22 L546.126,249.215 C527.349,246.598 508.301,246.598 489.524,249.215 L489.494,249.215 C487.614,249.222 485.76,248.775 484.091,247.911 C479.326,245.323 477.169,239.64 479.018,234.543 C481.047,229.299 481.13,223.503 479.253,218.203 C478.053,214.837 478.494,211.103 480.443,208.107 C482.258,205.278 485.305,203.475 488.659,203.246 C488.923,203.229 489.187,203.22 489.455,203.22 C508.195,206.518 527.368,206.521 546.109,203.227 L546.133,203.227 C549.879,203.214 553.404,204.998 555.612,208.025 C557.467,210.682 558.037,214.029 557.166,217.15 C555.72,222.775 555.789,228.849 557.377,235.719 C557.953,238.122 557.665,240.651 556.563,242.864 C554.586,246.771 550.574,249.23 546.195,249.22 z" fill="#3F3D56"/>
    <path d="M573.632,307.869 L584.281,291.406 C577.061,280.85 551.505,266.501 551.505,266.501 L518.455,230.352 C517.766,226.204 514.196,223.152 509.992,223.115 C505.787,223.078 502.165,226.068 501.403,230.203 C500.641,234.337 502.96,238.422 506.901,239.886 L541.569,290.207 z" fill="#FFB8B8"/>
    <path d="M620.355,327.586 L620.355,327.586 C616.953,332.715 611.444,336.064 605.325,336.722 C599.206,337.379 593.111,335.278 588.697,330.989 L579.819,322.361 C579.819,322.361 542.604,302.929 537.173,291.01 L512.788,256.424 L529.138,241.674 L557.557,267.508 C557.557,267.508 570.641,282.638 579.975,282.885 C585.691,283.037 602.122,290.748 614.6,298.947 C619.165,301.978 622.338,306.7 623.418,312.073 C624.497,317.446 623.395,323.027 620.355,327.586 z" fill="#8D30FE"/>
    <path d="M378.014,665.759 L377.945,665.754 C359.169,663.138 340.12,663.138 321.343,665.754 L321.313,665.754 C319.433,665.761 317.58,665.314 315.91,664.45 C311.145,661.862 308.989,656.179 310.838,651.082 C312.866,645.839 312.95,640.042 311.072,634.743 C309.873,631.376 310.313,627.642 312.262,624.646 C314.078,621.818 317.125,620.015 320.478,619.786 C320.742,619.768 321.007,619.759 321.274,619.759 C340.015,623.057 359.187,623.06 377.928,619.766 L377.952,619.766 C381.698,619.753 385.224,621.537 387.431,624.564 C389.286,627.221 389.856,630.568 388.985,633.689 C387.54,639.314 387.608,645.388 389.196,652.258 C389.772,654.661 389.484,657.19 388.383,659.403 C386.405,663.31 382.394,665.769 378.014,665.759 z" fill="#8D30FE"/>
    <path d="M394.014,623.759 L393.945,623.754 C375.169,621.138 356.12,621.138 337.343,623.754 L337.313,623.754 C335.433,623.761 333.58,623.314 331.91,622.45 C327.145,619.862 324.989,614.179 326.838,609.082 C328.866,603.839 328.95,598.042 327.072,592.743 C325.873,589.376 326.313,585.642 328.262,582.646 C330.078,579.818 333.125,578.015 336.478,577.786 C336.742,577.768 337.007,577.759 337.274,577.759 C356.015,581.057 375.187,581.06 393.928,577.766 L393.952,577.766 C397.698,577.753 401.224,579.537 403.431,582.564 C405.286,585.221 405.856,588.568 404.985,591.689 C403.54,597.314 403.608,603.388 405.196,610.258 C405.772,612.661 405.484,615.19 404.383,617.403 C402.405,621.31 398.394,623.769 394.014,623.759 z" fill="#3F3D56"/>
    <path d="M254.002,635.208 L254.044,635.154 C266.732,621.067 277.406,605.29 285.759,588.272 L285.776,588.247 C286.824,586.686 288.233,585.401 289.884,584.502 C294.697,582.005 300.613,583.404 303.799,587.791 C307.005,592.41 311.759,595.726 317.201,597.141 C320.661,598.034 323.507,600.49 324.896,603.784 C326.222,606.872 326.008,610.406 324.319,613.312 C324.185,613.541 324.045,613.765 323.895,613.987 C310.662,627.661 299.917,643.539 292.144,660.908 L292.131,660.927 C290.043,664.038 286.59,665.958 282.846,666.091 C279.606,666.138 276.514,664.734 274.417,662.264 C270.567,657.915 265.498,654.569 258.919,652.035 C256.605,651.165 254.672,649.509 253.456,647.357 C251.328,643.53 251.539,638.83 254.002,635.208 z" fill="#8D30FE"/>
    <path d="M336.16,331.791 L336.091,331.786 C317.314,329.17 298.266,329.17 279.489,331.786 L279.459,331.786 C277.579,331.793 275.725,331.346 274.055,330.482 C269.291,327.894 267.134,322.211 268.983,317.114 C271.012,311.871 271.095,306.074 269.218,300.775 C268.018,297.408 268.458,293.674 270.408,290.678 C272.223,287.85 275.27,286.047 278.624,285.818 C278.887,285.8 279.152,285.791 279.42,285.791 C298.16,289.089 317.333,289.092 336.074,285.798 L336.097,285.798 C339.844,285.785 343.369,287.569 345.577,290.596 C347.432,293.253 348.001,296.6 347.131,299.721 C345.685,305.346 345.754,311.42 347.342,318.29 C347.918,320.693 347.63,323.223 346.528,325.435 C344.55,329.342 340.539,331.801 336.16,331.791 z" fill="#8D30FE"/>
    <path d="M804.448,639.285 C802.932,639.355 801.534,638.47 800.948,637.07 C800.363,635.669 800.715,634.053 801.829,633.023 C801.92,632.66 801.985,632.4 802.077,632.038 C800.628,628.358 797.091,625.924 793.135,625.887 C789.18,625.85 785.598,628.216 784.08,631.869 C779.797,641.892 774.255,652.268 777.011,663.309 C758.805,624.723 764.997,576.727 791.903,543.729 C799.34,539.632 805.368,532.353 806.937,523.902 C803.257,525.149 798.667,522.155 801.435,518.278 C802.634,516.796 803.846,515.326 805.045,513.844 C791.063,498.954 774.404,522.356 789.794,542.454 C784.76,548.766 780.399,555.587 776.783,562.805 C777.618,555.14 776.621,547.386 773.875,540.181 C771.091,533.466 765.874,527.811 761.28,522.006 C755.694,514.933 744.197,518.196 743.445,527.172 C748.6,528.866 749.27,536.313 743.373,537.332 C744.918,554.03 755.827,569.376 770.852,576.699 C765.303,592.267 763.136,608.839 764.496,625.31 C761.844,606.06 741.18,601.389 726.737,593.738 C724.859,592.533 722.447,592.552 720.588,593.787 C718.729,595.021 717.776,597.238 718.157,599.436 C720.151,600.247 722.059,601.253 723.853,602.441 C725.576,603.599 726.385,605.716 725.872,607.728 C725.36,609.74 723.639,611.213 721.572,611.406 C728.852,629.424 747.674,641.524 767.005,641.456 C768.863,649.528 771.555,657.386 775.037,664.903 L803.729,664.903 C803.832,664.584 803.924,664.255 804.017,663.936 C801.361,664.103 798.695,663.944 796.078,663.463 C803.104,655.144 808.538,650.9 804.448,639.286 z" fill="#F2F2F2"/>
    <path d="M108.821,555.061 L104.961,574.842 C104.67,576.354 104.366,577.893 104.036,579.419 C100.809,578.736 97.464,578.927 94.332,579.972 C96.817,583.599 99.044,587.403 100.995,591.354 C98.563,599.01 94.993,606.085 89.018,611.202 C80.901,617.998 69.9,619.974 60,616.414 L60.172,615.631 C53.747,602.899 57.238,586.845 65.222,575.085 C69.295,569.283 74.12,564.073 79.566,559.598 C84.959,555.007 90.789,550.889 96.567,546.825 C99.221,544.961 102.716,544.925 105.407,546.733 C108.097,548.542 109.447,551.834 108.821,555.061 z" fill="#E4E4E4"/>
    <path d="M61.375,664.008 C59.75,651.92 58.079,639.678 59.219,627.46 C60.232,616.61 63.472,606.012 70.071,597.322 C73.574,592.718 77.836,588.774 82.666,585.666 C83.926,584.856 85.084,586.893 83.83,587.701 C75.474,593.095 69.01,601.06 65.372,610.447 C61.353,620.887 60.708,632.268 61.406,643.357 C61.825,650.063 62.712,656.724 63.607,663.38 C63.756,664.005 63.403,664.641 62.8,664.83 C62.186,665 61.553,664.632 61.38,664.007 z" fill="#F2F2F2" id="b311a411-101b-4365-a37b-2cdfec47a637-17"/>
    <path d="M145.666,283.223 L146.724,219.444 C146.767,216.837 142.801,216.836 142.758,219.444 L141.7,283.223 C141.657,285.831 145.623,285.831 145.666,283.223 z" fill="#E6E6E6"/>
    <path d="M144.351,210.625 L144.346,210.628 L144.356,210.625 L144.351,210.625 z" fill="#E6E6E6"/>
    <path d="M144.363,210.623 C144.369,210.625 144.363,210.624 144.362,210.625 z" fill="#E6E6E6"/>
    <path d="M144.362,210.622 L144.363,210.623 z" fill="#E6E6E6"/>
    <path d="M144.362,210.625 L144.356,210.626 C144.364,210.627 144.361,210.625 144.362,210.625 z" fill="#E6E6E6"/>
    <path d="M144.359,210.621 L144.359,210.621 L144.361,210.623 L144.359,210.621 z" fill="#E6E6E6"/>
    <path d="M152.566,445.575 C154.4,443.693 155.323,441.077 155.088,438.432 C154.852,435.788 153.481,433.385 151.344,431.872 L165.334,360.906 L149.885,365.972 L138.687,434.614 C136.386,438.535 137.319,443.594 140.86,446.391 C144.401,449.187 149.43,448.837 152.566,445.575 z" fill="#9E616A"/>
    <path d="M173.222,295.43 L163.637,288.04 C163.637,288.04 155.181,287.428 153.684,303.002 C152.186,318.576 149.111,348.927 149.111,348.927 L134.444,418.308 L154.747,422.86 L170.457,347.985 L179.881,325.75 z" fill="#CCCCCC"/>
    <path d="M157.42,408.722 L211.432,407.803 L215.934,370.107 L157.42,370.107 L157.42,408.722 z" fill="#9E616A"/>
    <path d="M206.031,640.69 L218.5,640.69 L224.431,591.569 L206.028,591.57 L206.031,640.69 z" fill="#9E616A"/>
    <path d="M127.915,641.87 L140.384,641.779 L145.978,592.618 L129.761,596.417 L127.915,641.87 z" fill="#9E616A"/>
    <path d="M166.913,337.644 L164.088,345.146 L164.653,352.649 L219.947,372.209 L217.204,339.375 L210.988,331.872 L166.913,337.644 z" fill="#FFB6B6"/>
    <path d="M210.384,249.958 C210.384,261.098 201.542,270.129 190.635,270.129 C179.728,270.129 170.886,261.098 170.886,249.958 C170.886,238.818 179.728,229.788 190.635,229.788 C201.542,229.788 210.384,238.818 210.384,249.958 z" fill="#9E616A"/>
    <path d="M202.938,634.408 L222.649,633.206 L222.649,641.832 L241.389,655.05 C243.289,656.39 244.115,658.836 243.428,661.087 C242.741,663.338 240.7,664.871 238.391,664.871 L214.925,664.871 L210.88,656.339 L209.301,664.871 L200.453,664.871 z" fill="#2F2E41"/>
    <path d="M123.649,635.617 L143.352,634.275 L143.411,642.9 L162.241,655.984 C164.15,657.31 164.992,659.75 164.321,662.006 C163.649,664.262 161.619,665.81 159.31,665.826 L135.844,665.994 L131.741,657.491 L130.22,666.034 L121.373,666.097 z" fill="#2F2E41"/>
    <path d="M124.035,604.207 L133.114,530.085 L143.917,451.935 C136.006,436.93 153.819,390.334 153.819,390.334 L156.333,390.458 L213.245,401.423 L213.233,401.367 C224.873,433.793 228.729,449.812 228.091,484.343 L225.798,608.472 L226.518,608.472 C229.004,608.472 231.019,610.53 231.019,613.069 C231.019,615.608 229.004,617.666 226.518,617.666 L204.013,617.666 C202.403,617.669 200.914,616.794 200.108,615.37 C199.302,613.947 199.302,612.192 200.108,610.768 C200.914,609.345 202.403,608.469 204.013,608.472 L204.593,608.472 L183.936,460.671 L166.422,522.73 L146.617,603.638 C153.819,601.799 152.701,606.059 152.701,608.472 C152.701,611.011 150.686,613.069 148.2,613.069 L125.695,613.069 C123.535,613.072 121.679,611.506 121.274,609.34 C120.868,607.174 122.027,605.019 124.035,604.207 z" fill="#2F2E41"/>
    <path d="M149.388,392.748 L151.188,374.36 C151.572,372.821 152.882,371.709 154.433,371.606 C155.184,362.847 158.34,325.058 158.528,323.41 L158.536,323.34 L159.971,292.027 C160.079,289.672 161.901,287.776 164.204,287.623 L171.785,287.116 C172.001,287.109 172.172,286.928 172.172,286.707 C172.172,283.111 175.026,280.196 178.547,280.196 L200.99,280.196 C203.998,280.198 206.535,282.484 206.909,285.532 C206.93,285.743 207.106,285.901 207.313,285.897 L207.315,285.897 C212.585,285.786 217.144,289.624 218.042,294.929 C221.11,313.162 227.259,354.544 224.219,377.55 C223.161,385.558 225.442,379.215 225.842,385.916 C225.923,387.224 225.49,388.511 224.64,389.492 C226.433,390.158 227.368,392.173 226.736,394.012 L227.13,393.912 C226.644,395.882 224.687,397.076 222.758,396.579 L164.041,404.705 C162.113,404.209 148.902,394.717 149.388,392.748 z" fill="#CCCCCC"/>
    <path d="M306.287,317.985 C305.542,320.53 303.732,322.607 301.344,323.657 C298.956,324.708 296.235,324.624 293.913,323.429 L271.214,344.586 L268.2,328.303 L290.232,310.76 C292.507,306.823 297.306,305.246 301.402,307.09 C305.498,308.933 307.596,313.614 306.287,317.985 z" fill="#9E616A"/>
    <path d="M227.279,301.813 C227.279,301.813 219.364,283.544 209.367,287.175 C199.37,290.807 204.532,308.532 204.532,308.532 L242.091,366.336 C242.091,366.336 296.265,330.843 289.677,330.592 C283.09,330.341 281.119,318.104 281.119,318.104 L252.487,332.716 L251.518,327.514 L249.966,329.1 L245.959,325.879 z" fill="#CCCCCC"/>
    <path d="M167.392,237.608 C164.363,239.093 160.972,236.859 158.357,234.646 L159.293,235.471 C154.671,240.064 152.51,246.671 151.454,253.175 C150.398,259.672 150.28,266.317 148.949,272.768 C147.617,279.213 144.855,285.687 139.695,289.635 C132.782,294.921 123.248,294.582 114.765,292.961 C114.652,292.938 114.547,292.92 114.434,292.897 C116.716,286.166 117.644,279.033 117.162,271.927 C114.888,279.048 111.017,285.528 105.857,290.851 C100.232,289.271 94.742,287.228 89.441,284.742 C86.01,283.129 82.317,280.924 81.365,277.191 C80.41,273.485 82.627,269.599 85.59,267.259 C88.554,264.919 92.191,263.699 95.568,262.032 C98.939,260.373 102.274,258.007 103.624,254.436 C106.737,246.222 97.869,236.796 101.325,228.721 C103.029,224.75 107.203,222.59 111.127,220.925 C117.117,218.39 123.267,216.271 129.536,214.583 C135.04,213.1 140.787,211.948 146.393,212.92 C152,213.892 157.493,217.375 159.511,222.813 C162.878,223.975 166.452,225.285 168.613,228.18 C170.773,231.067 170.598,236.038 167.392,237.608 z" fill="#2F2E41"/>
    <path d="M194.342,228.089 C185.677,221.103 178.671,222.295 173.267,226.636 C172.358,225.604 168.491,228.444 167.182,228.035 L162.447,237.114 C160.01,241.506 159.011,245.989 159.405,248.512 C154.923,261.349 165.551,270.018 178.121,274.595 C183.136,276.435 188.608,276.516 193.674,274.826 L193.828,272.638 L194.78,274.431 C194.78,274.431 206.271,298.596 208.986,299.681 C207.339,295.316 202.993,274.569 201.78,270.245 C200.117,264.361 201.253,255.013 202.231,249.282 C202.84,245.748 202.872,242.136 202.325,238.592 L202.301,238.437 L204.989,243.98 L211.022,240.106 C208.716,233.248 208.67,225.044 194.342,228.089 z" fill="#2F2E41"/>
    <path d="M855.695,446.643 L923.779,446.643 L923.779,370.21 L855.695,370.21 C863.13,380.186 859.451,413.335 855.695,446.643 z" fill="#FFB6B6"/>
    <path d="M855.3,641.679 L843.045,641.679 L837.214,594.507 L855.303,594.508 L855.3,641.679 z" fill="#FFB6B6"/>
    <path d="M838.966,642.78 L838.966,634.489 L842.188,634.686 L855.304,635.461 L858.339,635.647 L860.659,663.414 L860.784,664.903 L852.082,664.903 L851.802,663.424 L850.538,656.705 L847.275,663.424 L846.56,664.903 L823.489,664.903 C820.632,664.885 818.322,662.575 818.31,659.723 C817.336,655.185 836.522,645.375 838.966,642.78 z" fill="#2F2E41"/>
    <path d="M998.879,628.368 L988.22,634.402 L959.821,596.246 L975.553,587.339 L998.879,628.368 z" fill="#FFB6B6"/>
    <path d="M985.212,637.363 L981.12,630.158 L984,628.741 L995.8,622.963 L998.535,621.619 L1011.971,641.25 L1015.131,645.861 L1011.557,647.887 L1007.568,650.151 L1002.161,643.783 L1002.761,652.87 L983.917,663.548 L983.907,663.548 L982.695,664.231 C980.203,665.636 977.042,664.761 975.63,662.277 C972.543,658.803 984.373,640.836 985.212,637.363 z" fill="#2F2E41"/>
    <path d="M926.332,410.125 C942.755,420.985 948.8,525.319 944.533,523.616 L983.242,595.603 L928.146,620.248 L891.919,494.726 L885.881,540.918 L893.931,614.223 L858.318,622.818 L833.685,621.062 C840.086,533.684 845.854,441.526 859.099,405.879 z" fill="#2F2E41"/>
    <path d="M875.311,286.269 C875.311,286.269 893.544,283.916 899.098,286.133 C901.075,286.922 903.051,294.166 906.758,296.324 C913.469,300.231 918.945,299.573 918.945,299.573 C916.324,332.88 916.467,358.717 932.15,406.965 C932.18,409.447 930.913,411.767 928.807,413.088 C926.7,414.41 924.056,414.543 921.827,413.44 L857.397,408.427 L849.758,368.308 L839.76,347.244 L852.714,320.637 L853.825,305.116 L870.163,297.173 z" fill="#3F3D56"/>
    <path d="M867.262,278.906 L867.242,278.908 C865.059,279.096 863.137,277.483 862.948,275.305 L861.03,253.296 C860.682,249.353 861.132,245.381 862.354,241.615 C864.748,234.266 869.892,228.122 876.714,224.464 C880.237,222.58 884.105,221.428 888.085,221.076 C904.371,219.636 910.296,223.058 920.185,247.895 C930.074,272.731 922.107,269.937 922.107,269.937 C922.154,270.467 922.093,271.002 921.928,271.508 C921.605,272.497 920.912,273.322 919.994,273.812 C919.522,274.063 919.005,274.217 918.473,274.265 C899.2,279.018 879.751,284.027 867.259,278.906 z" fill="#2F2E41" id="a2192116-6b97-466f-8b13-d9817c84884d-25"/>
    <path d="M903.321,242.019 C908.212,249.344 908.202,258.887 903.298,266.202 C898.393,273.518 889.557,277.168 880.906,275.452 C875.249,274.349 870.27,271.032 867.08,266.241 C862.2,258.919 862.212,249.387 867.111,242.077 C872.009,234.767 880.833,231.114 889.479,232.818 C895.14,233.915 900.125,237.229 903.321,242.02 z" fill="#FFB6B6" id="ed28a24e-420e-40bb-8d99-8be0d936d38f-26"/>
    <path d="M854.191,255.694 C853.916,252.576 854.272,249.434 855.238,246.456 C855.506,239.157 857.673,232.559 866.594,232.895 C869.362,231.416 872.4,230.508 875.528,230.224 L879.94,229.819 Q880.014,229.812 880.089,229.806 C892.945,228.697 904.267,238.199 905.377,251.028 L905.416,251.469 L896.081,252.317 L892.122,243.716 L892.261,252.666 L887.44,253.106 L885.444,248.767 L885.512,253.279 C878.316,259.519 867.466,259.777 854.233,256.135 z" fill="#2F2E41" id="aaaefc33-4d64-40b9-9ad5-5bc57b25f5f9-27"/>
    <path d="M883.893,276.763 C883.809,277.488 883.93,278.221 884.243,278.88 C884.401,279.217 884.605,279.531 884.849,279.812 C885.059,280.051 885.296,280.265 885.556,280.449 C886.325,280.991 887.263,281.241 888.201,281.156 Q888.288,281.147 888.375,281.136 Q888.463,281.124 888.55,281.108 Q888.638,281.093 888.724,281.073 Q888.811,281.053 888.898,281.03 L892.16,280.141 L895.877,270.012 L896.654,278.927 L911.487,274.912 L908.189,237.081 L882.937,239.395 L883.625,240.065 C885.909,242.314 887.528,245.148 888.303,248.255 C889.071,251.404 889.293,254.662 888.959,257.885 C888.645,261.145 888.018,264.368 887.087,267.508 C886.277,270.289 885.306,273.021 884.18,275.69 C884.035,276.033 883.938,276.394 883.893,276.763 z" fill="#2F2E41" id="a25eee40-fd94-4a6a-9f0d-d3f65b8e441c-28"/>
    <path d="M926.966,535.247 L945.514,423.94 C946.29,419.248 943.114,414.815 938.414,414.03 L854.175,400.051 C849.474,399.277 845.031,402.446 844.244,407.136 L825.696,518.443 C824.919,523.134 828.095,527.568 832.795,528.353 L917.034,542.331 C921.736,543.106 926.179,539.937 926.966,535.247 z" fill="#E6E6E6"/>
    <path d="M926.106,500.555 L938.03,428.997 C938.758,424.603 935.783,420.451 931.382,419.716 L858.985,407.703 C854.582,406.977 850.421,409.945 849.684,414.337 L833.179,513.385 C832.452,517.779 835.426,521.931 839.828,522.667 L884.676,530.109 C904.289,533.341 922.823,520.12 926.106,500.555 z" fill="#FFFFFF"/>
    <path d="M922.981,447.018 C923.692,442.724 920.786,438.667 916.484,437.949 L866.263,429.615 C861.961,428.906 857.897,431.808 857.182,436.1 C856.467,440.392 859.371,444.45 863.671,445.168 L913.893,453.502 C918.195,454.211 922.261,451.31 922.981,447.018 z" fill="#8D30FE"/>
    <path d="M918.95,471.212 C919.661,466.918 916.754,462.861 912.453,462.142 L862.232,453.809 C857.93,453.099 853.865,456.001 853.15,460.293 C852.434,464.585 855.339,468.644 859.64,469.362 L909.861,477.695 C914.164,478.404 918.23,475.504 918.95,471.212 z" fill="#8D30FE"/>
    <path d="M914.918,495.405 C915.629,491.112 912.722,487.054 908.421,486.336 L858.2,478.002 C853.898,477.293 849.834,480.195 849.119,484.487 C848.404,488.779 851.308,492.837 855.608,493.555 L905.829,501.889 C910.132,502.598 914.198,499.697 914.918,495.405 z" fill="#8D30FE"/>
    <path d="M936.984,435.558 C935.166,433.659 934.275,431.06 934.546,428.448 C934.817,425.836 936.223,423.474 938.392,421.987 L929.552,378.215 L941.083,372.798 L951.202,424.863 C953.49,428.779 952.481,433.784 948.853,436.512 C945.226,439.241 940.127,438.831 936.984,435.558 z" fill="#FFB6B6"/>
    <path d="M918.673,299.721 C918.673,299.721 938.943,307.333 940.054,318.42 C941.165,329.506 943.718,339.387 942.607,343.822 C941.496,348.257 946.426,353.296 944.204,356.622 C941.982,359.948 947.311,361.041 945.089,366.585 C942.867,372.128 941.756,373.236 942.867,374.345 C943.978,375.454 947.609,398.235 947.609,398.235 L931.829,401.73 L911.24,355.005 z" fill="#3F3D56"/>
    <path d="M845.043,435.558 C846.861,433.659 847.752,431.06 847.481,428.448 C847.21,425.836 845.804,423.474 843.635,421.987 L852.475,378.215 L840.944,372.798 L830.825,424.863 C828.537,428.779 829.546,433.784 833.174,436.512 C836.801,439.241 841.9,438.831 845.043,435.558 z" fill="#FFB6B6"/>
    <path d="M858.269,304.007 C853.972,304.247 850.144,306.793 848.27,310.659 C844.937,317.311 832.456,359.241 833.567,362.567 C834.678,365.892 829.643,376.633 831.865,378.851 C834.087,381.068 836.12,393.989 836.12,393.989 L852.312,397.697 L857.535,348.353 z" fill="#3F3D56"/>
    <path d="M1026.376,668.723 L1.625,669.03 C0.727,669.028 0,668.496 0,667.84 C0,667.183 0.727,666.651 1.625,666.649 L1026.376,666.342 C1027.274,666.344 1028,666.876 1028,667.532 C1028,668.189 1027.274,668.721 1026.376,668.723 z" fill="#CACACA"/>
  </g>
</svg>
