<?xml version="1.0" encoding="UTF-8"?>
<!DOCTYPE svg PUBLIC "-//W3C//DTD SVG 1.1//EN" "http://www.w3.org/Graphics/SVG/1.1/DTD/svg11.dtd">
<svg version="1.1" xmlns="http://www.w3.org/2000/svg" xmlns:xlink="http://www.w3.org/1999/xlink" x="0" y="0" width="1028" height="669.03" viewBox="0, 0, 1028, 669.03">
  <g id="Layer_3" opacity="0.097">
    <path d="M717.572,134.512 C863.745,134.512 982.242,253.009 982.242,399.182 C982.242,545.355 863.745,663.852 717.572,663.852 C717.572,663.852 717.572,663.852 717.572,663.852 C641.331,663.692 572.175,631.57 522.942,577.842 C521.424,576.185 520.081,574.356 518.444,572.809 C495.448,551.073 459.781,545.402 436.412,571.089 C435.852,571.704 435.282,572.31 434.712,572.917 C387.836,622.835 321.394,651.774 250.86,652.666 C111.96,652.666 -0.64,540.066 -0.64,401.166 C-0.64,262.266 111.96,149.666 250.86,149.666 C345.096,149.692 435.329,204.656 476.429,289.956 C520.734,194.667 612.663,135.84 717.572,134.512 z" fill="#FFFFFF"/>
  </g>
  <g id="Layer_2">
    <path d="M862.782,264.929 C858.117,264.955 854.078,266.075 850.691,267.743 C849.44,265.268 848.189,263.104 847.981,261.489 C847.746,259.613 847.46,258.466 847.746,256.225 C848.033,253.984 849.336,250.805 849.336,250.544 C849.309,250.31 849.049,249.163 846.365,249.137 C843.681,249.111 841.362,249.658 841.101,250.362 C840.84,251.065 840.319,252.681 839.981,254.349 C839.511,256.798 834.612,265.476 831.824,270.036 C830.912,268.264 830.13,266.701 829.974,265.45 C829.739,263.574 829.453,262.427 829.739,260.186 C830.026,257.945 831.329,254.766 831.329,254.505 C831.303,254.271 831.042,253.124 828.359,253.098 C825.674,253.072 823.355,253.619 823.095,254.323 C822.834,255.026 822.547,256.694 821.974,258.31 C821.427,259.925 814.912,274.414 813.218,278.192 C812.358,280.121 811.603,281.658 811.055,282.701 C810.508,283.743 811.029,282.779 810.977,282.883 C810.508,283.769 810.247,284.264 810.247,284.264 L810.247,284.29 C809.883,284.942 809.492,285.567 809.309,285.567 C809.179,285.567 808.918,283.821 809.361,281.424 C810.325,276.394 812.671,268.551 812.645,268.264 C812.645,268.134 813.088,266.753 811.133,266.049 C809.231,265.346 808.554,266.518 808.397,266.518 C808.241,266.518 808.11,266.935 808.11,266.935 C808.11,266.935 810.221,258.102 804.071,258.102 C800.215,258.102 794.899,262.297 792.267,266.128 C790.599,267.04 787.055,268.968 783.303,271.027 C781.869,271.809 780.384,272.643 778.977,273.398 L778.69,273.085 C771.238,265.137 757.453,259.508 758.026,248.824 C758.234,244.942 759.589,234.701 784.502,222.297 C804.906,212.134 821.245,214.922 824.085,221.124 C828.124,229.984 815.355,246.453 794.143,248.824 C786.065,249.736 781.817,246.609 780.749,245.437 C779.629,244.212 779.472,244.16 779.056,244.394 C778.378,244.759 778.795,245.854 779.056,246.505 C779.681,248.147 782.287,251.065 786.717,252.525 C790.599,253.802 800.085,254.505 811.551,250.075 C824.398,245.098 834.43,231.287 831.486,219.743 C828.489,207.99 808.997,204.134 790.573,210.674 C779.602,214.583 767.72,220.681 759.172,228.681 C749.01,238.166 747.394,246.453 748.071,249.893 C750.443,262.166 767.355,270.166 774.13,276.082 C773.791,276.264 773.479,276.446 773.192,276.603 C769.804,278.27 756.905,285.02 753.674,292.16 C750.026,300.238 754.247,306.049 757.062,306.831 C765.765,309.254 774.677,304.903 779.498,297.737 C784.293,290.57 783.72,281.267 781.505,277.02 L781.426,276.863 L784.084,275.3 C785.804,274.284 787.498,273.346 788.983,272.537 C788.15,274.805 787.55,277.489 787.238,281.397 C786.873,285.984 788.749,291.925 791.225,294.27 C792.319,295.286 793.622,295.313 794.43,295.313 C797.296,295.313 798.599,292.941 800.033,290.101 C801.804,286.635 803.368,282.622 803.368,282.622 C803.368,282.622 801.414,293.489 806.756,293.489 C808.71,293.489 810.664,290.961 811.55,289.658 L811.55,289.684 C811.55,289.684 811.603,289.606 811.707,289.424 C811.816,289.262 811.92,289.097 812.02,288.929 L812.02,288.877 C812.801,287.522 814.547,284.421 817.153,279.287 C820.514,272.668 823.746,264.381 823.746,264.381 C823.746,264.381 824.059,266.414 825.023,269.749 C825.596,271.73 826.847,273.893 827.811,276.004 C827.029,277.098 826.56,277.724 826.56,277.724 L826.586,277.75 C825.961,278.584 825.257,279.47 824.528,280.356 C821.87,283.535 818.691,287.157 818.274,288.2 C817.778,289.424 817.883,290.336 818.847,291.066 C819.55,291.587 820.801,291.691 822.13,291.587 C824.528,291.431 826.195,290.831 827.029,290.466 C828.332,289.997 829.818,289.294 831.251,288.251 C833.857,286.323 835.446,283.587 835.29,279.939 C835.212,277.932 834.56,275.952 833.752,274.076 C833.987,273.737 834.222,273.398 834.456,273.033 C838.573,267.014 841.752,260.395 841.752,260.395 C841.752,260.395 842.065,262.427 843.029,265.763 C843.524,267.457 844.515,269.307 845.401,271.131 C841.544,274.284 839.121,277.933 838.287,280.33 C836.749,284.76 837.948,286.767 840.215,287.236 C841.231,287.444 842.691,286.975 843.785,286.506 C845.14,286.063 846.782,285.307 848.293,284.187 C850.899,282.258 853.401,279.574 853.27,275.952 C853.192,274.284 852.749,272.643 852.15,271.079 C855.433,269.724 859.681,268.942 865.075,269.594 C876.671,270.949 878.964,278.193 878.522,281.216 C878.079,284.239 875.655,285.907 874.847,286.428 C874.039,286.923 873.779,287.106 873.857,287.47 C873.961,288.018 874.326,287.991 875.029,287.887 C875.994,287.731 881.127,285.412 881.336,279.835 C881.648,272.668 874.847,264.851 862.782,264.929 z M773.348,295.079 C769.518,299.274 764.124,300.864 761.83,299.509 C759.355,298.075 760.319,291.899 765.036,287.443 C767.902,284.733 771.629,282.232 774.078,280.694 C774.625,280.355 775.459,279.861 776.449,279.261 C776.606,279.157 776.71,279.105 776.71,279.105 C776.892,279 777.101,278.87 777.309,278.74 C779.055,285.098 777.388,290.675 773.348,295.079 z M801.362,276.03 C800.033,279.287 797.218,287.652 795.524,287.183 C794.065,286.792 793.179,280.46 795.237,274.206 C796.28,271.052 798.495,267.3 799.798,265.84 C801.909,263.495 804.202,262.713 804.775,263.678 C805.453,264.929 802.195,273.997 801.362,276.03 z M824.476,287.079 C823.902,287.365 823.381,287.574 823.147,287.418 C822.964,287.313 823.381,286.922 823.381,286.922 C823.381,286.922 826.273,283.821 827.42,282.388 C828.071,281.555 828.853,280.59 829.687,279.496 L829.687,279.808 C829.687,283.561 826.091,286.062 824.476,287.079 z M842.299,283.013 C841.882,282.701 841.935,281.736 843.342,278.714 C843.889,277.515 845.14,275.508 847.303,273.606 C847.563,274.388 847.72,275.143 847.694,275.847 C847.668,280.538 844.332,282.284 842.299,283.013 z" fill="#E6E6E6" id="sass-1"/>
    <path d="M1011.572,293.984 L1003.538,383.973 L967.43,393.984 L931.421,383.988 L923.397,293.984 L1011.572,293.984 z M939.807,312.382 L942.784,345.763 L981.041,345.763 L979.76,360.079 L967.448,363.402 L967.448,363.402 L967.438,363.405 L955.144,360.086 L954.358,351.282 L943.277,351.282 L944.824,368.614 L967.436,374.891 L967.486,374.877 L967.486,374.875 L990.078,368.614 L992.838,337.688 L993.107,334.724 L952.88,334.724 L951.871,323.42 L994.111,323.421 L994.333,320.939 L994.836,315.343 L995.1,312.382 M967.486,363.392 L967.486,374.875 L967.448,374.886 L967.448,363.402 L967.486,363.392 z" fill="#E6E6E6"/>
    <g>
      <path d="M978.028,161.839 C978.028,167.663 973.307,172.383 967.484,172.383 C961.661,172.383 956.941,167.663 956.941,161.839 C956.941,156.016 961.661,151.296 967.484,151.296 C973.307,151.296 978.028,156.016 978.028,161.839 z" fill="#E6E6E6"/>
      <g>
        <path d="M967.485,140.304 C981.641,140.304 994.792,142.336 1004.708,145.749 C1016.655,149.862 1024,156.097 1024,161.742 C1024,167.625 1016.216,174.248 1003.386,178.498 C993.687,181.712 980.923,183.39 967.485,183.39 C953.708,183.39 940.661,181.815 930.852,178.463 C918.443,174.221 910.968,167.513 910.968,161.742 C910.968,156.143 917.981,149.956 929.76,145.85 C939.713,142.38 953.189,140.304 967.483,140.304 z" fill-opacity="0" stroke="#E6E6E6" stroke-width="4"/>
        <path d="M948.823,151.085 C955.895,138.822 964.225,128.444 972.135,121.56 C981.667,113.266 990.737,110.017 995.627,112.837 C1000.723,115.776 1002.572,125.828 999.845,139.065 C997.785,149.073 992.86,160.968 986.146,172.609 C979.263,184.544 971.382,195.059 963.579,201.88 C953.705,210.511 944.159,213.635 939.16,210.752 C934.309,207.956 932.454,198.789 934.781,186.533 C936.748,176.178 941.682,163.468 948.821,151.085 z" fill-opacity="0" stroke="#E6E6E6" stroke-width="4"/>
        <path d="M948.841,172.64 C941.749,160.391 936.92,147.99 934.904,137.698 C932.478,125.298 934.194,115.817 939.079,112.989 C944.17,110.042 953.803,113.461 963.909,122.434 C971.55,129.219 979.396,139.424 986.129,151.054 C993.032,162.977 998.205,175.057 1000.218,185.224 C1002.764,198.089 1000.703,207.919 995.709,210.81 C990.863,213.615 981.995,210.645 972.54,202.508 C964.551,195.634 956.003,185.011 948.841,172.64 z" fill-opacity="0" stroke="#E6E6E6" stroke-width="4"/>
      </g>
    </g>
    <path d="M864.521,29.768 L864.521,129.768 L764.521,129.768 L764.521,29.768 L864.521,29.768 z M840.625,75.14 C832.234,75.14 826.864,80.511 826.864,87.559 C826.864,95.212 831.362,98.836 838.142,101.722 L840.49,102.73 C844.787,104.609 847.337,105.75 847.337,108.972 C847.337,111.657 844.854,113.604 840.96,113.604 C836.329,113.604 833.711,111.188 831.697,107.898 L824.045,112.328 L824.045,112.328 C826.797,117.766 832.436,121.927 841.162,121.927 C850.09,121.927 856.735,117.296 856.735,108.838 C856.735,100.984 852.237,97.494 844.249,94.07 L841.9,93.064 C837.873,91.318 836.128,90.177 836.127,87.357 C836.128,85.076 837.873,83.33 840.625,83.33 C843.31,83.33 845.055,84.471 846.666,87.357 L853.983,82.659 C850.895,77.222 846.599,75.14 840.625,75.14 z M818.941,75.678 L809.543,75.678 L809.543,107.63 C809.543,112.329 807.596,113.536 804.508,113.536 C801.287,113.536 799.944,111.322 798.468,108.704 L790.815,113.335 C793.679,119.252 798.48,121.716 804.911,121.927 C813.235,121.927 818.941,117.496 818.941,107.763 L818.941,75.678 z M790.815,113.335 L790.815,113.335 L790.815,113.335 L790.815,113.335 z" fill="#E6E6E6"/>
    <g>
      <path d="M775.896,386.028 L853.146,386.028 C858.324,386.028 862.521,390.225 862.521,395.403 L862.521,472.653 C862.521,477.83 858.324,482.028 853.146,482.028 L775.896,482.028 C770.718,482.028 766.521,477.83 766.521,472.653 L766.521,395.403 C766.521,390.225 770.718,386.028 775.896,386.028 z" fill-opacity="0" stroke="#E6E6E6" stroke-width="4"/>
      <path d="M827.197,463.93 L827.197,473.5 C828.747,474.304 830.642,474.898 832.748,475.299 C834.853,475.701 837.15,475.893 839.447,475.893 C841.744,475.893 843.849,475.682 845.955,475.242 C848.06,474.802 849.783,474.074 851.314,473.137 C852.864,472.122 854.185,470.84 854.951,469.117 C855.716,467.394 856.31,465.48 856.31,462.992 C856.31,461.25 856.042,459.738 855.525,458.398 C855.008,457.058 854.262,455.91 853.228,454.953 C852.252,453.939 851.123,453.039 849.783,452.273 C848.443,451.508 846.912,450.704 845.189,449.976 C843.926,449.46 842.892,448.962 841.744,448.464 C840.748,447.967 839.887,447.469 839.255,446.971 C838.547,446.455 838.011,445.919 837.628,445.364 C837.246,444.789 837.054,444.158 837.054,443.449 C837.054,442.799 837.225,442.205 837.571,441.669 C837.917,441.133 838.394,440.693 839.007,440.31 C839.619,439.928 840.385,439.641 841.303,439.43 C842.203,439.219 843.198,439.124 844.366,439.124 C845.17,439.124 846.012,439.183 846.854,439.304 C847.735,439.424 848.634,439.61 849.534,439.859 C850.433,440.108 851.314,440.414 852.214,440.797 C853.056,441.179 853.841,441.62 854.51,442.117 L854.51,433.121 C853.056,432.566 851.448,432.145 849.725,431.877 C848.003,431.609 846.089,431.475 843.792,431.475 C841.495,431.475 839.389,431.724 837.284,432.202 C835.178,432.681 833.456,433.447 831.924,434.499 C830.374,435.533 829.245,436.796 828.288,438.519 C827.388,440.127 826.948,441.964 826.948,444.261 C826.948,447.132 827.771,449.62 829.436,451.534 C831.082,453.64 833.647,455.171 836.901,456.702 C838.222,457.238 839.389,457.774 840.538,458.291 C841.686,458.808 842.643,459.344 843.409,459.899 C844.232,460.454 844.883,461.066 845.323,461.717 C845.801,462.368 846.05,463.134 846.05,464.014 C846.05,464.627 845.901,465.201 845.61,465.737 C845.319,466.273 844.864,466.732 844.251,467.115 C843.639,467.498 842.892,467.804 841.954,468.034 C841.055,468.244 840.04,468.359 838.7,468.359 C836.595,468.359 834.489,467.995 832.575,467.268 C830.47,466.541 828.556,465.45 826.833,464.014 z M811.119,440.387 L823.369,440.387 L823.369,432.539 L789.107,432.539 L789.107,440.387 L801.357,440.387 L801.357,475.414 L811.119,475.414 z" fill="#E6E6E6"/>
    </g>
  </g>
  <g id="Layer_1">
    <path d="M243.928,669.03 L243.274,668.787 C221.131,660.435 203.783,642.766 195.839,620.474 C193.686,614.278 192.322,607.837 191.779,601.3 L191.726,600.677 L192.342,600.787 C199.696,602.107 207.415,602.836 210.855,603.121 L191.558,590.353 L191.593,589.689 C191.894,583.456 195.956,578.032 201.854,575.991 C207.808,573.793 214.501,575.437 218.758,580.145 C220.676,582.227 222.705,584.323 224.666,586.351 C231.405,593.316 238.374,600.519 242.781,609.022 C249.409,622.123 249.768,637.516 243.76,650.912 z" fill="#F2F2F2"/>
    <path d="M634.365,656.657 L634.357,656.588 C633.504,637.649 630.029,618.92 624.031,600.936 L624.026,600.907 C623.676,599.06 623.778,597.155 624.322,595.356 C625.997,590.199 631.192,587.042 636.541,587.93 C642.066,588.968 647.781,587.993 652.648,585.18 C655.74,583.387 659.491,583.138 662.792,584.509 C665.905,585.777 668.234,588.444 669.07,591.7 C669.136,591.956 669.193,592.214 669.242,592.477 C669.418,611.505 672.913,630.356 679.57,648.182 L679.574,648.205 C680.271,651.886 679.16,655.678 676.586,658.401 C674.312,660.709 671.125,661.88 667.898,661.593 C662.103,661.198 656.144,662.374 649.679,665.188 C647.421,666.193 644.882,666.371 642.506,665.692 C638.303,664.46 635.154,660.965 634.365,656.657 z" fill="#8D30FE"/>
    <path d="M275.22,394.418 L275.22,643.118 L449.451,643.118 L449.451,394.418 C449.457,390.746 447.067,387.5 443.558,386.416 C442.753,386.15 441.909,386.019 441.061,386.028 L283.635,386.028 C278.993,386.019 275.225,389.777 275.22,394.418 z M343.215,479.872 C343.309,469.667 351.609,461.444 361.814,461.444 C372.02,461.444 380.319,469.667 380.413,479.872 L380.413,508.729 C380.365,518.967 372.052,527.24 361.814,527.24 C351.577,527.24 343.264,518.967 343.215,508.729 z" fill="#F2F2F2"/>
    <path d="M274.687,635.165 L274.687,659.147 C274.695,661.733 276.782,663.83 279.367,663.852 L445.304,663.852 C447.893,663.839 449.985,661.736 449.985,659.147 L449.985,635.165 z" fill="#E6E6E6"/>
    <path d="M1.283,21.8 L1.283,475.892 C1.292,487.941 11.058,497.706 23.107,497.716 L696.024,497.716 C708.073,497.706 717.839,487.941 717.848,475.892 L717.848,21.8 C717.82,9.763 708.062,0.015 696.024,-0 L23.107,-0 C11.07,0.015 1.312,9.763 1.283,21.8 z" fill="#E6E6E6"/>
    <path d="M690.41,15.762 L28.721,15.762 C22.276,15.776 17.058,21.005 17.057,27.45 L17.057,470.29 C17.068,476.727 22.284,481.943 28.721,481.954 L690.41,481.954 C696.848,481.943 702.063,476.727 702.074,470.29 L702.074,27.45 C702.074,21.005 696.856,15.776 690.41,15.762 z M523.497,330.38 C521.519,334.287 517.508,336.746 513.129,336.736 L513.059,336.731 Q503.544,335.405 493.959,334.983 C494.951,335.693 495.824,336.557 496.546,337.541 C498.4,340.198 498.97,343.545 498.099,346.667 C496.654,352.292 496.722,358.365 498.31,365.235 C498.886,367.638 498.598,370.168 497.497,372.38 C495.519,376.287 491.508,378.746 487.129,378.736 L487.059,378.731 C471.911,376.621 456.574,376.213 441.334,377.513 C441.274,377.897 441.198,378.282 441.099,378.667 C439.654,384.292 439.722,390.365 441.31,397.235 C441.886,399.638 441.598,402.168 440.497,404.38 C438.519,408.287 434.508,410.746 430.129,410.736 L430.059,410.731 C414.502,408.565 398.746,408.194 383.104,409.625 C382.985,413.532 383.391,417.436 384.31,421.235 C384.886,423.638 384.598,426.168 383.497,428.38 C381.519,432.287 377.508,434.746 373.129,434.736 L373.059,434.731 C354.283,432.115 335.234,432.115 316.458,434.731 L316.427,434.731 C314.548,434.738 312.694,434.291 311.024,433.427 C306.259,430.84 304.103,425.157 305.952,420.059 C306.519,418.455 306.941,416.802 307.212,415.122 C290.004,413.138 272.614,413.343 255.458,415.731 L255.427,415.731 C253.548,415.738 251.694,415.291 250.024,414.427 C245.259,411.84 243.103,406.157 244.952,401.059 C246.981,395.816 247.064,390.019 245.186,384.72 C244.301,382.235 244.301,379.521 245.186,377.036 C232.252,376.377 219.285,376.944 206.458,378.731 L206.427,378.731 C204.548,378.738 202.694,378.291 201.024,377.427 C196.259,374.84 194.103,369.157 195.952,364.059 C197.981,358.816 198.064,353.019 196.186,347.72 C194.987,344.353 195.427,340.619 197.377,337.624 C199.192,334.795 202.239,332.992 205.593,332.763 C205.856,332.745 206.121,332.736 206.388,332.736 C212.96,333.885 219.595,334.634 226.258,334.98 C222.008,332.187 220.227,326.844 221.952,322.059 C223.981,316.816 224.064,311.019 222.186,305.72 C220.987,302.353 221.427,298.619 223.377,295.624 C223.461,295.495 223.559,295.38 223.648,295.256 Q216.536,295.746 209.458,296.731 L209.427,296.731 C207.548,296.738 205.694,296.291 204.024,295.427 C199.259,292.84 197.103,287.157 198.952,282.059 C200.981,276.816 201.064,271.019 199.186,265.72 C197.987,262.353 198.427,258.619 200.377,255.624 C202.192,252.795 205.239,250.992 208.593,250.763 C208.856,250.745 209.121,250.736 209.388,250.736 C217.29,252.119 225.283,252.924 233.302,253.143 C231.256,250.195 230.754,246.442 231.952,243.059 C233.981,237.816 234.064,232.019 232.186,226.72 C230.987,223.353 231.427,219.619 233.377,216.624 C235.192,213.795 238.239,211.992 241.593,211.763 C241.856,211.745 242.121,211.736 242.388,211.736 C249.075,212.905 255.828,213.661 262.608,214 C261.152,211.242 260.914,208 261.952,205.059 C263.981,199.816 264.064,194.019 262.186,188.72 C260.987,185.353 261.427,181.619 263.377,178.624 C265.192,175.795 268.239,173.992 271.593,173.763 C271.856,173.745 272.121,173.736 272.388,173.736 C280.257,175.113 288.215,175.917 296.2,176.14 C295.113,173.572 295.025,170.69 295.952,168.059 C297.981,162.816 298.064,157.019 296.186,151.72 C294.987,148.353 295.427,144.619 297.377,141.624 C299.192,138.795 302.239,136.992 305.593,136.763 C305.856,136.745 306.121,136.736 306.388,136.736 C325.129,140.035 344.301,140.037 363.043,136.743 L363.066,136.743 C364.513,137.041 366.005,137.041 367.451,136.743 L367.474,136.743 C386.216,140.037 405.388,140.035 424.129,136.736 C424.396,136.736 424.661,136.745 424.925,136.763 C428.278,136.992 431.325,138.795 433.14,141.624 C435.09,144.619 435.53,148.353 434.331,151.72 C432.453,157.019 432.536,162.816 434.565,168.059 C435.493,170.69 435.404,173.572 434.317,176.14 C442.302,175.917 450.26,175.113 458.129,173.736 C458.396,173.736 458.661,173.745 458.925,173.763 C462.278,173.992 465.325,175.795 467.14,178.624 C469.09,181.619 469.53,185.353 468.331,188.72 C466.453,194.019 466.536,199.816 468.565,205.059 C469.603,208 469.365,211.242 467.909,214 C474.689,213.661 481.442,212.906 488.129,211.736 C488.396,211.736 488.661,211.745 488.925,211.763 C492.278,211.992 495.325,213.795 497.14,216.624 C499.09,219.619 499.53,223.353 498.331,226.72 C496.453,232.019 496.536,237.816 498.565,243.059 C499.767,246.451 499.259,250.213 497.201,253.165 C498.094,253.839 498.884,254.639 499.546,255.541 C501.4,258.198 501.97,261.545 501.099,264.667 C499.654,270.292 499.723,276.365 501.31,283.235 C501.886,285.638 501.598,288.168 500.497,290.38 C500.094,291.168 499.603,291.907 499.034,292.585 Q506.056,291.967 513.043,290.743 L513.066,290.743 C516.813,290.73 520.338,292.514 522.546,295.541 C524.4,298.198 524.97,301.545 524.099,304.667 C522.654,310.292 522.723,316.365 524.31,323.235 C524.886,325.638 524.598,328.168 523.497,330.38 z" fill="#FFFFFF"/>
    <path d="M668.949,76.765 L49.808,76.765 C48.47,76.736 47.4,75.642 47.4,74.303 C47.4,72.964 48.47,71.87 49.808,71.841 L668.949,71.841 C670.287,71.87 671.357,72.964 671.357,74.303 C671.357,75.642 670.287,76.736 668.949,76.765 z" fill="#E6E6E6"/>
    <path d="M106.383,44.519 C106.383,52.666 99.923,59.27 91.954,59.27 C83.985,59.27 77.525,52.666 77.525,44.519 C77.525,36.372 83.985,29.768 91.954,29.768 C99.923,29.768 106.383,36.372 106.383,44.519 z" fill="#3F3D56"/>
    <path d="M156.23,44.519 C156.23,52.666 149.77,59.27 141.801,59.27 C133.832,59.27 127.372,52.666 127.372,44.519 C127.372,36.372 133.832,29.768 141.801,29.768 C149.77,29.768 156.23,36.372 156.23,44.519 z" fill="#3F3D56"/>
    <path d="M206.077,44.519 C206.077,52.666 199.617,59.27 191.648,59.27 C183.679,59.27 177.218,52.666 177.218,44.519 C177.218,36.372 183.679,29.768 191.648,29.768 C199.617,29.768 206.077,36.372 206.077,44.519 z" fill="#3F3D56"/>
    <path d="M654.933,33.416 L619.529,33.416 C618.073,33.449 616.91,34.639 616.91,36.095 C616.91,37.552 618.073,38.741 619.529,38.775 L654.933,38.775 C656.398,38.755 657.576,37.561 657.576,36.095 C657.576,34.629 656.398,33.436 654.933,33.416 z" fill="#3F3D56"/>
    <path d="M654.933,43.479 L619.529,43.479 C618.073,43.512 616.909,44.702 616.909,46.159 C616.909,47.615 618.073,48.805 619.529,48.838 L654.932,48.838 C656.398,48.818 657.576,47.625 657.576,46.159 C657.576,44.693 656.398,43.499 654.932,43.479 z" fill="#3F3D56"/>
    <path d="M654.933,53.542 L619.529,53.542 C618.073,53.576 616.91,54.766 616.91,56.222 C616.91,57.678 618.073,58.868 619.529,58.902 L654.933,58.902 C656.398,58.882 657.576,57.688 657.576,56.222 C657.576,54.756 656.398,53.562 654.933,53.542 z" fill="#3F3D56"/>
    <path d="M535.195,428.22 L535.126,428.215 C516.349,425.598 497.301,425.598 478.524,428.215 L478.494,428.215 C476.614,428.222 474.76,427.775 473.091,426.911 C468.326,424.323 466.169,418.64 468.018,413.543 C470.047,408.299 470.13,402.503 468.253,397.203 C467.053,393.837 467.494,390.103 469.443,387.107 C471.258,384.278 474.305,382.475 477.659,382.246 C477.923,382.229 478.187,382.22 478.455,382.22 C497.195,385.518 516.368,385.521 535.109,382.227 L535.133,382.227 C538.879,382.214 542.404,383.998 544.612,387.025 C546.467,389.682 547.037,393.029 546.166,396.15 C544.72,401.775 544.789,407.849 546.377,414.719 C546.953,417.122 546.665,419.651 545.563,421.864 C543.586,425.771 539.574,428.23 535.195,428.22 z" fill="#8D30FE"/>
    <path d="M592.938,330.173 L577.832,317.672 C566.505,323.61 549.268,347.314 549.268,347.314 L509.504,375.913 C505.305,376.113 501.856,379.301 501.328,383.472 C500.8,387.644 503.346,391.591 507.363,392.831 C511.381,394.071 515.708,392.244 517.623,388.501 L571.65,359.951 z" fill="#FFB8B8"/>
    <path d="M623.856,278.317 L623.856,278.317 C628.553,282.294 631.235,288.157 631.173,294.311 C631.111,300.465 628.312,306.273 623.536,310.155 L613.93,317.964 C613.93,317.964 589.97,352.457 577.498,356.459 L545.479,373.187 L531.041,358.711 L560.06,335.062 C560.06,335.062 573.407,322.438 574.743,313.196 C575.562,307.537 585.14,292.12 594.741,280.685 C598.285,276.505 603.346,273.906 608.807,273.462 C614.269,273.018 619.684,274.764 623.856,278.317 z" fill="#8D30FE"/>
    <path d="M592.813,651.672 L579.166,651.671 L572.674,599.031 L592.816,599.032 L592.813,651.672 z" fill="#FFB6B6"/>
    <path d="M593.294,665.908 L551.327,665.907 L551.327,665.376 C551.328,656.355 558.64,649.042 567.661,649.042 L567.662,649.042 L575.328,643.226 L589.631,649.043 L593.294,649.043 z" fill="#2F2E41"/>
    <path d="M696.797,579.842 L690.334,591.861 L640.896,572.653 L650.435,554.913 L696.797,579.842 z" fill="#FFB6B6"/>
    <path d="M709.564,586.16 L689.69,623.122 L689.222,622.871 C681.277,618.599 678.299,608.695 682.57,600.749 L682.571,600.748 L681.079,591.242 L692.974,581.399 L694.709,578.173 z" fill="#2F2E41"/>
    <path d="M567.011,410.61 L554.966,506.97 L560.989,539.276 L669.393,586.768 L675.416,567.195 C647.706,550.239 618.085,524.578 599.421,522.691 C599.421,522.691 597.873,505.591 611.244,495.038 C613.941,492.908 613.351,490.028 614.442,487.417 C615.193,485.621 618.177,483.751 618.941,481.908 C619.932,479.521 618.706,477.149 619.702,474.723 C620.262,473.359 622.385,473.274 622.941,471.908 C623.891,469.58 623.269,465.975 624.194,463.674 C626.171,458.758 628.071,453.951 629.806,449.444 C635.207,435.416 639.008,424.303 638.528,421.903 C637.023,414.374 567.011,410.61 567.011,410.61 z" fill="#2F2E41"/>
    <path d="M564.937,506.691 L558.635,547.385 L574.539,630.431 L595.618,630.431 C603.191,602.527 603.581,565.852 596.371,534.824 z" fill="#2F2E41"/>
    <path d="M577.046,298.158 L586.763,281.226 L597.196,272.856 L616.769,269.845 L622.207,274.026 L622.207,274.026 C641.777,303.937 649.074,340.235 642.585,375.385 L641.057,383.659 L640.088,388.91 L640.508,395.188 L637.241,404.327 L637.691,411.019 L637.931,414.594 L638.172,418.181 L638.508,423.188 C639.109,426.046 636.079,425.669 636.508,428.188 C637.26,432.612 640.636,439.167 635.508,439.188 L582.508,428.188 C569.043,428.243 556.508,412.188 569.508,399.188 z" fill="#8D30FE"/>
    <path d="M629.024,234.112 C629.024,248.326 617.501,259.848 603.287,259.848 C589.073,259.848 577.551,248.326 577.551,234.112 C577.551,219.898 589.073,208.375 603.287,208.375 C617.501,208.375 629.024,219.898 629.024,234.112 z" fill="#FFB8B8"/>
    <path d="M546.195,249.22 L546.126,249.215 C527.349,246.598 508.301,246.598 489.524,249.215 L489.494,249.215 C487.614,249.222 485.76,248.775 484.091,247.911 C479.326,245.323 477.169,239.64 479.018,234.543 C481.047,229.299 481.13,223.503 479.253,218.203 C478.053,214.837 478.494,211.103 480.443,208.107 C482.258,205.278 485.305,203.475 488.659,203.246 C488.923,203.229 489.187,203.22 489.455,203.22 C508.195,206.518 527.368,206.521 546.109,203.227 L546.133,203.227 C549.879,203.214 553.404,204.998 555.612,208.025 C557.467,210.682 558.037,214.029 557.166,217.15 C555.72,222.775 555.789,228.849 557.377,235.719 C557.953,238.122 557.665,240.651 556.563,242.864 C554.586,246.771 550.574,249.23 546.195,249.22 z" fill="#3F3D56"/>
    <path d="M573.632,307.869 L584.281,291.406 C577.061,280.85 551.505,266.501 551.505,266.501 L518.455,230.352 C517.766,226.204 514.196,223.152 509.992,223.115 C505.787,223.078 502.165,226.068 501.403,230.203 C500.641,234.337 502.96,238.422 506.901,239.886 L541.569,290.207 z" fill="#FFB8B8"/>
    <path d="M620.355,327.586 L620.355,327.586 C616.953,332.715 611.444,336.064 605.325,336.722 C599.206,337.379 593.111,335.278 588.697,330.989 L579.819,322.361 C579.819,322.361 542.604,302.929 537.173,291.01 L512.788,256.424 L529.138,241.674 L557.557,267.508 C557.557,267.508 570.641,282.638 579.975,282.885 C585.691,283.037 602.122,290.748 614.6,298.947 C619.165,301.978 622.338,306.7 623.418,312.073 C624.497,317.446 623.395,323.027 620.355,327.586 z" fill="#8D30FE"/>
    <path d="M378.014,665.759 L377.945,665.754 C359.169,663.138 340.12,663.138 321.343,665.754 L321.313,665.754 C319.433,665.761 317.58,665.314 315.91,664.45 C311.145,661.862 308.989,656.179 310.838,651.082 C312.866,645.839 312.95,640.042 311.072,634.743 C309.873,631.376 310.313,627.642 312.262,624.646 C314.078,621.818 317.125,620.015 320.478,619.786 C320.742,619.768 321.007,619.759 321.274,619.759 C340.015,623.057 359.187,623.06 377.928,619.766 L377.952,619.766 C381.698,619.753 385.224,621.537 387.431,624.564 C389.286,627.221 389.856,630.568 388.985,633.689 C387.54,639.314 387.608,645.388 389.196,652.258 C389.772,654.661 389.484,657.19 388.383,659.403 C386.405,663.31 382.394,665.769 378.014,665.759 z" fill="#8D30FE"/>
    <path d="M394.014,623.759 L393.945,623.754 C375.169,621.138 356.12,621.138 337.343,623.754 L337.313,623.754 C335.433,623.761 333.58,623.314 331.91,622.45 C327.145,619.862 324.989,614.179 326.838,609.082 C328.866,603.839 328.95,598.042 327.072,592.743 C325.873,589.376 326.313,585.642 328.262,582.646 C330.078,579.818 333.125,578.015 336.478,577.786 C336.742,577.768 337.007,577.759 337.274,577.759 C356.015,581.057 375.187,581.06 393.928,577.766 L393.952,577.766 C397.698,577.753 401.224,579.537 403.431,582.564 C405.286,585.221 405.856,588.568 404.985,591.689 C403.54,597.314 403.608,603.388 405.196,610.258 C405.772,612.661 405.484,615.19 404.383,617.403 C402.405,621.31 398.394,623.769 394.014,623.759 z" fill="#3F3D56"/>
    <path d="M254.002,635.208 L254.044,635.154 C266.732,621.067 277.406,605.29 285.759,588.272 L285.776,588.247 C286.824,586.686 288.233,585.401 289.884,584.502 C294.697,582.005 300.613,583.404 303.799,587.791 C307.005,592.41 311.759,595.726 317.201,597.141 C320.661,598.034 323.507,600.49 324.896,603.784 C326.222,606.872 326.008,610.406 324.319,613.312 C324.185,613.541 324.045,613.765 323.895,613.987 C310.662,627.661 299.917,643.539 292.144,660.908 L292.131,660.927 C290.043,664.038 286.59,665.958 282.846,666.091 C279.606,666.138 276.514,664.734 274.417,662.264 C270.567,657.915 265.498,654.569 258.919,652.035 C256.605,651.165 254.672,649.509 253.456,647.357 C251.328,643.53 251.539,638.83 254.002,635.208 z" fill="#3F3D56"/>
    <path d="M336.16,331.791 L336.091,331.786 C317.314,329.17 298.266,329.17 279.489,331.786 L279.459,331.786 C277.579,331.793 275.725,331.346 274.055,330.482 C269.291,327.894 267.134,322.211 268.983,317.114 C271.012,311.871 271.095,306.074 269.218,300.775 C268.018,297.408 268.458,293.674 270.408,290.678 C272.223,287.85 275.27,286.047 278.624,285.818 C278.887,285.8 279.152,285.791 279.42,285.791 C298.16,289.089 317.333,289.092 336.074,285.798 L336.097,285.798 C339.844,285.785 343.369,287.569 345.577,290.596 C347.432,293.253 348.001,296.6 347.131,299.721 C345.685,305.346 345.754,311.42 347.342,318.29 C347.918,320.693 347.63,323.223 346.528,325.435 C344.55,329.342 340.539,331.801 336.16,331.791 z" fill="#8D30FE"/>
    <path d="M804.448,639.285 C802.932,639.355 801.534,638.47 800.948,637.07 C800.363,635.669 800.715,634.053 801.829,633.023 C801.92,632.66 801.985,632.4 802.077,632.038 C800.628,628.358 797.091,625.924 793.135,625.887 C789.18,625.85 785.598,628.216 784.08,631.869 C779.797,641.892 774.255,652.268 777.011,663.309 C758.805,624.723 764.997,576.727 791.903,543.729 C799.34,539.632 805.368,532.353 806.937,523.902 C803.257,525.149 798.667,522.155 801.435,518.278 C802.634,516.796 803.846,515.326 805.045,513.844 C791.063,498.954 774.404,522.356 789.794,542.454 C784.76,548.766 780.399,555.587 776.783,562.805 C777.618,555.14 776.621,547.386 773.875,540.181 C771.091,533.466 765.874,527.811 761.28,522.006 C755.694,514.933 744.197,518.196 743.445,527.172 C748.6,528.866 749.27,536.313 743.373,537.332 C744.918,554.03 755.827,569.376 770.852,576.699 C765.303,592.267 763.136,608.839 764.496,625.31 C761.844,606.06 741.18,601.389 726.737,593.738 C724.859,592.533 722.447,592.552 720.588,593.787 C718.729,595.021 717.776,597.238 718.157,599.436 C720.151,600.247 722.059,601.253 723.853,602.441 C725.576,603.599 726.385,605.716 725.872,607.728 C725.36,609.74 723.639,611.213 721.572,611.406 C728.852,629.424 747.674,641.524 767.005,641.456 C768.863,649.528 771.555,657.386 775.037,664.903 L803.729,664.903 C803.832,664.584 803.924,664.255 804.017,663.936 C801.361,664.103 798.695,663.944 796.078,663.463 C803.104,655.144 808.538,650.9 804.448,639.286 z" fill="#F2F2F2"/>
    <path d="M108.821,555.061 L104.961,574.842 C104.67,576.354 104.366,577.893 104.036,579.419 C100.809,578.736 97.464,578.927 94.332,579.972 C96.817,583.599 99.044,587.403 100.995,591.354 C98.563,599.01 94.993,606.085 89.018,611.202 C80.901,617.998 69.9,619.974 60,616.414 L60.172,615.631 C53.747,602.899 57.238,586.845 65.222,575.085 C69.295,569.283 74.12,564.073 79.566,559.598 C84.959,555.007 90.789,550.889 96.567,546.825 C99.221,544.961 102.716,544.925 105.407,546.733 C108.097,548.542 109.447,551.834 108.821,555.061 z" fill="#E4E4E4"/>
    <path d="M61.375,664.008 C59.75,651.92 58.079,639.678 59.219,627.46 C60.232,616.61 63.472,606.012 70.071,597.322 C73.574,592.718 77.836,588.774 82.666,585.666 C83.926,584.856 85.084,586.893 83.83,587.701 C75.474,593.095 69.01,601.06 65.372,610.447 C61.353,620.887 60.708,632.268 61.406,643.357 C61.825,650.063 62.712,656.724 63.607,663.38 C63.756,664.005 63.403,664.641 62.8,664.83 C62.186,665 61.553,664.632 61.38,664.007 z" fill="#F2F2F2" id="b311a411-101b-4365-a37b-2cdfec47a637-17"/>
    <path d="M145.666,283.223 L146.724,219.444 C146.767,216.837 142.801,216.836 142.758,219.444 L141.7,283.223 C141.657,285.831 145.623,285.831 145.666,283.223 z" fill="#E6E6E6"/>
    <path d="M144.351,210.625 L144.346,210.628 L144.356,210.625 L144.351,210.625 z" fill="#E6E6E6"/>
    <path d="M144.363,210.623 C144.369,210.625 144.363,210.624 144.362,210.625 z" fill="#E6E6E6"/>
    <path d="M144.362,210.622 L144.363,210.623 z" fill="#E6E6E6"/>
    <path d="M144.362,210.625 L144.356,210.626 C144.364,210.627 144.361,210.625 144.362,210.625 z" fill="#E6E6E6"/>
    <path d="M144.359,210.621 L144.359,210.621 L144.361,210.623 L144.359,210.621 z" fill="#E6E6E6"/>
    <path d="M152.566,445.575 C154.4,443.693 155.323,441.077 155.088,438.432 C154.852,435.788 153.481,433.385 151.344,431.872 L165.334,360.906 L149.885,365.972 L138.687,434.614 C136.386,438.535 137.319,443.594 140.86,446.391 C144.401,449.187 149.43,448.837 152.566,445.575 z" fill="#9E616A"/>
    <path d="M173.222,295.43 L163.637,288.04 C163.637,288.04 155.181,287.428 153.684,303.002 C152.186,318.576 149.111,348.927 149.111,348.927 L134.444,418.308 L154.747,422.86 L170.457,347.985 L179.881,325.75 z" fill="#CCCCCC"/>
    <path d="M157.42,408.722 L211.432,407.803 L215.934,370.107 L157.42,370.107 L157.42,408.722 z" fill="#9E616A"/>
    <path d="M206.031,640.69 L218.5,640.69 L224.431,591.569 L206.028,591.57 L206.031,640.69 z" fill="#9E616A"/>
    <path d="M127.915,641.87 L140.384,641.779 L145.978,592.618 L129.761,596.417 L127.915,641.87 z" fill="#9E616A"/>
    <path d="M166.913,337.644 L164.088,345.146 L164.653,352.649 L219.947,372.209 L217.204,339.375 L210.988,331.872 L166.913,337.644 z" fill="#FFB6B6"/>
    <path d="M210.384,249.958 C210.384,261.098 201.542,270.129 190.635,270.129 C179.728,270.129 170.886,261.098 170.886,249.958 C170.886,238.818 179.728,229.788 190.635,229.788 C201.542,229.788 210.384,238.818 210.384,249.958 z" fill="#9E616A"/>
    <path d="M185.881,269.845 L188.986,269.845 C192.299,269.845 194.986,272.531 194.986,275.845 L194.986,279.179 C194.986,282.493 192.299,285.179 188.986,285.179 L185.881,285.179 C182.567,285.179 179.881,282.493 179.881,279.179 L179.881,275.845 C179.881,272.531 182.567,269.845 185.881,269.845 z" fill="#9E616A"/>
    <path d="M202.938,634.408 L222.649,633.206 L222.649,641.832 L241.389,655.05 C243.289,656.39 244.115,658.836 243.428,661.087 C242.741,663.338 240.7,664.871 238.391,664.871 L214.925,664.871 L210.88,656.339 L209.301,664.871 L200.453,664.871 z" fill="#2F2E41"/>
    <path d="M123.649,635.617 L143.352,634.275 L143.411,642.9 L162.241,655.984 C164.15,657.31 164.992,659.75 164.321,662.006 C163.649,664.262 161.619,665.81 159.31,665.826 L135.844,665.994 L131.741,657.491 L130.22,666.034 L121.373,666.097 z" fill="#2F2E41"/>
    <path d="M124.035,604.207 L133.114,530.085 L143.917,451.935 C136.006,436.93 153.819,390.334 153.819,390.334 L156.333,390.458 L213.245,401.423 L213.233,401.367 C224.873,433.793 228.729,449.812 228.091,484.343 L225.798,608.472 L226.518,608.472 C229.004,608.472 231.019,610.53 231.019,613.069 C231.019,615.608 229.004,617.666 226.518,617.666 L204.013,617.666 C202.403,617.669 200.914,616.794 200.108,615.37 C199.302,613.947 199.302,612.192 200.108,610.768 C200.914,609.345 202.403,608.469 204.013,608.472 L204.593,608.472 L183.936,460.671 L166.422,522.73 L146.617,603.638 C153.819,601.799 152.701,606.059 152.701,608.472 C152.701,611.011 150.686,613.069 148.2,613.069 L125.695,613.069 C123.535,613.072 121.679,611.506 121.274,609.34 C120.868,607.174 122.027,605.019 124.035,604.207 z" fill="#2F2E41"/>
    <path d="M149.388,392.748 L151.188,374.36 C151.572,372.821 152.882,371.709 154.433,371.606 C155.184,362.847 158.34,325.058 158.528,323.41 L158.536,323.34 L159.971,292.027 C160.079,289.672 161.901,287.776 164.204,287.623 L171.785,287.116 C172.001,287.109 172.172,286.928 172.172,286.707 C172.172,283.111 175.026,280.196 178.547,280.196 L200.99,280.196 C203.998,280.198 206.535,282.484 206.909,285.532 C206.93,285.743 207.106,285.901 207.313,285.897 L207.315,285.897 C212.585,285.786 217.144,289.624 218.042,294.929 C221.11,313.162 227.259,354.544 224.219,377.55 C223.161,385.558 225.442,379.215 225.842,385.916 C225.923,387.224 225.49,388.511 224.64,389.492 C226.433,390.158 227.368,392.173 226.736,394.012 L227.13,393.912 C226.644,395.882 224.687,397.076 222.758,396.579 L164.041,404.705 C162.113,404.209 148.902,394.717 149.388,392.748 z" fill="#CCCCCC"/>
    <path d="M306.287,317.985 C305.542,320.53 303.732,322.607 301.344,323.657 C298.956,324.708 296.235,324.624 293.913,323.429 L271.214,344.586 L268.2,328.303 L290.232,310.76 C292.507,306.823 297.306,305.246 301.402,307.09 C305.498,308.933 307.596,313.614 306.287,317.985 z" fill="#9E616A"/>
    <path d="M227.279,301.813 C227.279,301.813 219.364,283.544 209.367,287.175 C199.37,290.807 204.532,308.532 204.532,308.532 L242.091,366.336 C242.091,366.336 296.265,330.843 289.677,330.592 C283.09,330.341 281.119,318.104 281.119,318.104 L252.487,332.716 L251.518,327.514 L249.966,329.1 L245.959,325.879 z" fill="#CCCCCC"/>
    <path d="M167.392,237.608 C164.363,239.093 160.972,236.859 158.357,234.646 L159.293,235.471 C154.671,240.064 152.51,246.671 151.454,253.175 C150.398,259.672 150.28,266.317 148.949,272.768 C147.617,279.213 144.855,285.687 139.695,289.635 C132.782,294.921 123.248,294.582 114.765,292.961 C114.652,292.938 114.547,292.92 114.434,292.897 C116.716,286.166 117.644,279.033 117.162,271.927 C114.888,279.048 111.017,285.528 105.857,290.851 C100.232,289.271 94.742,287.228 89.441,284.742 C86.01,283.129 82.317,280.924 81.365,277.191 C80.41,273.485 82.627,269.599 85.59,267.259 C88.554,264.919 92.191,263.699 95.568,262.032 C98.939,260.373 102.274,258.007 103.624,254.436 C106.737,246.222 97.869,236.796 101.325,228.721 C103.029,224.75 107.203,222.59 111.127,220.925 C117.117,218.39 123.267,216.271 129.536,214.583 C135.04,213.1 140.787,211.948 146.393,212.92 C152,213.892 157.493,217.375 159.511,222.813 C162.878,223.975 166.452,225.285 168.613,228.18 C170.773,231.067 170.598,236.038 167.392,237.608 z" fill="#2F2E41"/>
    <path d="M194.342,228.089 C185.677,221.103 178.671,222.295 173.267,226.636 C172.358,225.604 168.491,228.444 167.182,228.035 L162.447,237.114 C160.01,241.506 159.011,245.989 159.405,248.512 C154.923,261.349 165.551,270.018 178.121,274.595 C183.136,276.435 188.608,276.516 193.674,274.826 L193.828,272.638 L194.78,274.431 C194.78,274.431 206.271,298.596 208.986,299.681 C207.339,295.316 202.993,274.569 201.78,270.245 C200.117,264.361 201.253,255.013 202.231,249.282 C202.84,245.748 202.872,242.136 202.325,238.592 L202.301,238.437 L204.989,243.98 L211.022,240.106 C208.716,233.248 208.67,225.044 194.342,228.089 z" fill="#2F2E41"/>
    <path d="M866.695,446.643 L934.779,446.643 L934.779,370.21 L866.695,370.21 C874.13,380.186 870.451,413.335 866.695,446.643 z" fill="#FFB6B6"/>
    <path d="M866.3,641.679 L854.045,641.679 L848.214,594.507 L866.303,594.508 L866.3,641.679 z" fill="#FFB6B6"/>
    <path d="M849.966,642.78 L849.966,634.489 L853.188,634.686 L866.304,635.461 L869.339,635.647 L871.659,663.414 L871.784,664.903 L863.082,664.903 L862.802,663.424 L861.538,656.705 L858.275,663.424 L857.56,664.903 L834.489,664.903 C831.632,664.885 829.322,662.575 829.31,659.723 C828.336,655.185 847.522,645.375 849.966,642.78 z" fill="#2F2E41"/>
    <path d="M1009.879,628.368 L999.22,634.402 L970.821,596.246 L986.553,587.339 L1009.879,628.368 z" fill="#FFB6B6"/>
    <path d="M996.212,637.363 L992.12,630.158 L995,628.741 L1006.8,622.963 L1009.535,621.619 L1022.971,641.25 L1026.131,645.861 L1022.557,647.887 L1018.568,650.151 L1013.161,643.783 L1013.761,652.87 L994.917,663.548 L994.907,663.548 L993.695,664.231 C991.203,665.636 988.042,664.761 986.63,662.277 C983.543,658.803 995.373,640.836 996.212,637.363 z" fill="#2F2E41"/>
    <path d="M937.332,410.125 C953.755,420.985 959.8,525.319 955.533,523.616 L994.242,595.603 L939.146,620.248 L902.919,494.726 L896.881,540.918 L904.931,614.223 L869.318,622.818 L844.685,621.062 C851.086,533.684 856.854,441.526 870.099,405.879 z" fill="#2F2E41"/>
    <path d="M890.298,286.697 C892.143,279.75 908.826,283.662 910.192,286.742 C911.055,288.688 914.009,295.028 917.852,296.933 C923.397,299.681 924.958,300.389 924.958,300.389 C922.337,333.696 927.561,359.326 943.244,407.574 C943.274,410.056 942.007,412.376 939.901,413.697 C937.794,415.019 935.15,415.152 932.921,414.049 L868.491,409.036 L860.852,368.917 L850.854,347.853 L863.808,321.246 L864.919,305.725 L884.132,297.207 C884.132,297.207 887.832,295.984 890.298,286.697 z" fill="#3F3D56"/>
    <path d="M878.13,279.311 L878.11,279.314 C875.927,279.501 874.005,277.889 873.816,275.711 L871.898,253.702 C871.55,249.758 872,245.786 873.222,242.021 C875.616,234.672 880.76,228.528 887.582,224.87 C891.105,222.986 894.973,221.834 898.953,221.482 C915.239,220.042 921.164,223.464 931.053,248.301 C940.942,273.137 932.975,270.342 932.975,270.342 C933.022,270.872 932.961,271.408 932.796,271.914 C932.473,272.902 931.78,273.728 930.862,274.217 C930.39,274.469 929.873,274.622 929.341,274.671 C910.068,279.423 890.619,284.432 878.127,279.311 z" fill="#2F2E41" id="a2192116-6b97-466f-8b13-d9817c84884d-25"/>
    <path d="M895.624,232.413 C899.404,232.586 897.791,232.392 900.479,232.818 C906.14,233.915 911.125,237.229 914.321,242.02 L914.321,242.019 C919.212,249.344 919.202,258.887 914.298,266.202 C912.523,268.897 910.134,271.066 907.376,272.707 C908.626,273.695 908.814,275.372 908.968,276.829 L908.968,285.791 C908.253,288.037 892.512,288.899 891.847,286.32 L893.285,277.758 L893.471,276.182 C893.549,275.51 892.549,275.557 891.906,275.452 C886.218,274.522 881.27,271.032 878.08,266.241 C873.2,258.919 873.212,249.387 878.111,242.077 C882.489,235.731 888.161,233.176 895.624,232.413 z" fill="#FFB6B6"/>
    <path d="M865.191,255.694 C864.916,252.576 865.272,249.434 866.238,246.456 C866.506,239.157 868.673,232.559 877.594,232.895 C880.362,231.416 883.4,230.508 886.528,230.224 L890.94,229.819 Q891.014,229.812 891.089,229.806 C903.945,228.697 918.32,231.884 919.43,244.713 L920.23,255.713 L907.081,252.317 L903.122,243.716 L903.261,252.666 L898.44,253.106 L896.444,248.767 L896.512,253.279 C889.316,259.519 878.466,259.777 865.233,256.135 z" fill="#2F2E41" id="aaaefc33-4d64-40b9-9ad5-5bc57b25f5f9-27"/>
    <path d="M894.646,280.77 C894.562,281.495 894.683,282.228 894.996,282.887 C895.154,283.224 895.358,283.538 895.602,283.819 C895.812,284.058 896.049,284.272 896.309,284.456 C897.078,284.998 898.016,285.248 898.954,285.163 Q899.041,285.154 899.128,285.143 Q899.216,285.131 899.303,285.115 Q899.391,285.1 899.477,285.08 Q899.564,285.06 899.651,285.037 L902.913,284.148 L906.63,274.019 L907.407,282.934 L922.24,278.919 L918.942,241.088 L893.69,243.402 L894.378,244.072 C896.662,246.321 898.281,249.155 899.056,252.262 C899.824,255.411 900.046,258.669 899.712,261.892 C899.398,265.152 898.771,268.375 897.84,271.515 C897.03,274.296 896.059,277.028 894.933,279.697 C894.788,280.04 894.691,280.401 894.646,280.77 z" fill="#2F2E41" id="a25eee40-fd94-4a6a-9f0d-d3f65b8e441c-28"/>
    <path d="M937.966,535.247 L956.514,423.94 C957.29,419.248 954.114,414.815 949.414,414.03 L865.175,400.051 C860.474,399.277 856.031,402.446 855.244,407.136 L836.696,518.443 C835.919,523.134 839.095,527.568 843.795,528.353 L928.034,542.331 C932.736,543.106 937.179,539.937 937.966,535.247 z" fill="#F2F2F2"/>
    <path d="M937.106,500.555 L949.03,428.997 C949.758,424.603 946.783,420.451 942.382,419.716 L869.985,407.703 C865.582,406.977 861.421,409.945 860.684,414.337 L844.179,513.385 C843.452,517.779 846.426,521.931 850.828,522.667 L895.676,530.109 C915.289,533.341 933.823,520.12 937.106,500.555 z" fill="#FFFFFF"/>
    <path d="M933.981,447.018 C934.692,442.724 931.786,438.667 927.484,437.949 L877.263,429.615 C872.961,428.906 868.897,431.808 868.182,436.1 C867.467,440.392 870.371,444.45 874.671,445.168 L924.893,453.502 C929.195,454.211 933.261,451.31 933.981,447.018 z" fill="#3F3D56"/>
    <path d="M929.95,471.212 C930.661,466.918 927.754,462.861 923.453,462.142 L873.232,453.809 C868.93,453.099 864.865,456.001 864.15,460.293 C863.434,464.585 866.339,468.644 870.64,469.362 L920.861,477.695 C925.164,478.404 929.23,475.504 929.95,471.212 z" fill="#8D30FE"/>
    <path d="M925.918,495.405 C926.629,491.112 923.722,487.054 919.421,486.336 L869.2,478.002 C864.898,477.293 860.834,480.195 860.119,484.487 C859.404,488.779 862.308,492.837 866.608,493.555 L916.829,501.889 C921.132,502.598 925.198,499.697 925.918,495.405 z" fill="#8D30FE"/>
    <path d="M947.984,435.558 C946.166,433.659 945.275,431.06 945.546,428.448 C945.817,425.836 947.223,423.474 949.392,421.987 L940.552,378.215 L952.083,372.798 L962.202,424.863 C964.49,428.779 963.481,433.784 959.853,436.512 C956.226,439.241 951.127,438.831 947.984,435.558 z" fill="#FFB6B6"/>
    <path d="M923.397,299.681 C923.397,299.681 949.943,307.333 951.054,318.42 C952.165,329.506 954.718,339.387 953.607,343.822 C952.496,348.257 957.426,353.296 955.204,356.622 C952.982,359.948 958.311,361.041 956.089,366.585 C953.867,372.128 952.756,373.236 953.867,374.345 C954.978,375.454 958.609,398.235 958.609,398.235 L942.829,401.73 L922.24,355.005 z" fill="#3F3D56"/>
    <path d="M856.043,435.558 C857.861,433.659 858.752,431.06 858.481,428.448 C858.21,425.836 856.804,423.474 854.635,421.987 L863.475,378.215 L851.944,372.798 L841.825,424.863 C839.537,428.779 840.546,433.784 844.174,436.512 C847.801,439.241 852.9,438.831 856.043,435.558 z" fill="#FFB6B6"/>
    <path d="M869.269,304.007 C864.972,304.247 861.144,306.793 859.27,310.659 C855.937,317.311 843.456,359.241 844.567,362.567 C845.678,365.892 840.643,376.633 842.865,378.851 C845.087,381.068 847.12,393.989 847.12,393.989 L863.312,397.697 L868.535,348.353 z" fill="#3F3D56"/>
    <path d="M1026.376,668.723 L1.625,669.03 C0.727,669.028 0,668.496 0,667.84 C0,667.183 0.727,666.651 1.625,666.649 L1026.376,666.342 C1027.274,666.344 1028,666.876 1028,667.532 C1028,668.189 1027.274,668.721 1026.376,668.723 z" fill="#CACACA"/>
    <path d="M605.44,254.555 L610.909,254.555 C614.223,254.555 616.909,257.241 616.909,260.555 L617.929,270.129 C617.929,273.443 614.643,275.144 611.329,275.144 L601.546,275.144 C598.233,275.144 597.729,273.159 597.729,269.845 L599.44,260.555 C599.44,257.241 602.126,254.555 605.44,254.555 z" fill="#FFB8B8"/>
    <path d="M608.286,258.489 C612.052,258.548 615.816,258.285 619.537,257.703 C623.225,256.953 631.476,250.907 633.776,247.268 L633.776,247.268 C635.485,244.565 636.578,240.344 637.194,237.279 C638.871,229.076 636.992,220.547 632.023,213.808 C631.079,212.415 629.775,211.302 628.25,210.588 C628.115,210.535 627.976,210.489 627.836,210.449 C625.614,209.864 623.617,208.629 622.103,206.901 C621.809,206.552 621.491,206.224 621.15,205.92 C619.438,204.476 617.408,203.457 615.227,202.947 C611.707,202.004 606.611,202.94 600.084,205.729 C596.804,207.131 593.217,206.624 590.458,206.025 C590.143,205.964 589.82,206.075 589.608,206.316 C588.434,207.418 586.887,208.035 585.277,208.043 C584.29,208.086 583.256,209.452 582.005,211.232 C581.721,211.637 581.39,212.108 581.151,212.395 L581.119,211.844 L580.561,212.459 C578.779,214.424 578.128,217.165 578.836,219.721 C579.545,222.277 581.514,224.292 584.053,225.059 C585.045,225.323 586.061,225.485 587.086,225.543 C587.707,225.598 588.349,225.656 588.965,225.763 C592.983,226.586 596.273,229.459 597.63,233.33 C597.949,234.221 598.665,234.913 599.566,235.203 C600.468,235.493 601.453,235.348 602.232,234.81 C603.533,233.797 605.248,233.485 606.823,233.974 C607.493,234.347 608.015,234.939 608.301,235.651 C608.649,236.444 609.224,237.116 609.955,237.58 C612.455,238.869 612.627,244.578 611.729,249.337 C610.864,253.924 609.153,257.242 607.57,257.406 C606.351,257.532 606.211,257.619 606.123,257.834 L606.044,258.027 L606.181,258.208 C606.854,258.452 607.572,258.548 608.286,258.489 z" fill="#2F2E41"/>
  </g>
</svg>
