<?xml version="1.0" encoding="UTF-8"?>
<!DOCTYPE svg PUBLIC "-//W3C//DTD SVG 1.1//EN" "http://www.w3.org/Graphics/SVG/1.1/DTD/svg11.dtd">
<svg version="1.1" xmlns="http://www.w3.org/2000/svg" xmlns:xlink="http://www.w3.org/1999/xlink" x="0" y="0" width="226" height="133" viewBox="0, 0, 226, 133">






     
      <path d="M55.834,88.402 Q51.352,88.402 47.606,86.057 Q43.86,83.712 41.739,79.622 Q39.617,75.532 39.617,70.544 L39.617,69.047 Q39.617,64.06 41.67,59.903 Q43.723,55.745 47.315,53.417 Q50.907,51.09 55.149,51.09 Q61.342,51.09 65.276,55.379 Q69.211,59.67 69.211,66.653 L69.211,68.549 L41.465,68.549 L41.465,70.511 Q41.465,74.9 43.364,78.642 Q45.262,82.383 48.598,84.511 Q51.934,86.64 55.834,86.64 Q59.563,86.64 62.18,85.425 Q64.797,84.212 66.815,81.685 L68.115,82.582 Q63.976,88.402 55.834,88.402 z M55.149,52.886 Q49.744,52.886 45.981,56.793 Q42.217,60.701 41.567,66.753 L67.363,66.753 L67.363,66.32 Q67.363,62.663 65.772,59.52 Q64.182,56.377 61.393,54.632 Q58.605,52.886 55.149,52.886 z"/>
   
    
      <path d="M104.626,78.925 Q104.626,72.373 93.131,70.012 Q86.221,68.582 83.518,66.338 Q80.815,64.092 80.815,60.168 Q80.815,56.211 84.254,53.65 Q87.692,51.09 93.2,51.09 Q99.187,51.09 102.813,53.866 Q106.44,56.643 106.44,61.365 L104.559,61.365 Q104.559,57.74 101.411,55.313 Q98.263,52.886 93.2,52.886 Q88.342,52.886 85.502,54.948 Q82.663,57.009 82.663,60.102 Q82.663,62.529 83.723,63.91 Q84.784,65.289 87.179,66.403 Q89.573,67.518 94.158,68.549 Q98.742,69.58 101.411,70.977 Q104.08,72.373 105.276,74.285 Q106.474,76.197 106.474,78.957 Q106.474,83.214 102.882,85.808 Q99.289,88.402 93.474,88.402 Q87.247,88.402 83.433,85.658 Q79.617,82.914 79.617,78.591 L81.465,78.591 Q81.739,82.383 84.904,84.494 Q88.068,86.606 93.474,86.606 Q98.434,86.606 101.53,84.362 Q104.626,82.116 104.626,78.925 z"/>

      <path d="M133.953,88.402 Q129.471,88.402 125.725,86.057 Q121.979,83.712 119.857,79.622 Q117.736,75.532 117.736,70.544 L117.736,69.047 Q117.736,64.06 119.79,59.903 Q121.842,55.745 125.434,53.417 Q129.027,51.09 133.269,51.09 Q139.461,51.09 143.395,55.379 Q147.33,59.67 147.33,66.653 L147.33,68.549 L119.584,68.549 L119.584,70.511 Q119.584,74.9 121.482,78.642 Q123.381,82.383 126.717,84.511 Q130.052,86.64 133.953,86.64 Q137.682,86.64 140.299,85.425 Q142.916,84.212 144.935,81.685 L146.235,82.582 Q142.095,88.402 133.953,88.402 z M133.269,52.886 Q127.863,52.886 124.1,56.793 Q120.336,60.701 119.686,66.753 L145.482,66.753 L145.482,66.32 Q145.482,62.663 143.891,59.52 Q142.301,56.377 139.512,54.632 Q136.724,52.886 133.269,52.886 z"/>
 
      <path d="M162.219,87.737 L160.371,87.737 L160.371,36.657 L162.219,36.657 z"/>
 
      <path d="M181.625,87.737 L179.778,87.737 L179.778,51.755 L181.625,51.755 z M178.82,40.514 Q178.82,39.75 179.367,39.201 Q179.915,38.653 180.702,38.653 Q181.488,38.653 182.053,39.201 Q182.617,39.75 182.617,40.514 Q182.617,41.279 182.053,41.812 Q181.488,42.344 180.702,42.344 Q179.915,42.344 179.367,41.812 Q178.82,41.279 178.82,40.514 z"/>

      <path d="M199.594,60.135 Q201.406,55.945 204.931,53.518 Q208.454,51.09 212.731,51.09 Q218.684,51.09 221.574,54.365 Q224.465,57.641 224.5,64.259 L224.5,87.737 L222.652,87.737 L222.652,64.192 Q222.618,58.406 220.223,55.629 Q217.828,52.852 212.628,52.852 Q207.839,52.852 204.331,56.161 Q200.825,59.47 199.594,64.691 L199.594,87.737 L197.746,87.737 L197.746,51.755 L199.594,51.755 z"/>
 
      <path d="M31.599,52.992 L17.425,88.402 L15.641,88.402 L1.5,52.992 L3.453,52.992 L16.55,85.588 L29.635,52.992 L31.599,52.992 z"/>




</svg>
