<?xml version="1.0" encoding="UTF-8"?>
<!DOCTYPE svg PUBLIC "-//W3C//DTD SVG 1.1//EN" "http://www.w3.org/Graphics/SVG/1.1/DTD/svg11.dtd">
<svg version="1.1" xmlns="http://www.w3.org/2000/svg" xmlns:xlink="http://www.w3.org/1999/xlink" x="0" y="0" width="226" height="133" viewBox="0, 0, 226, 133">
  <g id="Layer_3">

    <motion.path
                                                  initial={{ opacity: 0 }}  // x=?
                                                  animate={{ opacity: 1 }}
                                                  transition={transition_stroke_extra}
                                                  stroke={color}
                                                  strokeWidth={strokeWidth_extra}
                                                  fill-opacity="0"
 d="M38.829,51.496 L24.567,88.149 L22.772,88.149 L8.544,51.496 L10.509,51.496 L23.687,85.236 L36.166,53.284 L33.026,53.284 L33.026,51.496 L38.829,51.496 z" 
    />


    <motion.path
                                                  initial={{ opacity: 0 }}  // x=?
                                                  animate={{ opacity: 1 }}
                                                  transition={transition_stroke_extra}
                                                  stroke={color}
                                                  strokeWidth={strokeWidth_extra}
                                                  fill-opacity="0"
 d="M60.526,50.819 Q66.658,50.819 70.554,55.189 Q74.449,59.559 74.449,66.673 L74.449,68.604 L46.976,68.604 L46.976,70.602 Q46.976,75.074 48.856,78.885 Q50.737,82.696 54.039,84.864 Q57.342,87.032 61.204,87.032 Q64.896,87.032 67.488,85.795 Q70.079,84.559 72.078,81.984 L73.365,82.899 Q69.266,88.827 61.204,88.827 Q56.766,88.827 53.057,86.439 Q49.348,84.051 47.247,79.884 Q45.147,75.717 45.147,70.636 L45.147,69.112 L45.175,68.562 L41.901,68.562 L41.901,66.774 L45.266,66.774 C45.329,64.094 46.23,62.114 47.18,59.796 Q49.212,55.562 52.769,53.19 Q56.326,50.819 60.526,50.819 z M60.526,52.648 Q55.174,52.648 51.448,56.629 Q47.722,60.609 47.078,66.774 L72.62,66.774 L72.62,66.334 Q72.62,62.608 71.045,59.406 Q69.47,56.205 66.709,54.427 Q63.948,52.648 60.526,52.648 z" 
    />


    <motion.path
                                                  initial={{ opacity: 0 }}  // x=?
                                                  animate={{ opacity: 1 }}
                                                  transition={transition_stroke_extra}
                                                  stroke={color}
                                                  strokeWidth={strokeWidth_extra}
                                                  fill-opacity="0"
 d="M107.563,79.173 Q107.563,72.499 96.181,70.094 Q89.338,68.637 86.662,66.351 Q83.985,64.064 83.985,60.067 Q83.985,56.036 87.39,53.427 Q90.794,50.819 96.248,50.819 Q102.176,50.819 105.767,53.648 Q109.358,56.476 109.358,61.286 L107.495,61.286 Q107.495,57.594 104.378,55.121 Q101.262,52.648 96.248,52.648 Q91.438,52.648 88.626,54.749 Q85.815,56.849 85.815,59.999 Q85.815,62.472 86.865,63.878 Q87.915,65.284 90.286,66.419 Q92.658,67.553 97.197,68.604 Q101.736,69.654 104.378,71.076 Q107.021,72.499 108.206,74.447 Q109.392,76.395 109.392,79.206 Q109.392,83.542 105.835,86.185 Q102.278,88.827 96.519,88.827 Q90.354,88.827 86.577,86.032 Q82.8,83.238 82.8,78.834 L84.629,78.834 Q84.9,82.696 88.034,84.847 Q91.167,86.998 96.519,86.998 Q101.431,86.998 104.497,84.711 Q107.563,82.425 107.563,79.173 z" 
    />


    <motion.path
                                                  initial={{ opacity: 0 }}  // x=?
                                                  animate={{ opacity: 1 }}
                                                  transition={transition_stroke_extra}
                                                  stroke={color}
                                                  strokeWidth={strokeWidth_extra}
                                                  fill-opacity="0"
 d="M160.68,88.149 L158.851,88.149 L158.851,37.904 L155.612,37.904 L155.612,36.117 L160.68,36.117 L160.68,88.149 z"
    />

    <motion.path
                                                  initial={{ opacity: 0 }}  // x=?
                                                  animate={{ opacity: 1 }}
                                                  transition={transition_stroke_extra}
                                                  stroke={color}
                                                  strokeWidth={strokeWidth_extra}
                                                  fill-opacity="0"
 d="M176.957,88.149 L175.128,88.149 L175.128,51.497 L176.957,51.497 z M174.18,40.047 Q174.18,39.268 174.722,38.709 Q175.264,38.15 176.043,38.15 Q176.822,38.15 177.381,38.709 Q177.94,39.268 177.94,40.047 Q177.94,40.826 177.381,41.368 Q176.822,41.91 176.043,41.91 Q175.264,41.91 174.722,41.368 Q174.18,40.826 174.18,40.047 z" 
    />

    <motion.path
                                                  initial={{ opacity: 0 }}  // x=?
                                                  animate={{ opacity: 1 }}
                                                  transition={transition_stroke_extra}
                                                  stroke={color}
                                                  strokeWidth={strokeWidth_extra}
                                                  fill-opacity="0"
 d="M217.455,88.149 L215.635,88.167 L215.626,86.362 L215.626,64.166 Q215.592,58.272 213.221,55.443 Q210.85,52.614 205.701,52.614 Q200.958,52.614 197.486,55.985 Q194.014,59.356 192.794,64.674 L192.794,88.149 L190.965,88.149 L190.965,51.497 L192.794,51.497 L192.794,60.033 Q194.59,55.765 198.079,53.292 Q201.568,50.819 205.802,50.819 Q211.697,50.819 214.559,54.156 Q217.422,57.492 217.456,64.234 L217.455,88.149 z" 
    />

    <motion.path
                                                  initial={{ opacity: 0 }}  // x=?
                                                  animate={{ opacity: 1 }}
                                                  transition={transition_stroke_extra}
                                                  stroke={color}
                                                  strokeWidth={strokeWidth_extra}
                                                  fill-opacity="0"
 d="M133.969,51.008 Q140.1,51.008 143.996,55.378 Q147.891,59.748 147.891,66.862 L147.891,68.793 L120.419,68.793 L120.419,70.791 Q120.419,75.263 122.299,79.074 Q124.179,82.885 127.482,85.053 Q130.784,87.221 134.646,87.221 Q138.339,87.221 140.93,85.984 Q143.522,84.748 145.52,82.173 L146.807,83.088 Q142.709,89.016 134.646,89.016 Q130.209,89.016 126.499,86.628 Q122.79,84.24 120.69,80.073 Q118.589,75.906 118.589,70.825 L118.589,69.301 L118.617,68.751 L115.343,68.751 L115.343,66.963 L118.709,66.963 C118.771,64.283 119.672,62.303 120.622,59.985 Q122.654,55.751 126.211,53.379 Q129.768,51.008 133.969,51.008 z M133.969,52.837 Q128.616,52.837 124.89,56.818 Q121.164,60.798 120.52,66.963 L146.062,66.963 L146.062,66.523 Q146.062,62.797 144.487,59.595 Q142.912,56.394 140.151,54.616 Q137.39,52.837 133.969,52.837 z"
    />



    
  </g>
</svg>
