<?xml version="1.0" encoding="UTF-8"?>
<!DOCTYPE svg PUBLIC "-//W3C//DTD SVG 1.1//EN" "http://www.w3.org/Graphics/SVG/1.1/DTD/svg11.dtd">
<svg version="1.1" xmlns="http://www.w3.org/2000/svg" xmlns:xlink="http://www.w3.org/1999/xlink" x="0" y="0" width="226" height="133" viewBox="0, 0, 226, 133">
  <g id="a_hello">
    <path d="M50.1,26.494 Q51.049,25.329 52.568,25.329 Q55.214,25.329 55.237,28.314 L55.237,33.828 L53.81,33.828 L53.81,28.306 Q53.802,27.404 53.397,26.972 Q52.992,26.54 52.136,26.54 Q51.442,26.54 50.918,26.91 Q50.393,27.28 50.1,27.882 L50.1,33.828 L48.674,33.828 L48.674,21.982 L50.1,21.982 z" fill="#E21A1A"/>
    <path d="M61.858,33.982 Q60.161,33.982 59.097,32.868 Q58.032,31.753 58.032,29.887 L58.032,29.625 Q58.032,28.383 58.507,27.407 Q58.981,26.432 59.833,25.88 Q60.685,25.329 61.68,25.329 Q63.307,25.329 64.21,26.401 Q65.112,27.473 65.112,29.47 L65.112,30.064 L59.459,30.064 Q59.49,31.298 60.18,32.058 Q60.87,32.817 61.935,32.817 Q62.691,32.817 63.215,32.509 Q63.739,32.2 64.133,31.691 L65.004,32.37 Q63.955,33.982 61.858,33.982 z M61.68,26.501 Q60.816,26.501 60.23,27.13 Q59.644,27.758 59.505,28.892 L63.685,28.892 L63.685,28.784 Q63.624,27.697 63.099,27.099 Q62.575,26.501 61.68,26.501 z" fill="#E21A1A"/>
    <path d="M69.335,33.828 L67.908,33.828 L67.908,21.982 L69.335,21.982 z" fill="#E21A1A"/>
    <path d="M73.26,33.828 L71.834,33.828 L71.834,21.982 L73.26,21.982 z" fill="#E21A1A"/>
    <path d="M76.187,29.578 Q76.187,28.352 76.669,27.373 Q77.151,26.393 78.011,25.861 Q78.871,25.329 79.974,25.329 Q81.678,25.329 82.731,26.509 Q83.784,27.689 83.784,29.648 L83.784,29.748 Q83.784,30.967 83.317,31.934 Q82.851,32.902 81.983,33.442 Q81.115,33.982 79.989,33.982 Q78.293,33.982 77.24,32.802 Q76.187,31.622 76.187,29.679 z M77.622,29.748 Q77.622,31.136 78.266,31.977 Q78.91,32.817 79.989,32.817 Q81.077,32.817 81.717,31.965 Q82.357,31.113 82.357,29.578 Q82.357,28.206 81.705,27.353 Q81.054,26.501 79.974,26.501 Q78.917,26.501 78.27,27.342 Q77.622,28.182 77.622,29.748 z" fill="#E21A1A"/>
    <path d="M94.006,33.828 L92.579,33.828 L92.579,25.483 L94.006,25.483 z M92.464,23.27 Q92.464,22.923 92.676,22.684 Q92.888,22.445 93.304,22.445 Q93.721,22.445 93.937,22.684 Q94.153,22.923 94.153,23.27 Q94.153,23.617 93.937,23.848 Q93.721,24.08 93.304,24.08 Q92.888,24.08 92.676,23.848 Q92.464,23.617 92.464,23.27 z" fill="#E21A1A"/>
    <path d="M97.253,22.838 L97.091,25.676 L96.096,25.676 L96.104,21.982 L97.253,21.982 z" fill="#E21A1A"/>
    <path d="M101.345,25.483 L101.383,26.409 Q102.301,25.329 103.859,25.329 Q105.609,25.329 106.242,26.671 Q106.658,26.069 107.325,25.699 Q107.992,25.329 108.902,25.329 Q111.648,25.329 111.694,28.236 L111.694,33.828 L110.268,33.828 L110.268,28.321 Q110.268,27.427 109.859,26.983 Q109.45,26.54 108.486,26.54 Q107.692,26.54 107.167,27.014 Q106.643,27.488 106.558,28.29 L106.558,33.828 L105.124,33.828 L105.124,28.36 Q105.124,26.54 103.342,26.54 Q101.938,26.54 101.422,27.735 L101.422,33.828 L99.995,33.828 L99.995,25.483 z" fill="#E21A1A"/>
  </g>
  <g id="Layer_5">
    <g>
      <g>
        <path d="M27.408,83.44 L28.406,86.469 L29.405,83.44 L46.237,38.208 L48.268,38.208 L29.542,88.328 L27.27,88.328 L8.544,38.208 L10.575,38.208 z" fill="#FE0000"/>
        <path d="M27.408,83.44 L28.406,86.469 L29.405,83.44 L46.237,38.208 L48.268,38.208 L29.542,88.328 L27.27,88.328 L8.544,38.208 L10.575,38.208 z" fill-opacity="0" stroke="#000000" stroke-width="1.5"/>
      </g>
      <g>
        <path d="M68.75,89.016 Q64.24,89.016 60.471,86.589 Q56.702,84.162 54.568,79.928 Q52.433,75.694 52.433,70.531 L52.433,68.982 Q52.433,63.819 54.499,59.516 Q56.564,55.213 60.178,52.803 Q63.793,50.394 68.061,50.394 Q74.292,50.394 78.25,54.834 Q82.209,59.275 82.209,66.504 L82.209,68.466 L54.292,68.466 L54.292,70.497 Q54.292,75.04 56.203,78.913 Q58.113,82.786 61.469,84.989 Q64.826,87.192 68.75,87.192 Q72.502,87.192 75.135,85.935 Q77.768,84.679 79.799,82.063 L81.107,82.992 Q76.942,89.016 68.75,89.016 z M68.061,52.253 Q62.622,52.253 58.836,56.297 Q55.049,60.342 54.395,66.607 L80.35,66.607 L80.35,66.159 Q80.35,62.373 78.749,59.12 Q77.149,55.867 74.343,54.06 Q71.538,52.253 68.061,52.253 z" fill="#FE0000"/>
        <path d="M68.75,89.016 Q64.24,89.016 60.471,86.589 Q56.702,84.162 54.568,79.928 Q52.433,75.694 52.433,70.531 L52.433,68.982 Q52.433,63.819 54.499,59.516 Q56.564,55.213 60.178,52.803 Q63.793,50.394 68.061,50.394 Q74.292,50.394 78.25,54.834 Q82.209,59.275 82.209,66.504 L82.209,68.466 L54.292,68.466 L54.292,70.497 Q54.292,75.04 56.203,78.913 Q58.113,82.786 61.469,84.989 Q64.826,87.192 68.75,87.192 Q72.502,87.192 75.135,85.935 Q77.768,84.679 79.799,82.063 L81.107,82.992 Q76.942,89.016 68.75,89.016 z M68.061,52.253 Q62.622,52.253 58.836,56.297 Q55.049,60.342 54.395,66.607 L80.35,66.607 L80.35,66.159 Q80.35,62.373 78.749,59.12 Q77.149,55.867 74.343,54.06 Q71.538,52.253 68.061,52.253 z" fill-opacity="0" stroke="#000000" stroke-width="1.5"/>
      </g>
      <g>
        <path d="M113.843,79.206 Q113.843,72.424 102.277,69.98 Q95.324,68.5 92.605,66.177 Q89.885,63.853 89.885,59.791 Q89.885,55.695 93.345,53.044 Q96.804,50.394 102.346,50.394 Q108.37,50.394 112.019,53.268 Q115.668,56.142 115.668,61.03 L113.775,61.03 Q113.775,57.278 110.608,54.765 Q107.441,52.253 102.346,52.253 Q97.458,52.253 94.601,54.387 Q91.744,56.521 91.744,59.722 Q91.744,62.235 92.811,63.664 Q93.878,65.092 96.288,66.245 Q98.697,67.399 103.31,68.466 Q107.923,69.533 110.608,70.979 Q113.293,72.424 114.497,74.404 Q115.702,76.383 115.702,79.24 Q115.702,83.646 112.088,86.331 Q108.473,89.016 102.622,89.016 Q96.357,89.016 92.519,86.176 Q88.68,83.336 88.68,78.861 L90.539,78.861 Q90.815,82.786 93.999,84.971 Q97.183,87.157 102.622,87.157 Q107.613,87.157 110.728,84.834 Q113.843,82.51 113.843,79.206 z" fill="#FE0000"/>
        <path d="M113.843,79.206 Q113.843,72.424 102.277,69.98 Q95.324,68.5 92.605,66.177 Q89.885,63.853 89.885,59.791 Q89.885,55.695 93.345,53.044 Q96.804,50.394 102.346,50.394 Q108.37,50.394 112.019,53.268 Q115.668,56.142 115.668,61.03 L113.775,61.03 Q113.775,57.278 110.608,54.765 Q107.441,52.253 102.346,52.253 Q97.458,52.253 94.601,54.387 Q91.744,56.521 91.744,59.722 Q91.744,62.235 92.811,63.664 Q93.878,65.092 96.288,66.245 Q98.697,67.399 103.31,68.466 Q107.923,69.533 110.608,70.979 Q113.293,72.424 114.497,74.404 Q115.702,76.383 115.702,79.24 Q115.702,83.646 112.088,86.331 Q108.473,89.016 102.622,89.016 Q96.357,89.016 92.519,86.176 Q88.68,83.336 88.68,78.861 L90.539,78.861 Q90.815,82.786 93.999,84.971 Q97.183,87.157 102.622,87.157 Q107.613,87.157 110.728,84.834 Q113.843,82.51 113.843,79.206 z" fill-opacity="0" stroke="#000000" stroke-width="1.5"/>
      </g>
      <g>
        <path d="M139.351,89.016 Q134.841,89.016 131.072,86.589 Q127.303,84.162 125.168,79.928 Q123.034,75.694 123.034,70.531 L123.034,68.982 Q123.034,63.819 125.1,59.516 Q127.165,55.213 130.779,52.803 Q134.394,50.394 138.662,50.394 Q144.893,50.394 148.851,54.834 Q152.81,59.275 152.81,66.504 L152.81,68.466 L124.893,68.466 L124.893,70.497 Q124.893,75.04 126.803,78.913 Q128.714,82.786 132.07,84.989 Q135.426,87.192 139.351,87.192 Q143.103,87.192 145.736,85.935 Q148.369,84.679 150.4,82.063 L151.708,82.992 Q147.543,89.016 139.351,89.016 z M138.662,52.253 Q133.223,52.253 129.437,56.297 Q125.65,60.342 124.996,66.607 L150.951,66.607 L150.951,66.159 Q150.951,62.373 149.35,59.12 Q147.75,55.867 144.944,54.06 Q142.139,52.253 138.662,52.253 z" fill="#FE0000"/>
        <path d="M139.351,89.016 Q134.841,89.016 131.072,86.589 Q127.303,84.162 125.168,79.928 Q123.034,75.694 123.034,70.531 L123.034,68.982 Q123.034,63.819 125.1,59.516 Q127.165,55.213 130.779,52.803 Q134.394,50.394 138.662,50.394 Q144.893,50.394 148.851,54.834 Q152.81,59.275 152.81,66.504 L152.81,68.466 L124.893,68.466 L124.893,70.497 Q124.893,75.04 126.803,78.913 Q128.714,82.786 132.07,84.989 Q135.426,87.192 139.351,87.192 Q143.103,87.192 145.736,85.935 Q148.369,84.679 150.4,82.063 L151.708,82.992 Q147.543,89.016 139.351,89.016 z M138.662,52.253 Q133.223,52.253 129.437,56.297 Q125.65,60.342 124.996,66.607 L150.951,66.607 L150.951,66.159 Q150.951,62.373 149.35,59.12 Q147.75,55.867 144.944,54.06 Q142.139,52.253 138.662,52.253 z" fill-opacity="0" stroke="#000000" stroke-width="1.5"/>
      </g>
      <g>
        <path d="M163.791,88.328 L161.932,88.328 L161.932,35.454 L163.791,35.454 z" fill="#FE0000"/>
        <path d="M163.791,88.328 L161.932,88.328 L161.932,35.454 L163.791,35.454 z" fill-opacity="0" stroke="#000000" stroke-width="1.5"/>
      </g>
      <g>
        <path d="M178.317,88.328 L176.458,88.328 L176.458,51.082 L178.317,51.082 z M175.494,39.447 Q175.494,38.656 176.045,38.088 Q176.596,37.52 177.388,37.52 Q178.179,37.52 178.747,38.088 Q179.315,38.656 179.315,39.447 Q179.315,40.239 178.747,40.79 Q178.179,41.341 177.388,41.341 Q176.596,41.341 176.045,40.79 Q175.494,40.239 175.494,39.447 z" fill="#FE0000"/>
        <path d="M178.317,88.328 L176.458,88.328 L176.458,51.082 L178.317,51.082 z M175.494,39.447 Q175.494,38.656 176.045,38.088 Q176.596,37.52 177.388,37.52 Q178.179,37.52 178.747,38.088 Q179.315,38.656 179.315,39.447 Q179.315,40.239 178.747,40.79 Q178.179,41.341 177.388,41.341 Q176.596,41.341 176.045,40.79 Q175.494,40.239 175.494,39.447 z" fill-opacity="0" stroke="#000000" stroke-width="1.5"/>
      </g>
      <g>
        <path d="M192.396,59.757 Q194.22,55.42 197.766,52.907 Q201.311,50.394 205.614,50.394 Q211.604,50.394 214.512,53.784 Q217.421,57.175 217.456,64.025 L217.456,88.328 L215.597,88.328 L215.597,63.956 Q215.562,57.967 213.153,55.092 Q210.743,52.218 205.511,52.218 Q200.692,52.218 197.163,55.643 Q193.635,59.068 192.396,64.473 L192.396,88.328 L190.537,88.328 L190.537,51.082 L192.396,51.082 z" fill="#FE0000"/>
        <path d="M192.396,59.757 Q194.22,55.42 197.766,52.907 Q201.311,50.394 205.614,50.394 Q211.604,50.394 214.512,53.784 Q217.421,57.175 217.456,64.025 L217.456,88.328 L215.597,88.328 L215.597,63.956 Q215.562,57.967 213.153,55.092 Q210.743,52.218 205.511,52.218 Q200.692,52.218 197.163,55.643 Q193.635,59.068 192.396,64.473 L192.396,88.328 L190.537,88.328 L190.537,51.082 L192.396,51.082 z" fill-opacity="0" stroke="#000000" stroke-width="1.5"/>
      </g>
    </g>
  </g>
</svg>
