<?xml version="1.0" encoding="UTF-8"?>
<!DOCTYPE svg PUBLIC "-//W3C//DTD SVG 1.1//EN" "http://www.w3.org/Graphics/SVG/1.1/DTD/svg11.dtd">
<svg version="1.1" xmlns="http://www.w3.org/2000/svg" xmlns:xlink="http://www.w3.org/1999/xlink" x="0" y="0" width="1930" height="1804" viewBox="0, 0, 1930, 1804">
  <g id="Layer_5">
    <path d="M638.338,121.124 L1422.789,121.124 L1422.789,550.842 L638.338,550.842 L638.338,121.124 z" fill="#FFFFFF"/>
  </g>
  <g id="Layer_2" opacity="0.687">
    <g>
      <path d="M1409.949,128.957 L1409.949,325.486 L1216.368,325.486 L1216.368,128.957 z M1290.374,325.486 L1290.374,446.882 L1409.949,446.882 L1409.949,325.486 z M1290.378,371.745 L1290.378,446.882 L1216.368,446.882 L1216.368,371.745 z M1216.368,325.484 L1216.368,371.732 L1261.921,371.732 L1261.921,325.484 z M1290.372,325.484 L1290.372,354.337 L1261.921,354.337 L1261.921,325.484 z M1273.225,354.337 L1273.225,371.745 L1290.372,371.745 L1290.372,354.337 z M1273.225,360.235 L1273.225,371.745 L1261.918,371.745 L1261.918,360.235 z M1261.919,354.337 L1261.919,360.235 L1267.728,360.235 L1267.728,354.337 z M1216.211,129.189 C1323.291,129.189 1409.939,217.156 1409.939,325.867 L1409.939,325.404 C1409.939,392.421 1356.523,446.65 1290.511,446.65 C1249.443,446.65 1216.211,412.912 1216.211,371.218 L1216.211,371.681 C1216.211,346.102 1236.599,325.404 1261.794,325.404 C1277.667,325.404 1290.511,338.444 1290.511,354.559 L1290.511,354.096 C1290.511,363.816 1282.764,371.681 1273.189,371.681 C1266.891,371.681 1261.794,366.506 1261.794,360.112 C1261.794,357.042 1264.444,354.559 1267.719,354.559" fill-opacity="0" stroke="#2066A3" stroke-width="0.5" stroke-linecap="round" stroke-linejoin="round"/>
    </g>
    <g>
      <path d="M1059.284,128.957 L1059.284,287.526 L903.094,287.526 L903.094,128.957 z M962.806,287.526 L962.806,385.473 L1059.284,385.473 L1059.284,287.526 z M962.809,324.849 L962.809,385.473 L903.094,385.473 L903.094,324.849 z M903.094,287.524 L903.094,324.839 L939.849,324.839 L939.849,287.524 z M962.804,287.524 L962.804,310.804 L939.849,310.804 L939.849,287.524 z M948.969,310.804 L948.969,324.85 L962.804,324.85 L962.804,310.804 z M948.969,315.563 L948.969,324.85 L939.846,324.85 L939.846,315.563 z M939.847,310.804 L939.847,315.563 L944.534,315.563 L944.534,310.804 z M902.967,129.144 C989.365,129.144 1059.276,200.12 1059.276,287.833 L1059.276,287.46 C1059.276,341.532 1016.178,385.287 962.916,385.287 C929.78,385.287 902.967,358.065 902.967,324.425 L902.967,324.798 C902.967,304.16 919.417,287.46 939.746,287.46 C952.553,287.46 962.916,297.981 962.916,310.983 L962.916,310.609 C962.916,318.452 956.665,324.798 948.94,324.798 C943.858,324.798 939.746,320.623 939.746,315.463 C939.746,312.987 941.884,310.983 944.527,310.983" fill-opacity="0" stroke="#2066A3" stroke-width="0.5" stroke-linecap="round" stroke-linejoin="round"/>
    </g>
    <g>
      <path d="M902.967,544.342 L902.967,385.773 L1059.157,385.773 L1059.157,544.342 z M999.446,385.773 L999.446,287.826 L902.967,287.826 L902.967,385.773 z M999.442,348.45 L999.442,287.826 L1059.157,287.826 L1059.157,348.45 z M1059.157,385.774 L1059.157,348.46 L1022.403,348.46 L1022.403,385.774 z M999.448,385.774 L999.448,362.494 L1022.403,362.494 L1022.403,385.774 z M1013.282,362.494 L1013.282,348.449 L999.448,348.449 L999.448,362.494 z M1013.282,357.736 L1013.282,348.449 L1022.405,348.449 L1022.405,357.736 z M1022.405,362.494 L1022.405,357.736 L1017.718,357.736 L1017.718,362.494 z M1059.284,544.155 C972.887,544.155 902.975,473.179 902.975,385.466 L902.975,385.839 C902.975,331.767 946.074,288.012 999.335,288.012 C1032.471,288.012 1059.284,315.234 1059.284,348.874 L1059.284,348.501 C1059.284,369.139 1042.834,385.839 1022.506,385.839 C1009.699,385.839 999.335,375.318 999.335,362.316 L999.335,362.689 C999.335,354.847 1005.586,348.501 1013.311,348.501 C1018.393,348.501 1022.506,352.676 1022.506,357.835 C1022.506,360.312 1020.367,362.316 1017.724,362.316" fill-opacity="0" stroke="#05AC40" stroke-width="0.5" stroke-linecap="round" stroke-linejoin="round"/>
    </g>
    <g>
      <path d="M649.839,128.957 L649.839,385.732 L902.762,385.732 L902.762,128.957 z M806.069,385.732 L806.069,544.342 L649.839,544.342 L649.839,385.732 z M806.063,446.171 L806.063,544.342 L902.762,544.342 L902.762,446.171 z M902.762,385.73 L902.762,446.154 L843.244,446.154 L843.244,385.73 z M806.072,385.73 L806.072,423.428 L843.244,423.428 L843.244,385.73 z M828.474,423.428 L828.474,446.172 L806.072,446.172 L806.072,423.428 z M828.474,431.133 L828.474,446.172 L843.248,446.172 L843.248,431.133 z M843.247,423.428 L843.247,431.133 L835.658,431.133 L835.658,423.428 z M902.967,129.259 C763.062,129.259 649.852,244.193 649.852,386.23 L649.852,385.625 C649.852,473.186 719.642,544.039 805.89,544.039 C859.548,544.039 902.967,499.959 902.967,445.484 L902.967,446.088 C902.967,412.668 876.329,385.625 843.411,385.625 C822.672,385.625 805.89,402.662 805.89,423.717 L805.89,423.112 C805.89,435.812 816.012,446.088 828.521,446.088 C836.751,446.088 843.411,439.327 843.411,430.973 C843.411,426.962 839.948,423.717 835.668,423.717" fill-opacity="0" stroke="#2066A3" stroke-width="0.5" stroke-linecap="round" stroke-linejoin="round"/>
    </g>
    <g>
      <path d="M1215.906,446.882 L1215.906,287.695 L1059.107,287.695 L1059.107,446.882 z M1119.051,287.695 L1119.051,189.366 L1215.906,189.366 L1215.906,287.695 z M1119.055,250.226 L1119.055,189.366 L1059.107,189.366 L1059.107,250.226 z M1059.107,287.696 L1059.107,250.237 L1096.005,250.237 L1096.005,287.696 z M1119.049,287.696 L1119.049,264.326 L1096.005,264.326 L1096.005,287.696 z M1105.161,264.326 L1105.161,250.226 L1119.049,250.226 L1119.049,264.326 z M1105.161,259.549 L1105.161,250.226 L1096.002,250.226 L1096.002,259.549 z M1096.003,264.326 L1096.003,259.549 L1100.708,259.549 L1100.708,264.326 z M1058.98,446.694 C1145.714,446.694 1215.898,375.441 1215.898,287.387 L1215.898,287.762 C1215.898,233.479 1172.631,189.553 1119.162,189.553 C1085.897,189.553 1058.98,216.881 1058.98,250.652 L1058.98,250.278 C1058.98,270.996 1075.494,287.762 1095.901,287.762 C1108.758,287.762 1119.162,277.199 1119.162,264.147 L1119.162,264.521 C1119.162,256.648 1112.887,250.278 1105.132,250.278 C1100.03,250.278 1095.901,254.469 1095.901,259.649 C1095.901,262.135 1098.048,264.147 1100.701,264.147" fill-opacity="0" stroke="#A32089" stroke-width="0.5" stroke-linecap="round" stroke-linejoin="round"/>
    </g>
    <g>
      <path d="M1216.211,287.826 L1216.211,447.012 L1059.412,447.012 L1059.412,287.826 z M1119.356,447.012 L1119.356,545.342 L1216.211,545.342 L1216.211,447.012 z M1119.36,484.481 L1119.36,545.342 L1059.412,545.342 L1059.412,484.481 z M1059.412,447.011 L1059.412,484.471 L1096.31,484.471 L1096.31,447.011 z M1119.354,447.011 L1119.354,470.382 L1096.31,470.382 L1096.31,447.011 z M1105.466,470.382 L1105.466,484.482 L1119.354,484.482 L1119.354,470.382 z M1105.466,475.159 L1105.466,484.482 L1096.307,484.482 L1096.307,475.159 z M1096.307,470.382 L1096.307,475.159 L1101.013,475.159 L1101.013,470.382 z M1059.284,288.013 C1146.018,288.013 1216.203,359.266 1216.203,447.321 L1216.203,446.946 C1216.203,501.229 1172.936,545.154 1119.467,545.154 C1086.202,545.154 1059.284,517.827 1059.284,484.055 L1059.284,484.43 C1059.284,463.711 1075.798,446.946 1096.206,446.946 C1109.063,446.946 1119.467,457.508 1119.467,470.561 L1119.467,470.186 C1119.467,478.059 1113.192,484.43 1105.437,484.43 C1100.335,484.43 1096.206,480.238 1096.206,475.059 C1096.206,472.573 1098.353,470.561 1101.006,470.561" fill-opacity="0" stroke="#2066A3" stroke-width="0.5" stroke-linecap="round" stroke-linejoin="round"/>
    </g>
  </g>
  <g id="Layer_3" opacity="0.128">
    <path d="M638.838,287.826 L1423.289,287.826 L1423.289,384.473 L638.838,384.473 L638.838,287.826 z" fill-opacity="0" stroke="#2066A3" stroke-width="0.5"/>
    <path d="M638.838,311.826 L1423.289,311.826 L1423.289,361.754 L638.838,361.754 L638.838,311.826 z" fill-opacity="0" stroke="#2066A3" stroke-width="0.5"/>
    <path d="M638.838,264.682 L1423.289,264.682 L1423.289,287.826 L638.838,287.826 L638.838,264.682 z" fill-opacity="0" stroke="#2066A3" stroke-width="0.5"/>
    <path d="M638.838,384.473 L1423.289,384.473 L1423.289,407.617 L638.838,407.617 L638.838,384.473 z" fill-opacity="0" stroke="#2066A3" stroke-width="0.5"/>
  </g>
  <g id="Layer_4">
    <g>
      <path d="M871.703,349.248 L883.883,312.273 L896.846,312.273 L879.011,360.471 L864.221,360.471 L846.473,312.273 L859.523,312.273 z" fill="#000000"/>
      <path d="M953.524,335.328 Q953.524,337.938 953.176,340.026 L917.941,340.026 Q918.376,345.246 921.595,348.204 Q924.814,351.162 929.512,351.162 Q936.298,351.162 939.169,345.333 L952.306,345.333 Q950.218,352.293 944.302,356.773 Q938.386,361.254 929.773,361.254 Q922.813,361.254 917.288,358.165 Q911.764,355.077 908.675,349.422 Q905.587,343.767 905.587,336.372 Q905.587,328.89 908.632,323.235 Q911.677,317.58 917.158,314.535 Q922.639,311.49 929.773,311.49 Q936.646,311.49 942.083,314.448 Q947.521,317.406 950.522,322.843 Q953.524,328.281 953.524,335.328 z M940.909,331.848 Q940.822,327.15 937.516,324.322 Q934.21,321.495 929.425,321.495 Q924.901,321.495 921.812,324.235 Q918.724,326.976 918.028,331.848 z" fill="#000000"/>
      <path d="M985.842,361.254 Q979.926,361.254 975.228,359.122 Q970.53,356.991 967.789,353.337 Q965.049,349.683 964.788,345.246 L977.055,345.246 Q977.403,348.03 979.795,349.857 Q982.188,351.684 985.755,351.684 Q989.235,351.684 991.192,350.292 Q993.15,348.9 993.15,346.725 Q993.15,344.376 990.757,343.201 Q988.365,342.027 983.145,340.635 Q977.751,339.33 974.314,337.938 Q970.878,336.546 968.398,333.675 Q965.919,330.804 965.919,325.932 Q965.919,321.93 968.224,318.624 Q970.53,315.318 974.836,313.404 Q979.143,311.49 984.972,311.49 Q993.585,311.49 998.718,315.796 Q1003.851,320.103 1004.373,327.411 L992.715,327.411 Q992.454,324.54 990.322,322.843 Q988.191,321.147 984.624,321.147 Q981.318,321.147 979.534,322.365 Q977.751,323.583 977.751,325.758 Q977.751,328.194 980.187,329.455 Q982.623,330.717 987.756,332.022 Q992.976,333.327 996.369,334.719 Q999.762,336.111 1002.241,339.025 Q1004.721,341.94 1004.808,346.725 Q1004.808,350.901 1002.502,354.207 Q1000.197,357.513 995.89,359.383 Q991.584,361.254 985.842,361.254 z" fill="#000000"/>
      <path d="M1064.618,335.328 Q1064.618,337.938 1064.27,340.026 L1029.035,340.026 Q1029.47,345.246 1032.689,348.204 Q1035.908,351.162 1040.606,351.162 Q1047.392,351.162 1050.263,345.333 L1063.4,345.333 Q1061.312,352.293 1055.396,356.773 Q1049.48,361.254 1040.867,361.254 Q1033.907,361.254 1028.382,358.165 Q1022.858,355.077 1019.769,349.422 Q1016.681,343.767 1016.681,336.372 Q1016.681,328.89 1019.726,323.235 Q1022.771,317.58 1028.252,314.535 Q1033.733,311.49 1040.867,311.49 Q1047.74,311.49 1053.177,314.448 Q1058.615,317.406 1061.616,322.843 Q1064.618,328.281 1064.618,335.328 z M1052.003,331.848 Q1051.916,327.15 1048.61,324.322 Q1045.304,321.495 1040.519,321.495 Q1035.995,321.495 1032.906,324.235 Q1029.818,326.976 1029.122,331.848 z" fill="#000000"/>
      <path d="M1090.672,296.091 L1090.672,360.471 L1078.492,360.471 L1078.492,296.091 z" fill="#000000"/>
      <path d="M1113.855,306.531 Q1110.636,306.531 1108.504,304.486 Q1106.373,302.442 1106.373,299.397 Q1106.373,296.352 1108.504,294.307 Q1110.636,292.263 1113.855,292.263 Q1117.074,292.263 1119.205,294.307 Q1121.337,296.352 1121.337,299.397 Q1121.337,302.442 1119.205,304.486 Q1117.074,306.531 1113.855,306.531 z M1119.858,312.273 L1119.858,360.471 L1107.678,360.471 L1107.678,312.273 z" fill="#000000"/>
      <path d="M1163.573,311.577 Q1172.186,311.577 1177.493,317.014 Q1182.8,322.452 1182.8,332.196 L1182.8,360.471 L1170.62,360.471 L1170.62,333.849 Q1170.62,328.107 1167.749,325.018 Q1164.878,321.93 1159.919,321.93 Q1154.873,321.93 1151.958,325.018 Q1149.044,328.107 1149.044,333.849 L1149.044,360.471 L1136.864,360.471 L1136.864,312.273 L1149.044,312.273 L1149.044,318.276 Q1151.48,315.144 1155.264,313.36 Q1159.049,311.577 1163.573,311.577 z" fill="#000000"/>
    </g>
    <g>
      <path d="M779.998,249.154 Q781.672,249.154 783.008,249.856 Q784.345,250.558 785.114,252.003 Q785.884,253.447 785.884,255.526 L785.884,264.166 L784.021,264.166 L784.021,255.742 Q784.021,253.339 782.819,252.07 Q781.618,250.801 779.539,250.801 Q777.406,250.801 776.137,252.151 Q774.868,253.501 774.868,256.12 L774.868,264.166 L772.978,264.166 L772.978,244.186 L774.868,244.186 L774.868,251.935 Q775.57,250.612 776.933,249.883 Q778.297,249.154 779.998,249.154 z" fill="#000000"/>
      <path d="M807.407,256.039 Q807.407,257.011 807.353,257.524 L795.122,257.524 Q795.203,259.198 795.932,260.386 Q796.661,261.574 797.849,262.182 Q799.037,262.789 800.441,262.789 Q802.277,262.789 803.532,261.898 Q804.788,261.007 805.193,259.495 L807.191,259.495 Q806.651,261.655 804.882,263.019 Q803.114,264.382 800.441,264.382 Q798.362,264.382 796.715,263.451 Q795.068,262.519 794.136,260.805 Q793.205,259.09 793.205,256.795 Q793.205,254.5 794.123,252.772 Q795.041,251.044 796.688,250.126 Q798.335,249.208 800.441,249.208 Q802.547,249.208 804.126,250.126 Q805.706,251.044 806.556,252.597 Q807.407,254.149 807.407,256.039 z M805.49,255.985 Q805.517,254.338 804.828,253.177 Q804.14,252.016 802.952,251.422 Q801.764,250.828 800.36,250.828 Q798.254,250.828 796.769,252.178 Q795.284,253.528 795.122,255.985 L805.49,255.985 z" fill="#000000"/>
      <path d="M816.753,244.186 L816.753,264.166 L814.863,264.166 L814.863,244.186 z" fill="#000000"/>
      <path d="M826.936,244.186 L826.936,264.166 L825.046,264.166 L825.046,244.186 z" fill="#000000"/>
      <path d="M841.682,264.382 Q839.603,264.382 837.942,263.451 Q836.282,262.519 835.323,260.805 Q834.365,259.09 834.365,256.795 Q834.365,254.5 835.337,252.786 Q836.309,251.071 837.983,250.14 Q839.657,249.208 841.736,249.208 Q843.815,249.208 845.502,250.14 Q847.19,251.071 848.148,252.786 Q849.107,254.5 849.107,256.795 Q849.107,259.063 848.135,260.791 Q847.163,262.519 845.462,263.451 Q843.761,264.382 841.682,264.382 z M841.682,262.735 Q843.14,262.735 844.382,262.074 Q845.624,261.412 846.393,260.076 Q847.163,258.739 847.163,256.795 Q847.163,254.851 846.407,253.515 Q845.651,252.178 844.409,251.517 Q843.167,250.855 841.709,250.855 Q840.251,250.855 839.009,251.517 Q837.767,252.178 837.024,253.515 Q836.282,254.851 836.282,256.795 Q836.282,258.739 837.024,260.076 Q837.767,261.412 838.995,262.074 Q840.224,262.735 841.682,262.735 z" fill="#000000"/>
      <path d="M868.906,246.643 Q868.339,246.643 867.934,246.238 Q867.529,245.833 867.529,245.239 Q867.529,244.645 867.934,244.254 Q868.339,243.862 868.906,243.862 Q869.473,243.862 869.878,244.254 Q870.283,244.645 870.283,245.239 Q870.283,245.833 869.878,246.238 Q869.473,246.643 868.906,246.643 z M869.851,249.424 L869.851,264.166 L867.961,264.166 L867.961,249.424 z" fill="#000000"/>
      <path d="M878.954,242.701 L878.63,247.912 L877.307,247.912 L876.983,242.701 z" fill="#000000"/>
      <path d="M903.663,249.154 Q906.255,249.154 907.888,250.788 Q909.522,252.421 909.522,255.526 L909.522,264.166 L907.659,264.166 L907.659,255.742 Q907.659,253.339 906.498,252.07 Q905.337,250.801 903.339,250.801 Q901.26,250.801 900.018,252.178 Q898.776,253.555 898.776,256.174 L898.776,264.166 L896.913,264.166 L896.913,255.742 Q896.913,253.339 895.752,252.07 Q894.591,250.801 892.566,250.801 Q890.487,250.801 889.245,252.178 Q888.003,253.555 888.003,256.174 L888.003,264.166 L886.113,264.166 L886.113,249.424 L888.003,249.424 L888.003,251.962 Q888.705,250.585 890.001,249.87 Q891.297,249.154 892.89,249.154 Q894.807,249.154 896.251,250.072 Q897.696,250.99 898.344,252.772 Q898.938,251.017 900.382,250.086 Q901.827,249.154 903.663,249.154 z" fill="#000000"/>
    </g>
    <g>
      <path d="M782.002,410.303 L778.738,410.303 L778.738,424.959 L775.058,424.959 L775.058,410.303 L772.978,410.303 L772.978,407.327 L775.058,407.327 L775.058,406.079 Q775.058,403.039 776.674,401.647 Q778.29,400.255 781.746,400.255 L781.746,403.295 Q780.082,403.295 779.41,403.919 Q778.738,404.543 778.738,406.079 L778.738,407.327 L782.002,407.327 z" fill="#000000"/>
      <path d="M792.382,409.887 Q793.182,408.543 794.51,407.791 Q795.838,407.039 797.662,407.039 L797.662,410.815 L796.734,410.815 Q794.59,410.815 793.486,411.903 Q792.382,412.991 792.382,415.679 L792.382,424.959 L788.734,424.959 L788.734,407.327 L792.382,407.327 L792.382,409.887 z" fill="#000000"/>
      <path d="M812.17,425.247 Q809.674,425.247 807.658,424.111 Q805.642,422.975 804.49,420.911 Q803.338,418.847 803.338,416.127 Q803.338,413.439 804.522,411.359 Q805.706,409.279 807.754,408.159 Q809.802,407.039 812.33,407.039 Q814.858,407.039 816.906,408.159 Q818.954,409.279 820.138,411.359 Q821.322,413.439 821.322,416.127 Q821.322,418.815 820.106,420.895 Q818.89,422.975 816.794,424.111 Q814.698,425.247 812.17,425.247 z M812.17,422.079 Q813.578,422.079 814.81,421.407 Q816.042,420.735 816.81,419.391 Q817.578,418.047 817.578,416.127 Q817.578,414.207 816.842,412.879 Q816.106,411.551 814.89,410.879 Q813.674,410.207 812.266,410.207 Q810.858,410.207 809.658,410.879 Q808.458,411.551 807.754,412.879 Q807.05,414.207 807.05,416.127 Q807.05,418.975 808.506,420.527 Q809.962,422.079 812.17,422.079 z" fill="#000000"/>
      <path d="M837.334,407.039 Q839.414,407.039 841.062,407.903 Q842.71,408.767 843.638,410.463 Q844.566,412.159 844.566,414.559 L844.566,424.959 L840.95,424.959 L840.95,415.103 Q840.95,412.735 839.766,411.471 Q838.582,410.207 836.534,410.207 Q834.486,410.207 833.286,411.471 Q832.086,412.735 832.086,415.103 L832.086,424.959 L828.438,424.959 L828.438,407.327 L832.086,407.327 L832.086,409.343 Q832.982,408.255 834.374,407.647 Q835.766,407.039 837.334,407.039 z" fill="#000000"/>
      <path d="M856.962,410.303 L856.962,420.063 Q856.962,421.055 857.426,421.487 Q857.89,421.919 859.01,421.919 L861.25,421.919 L861.25,424.959 L858.37,424.959 Q855.906,424.959 854.594,423.807 Q853.282,422.655 853.282,420.063 L853.282,410.303 L851.202,410.303 L851.202,407.327 L853.282,407.327 L853.282,402.943 L856.962,402.943 L856.962,407.327 L861.25,407.327 L861.25,410.303 z" fill="#000000"/>
      <path d="M881.402,425.183 Q880.41,425.183 879.738,424.511 Q879.066,423.839 879.066,422.847 Q879.066,421.855 879.738,421.183 Q880.41,420.511 881.402,420.511 Q882.362,420.511 883.034,421.183 Q883.706,421.855 883.706,422.847 Q883.706,423.839 883.034,424.511 Q882.362,425.183 881.402,425.183 z" fill="#000000"/>
      <path d="M892.614,425.183 Q891.622,425.183 890.95,424.511 Q890.278,423.839 890.278,422.847 Q890.278,421.855 890.95,421.183 Q891.622,420.511 892.614,420.511 Q893.574,420.511 894.246,421.183 Q894.918,421.855 894.918,422.847 Q894.918,423.839 894.246,424.511 Q893.574,425.183 892.614,425.183 z" fill="#000000"/>
      <path d="M903.826,425.183 Q902.834,425.183 902.162,424.511 Q901.49,423.839 901.49,422.847 Q901.49,421.855 902.162,421.183 Q902.834,420.511 903.826,420.511 Q904.786,420.511 905.458,421.183 Q906.13,421.855 906.13,422.847 Q906.13,423.839 905.458,424.511 Q904.786,425.183 903.826,425.183 z" fill="#000000"/>
      <path d="M929.726,415.711 Q929.726,416.703 929.598,417.503 L916.126,417.503 Q916.286,419.615 917.694,420.895 Q919.102,422.175 921.15,422.175 Q924.094,422.175 925.31,419.711 L929.246,419.711 Q928.446,422.143 926.35,423.695 Q924.254,425.247 921.15,425.247 Q918.622,425.247 916.622,424.111 Q914.622,422.975 913.486,420.911 Q912.35,418.847 912.35,416.127 Q912.35,413.407 913.454,411.343 Q914.558,409.279 916.558,408.159 Q918.558,407.039 921.15,407.039 Q923.646,407.039 925.598,408.127 Q927.55,409.215 928.638,411.183 Q929.726,413.151 929.726,415.711 z M925.918,414.559 Q925.886,412.543 924.478,411.327 Q923.07,410.111 920.99,410.111 Q919.102,410.111 917.758,411.311 Q916.414,412.511 916.158,414.559 z" fill="#000000"/>
      <path d="M945.706,407.039 Q947.786,407.039 949.434,407.903 Q951.082,408.767 952.01,410.463 Q952.938,412.159 952.938,414.559 L952.938,424.959 L949.322,424.959 L949.322,415.103 Q949.322,412.735 948.138,411.471 Q946.954,410.207 944.906,410.207 Q942.858,410.207 941.658,411.471 Q940.458,412.735 940.458,415.103 L940.458,424.959 L936.81,424.959 L936.81,407.327 L940.458,407.327 L940.458,409.343 Q941.354,408.255 942.746,407.647 Q944.138,407.039 945.706,407.039 z" fill="#000000"/>
      <path d="M959.862,416.063 Q959.862,413.407 960.966,411.359 Q962.07,409.311 963.974,408.175 Q965.878,407.039 968.214,407.039 Q969.942,407.039 971.622,407.791 Q973.302,408.543 974.294,409.791 L974.294,401.279 L977.974,401.279 L977.974,424.959 L974.294,424.959 L974.294,422.303 Q973.398,423.583 971.814,424.415 Q970.23,425.247 968.182,425.247 Q965.878,425.247 963.974,424.079 Q962.07,422.911 960.966,420.815 Q959.862,418.719 959.862,416.063 z M974.294,416.127 Q974.294,414.303 973.542,412.959 Q972.79,411.615 971.574,410.911 Q970.358,410.207 968.95,410.207 Q967.542,410.207 966.326,410.895 Q965.11,411.583 964.358,412.911 Q963.606,414.239 963.606,416.063 Q963.606,417.887 964.358,419.263 Q965.11,420.639 966.342,421.359 Q967.574,422.079 968.95,422.079 Q970.358,422.079 971.574,421.375 Q972.79,420.671 973.542,419.311 Q974.294,417.951 974.294,416.127 z" fill="#000000"/>
      <path d="M996.878,416.063 Q996.878,413.407 997.982,411.359 Q999.086,409.311 1000.99,408.175 Q1002.894,407.039 1005.23,407.039 Q1006.958,407.039 1008.638,407.791 Q1010.318,408.543 1011.31,409.791 L1011.31,401.279 L1014.99,401.279 L1014.99,424.959 L1011.31,424.959 L1011.31,422.303 Q1010.414,423.583 1008.83,424.415 Q1007.246,425.247 1005.198,425.247 Q1002.894,425.247 1000.99,424.079 Q999.086,422.911 997.982,420.815 Q996.878,418.719 996.878,416.063 z M1011.31,416.127 Q1011.31,414.303 1010.558,412.959 Q1009.806,411.615 1008.59,410.911 Q1007.374,410.207 1005.966,410.207 Q1004.558,410.207 1003.342,410.895 Q1002.126,411.583 1001.374,412.911 Q1000.622,414.239 1000.622,416.063 Q1000.622,417.887 1001.374,419.263 Q1002.126,420.639 1003.358,421.359 Q1004.59,422.079 1005.966,422.079 Q1007.374,422.079 1008.59,421.375 Q1009.806,420.671 1010.558,419.311 Q1011.31,417.951 1011.31,416.127 z" fill="#000000"/>
      <path d="M1039.45,415.711 Q1039.45,416.703 1039.322,417.503 L1025.85,417.503 Q1026.01,419.615 1027.418,420.895 Q1028.826,422.175 1030.874,422.175 Q1033.818,422.175 1035.034,419.711 L1038.97,419.711 Q1038.17,422.143 1036.074,423.695 Q1033.978,425.247 1030.874,425.247 Q1028.346,425.247 1026.346,424.111 Q1024.346,422.975 1023.21,420.911 Q1022.074,418.847 1022.074,416.127 Q1022.074,413.407 1023.178,411.343 Q1024.282,409.279 1026.282,408.159 Q1028.282,407.039 1030.874,407.039 Q1033.37,407.039 1035.322,408.127 Q1037.274,409.215 1038.362,411.183 Q1039.45,413.151 1039.45,415.711 z M1035.642,414.559 Q1035.61,412.543 1034.202,411.327 Q1032.794,410.111 1030.714,410.111 Q1028.826,410.111 1027.482,411.311 Q1026.138,412.511 1025.882,414.559 z" fill="#000000"/>
      <path d="M1053.35,421.695 L1058.342,407.327 L1062.214,407.327 L1055.494,424.959 L1051.142,424.959 L1044.454,407.327 L1048.358,407.327 z" fill="#000000"/>
      <path d="M1084.626,415.711 Q1084.626,416.703 1084.498,417.503 L1071.026,417.503 Q1071.186,419.615 1072.594,420.895 Q1074.002,422.175 1076.05,422.175 Q1078.994,422.175 1080.21,419.711 L1084.146,419.711 Q1083.346,422.143 1081.25,423.695 Q1079.154,425.247 1076.05,425.247 Q1073.522,425.247 1071.522,424.111 Q1069.522,422.975 1068.386,420.911 Q1067.25,418.847 1067.25,416.127 Q1067.25,413.407 1068.354,411.343 Q1069.458,409.279 1071.458,408.159 Q1073.458,407.039 1076.05,407.039 Q1078.546,407.039 1080.498,408.127 Q1082.45,409.215 1083.538,411.183 Q1084.626,413.151 1084.626,415.711 z M1080.818,414.559 Q1080.786,412.543 1079.378,411.327 Q1077.97,410.111 1075.89,410.111 Q1074.002,410.111 1072.658,411.311 Q1071.314,412.511 1071.058,414.559 z" fill="#000000"/>
      <path d="M1095.358,401.279 L1095.358,424.959 L1091.71,424.959 L1091.71,401.279 z" fill="#000000"/>
      <path d="M1111.306,425.247 Q1108.81,425.247 1106.794,424.111 Q1104.778,422.975 1103.626,420.911 Q1102.474,418.847 1102.474,416.127 Q1102.474,413.439 1103.658,411.359 Q1104.842,409.279 1106.89,408.159 Q1108.938,407.039 1111.466,407.039 Q1113.994,407.039 1116.042,408.159 Q1118.09,409.279 1119.274,411.359 Q1120.458,413.439 1120.458,416.127 Q1120.458,418.815 1119.242,420.895 Q1118.026,422.975 1115.93,424.111 Q1113.834,425.247 1111.306,425.247 z M1111.306,422.079 Q1112.714,422.079 1113.946,421.407 Q1115.178,420.735 1115.946,419.391 Q1116.714,418.047 1116.714,416.127 Q1116.714,414.207 1115.978,412.879 Q1115.242,411.551 1114.026,410.879 Q1112.81,410.207 1111.402,410.207 Q1109.994,410.207 1108.794,410.879 Q1107.594,411.551 1106.89,412.879 Q1106.186,414.207 1106.186,416.127 Q1106.186,418.975 1107.642,420.527 Q1109.098,422.079 1111.306,422.079 z" fill="#000000"/>
      <path d="M1131.222,409.919 Q1132.15,408.703 1133.75,407.871 Q1135.35,407.039 1137.366,407.039 Q1139.67,407.039 1141.574,408.175 Q1143.478,409.311 1144.566,411.359 Q1145.654,413.407 1145.654,416.063 Q1145.654,418.719 1144.566,420.815 Q1143.478,422.911 1141.574,424.079 Q1139.67,425.247 1137.366,425.247 Q1135.35,425.247 1133.782,424.431 Q1132.214,423.615 1131.222,422.399 L1131.222,433.343 L1127.574,433.343 L1127.574,407.327 L1131.222,407.327 L1131.222,409.919 z M1141.942,416.063 Q1141.942,414.239 1141.19,412.911 Q1140.438,411.583 1139.206,410.895 Q1137.974,410.207 1136.566,410.207 Q1135.19,410.207 1133.958,410.911 Q1132.726,411.615 1131.974,412.959 Q1131.222,414.303 1131.222,416.127 Q1131.222,417.951 1131.974,419.311 Q1132.726,420.671 1133.958,421.375 Q1135.19,422.079 1136.566,422.079 Q1137.974,422.079 1139.206,421.359 Q1140.438,420.639 1141.19,419.263 Q1141.942,417.887 1141.942,416.063 z" fill="#000000"/>
      <path d="M1168.93,415.711 Q1168.93,416.703 1168.802,417.503 L1155.33,417.503 Q1155.49,419.615 1156.898,420.895 Q1158.306,422.175 1160.354,422.175 Q1163.298,422.175 1164.514,419.711 L1168.45,419.711 Q1167.65,422.143 1165.554,423.695 Q1163.458,425.247 1160.354,425.247 Q1157.826,425.247 1155.826,424.111 Q1153.826,422.975 1152.69,420.911 Q1151.554,418.847 1151.554,416.127 Q1151.554,413.407 1152.658,411.343 Q1153.762,409.279 1155.762,408.159 Q1157.762,407.039 1160.354,407.039 Q1162.85,407.039 1164.802,408.127 Q1166.754,409.215 1167.842,411.183 Q1168.93,413.151 1168.93,415.711 z M1165.122,414.559 Q1165.09,412.543 1163.682,411.327 Q1162.274,410.111 1160.194,410.111 Q1158.306,410.111 1156.962,411.311 Q1155.618,412.511 1155.362,414.559 z" fill="#000000"/>
      <path d="M1179.662,409.887 Q1180.462,408.543 1181.79,407.791 Q1183.118,407.039 1184.942,407.039 L1184.942,410.815 L1184.014,410.815 Q1181.87,410.815 1180.766,411.903 Q1179.662,412.991 1179.662,415.679 L1179.662,424.959 L1176.014,424.959 L1176.014,407.327 L1179.662,407.327 L1179.662,409.887 z" fill="#000000"/>
    </g>
    <path d="M649.838,128.957 L1409.949,128.957 L1409.949,545.342 L649.838,545.342 L649.838,128.957 z" fill-opacity="0" stroke="#000000" stroke-width="0.5"/>
  </g>
</svg>
